<?xml version="1.0" encoding="utf-8"?>
<!-- Generator: Adobe Illustrator 25.2.1, SVG Export Plug-In . SVG Version: 6.00 Build 0)  -->
<svg version="1.1" id="Layer_1" xmlns="http://www.w3.org/2000/svg" xmlns:xlink="http://www.w3.org/1999/xlink" x="0px" y="0px"
	 viewBox="0 0 486.6 135.1" style="enable-background:new 0 0 486.6 135.1;" xml:space="preserve">
<style type="text/css">
	.st0{font-family:'Montserrat-Medium';}
	.st1{font-size:66.6px;}
	.st2{letter-spacing:-0.9;}
</style>
<g>
	<text transform="matrix(1.06 0 0 1 34.8599 92.2402)" class="st0 st1 st2">STATEMENT</text>
</g>
<g>
	<path d="M448.8,6.5c17.2,0,31.3,14,31.3,31.3v59.5c0,17.2-14,31.3-31.3,31.3h-411c-17.2,0-31.3-14-31.3-31.3V37.8
		c0-17.2,14-31.3,31.3-31.3H448.8 M448.8,1.5h-411c-20,0-36.3,16.2-36.3,36.3v59.5c0,20,16.2,36.3,36.3,36.3h411
		c20,0,36.3-16.2,36.3-36.3V37.8C485.1,17.7,468.8,1.5,448.8,1.5L448.8,1.5z"/>
</g>
</svg>
