<svg xmlns:dc="http://purl.org/dc/elements/1.1/" xmlns:cc="http://creativecommons.org/ns#" xmlns:rdf="http://www.w3.org/1999/02/22-rdf-syntax-ns#" xmlns:svg="http://www.w3.org/2000/svg" xmlns="http://www.w3.org/2000/svg" xmlns:sodipodi="http://sodipodi.sourceforge.net/DTD/sodipodi-0.dtd" xmlns:inkscape="http://www.inkscape.org/namespaces/inkscape" width="171.71878mm" height="47.764023mm" viewBox="0 0 608.45238 169.24259" id="svg2" version="1.1" inkscape:version="0.91 r13725" sodipodi:docname="drawing-1.svg">
  
  
  
  <g inkscape:label="Layer 1" inkscape:groupmode="layer" id="layer1" transform="translate(289.09426,-968.65591)">
    <g id="g4369" transform="translate(60,700)">
      
      
      
      
      
      
      
      
      
      
      
      
      
      
      
      
      
      
      
      
      
      
      
      
      
      
      
      
      
      
      
      
      
      
      
      
      
      
      
      
      
      
      
      
      
      
      
      
      <path style="" d="m -164.18993,437.38578 c 65.628748,-0.0417 173.0212518,-0.0417 238.650004,0 65.628756,0.0417 11.9325,0.0757 -119.325004,0.0757 -131.2575,0 -184.95376,-0.0341 -119.325,-0.0757 z m -120.67501,-0.57782 c -28.48545,-2.11437 -52.76912,-21.68046 -60.72318,-48.92648 -2.42676,-8.31267 -2.56442,-10.1728 -2.56958,-34.7207 -0.004,-19.5689 0.043,-21.62299 0.58022,-25.27417 2.20418,-14.98177 9.15151,-28.56376 20.00442,-39.10847 3.61594,-3.51326 5.91595,-5.35613 10.15812,-8.13916 8.57075,-5.62273 18.54581,-9.3195 28.5,-10.56214 3.57469,-0.44625 24.08225,-0.47881 245.85001,-0.39037 227.94979,0.0909 242.09755,0.12651 244.50001,0.61544 12.3132,2.50589 21.15021,6.34768 30.15339,13.10887 3.50466,2.63191 9.14832,8.13324 11.84883,11.55 8.33451,10.54501 13.45782,23.13683 14.70855,36.15 0.22134,2.30279 0.28902,10.43303 0.20358,24.45 -0.11859,19.45206 -0.17268,21.24325 -0.73386,24.3 -2.63841,14.37129 -8.58279,26.1224 -18.30426,36.18474 -10.56966,10.94024 -23.7003,17.72181 -39.23037,20.26126 -3.15069,0.51519 -13.8735,0.5403 -243.44587,0.57016 -132.0825,0.0172 -240.75751,-0.0139 -241.50001,-0.069 z m 481.67291,-2.51582 c 18.23748,-1.77323 35.18709,-11.26467 46.12635,-25.82981 6.9663,-9.27529 11.52621,-20.73396 12.77985,-32.11473 0.19614,-1.78057 0.32091,-10.83833 0.32091,-23.29747 0,-22.64268 -0.10977,-24.43537 -1.94052,-31.68935 -5.16372,-20.46011 -19.84506,-37.18553 -39.46743,-44.96252 -3.94569,-1.5638 -10.02807,-3.19572 -14.84619,-3.98327 -3.14763,-0.5145 -14.0166,-0.54309 -241.64587,-0.63572 -171.64351,-0.0698 -239.60941,-0.004 -242.85001,0.23381 -5.67061,0.41686 -11.19655,1.48531 -16.20488,3.13325 -21.41843,7.04749 -37.81179,24.78459 -43.1515,46.68855 -1.79837,7.37707 -1.84362,8.13854 -1.84362,31.0259 0,21.99517 0.0745,23.58449 1.39895,29.85 1.51401,7.16223 5.26315,16.16105 9.23922,22.17634 10.80974,16.35376 27.833,26.90581 47.18917,29.25073 2.81779,0.34136 42.7135,0.41388 242.49556,0.44076 166.71202,0.0224 240.11527,-0.0643 242.40001,-0.28647 z m -29.27289,-27.778 c -9.57999,-0.91805 -17.3001,-3.18904 -24.45,-7.19235 -16.9233,-9.47555 -27.26196,-25.82034 -27.96501,-44.21101 -0.58308,-15.25198 5.5434,-29.53469 17.31501,-40.36668 8.38971,-7.72005 19.22856,-12.74153 31.08183,-14.39978 5.34852,-0.74825 14.51922,-0.46391 19.61817,0.60826 20.0184,4.20935 36.0606,17.98719 42.12252,36.17692 2.03076,6.09363 2.40735,8.62483 2.40735,16.18128 0,5.86966 -0.0875,7.151 -0.67056,9.82471 -4.69866,21.54499 -21.67881,37.84443 -44.13135,42.36219 -4.81806,0.96945 -11.31945,1.40059 -15.32796,1.01646 z m 9.83682,-2.52069 c 18.74559,-2.04194 34.7226,-12.67346 42.7944,-28.47657 7.97358,-15.61084 7.0575,-34.2921 -2.39403,-48.82017 -12.64614,-19.43854 -36.73668,-28.60176 -60.08988,-22.85613 -20.38251,5.01474 -35.51193,20.44299 -39.54993,40.33108 -0.85083,4.19061 -0.76401,14.46869 0.15828,18.73912 3.34827,15.50292 13.31382,28.18896 27.79434,35.38184 9.83373,4.88469 20.66355,6.85801 31.28682,5.70083 z m -8.63988,-24.05767 c -0.54546,-0.37125 -1.27419,-1.05591 -1.61937,-1.52147 -0.60186,-0.81178 -0.63114,-1.24518 -0.71436,-10.575 -0.0478,-5.35069 -0.11526,-9.75636 -0.15,-9.79036 -0.0348,-0.034 -4.78821,-0.13526 -10.56321,-0.225 -10.49079,-0.16303 -10.5009,-0.1638 -11.51283,-0.88553 -1.31064,-0.93477 -2.25981,-3.02993 -2.00001,-4.41477 0.19998,-1.06595 1.58064,-2.86941 2.67897,-3.49933 0.44775,-0.25679 3.67317,-0.40759 10.98387,-0.51354 l 10.35,-0.15 0.15,-9.80364 c 0.1431,-9.35303 0.17886,-9.84254 0.77757,-10.65 1.08462,-1.46271 2.45295,-2.19636 4.09647,-2.19636 1.96107,0 3.40014,0.72292 4.37772,2.19919 l 0.79824,1.20541 0.15,9.6227 0.15,9.6227 10.2,0.15 c 9.60021,0.14118 10.26168,0.18623 11.24898,0.76622 3.09588,1.81866 3.19404,5.53964 0.2046,7.75619 -0.81051,0.60098 -1.28751,0.63395 -11.25,0.77759 l -10.40358,0.15 -0.15,9.6227 -0.15,9.6227 -0.79824,1.20541 c -0.43902,0.66298 -1.26942,1.42901 -1.84533,1.7023 -1.5339,0.72788 -3.7965,0.64743 -5.00949,-0.17811 z m -400.03528,3.96149 c -4.75235,-0.74603 -8.83582,-2.70061 -11.83745,-5.66608 -2.47986,-2.44998 -3.91324,-4.78559 -5.17768,-8.43667 -0.94758,-2.73614 -0.98164,-2.99905 -0.98897,-7.63374 -0.007,-4.20631 0.0793,-5.07829 0.69498,-7.05 1.17849,-3.77422 2.62114,-6.19984 5.28338,-8.88335 4.10446,-4.13725 8.70486,-5.9153 15.31406,-5.91888 6.02052,-0.003 10.03915,1.55069 13.7224,5.3063 1.3226,1.34858 2.17901,2.00203 2.475,1.88844 0.39317,-0.15087 0.4526,-1.77036 0.4526,-12.3331 l 0,-12.15941 5.1,0 5.1,0 0,30.3 0,30.3 -5.1,0 -5.1,0 0,-3.2679 c 0,-2.52723 -0.0954,-3.30451 -0.42078,-3.42938 -0.25317,-0.0971 -1.29944,0.69671 -2.62655,1.9929 -2.3812,2.32574 -4.84323,3.74126 -7.91302,4.54955 -2.25171,0.59288 -6.63878,0.80853 -8.97797,0.44132 z m 9.17108,-7.7927 c 6.57029,-1.24603 10.76724,-6.65962 10.76724,-13.88852 0,-8.54091 -5.4517,-14.00527 -13.97285,-14.00527 -8.38271,0 -13.92715,5.61324 -13.92715,14.1 0,9.47018 7.61267,15.59923 17.13276,13.79379 z m 50.82892,7.7927 c -4.75235,-0.74603 -8.83582,-2.70061 -11.83744,-5.66608 -2.47986,-2.44998 -3.91325,-4.78559 -5.17769,-8.43667 -0.94758,-2.73614 -0.98164,-2.99905 -0.98896,-7.63374 -0.007,-4.20631 0.0793,-5.07829 0.69497,-7.05 1.1785,-3.77422 2.62114,-6.19984 5.28338,-8.88335 4.10447,-4.13725 8.70486,-5.9153 15.31407,-5.91888 6.02051,-0.003 10.03915,1.55069 13.72239,5.3063 1.3226,1.34858 2.17901,2.00203 2.475,1.88844 0.39317,-0.15087 0.45261,-1.77036 0.45261,-12.3331 l 0,-12.15941 5.1,0 5.1,0 0,30.3 0,30.3 -5.1,0 -5.1,0 0,-3.2679 c 0,-2.52723 -0.0954,-3.30451 -0.42079,-3.42938 -0.25317,-0.0971 -1.29944,0.69671 -2.62655,1.9929 -2.3812,2.32574 -4.84322,3.74126 -7.91302,4.54955 -2.2517,0.59288 -6.63878,0.80853 -8.97797,0.44132 z m 9.17108,-7.7927 c 6.57029,-1.24603 10.76725,-6.65962 10.76725,-13.88852 0,-8.54091 -5.45171,-14.00527 -13.97285,-14.00527 -8.38272,0 -13.92715,5.61324 -13.92715,14.1 0,9.47018 7.61266,15.59923 17.13275,13.79379 z m 148.608851,7.49364 c -7.94598,-1.0391 -14.26863,-5.22691 -17.360101,-11.4985 -1.44093,-2.92315 -1.99548,-5.17438 -2.19303,-8.90268 -0.41817,-7.89222 2.79546,-14.67581 8.955301,-18.90367 6.00696,-4.1229 15.3648302,-5.26201 23.0562304,-2.80658 8.5222203,2.72068 13.1898606,10.21698 13.1982306,21.19656 l 0.003,2.32256 -17.3250007,0.0774 -17.3250003,0.0774 0.0297,1.0741 c 0.07581,2.74149 3.17898,6.88339 6.36771,8.49925 5.24352,2.65709 12.9358204,2.02619 18.1803005,-1.49108 l 2.0652001,-1.38507 2.5419001,2.54191 2.5419001,2.5419 -1.7633401,1.38553 c -5.4378902,4.27273 -13.3664704,6.26544 -20.9717707,5.27089 z m 16.1766606,-26.416 c -0.05949,-3.14451 -2.21487011,-6.55782 -5.1496502,-8.15513 -4.0078801,-2.18136 -10.1128804,-2.28894 -14.1027604,-0.24851 -3.04791,1.5587 -5.92287,5.60977 -6.2895,8.86247 l -0.1551,1.37624 12.86436,-0.0783 12.8643906,-0.0783 -0.03174,-1.67857 z M -315.44889,383.3927 c 0.009,-0.12756 5.92339,-12.92192 13.14348,-28.43192 l 13.12742,-28.2 5.68153,-0.072 5.68152,-0.072 12.88656,28.15663 c 7.0876,15.48614 12.9376,28.30977 13,28.49696 0.0819,0.24555 -1.42184,0.34034 -5.39926,0.34034 l -5.5127,0 -2.69633,-6.075 -2.69632,-6.075 -15.61791,-0.0777 -15.61792,-0.0777 -2.69579,6.07765 -2.6958,6.07765 -5.30226,0.0819 c -2.91625,0.0451 -5.29505,-0.0224 -5.28622,-0.15 z m 42.87352,-21.15692 c -0.006,-0.37125 -2.36197,-6.0075 -5.23606,-12.525 -4.63748,-10.5163 -5.30629,-11.86017 -5.94237,-11.94037 -0.67189,-0.0847 -1.05728,0.67067 -6.1571,12.0683 -3.03855,6.79087 -5.36298,12.3603 -5.2651,12.61537 0.1526,0.39767 1.6253,0.4567 11.39316,0.4567 l 11.2179,0 -0.0104,-0.675 z m 174.310438,-7.125 0,-28.5 5.074719,0 5.074717,0 15.592101,19.43573 c 8.575656,10.68965 15.807814,19.61475 16.071463,19.83356 0.263649,0.21881 0.68358,0.31947 0.933183,0.22369 0.398703,-0.153 0.453819,-2.56172 0.453819,-19.83357 l 0,-19.65941 5.1,0 5.1,0 0,28.5 0,28.5 -5.086446,0 -5.086446,0 -15.688555,-19.63346 c -8.628705,-10.7984 -15.923595,-19.71711 -16.210869,-19.81936 -0.287274,-0.10225 -0.658524,-0.10173 -0.825,10e-4 -0.198591,0.1227 -0.302685,6.93865 -0.302685,19.81933 l 0,19.63229 -5.100001,0 -5.1,0 0,-28.5 z m 129.292984,27.825 c -0.16179,-0.37125 -3.92196,-9.99 -8.35596,-21.375 -6.20436,-15.93074 -7.96974,-20.75361 -7.6623,-20.93268 0.21969,-0.12798 2.51691,-0.19548 5.10492,-0.15 l 4.70544,0.0827 5.62398,16.34349 c 3.291961,9.56654 5.821051,16.4678 6.099211,16.64326 0.30927,0.19508 0.56793,0.19735 0.7407,0.007 0.14604,-0.16129 2.74851,-7.68561 5.78328,-16.72072 l 5.51775,-16.42746 5.25,0.0775 5.25,0.0775 5.550001,16.41846 c 3.29502,9.74758 5.724,16.48654 5.97825,16.58602 0.23556,0.0922 0.59655,-0.006 0.8022,-0.21846 0.20568,-0.21231 2.83107,-7.70977 5.83425,-16.66102 l 5.46033,-16.275 5.02512,0 5.025121,0 -8.298061,21.525 -8.29809,21.525 -5.38125,0 -5.38125,0 -5.544091,-15.375 c -5.00661,-13.88438 -5.60733,-15.37501 -6.19623,-15.37501 -0.7239,0 -0.28794,-1.11771 -7.80882,20.0193 l -3.86748,10.86929 -5.33142,0.006 c -5.2443,0.006 -5.33625,-0.005 -5.625601,-0.6693 z m -379.650612,-29.625 c 0,-12.1275 0.0371,-17.08875 0.0825,-11.025 0.0454,6.06375 0.0454,15.98625 0,22.05 -0.0454,6.06375 -0.0825,1.1025 -0.0825,-11.025 z m 607.4996,0 c 0,-11.4675 0.0373,-16.15875 0.0829,-10.425 0.0456,5.73375 0.0456,15.11625 0,20.85 -0.0456,5.73375 -0.0829,1.0425 -0.0829,-10.425 z m -424.56697,-84.225 c 66.453748,-0.0417 175.1962518,-0.0417 241.650004,0 66.453756,0.0417 12.0825,0.0757 -120.825004,0.0757 -132.9075,0 -187.27876,-0.0341 -120.825,-0.0757 z" id="path4371" inkscape:connector-curvature="0"/>
    </g>
  </g>
</svg>