<!-- Generated by IcoMoon.io -->
<svg version="1.1" xmlns="http://www.w3.org/2000/svg" width="32" height="32" viewBox="0 0 32 32">
<title>arrow-down</title>
<path d="M31.909 7.718c-0.206-0.206-0.491-0.333-0.806-0.333s-0.599 0.127-0.806 0.333v0l-14.162 14.19-14.192-14.19c-0.206-0.206-0.491-0.334-0.806-0.334-0.629 0-1.139 0.51-1.139 1.139 0 0.315 0.128 0.599 0.334 0.806l14.97 14.967c0.201 0.206 0.482 0.334 0.792 0.334 0.004 0 0.009-0 0.013-0h-0.001c0.314-0.002 0.598-0.129 0.805-0.334l14.965-14.968c0.221-0.205 0.359-0.496 0.359-0.82 0-0.308-0.125-0.588-0.327-0.79v0z"></path>
</svg>
