<?xml version="1.0" encoding="utf-8"?>
<!-- Generator: Adobe Illustrator 25.2.1, SVG Export Plug-In . SVG Version: 6.00 Build 0)  -->
<svg version="1.1" id="Layer_1" xmlns="http://www.w3.org/2000/svg" xmlns:xlink="http://www.w3.org/1999/xlink" x="0px" y="0px"
	 viewBox="0 0 512 512" style="enable-background:new 0 0 512 512;" xml:space="preserve">
<style type="text/css">
	.st0{fill:#FFFFFF;}
</style>
<g>
	<path class="st0" d="M395.9,149c-2.5,7.6-4.1,13.4-5.8,19.3c-7.6,20.1-15.8,40.1-21.8,61c-3.3,11.7-6.8,25.1-6.8,37.6
		c-0.8,46.8,0,93.7-0.8,140.5c0,4.9-0.8,10.9-1.6,16.7c-37.6,0-72.7,0-108.7,0c-16.7,0-18.5-1.6-18.5-19.3c0-53.4,0-107,0-162.1
		c-6.8,0-14.2,0-20.9,0c-0.8,3.3-1.6,5.8-1.6,9.2c0,54.3-0.8,109.5,0,163.8c0,20.1,13.4,31.8,34.3,31.8c25.9,0,51.8,0,76.9,0
		c22.6,0,45.2,0,67.8,0c20.1,0,31-10.9,31.8-30c0-4.9,0-10.1,0-15c0-68.6,0-137.9,0-206.5c0-13.4,0-27.5,0-40.9
		c-0.8-18.5-9.2-27.5-26.7-28.4c-40.1-0.8-80.3,0-119.6,0c-13.4,0-21.8,7.6-26.7,20.1c-4.1,11.7-8.4,22.6-12.5,33.5
		c-0.8,3.3-1.6,6.8-2.5,10.9c8.4,0,15.8,0,23.4,0c4.9-14.2,10.9-26.7,15.8-40.1C312.3,149,353.2,149,395.9,149z M178.5,197.4
		c10.9,10.1,18.5,17.5,26.7,24.2c4.1,3.3,9.2,6.8,14.2,6.8c20.1,0.8,40.1,0.8,61,0c10.1,0,15.8-4.9,15.8-13.4s-5.8-12.5-15.8-12.5
		c-15.8,0-31,0-46.8,0c-6.8,0-12.5-1.6-16.7-7.6c-9.2-10.1-17.5-20.1-27.5-29.2c-4.9-4.1-10.9-8.4-17.5-10.9
		c-15-4.1-31-7.6-46.8-11.7c-14.2-3.3-22.6,2.5-24.2,16.7c-0.8,11.7-1.6,23.4-2.5,36c-2.5,44.4-4.9,87.8-7.6,132.1
		c-1.6,32.7-3.3,65.2-4.9,97.8c-0.8,11.7,5.8,19.3,15,20.1c9.2,0.8,15.8-5.8,17.5-16.7c0-2.5,0-4.1,0.8-6.8
		c2.5-36.8,5.8-74.4,8.4-111.2c0.8-5.8,2.5-10.9,3.3-17.5c10.9,1.6,10.1,10.1,10.9,15.8c4.1,40.1,7.6,79.5,10.9,119.6
		c0.8,12.5,8.4,18.5,18.5,17.5c9.2-0.8,15-8.4,14.2-20.1c-3.3-51-6.8-101.9-11.7-152.1C171.9,249.2,176,225,178.5,197.4z
		 M299.7,238.4c15.8,0,31,0.8,45.2-0.8c3.3,0,8.4-4.9,10.1-9.2c6.8-17.5,12.5-35.1,18.5-53.4c3.3-10.9,0.8-15-10.1-15
		c-25.1,0-50.1,0-76,0c-3.3,0-9.2,1.6-10.9,4.1c-4.1,7.6-5.8,15.8-9.2,23.4C308.1,195.8,315.6,205.9,299.7,238.4z M155.1,64.5
		c-20.1,0-36,15-36,35.1c0,20.9,15,37.6,36,37.6c20.1,0,36.8-15.8,37.6-36C191.9,81.2,176,64.5,155.1,64.5z M297.3,273.5
		c12.5,0,25.1,0,36.8,0c7.6,0,15-0.8,15.8-10.9c0.8-7.6-4.9-11.7-16.7-12.5c-24.2,0-48.5,0-72.7,0c-10.9,0-16.7,4.1-16.7,11.7
		c0,6.8,4.9,10.9,15.8,10.9C273,273.5,284.7,273.5,297.3,273.5z"/>
	<path d="M395.9,149c-42.6,0-83.6,0-125.4,0c-4.9,13.4-10.1,26.7-15.8,40.1c-7.6,0-14.2,0-23.4,0c0.8-4.1,0.8-7.6,2.5-10.9
		c4.1-10.9,9.2-22.6,12.5-33.5c4.1-12.5,13.4-20.1,26.7-20.1c40.1,0,80.3-0.8,119.6,0c18.5,0,25.9,9.2,26.7,28.4
		c0.8,13.4,0,27.5,0,40.9c0,68.6,0,137.9,0,206.5c0,4.9,0,10.1,0,15c-1.6,19.3-12.5,30-31.8,30c-22.6,0-45.2,0-67.8,0
		c-25.9,0-51.8,0-76.9,0c-20.9,0-33.5-11.7-34.3-31.8c-0.8-54.3,0-109.5,0-163.8c0-2.5,0.8-4.9,1.6-9.2c7.6,0,14.2,0,20.9,0
		c0,54.3,0,107.9,0,162.1c0,17.5,1.6,19.3,18.5,19.3c36,0,71.9,0,108.7,0c0.8-5.8,1.6-11.7,1.6-16.7c0-46.8,0-93.7,0.8-140.5
		c0-12.5,2.5-25.1,6.8-37.6c6.8-20.9,14.2-40.9,21.8-61C391.8,162.3,393.4,156.5,395.9,149z"/>
	<path d="M178.5,197.4c-1.6,27.5-5.8,51.8-4.1,76.9c4.1,51,7.6,101.9,11.7,152.1c0.8,11.7-4.9,19.3-14.2,20.1
		c-10.1,0.8-17.5-4.9-18.5-17.5c-4.1-40.1-7.6-79.5-10.9-119.6c-0.8-6.8,0-14.2-10.9-15.8c-1.6,6.8-3.3,11.7-3.3,17.5
		c-3.3,36.8-5.8,74.4-8.4,111.2c0,2.5,0,4.9-0.8,6.8c-1.6,11.7-8.4,17.5-17.5,16.7c-9.2-0.8-15-8.4-15-20.1
		c1.6-32.7,3.3-65.2,4.9-97.8c2.5-44.4,4.9-87.8,7.6-132.1c0.8-11.7,0.8-24.2,2.5-36c1.6-14.2,10.1-20.1,24.2-16.7
		c15.8,3.3,31.8,6.8,46.8,11.7c5.8,1.6,12.5,5.8,17.5,10.9c10.1,9.2,18.5,19.3,27.5,29.2c4.9,4.9,10.1,7.6,16.7,7.6
		c15.8,0,31,0,46.8,0c10.9,0,15.8,4.9,15.8,12.5c0,8.4-4.9,13.4-15.8,13.4c-20.1,0-40.1,0.8-61,0c-4.9,0-10.1-3.3-14.2-6.8
		C197,214.9,189.4,207.5,178.5,197.4z"/>
	<path d="M299.7,238.4c15-31.8,8.4-42.6-31.8-49.3c2.5-8.4,4.9-16.7,9.2-23.4c1.6-2.5,6.8-4.1,10.9-4.1c25.1,0,50.1-0.8,76,0
		c10.9,0,14.2,4.1,10.1,15c-5.8,17.5-11.7,36-18.5,53.4c-1.6,4.1-6.8,8.4-10.1,9.2C330.7,238.4,316.4,238.4,299.7,238.4z"/>
	<path d="M155.1,64.5c20.1,0,36.8,16.7,36.8,36.8s-17.5,36.8-37.6,36c-20.1,0-36-16.7-36-37.6C119.1,80.3,135.1,64.5,155.1,64.5z"/>
	<path d="M297.3,273.5c-12.5,0-25.1,0-36.8,0c-10.9,0-15.8-4.1-15.8-10.9c0-7.6,5.8-11.7,16.7-11.7c24.2,0,48.5,0,72.7,0
		c11.7,0,16.7,4.1,16.7,12.5c-0.8,10.1-7.6,10.9-15.8,10.9C322.3,273.5,309.8,273.5,297.3,273.5z"/>
</g>
</svg>
