<svg id="Layer_1" data-name="Layer 1" xmlns="http://www.w3.org/2000/svg" viewBox="0 0 1034.67 1080"><path d="M591.33,332.36a17.86,17.86,0,0,1,17.84,17.83,12.2,12.2,0,0,0,24.4,0,42.31,42.31,0,0,0-30-40.42v-6.11a12.21,12.21,0,0,0-24.41,0v6.11a42.23,42.23,0,0,0,12.2,82.66,17.82,17.82,0,1,1,.22,35.64h-.43a17.84,17.84,0,0,1-17.61-17.82,12.21,12.21,0,0,0-24.41,0,42.32,42.32,0,0,0,30,40.42v7.48a12.21,12.21,0,0,0,24.41,0v-7.48A42.22,42.22,0,0,0,591.33,368a17.83,17.83,0,0,1,0-35.66Z"/><path d="M49.78,568.33c4.2-9.65,11.59-12.86,22-12.62,53.48,1.23,105.59,8.93,154.77,31.33,1.42.65,2.86,1.27,4.26,2C250,598.67,250.7,600,249.19,621.3l66.69,16.14Q435,666.27,554.12,695.15C589.93,703.9,612.93,729.78,618,766c.18,1.25.61,2.47,1.12,4.48,17.93-5.47,35.35-11.76,53.25-16,23.82-5.63,47.83-11.8,72.1-13.89,40.18-3.47,74.8,9.2,98.84,43.8a82.45,82.45,0,0,1,6.84,12.3c5.75,12.38,3.27,20.4-9,26.45-39.54,19.56-78.91,39.52-118.94,58-56.41,26.1-113.74,50.09-174,66-16.34,4.32-33.14,6.89-49.73,10.26H468.73a24.26,24.26,0,0,0-3.57-1.29c-18.41-3.68-37.07-6.39-55.2-11.1-59.26-15.39-115.85-38.31-171.91-62.58-16.64-7.2-33.17-14.66-50.3-22.25-1.17,4.46-2.18,8.2-3.13,12-3.78,15-7.78,18.17-23.49,18.18-29.54,0-59.08-.31-88.6.18-10.14.17-17.73-2.64-22.75-11.55ZM196.17,826.55c2.07,1.16,3.59,2.15,5.22,2.88,19.05,8.54,38,17.33,57.22,25.49,57.69,24.5,115.68,48.43,177.1,62,19.18,4.24,39.32,6.64,58.9,6,32.63-1,63.42-12.22,94-23,76.24-26.92,149-61.68,221.06-98.06a24.23,24.23,0,0,0,3-2.13c-8.52-12.15-22.87-21-39.33-24.28-24.53-4.87-48.51-.73-72,5.81-35.18,9.79-70,20.85-105.12,30.86-25.69,7.32-51.89,13.65-78.76,10.87s-53.95-6.53-80.4-12.27c-24.67-5.35-48.74-13.57-72.88-21.15-12.54-3.94-16.77-16.41-9.77-26,4.66-6.4,11.78-8,21.07-5.36,26.83,7.7,53.5,16.08,80.61,22.64,40.81,9.88,82,13.52,123.19,1.35,4.71-1.39,6.2-3.18,6-8-.73-23.22-16.19-41.14-41.64-47.31q-126.74-30.69-253.52-61.24c-16.43-4-32.87-7.89-50-12C225.3,711.74,210.75,769.07,196.17,826.55ZM83.48,857.05c21.33,0,42-.27,62.56.17,6.12.13,8.5-1.73,10-7.63,11-44.33,22.27-88.57,33.48-132.84,8.24-32.58,16.49-65.16,24.92-98.45-41.79-18.83-85.32-27.06-130.92-28.48Z"/><path d="M602.19,219.55c6.07-6.58,11.44-12.28,16.68-18.1,35-38.89,78.16-56.07,129.67-43.48s83.63,47.39,98,97.37c15.7,54.79,4.39,104.77-34.34,147.18-64.71,70.86-130,141.24-195,211.8-10.48,11.37-19.74,11.23-30.39-.33q-97.56-105.86-195.1-211.73c-58.95-64.08-52.6-166.55,13.47-219.54,51.75-41.5,123.85-37.62,171.25,9.38C585.05,200.72,593.16,209.91,602.19,219.55Zm.07,361.8c64.28-70,128.66-138.3,190.93-208.53,29.3-33.05,33.95-73.5,19.27-115-28.09-79.3-121.34-90.54-168.71-34-8.38,10-17.61,19.33-26.54,28.88-10.35,11.05-19.73,11.09-30,.08-10.7-11.47-21-23.28-32-34.53-21-21.6-46.44-33.07-76.77-30.26-41.65,3.84-69.71,27.48-84.74,65.18-18.33,46-11,89,22.54,126.07,43.69,48.27,88.12,95.88,132.24,143.77C566.19,542.26,583.9,561.44,602.26,581.35Z"/></svg>