<svg id="Layer_1" data-name="Layer 1" xmlns="http://www.w3.org/2000/svg" viewBox="0 0 1034.67 1080"><path d="M186.77,998c-15.58-4.4-30.86-9.37-43.37-20.39q-30.42-26.8-30.48-67.27,0-99.06,0-198.11,0-242.6,0-485.19c0-42.52,26-76.58,65.84-86.16A100.74,100.74,0,0,1,202,138.39q168.69-.24,337.38-.09c52,0,88.75,36.74,89.09,88.61.06,8.4.15,16.8-.06,25.19-.22,8.75-5.86,14.82-13.64,15.14-8,.33-14.5-6-14.81-15-.35-10.35.09-20.72-.29-31.06-1.08-29.86-26.65-54.48-56.49-54.07-3,0-7.17,2.81-8.59,5.48-9.28,17.52-18.13,35.29-26.79,53.13-8.84,18.23-23,27.15-43.37,27.08q-93.58-.32-187.16,0c-20.48.1-34.58-8.79-43.49-26.9-8.77-17.79-17.88-35.42-26.49-53.29-2.14-4.45-4.7-5.93-9.57-5.82a57.45,57.45,0,0,0-56.09,57.52c-.33,53.72-.14,107.45-.14,161.17q0,261.06,0,522.13c0,37.46,24,61.68,61.2,61.7q168.27.06,336.54,0c34.81,0,57.87-21.52,60.6-56.23.77-9.67,7-16,15.28-15.42s13.28,6.88,13.29,16.28c0,39-29.2,74-68.59,82.28a55.46,55.46,0,0,0-5.4,1.72ZM505,167.44H236.63c8.54,17,16.18,33.47,25.1,49.19,2.12,3.72,8.5,7.08,12.95,7.11q96.09.7,192.2.11c4.11,0,10.14-2.59,12-5.84C488,201.82,496.07,185,505,167.44Z"/><path d="M972.44,794.82c-2.45,7.64-4.08,15.68-7.51,22.84-16.35,34.08-43.69,51.23-81.55,51.24q-149.83,0-299.65,0c-33,0-66,.32-99.05-.11-42.46-.54-76.48-29.68-83.93-71.52-1.12-6.28-1.11-12.81-1.14-19.23-.14-26.31-.3-52.61.06-78.91.08-6-2-8.93-7.06-11.6-48.66-25.72-97.15-51.79-145.83-77.49-11.27-5.94-19.1-14-19.26-27.17-.18-13.49,7.63-21.92,19.22-28,48.44-25.56,96.66-51.53,145.12-77.05,5.67-3,8-6.15,7.88-12.79-.44-26.58-.29-53.17-.16-79.76.27-52.72,36.68-89.2,89.23-89.23q196.84-.12,393.67,0C929,296,961,322.06,971.16,368a7.76,7.76,0,0,0,1.28,2.05Zm-716-212.47c3.59,2,6,3.37,8.44,4.67,50.29,26.84,100.51,53.8,150.94,80.37,9.07,4.77,12.8,11.09,12.65,21.34-.46,30.49-.3,61-.19,91.5.13,36,24.11,60,60,60q197.65.07,395.3,0c36,0,60.23-24.1,60.25-59.86q.13-197.7.05-395.38c0-36.18-24.4-60.34-60.75-60.35q-197.22,0-394.46.05c-36.53,0-60.19,23.77-60.32,60.49q-.17,46.59,0,93.18c0,8.46-3.13,14.23-10.8,18.16-15.42,7.89-30.59,16.28-45.87,24.43C333.66,541.18,295.7,561.4,256.4,582.35Z"/><path d="M370.63,940.78c-36.64,0-73.28.06-109.91-.09-3.81,0-8-.44-11.35-2.05-5.86-2.83-8.25-8.27-7.13-14.73s5.17-10.39,11.66-11.5a39.3,39.3,0,0,1,6.7-.25H481.26c1.39,0,2.8,0,4.19.05,8.35.52,13.8,5.85,14,13.66a13.92,13.92,0,0,1-13.07,14.72c-6.95.58-14,.24-21,.24h-94.8Z"/><path d="M551,734.05c3.45-28,7-58.83,11.23-89.57,1.17-8.48-.48-14.5-6.58-20.82-20.39-21.14-40-43-60.06-64.48-8.49-9.06-12.48-19.13-8.71-31.37,3.89-12.62,13.19-18.78,25.67-21.17,30.18-5.78,60.38-11.47,90.45-17.77a17.74,17.74,0,0,0,10.52-7.75c15.06-26.47,29.7-53.18,44.15-80,6.19-11.49,14.79-19.13,28.23-19.11s22.1,7.46,28.29,19c14.4,26.84,29.31,53.41,43.73,80.24a14,14,0,0,0,10.77,7.86c29.65,5.58,59.22,11.53,88.87,17.1,13,2.44,23.23,8.21,27.47,21.46,4.14,13-1,23.29-9.78,32.69-20.86,22.24-41.61,44.59-62,67.23a16.63,16.63,0,0,0-3.76,11.57c3.44,31.4,7.42,62.74,11.32,94.09,1.51,12.11-2,22.24-11.86,29.56-9.6,7.15-20.27,7.67-31,2.7-28.61-13.32-57-27-85.74-40.13a16.54,16.54,0,0,0-12.2-.12c-28.75,13-57.14,26.83-85.85,39.92C572.08,775.29,550.27,760.77,551,734.05Zm28.18,6.35c4.49-2,7-3,9.52-4.17,29.08-13.64,58.23-27.14,87.18-41.06,6.94-3.34,13-3.42,19.91-.11,28.2,13.52,56.56,26.74,84.87,40.05,3.43,1.62,6.92,3.12,11.06,5a65.94,65.94,0,0,0,0-6.73c-4-32.46-7.86-64.94-12.09-97.38-1.18-9,.76-16,7.25-22.74,22-23,43.52-46.63,65.2-70,1.81-2,3.49-4,5.91-6.85-3-.91-4.77-1.6-6.58-2-31.53-6.15-63-12.46-94.63-18.27-9.17-1.69-15.6-5.33-20.13-14.08-11.83-22.82-24.56-45.17-37-67.69-4.27-7.76-8.62-15.47-13.37-24-1.92,3.32-3.35,5.69-4.7,8.11-15.52,27.83-31.27,55.53-46.36,83.59-4.43,8.23-10.37,12.24-19.36,13.89-32.14,5.91-64.19,12.33-96.26,18.62a36.65,36.65,0,0,0-5.49,2.11c2.45,2.78,4.24,4.89,6.12,6.92,22,23.82,44.28,47.46,65.92,71.64,3.53,3.94,6.52,10.43,6.13,15.47-1.48,19.49-4.44,38.87-6.83,58.29C583.42,705.61,581.41,722.2,579.19,740.4Z"/></svg>