<svg id="Layer_1" data-name="Layer 1" xmlns="http://www.w3.org/2000/svg" viewBox="0 0 1034.67 1080"><path d="M204.7,527.45c-21.17-2.69-21.17-2.69-21.17-24.09V470.05c-12.94,0-25.29,0-37.64,0-13.32,0-16.84-3.46-16.88-16.51q-.06-22.41,0-44.81c0-13,3.72-16.54,17-16.63,4.12,0,8.24,0,13,0V361.91c-5.7,0-11.15.11-16.59,0-8.61-.21-13.14-4.14-13.29-12.48-.27-16.32-.13-32.64,0-49,.06-7.66,5.25-10.79,11.73-13.09q80.82-28.69,161.55-57.6c71-25.34,142-50.78,213.17-75.79a26.76,26.76,0,0,1,16.53-.14q187.46,66.41,374.72,133.37c8.6,3.07,12.32,8.13,12,17.25-.44,13.82-.1,27.66-.17,41.5-.06,12.2-3.74,15.9-15.72,16-4.41,0-8.83,0-14,0V392.1c5.21,0,10.61-.18,16,0,9.43.38,13.61,4.53,13.72,14q.3,24.9.06,49.8c-.09,10-4.23,14-14.25,14.08-13,.12-25.95,0-40.23,0v34c0,21,0,21-21.12,23.39V766.89c.51.22,1.26.87,2,.82,14.6-1,20,2.39,19.23,21-.49,11.57-.09,23.17-.09,35.92,13.14,0,25.76,0,38.38,0s16.08,3.63,16.1,16.43q.06,41.49,0,83c0,13.1-3.71,16.83-16.75,16.84l-489.68,0H146.62c-14.16,0-17.62-3.43-17.62-17.6q0-40.66,0-81.33c0-14.2,3.22-17.34,17.67-17.37h36.86V791.29c0-21.44,0-21.44,21.16-24.14ZM722.6,767.11V527.45c-21.3-2.74-21.28-2.74-21.19-24,.05-10.95,0-21.9,0-32.75H346.22v31.37c0,21.93,0,21.93-21.31,25.6V767.26c1.6.24,2.91.56,4.23.63,14.93.77,17.07,3,17.08,17.84,0,12.65,0,25.3,0,38.29H701.44v-32.8C701.44,770,701.44,770,722.6,767.11ZM152.33,338.21h743c0-7.83-.49-15.26.15-22.6.53-6.24-2.18-8.52-7.63-10.46Q709.19,241.57,530.55,177.84a21.55,21.55,0,0,0-13.36,0Q407.87,216.51,298.73,255.7q-69.44,24.81-138.79,49.79c-2.88,1-7,3.75-7.26,6C151.83,320.2,152.33,329,152.33,338.21Zm742.74,510.1H152.91V917H895.07Zm-.16-432.46H152.71v30.4h742.2Zm-711.6-24.27H864.1v-29H183.31ZM229,767.34H300.7V527.25H229Zm589.44.14V527.33H747.11V767.48ZM207.19,470.37v32.55H322.41V470.37Zm633.28.23H725.38V503H840.47ZM207.17,824H322.3V791.65H207.17Zm633.26-32.17H725.36v32.31H840.43Z"/><path d="M402.15,647.47c.26-67.86,54.53-122.19,121.71-121.87,68.2.33,122.07,54.69,121.61,122.73A121.39,121.39,0,0,1,523.38,769C456.45,768.9,401.89,714.21,402.15,647.47ZM523.7,745.72c55-.23,98.54-43.72,98.53-98.5s-43.75-98.27-98.67-98.3A98.12,98.12,0,0,0,425.45,647C425.51,701.93,469.32,746,523.7,745.72Z"/><path d="M533,716c-.16,2.15-.42,5.41-.69,9-1.79.23-3.38.58-5,.62-3.55.09-7.1,0-11.15,0-.39-4.33-.72-8.06-1.1-12.33-16.2-2.63-30.75-8.69-43.06-20.41l12.28-15.33,31,16.3V655.71c-20.78-6.2-40.6-13.25-38-40.9,1.6-17.43,14.65-29.6,37.85-34.57.28-3.26.58-6.72.92-10.71h16.12c.39,3.44.78,6.88,1.15,10.18,7,2.19,14.09,3.7,20.54,6.59s12.26,7.15,18.94,11.16l-12.57,17c-6.87-3.74-13.1-7.24-19.44-10.51-1.9-1-4.13-1.32-7.84-2.45,0,11.41-.16,22,.21,32.59,0,1.29,2.74,2.93,4.52,3.62,5.9,2.29,12.07,3.94,17.92,6.36,28.54,11.82,24,48.74,5.07,60.2C552.57,709.16,543.13,711.79,533,716Zm.35-22.74C547,690.26,553,684,552,674.92c-.86-7.48-8.64-13-18.6-13.32Zm-18.06-92c-10.16,3.51-15.73,10.29-14.48,17.52,1.34,7.78,7,11,14.48,12.47Z"/></svg>