<svg id="Layer_1" data-name="Layer 1" xmlns="http://www.w3.org/2000/svg" viewBox="0 0 1034.67 1080"><path d="M985.92,564.37a52.12,52.12,0,0,0-52.12-52.12h-124a52.12,52.12,0,0,0-32.43-75.46c-6-130-110.28-234.86-240.11-241.72V176.86h88.41a13.54,13.54,0,0,0,13.54-13.54v-72a13.54,13.54,0,0,0-13.54-13.54H523.7a13.54,13.54,0,0,0-13.54,13.54V195.1a253.33,253.33,0,0,0-118.81,36.78A13.54,13.54,0,1,0,405.48,255a226.49,226.49,0,0,1,118.22-33.2c120.53,0,219.39,94.49,226.42,213.29H570.42l-24.94-14.19a44.19,44.19,0,0,0-43.55,0L477,435.08H297.28A224.9,224.9,0,0,1,365.16,286.4,13.54,13.54,0,0,0,346.23,267a251.76,251.76,0,0,0-76.17,169.76,52.1,52.1,0,0,0-32.43,75.46h-124a52.12,52.12,0,0,0-36.86,89,51.62,51.62,0,0,0,28.66,14.62V988.68A13.54,13.54,0,0,0,119,1002.22h809.5A13.55,13.55,0,0,0,942,988.68V615.85a52.19,52.19,0,0,0,43.92-51.48ZM612.11,149.78H537.25V104.86h74.86Zm152,312.38a25,25,0,0,1,0,50.09H706l-88-50.09ZM515.32,444.43h0a17,17,0,0,1,16.77,0L775.27,582.81c8.35,4.76,9.61,13,8,19.06s-6.76,12.6-16.35,12.61H280.52c-9.61,0-14.77-6.51-16.38-12.61s-.36-14.3,8-19.06Zm-257,42.78a25.07,25.07,0,0,1,25-25H429.4l-88,50.09H283.33a25.07,25.07,0,0,1-25-25ZM88.56,564.37a25.08,25.08,0,0,1,25-25H293.79l-35,19.94a43.54,43.54,0,0,0-21.58,30.15H113.61a25.06,25.06,0,0,1-25-25Zm43.93,375.5h54.9a13.54,13.54,0,0,0,13.54-13.54V668.62a13.54,13.54,0,0,0-13.54-13.54h-54.9V616.5H240.78a43.21,43.21,0,0,0,26.2,23v281.9h-3a13.54,13.54,0,0,0-13.54,13.54v40.22h-118Zm0-27.08V682.16h41.35V912.79Zm145.08,62.35V948.46H769.83v26.68Zm130.36-53.76H352.55V718.44a27.7,27.7,0,0,1,55.39,0Zm143.46,0H496V718.44a27.7,27.7,0,0,1,55.39,0Zm143.45,0H639.47V718.44a27.69,27.69,0,1,1,55.38,0Zm102.06,53.76V934.92a13.54,13.54,0,0,0-13.54-13.54h-2.94V844.09a13.54,13.54,0,1,0-27.08,0v77.29H721.94V718.44a54.78,54.78,0,0,0-109.55,0V921.38H578.48V718.44a54.78,54.78,0,0,0-109.55,0V921.38H435V718.44a54.78,54.78,0,0,0-109.55,0V921.38H294.06V641.56H753.35V789.92a13.54,13.54,0,0,0,27.08,0V639.47a43.16,43.16,0,0,0,26.2-23H914.91v38.58H860a13.54,13.54,0,0,0-13.54,13.54V926.33A13.54,13.54,0,0,0,860,939.87h54.89v35.27Zm118-293V912.79H873.56V682.16Zm18.89-92.74H810.23a43.56,43.56,0,0,0-21.57-30.15l-35-19.94H933.8a25,25,0,0,1,0,50.09Z"/></svg>