<svg id="Layer_1" data-name="Layer 1" xmlns="http://www.w3.org/2000/svg" viewBox="0 0 1034.67 1080"><path d="M418.3,549.31A24.51,24.51,0,0,0,383.64,584l76.24,76.24a24.5,24.5,0,0,0,34.66,0L647,507.73a24.5,24.5,0,0,0-34.65-34.66L477.21,608.23Z"/><path d="M825.6,264.25A189.4,189.4,0,0,1,657.66,163,24.51,24.51,0,0,0,636,149.89H394.69A24.51,24.51,0,0,0,373,163,189.46,189.46,0,0,1,204.92,264.25a24.51,24.51,0,0,0-24.51,24.51V538.31A468.69,468.69,0,0,0,508,985.23a24.46,24.46,0,0,0,14.76,0A468.66,468.66,0,0,0,850.25,538.31V288.76a24.63,24.63,0,0,0-24.65-24.51ZM801.24,538.31c0,181.37-114.57,340.25-285.91,397.78C344,878.56,229.43,719.68,229.43,538.31V312A238.13,238.13,0,0,0,408.94,198.9H621.73A238.15,238.15,0,0,0,801.24,312Z"/><path d="M602.9,256.91a24.52,24.52,0,0,0-19-9H446.74a24.51,24.51,0,0,0-19,9,286.23,286.23,0,0,1-132.48,90.95,24.5,24.5,0,0,0-16.85,23.28V538.32c0,150.08,89.28,284.28,227.46,341.9a24.62,24.62,0,0,0,18.87,0C663,822.6,752.23,688.4,752.23,538.32V371.15a24.52,24.52,0,0,0-16.85-23.28,286.25,286.25,0,0,1-132.48-91ZM703.22,538.32c0,126.78-73.41,240.5-187.89,292.55-114.47-52-187.88-165.77-187.88-292.55V388.38A334.93,334.93,0,0,0,458.1,296.92H572.57a335,335,0,0,0,130.65,91.47Z"/></svg>