<svg id="Layer_1" data-name="Layer 1" xmlns="http://www.w3.org/2000/svg" viewBox="0 0 1034.67 1080"><path d="M950.89,826c-5.7,17.37-15.3,31.27-34,36.28a69.1,69.1,0,0,1-17.74,2.07q-265,.15-530.08.07a45.6,45.6,0,0,1-8.52-.55c-6.1-1.18-9.46-5.26-9.87-11.3-.43-6.41,2.44-11.32,8.82-12.94,4.07-1,8.47-1,12.72-1q260.76-.06,521.51,0c3.14,0,6.29.1,9.42,0,13.4-.6,21.82-8.84,21.9-22.33q.31-52.25,0-104.47C925,697,916,689,900.07,689q-118.61,0-237.21,0c-13.25,0-19.41-3.91-19.72-12.49-.33-8.94,6.09-13.26,19.74-13.26H749c1-27.66,2-54.41,2.92-81.17q5.52-169.88,11-339.76c.15-4.56.39-9.13.81-13.67,1.87-20.22,17.37-34.16,37.25-33.58,19.73.57,34.57,15.49,35.24,35.75q6.12,184,12.13,368c.7,21.07,1.51,42.13,2.31,64.43h27.46c8.85,0,17.7-.13,26.55.07,19.67.47,36.16,12.34,43.24,30.84.88,2.32,2,4.56,3,6.83ZM822.52,663c0-22.72.56-44.65-.1-66.54q-4.26-142.53-9.11-285c-.86-26.24-1.88-52.49-2.78-78.73-.25-7-3.28-11.64-10.7-11.7-7-.07-10.17,4.28-10.56,10.91-.36,6-.66,12-.86,18q-6.69,202.84-13.35,405.7c-.08,2.41,0,4.83,0,7.43Z"/><path d="M276.15,663.24H595.87c2.57,0,5.14-.09,7.71,0,8.23.41,13.33,5.13,13.52,12.42.2,7.67-5,12.8-13.59,13.25-2.57.14-5.14,0-7.71,0H127.3c-20.42,0-27.74,7.33-27.75,27.79q0,47.54,0,95.07c0,19.42,7.37,26.72,27,26.73q88.65,0,177.29,0a49.62,49.62,0,0,1,11.05.83c6.39,1.47,9.59,6,9.41,12.5s-3.6,10.74-10.08,12a45.64,45.64,0,0,1-8.52.52q-89.51,0-179,0c-34.13,0-52.88-18.89-52.89-53,0-32.84-.07-65.67,0-98.5.08-29.55,19.89-49.51,49.29-49.7,16.54-.11,33.09,0,50.45,0,.35-2.74.85-5.15.93-7.57q2.81-85.6,5.57-171.2c.11-3.37.22-6.94,1.35-10.05,2.21-6.13,7.57-9.76,13.41-7.61,4.31,1.57,7.81,6.42,10.63,10.52,1.34,1.95.35,5.56.26,8.41q-2.65,83.44-5.34,166.91c-.1,3.12,0,6.24,0,10H248c0-19.84.52-39.44-.09-59q-4.56-146-9.62-291.87-1.32-39.81-2.78-79.6c-.26-7-3.75-11.5-11.19-11.15-6.93.33-9.9,4.81-10.06,11.44,0,.85,0,1.71-.07,2.57q-3.24,94.58-6.48,189.15c-.08,2.28.1,4.69-.59,6.8-2.11,6.44-6.74,9.87-13.58,9.39-7-.5-11.7-6.24-11.53-14.5.4-18.83,1.11-37.66,1.75-56.49q2.39-69.77,4.86-139.51c.66-17.94,13.88-32.35,31.06-34.43,18.54-2.24,34.77,7.67,39.78,25,1.64,5.66,2,11.8,2.18,17.75q3.89,114.69,7.53,229.4,3.08,93.29,6.29,186.59C275.5,656.93,275.86,659.7,276.15,663.24Z"/><path d="M693.77,397.41c-3.12,4.15-5,9-8.51,10.68s-8.68,1-12.77,0c-2.72-.69-4.91-3.72-7.18-5.87-86.19-81.2-220.37-81.09-306.18.28-1.45,1.37-2.85,2.81-4.4,4.06-6.22,5-13.59,4.79-18.41-.43-5-5.45-5.22-12.77,1.05-18.23,12.44-10.85,24.77-22.07,38.45-31.18,96.32-64.22,226.78-51.82,309.41,29C688.33,388.72,690.44,392.78,693.77,397.41Z"/><path d="M510.83,384.56c46.51-.16,89.74,15.88,125.87,50.15,7.23,6.86,8.17,14.49,2.89,20.21-5.57,6-13,5.86-20.24-1.25-59-57.62-155-57.62-214.19.18-7.14,7-14.73,7-20.24.86-5-5.58-4.07-13.1,2.69-19.57C421.22,403,461.45,386.56,510.83,384.56Z"/><path d="M512.34,452.37c29.07.23,54.5,10.12,76.06,29.85,7.36,6.75,8.64,14.34,3.65,20.21-5.49,6.46-12.77,6.12-20.93-1-35.84-31.18-81.85-31.28-117.27-.24-8.28,7.26-15.31,7.75-21,1.48-5.35-5.94-4-13.74,3.79-20.8Q468.82,452.83,512.34,452.37Z"/><path d="M514.19,511.8c11.68,0,23.71,4.53,33.77,13.87,6.53,6.07,7.09,13.07,1.89,18.86-4.86,5.41-11.65,5.7-18.36.77-14.39-10.56-23.77-10.48-38.6.35-6.26,4.57-13.77,4-18.42-1.41C470,539,470.3,532,475.85,526.56,485.9,516.77,498.08,511.87,514.19,511.8Z"/><path d="M387.94,803.92c-6.84,0-13.69.19-20.52,0-7.4-.26-11.51-4.64-12.43-11.7a12.14,12.14,0,0,1,11.41-13.54c14.52-.56,29.08-.56,43.6,0,7.34.28,12,6.49,11.56,13.4s-5.45,11.46-13.09,11.94c-.56,0-1.14,0-1.71,0H387.94Z"/><path d="M193.77,803.93c-6.84,0-13.69.24-20.52-.07-7.27-.34-11.58-4.41-12.22-11.74-.61-7,4-13.22,11.31-13.5,14.52-.56,29.08-.55,43.59,0,7.14.26,12.11,6.9,11.62,13.46-.5,6.81-5.64,11.42-13.26,11.88-.57,0-1.14,0-1.71,0H193.77Z"/><path d="M735.56,804c-6.84,0-13.68.19-20.51-.05-7.83-.29-12.59-4.88-12.92-12-.35-7.36,4.46-13.21,12.37-13.47,13.67-.44,27.36-.39,41-.05,7.87.2,13.22,6,13.12,13-.09,7.17-5.35,12.23-13.43,12.5C748.67,804.13,742.12,804,735.56,804Z"/><path d="M485.64,803.94c-6.84,0-13.69.2-20.52-.05-7.75-.28-12.6-5-12.91-12-.34-7.34,4.51-13.19,12.42-13.44,13.66-.44,27.36-.39,41,0,7.83.2,13.26,6.07,13.15,13-.12,7.08-5.52,12.09-13.51,12.53-.57,0-1.14,0-1.71,0h-18Z"/><path d="M290.56,804c-6.55,0-13.11.2-19.65-.05-7.64-.29-12.64-5.11-13-12a12.63,12.63,0,0,1,12.58-13.42c13.66-.42,27.35-.4,41,0,8,.21,13,5.75,12.89,13s-5,12.19-13.31,12.45C304.24,804.13,297.4,804,290.56,804Z"/><path d="M830.59,803.92c-6.84,0-13.68.23-20.51-.06-7.33-.31-11.51-4.51-12.18-11.78-.63-6.92,4.1-13.21,11.36-13.48,14.51-.55,29.06-.55,43.57,0a12,12,0,0,1,11.36,13.52c-.73,7.22-4.89,11.46-12.24,11.74C844.84,804.14,837.71,803.92,830.59,803.92Z"/></svg>