<?xml version="1.0" encoding="utf-8"?>
<!-- Generator: Adobe Illustrator 25.2.1, SVG Export Plug-In . SVG Version: 6.00 Build 0)  -->
<svg version="1.1" id="Capa_1" xmlns="http://www.w3.org/2000/svg" xmlns:xlink="http://www.w3.org/1999/xlink" x="0px" y="0px"
	 viewBox="0 0 512 512" style="enable-background:new 0 0 512 512;" xml:space="preserve">
<g>
	<g>
		<path d="M434,122.7l-1.1,1.7l0,0l0,0l0,0L434,122.7l-0.9-0.6C381.2,87.6,327.5,51.9,274.5,16.2c-6.3-4.2-12.4-6.3-18.6-6.4
			c-6.1,0-12.1,2.1-18.4,6.4C185.9,50.9,133.3,85.9,82.4,119.7l-4.5,3c-6.2,4.1-20.6,13.7-14.5,31.7c5.6,16.5,21.4,16.7,28.9,16.7
			l0.3,0c34.4,0,69.3,0,103.1,0l58.9,0l39.5,0l29.6,0c31.9,0,63.7,0,95.6,0h0.6c6.9,0,23,0,28.6-16.7
			C454.6,136.4,440.2,126.8,434,122.7z M429.6,148L429.6,148c-0.7,2-1,3-10,3h-0.1c-28.5,0-57.1,0-85.6,0l-77.7,0l-46.6,0
			c-38.3,0-77.8,0-116.8,0c-9.2-0.1-9.6-1.1-10.2-3c-0.8-2.4-1.2-3.5,6.6-8.6l3.3-2.2c51.3-34.1,104.3-69.4,156.3-104.4
			c2.9-1.9,5.3-2.9,7.2-3c2,0,4.4,1,7.4,3c53.1,35.7,106.8,71.4,158.7,105.9l0.9,0.6C430.7,144.6,430.4,145.7,429.6,148z"/>
		<path d="M394.2,324c-99,0-189.6,0-277.1,0.1c-13.7,0-25.2,4.3-33.3,12.5c-7.3,7.4-11.1,17.3-11,28.7c0.3,23.9,18,39.9,44.1,40
			c31.6,0.1,63.2,0,94.8,0l43.7,0l39.6,0c13.1,0,26.6,0,40.4,0c19.1,0,38.8,0,58.5,0c27.2,0,44.8-15.9,44.8-40.5
			c0-11.2-3.8-21-11.1-28.3C419.7,328.3,408.1,324,394.2,324z M418.8,364.7c0,13.2-8.8,20.4-24.8,20.5c-33.2,0-67.1,0-98.9,0
			l-39.6,0l-43.8,0c-31.9,0-63.2,0-94.8,0c-15.2,0-23.9-7.4-24.1-20.2c-0.1-5.9,1.7-10.8,5.2-14.3c4.2-4.3,10.8-6.5,19-6.6
			c62.9-0.1,128.6-0.1,195.1-0.1c27.3,0,54.6,0,81.9,0c8.4,0,15.1,2.3,19.4,6.6C417.1,354.1,418.9,358.9,418.8,364.7z"/>
		<path d="M125.2,312.4c2,2,4.9,3,8.4,3c0.2,0,0.3,0,0.5,0c12-0.3,11.9-12.2,11.9-16.1c-0.1-36.6,0-72.8,0-103.4
			c0-4.1-0.4-9.9-4-13.3c-2.1-2.1-5.1-3.1-8.9-3c-12,0.3-11.9,12.2-11.9,16.1c0,12.6,0,25.3,0,37.7l0,13.4c0,5,0,10.1,0,15.1
			c0,12.2,0,24.8,0,37.1C121.2,303.1,121.6,308.9,125.2,312.4z"/>
		<path d="M386.6,182.6c-2.1-2.1-5.1-3.1-8.9-3c-12,0.2-12,12.1-12,16c0.1,34.8,0.1,69.6,0,103.4c0,4.1,0.4,9.9,4,13.4
			c2.1,2,4.9,3,8.4,3c0.1,0,0.3,0,0.4,0c8-0.2,12.1-5.6,12-16c0-12.4,0-25,0-37.2c0-5,0-10,0-15l0-14.4c0-12.2,0-24.5,0-36.7
			C390.6,191.9,390.2,186.1,386.6,182.6z"/>
		<path d="M296.4,315.4c0.1,0,0.2,0,0.4,0c3.4,0,6.2-1,8.2-3c2.6-2.6,3.9-6.7,3.8-12.6c-0.1-9.6-0.1-19-0.1-26.1c0-3.6,0-7.2,0-10.8
			c0-5.1,0-10.2,0-15.3c0-5,0-10,0-15l0-11.1c0-7.2,0-16.6,0.1-26.1c0-4.3,0.1-15.8-11.9-15.9c-3.7,0-6.5,1-8.6,3
			c-2.6,2.6-3.8,6.6-3.8,12.5c0.1,37.9,0.1,72,0,104.4C284.4,309.9,288.4,315.3,296.4,315.4z"/>
		<path d="M214.7,315.4c0.2,0,0.3,0,0.4,0c3.5,0,6.4-1,8.4-3.1c2.6-2.6,3.9-6.6,3.8-12.3c-0.1-12.3-0.1-24.9-0.1-37
			c0-5.1,0-10.3,0-15.4l0-14.8c0-12.7,0-25.8,0-38.7c0-5.1-1.2-9-3.7-11.5c-2.1-2.1-5-3.2-8.6-3.2c0,0,0,0,0,0
			c-4.4,0-7.6,1.6-9.6,4.7c-1.6,2.4-2.4,5.7-2.3,10.1c0.1,40.7,0.1,74.3,0,105.9C203,310.1,206.9,315.2,214.7,315.4z"/>
	</g>
	<path d="M275.6,424.7c-2.6-2.6-7.1-2.6-9.7,0l-2.9,2.9c-1.3,1.3-2,3-2,4.8c0,1.8,0.7,3.6,2,4.9l15.2,15.2H171.1
		c-3.6,0-6.5,2.9-6.5,6.5v4.4c0,5.1,2.9,7,5.6,7h108.2L263,485.7c-1.3,1.3-2,3-2,4.8c0,1.8,0.7,3.5,2,4.8l2.9,2.9c1.3,1.3,3,2,4.8,2
		c1.8,0,3.5-0.7,4.8-2l31.9-31.9c1.3-1.3,2-3,2-4.8c0-1.8-0.7-3.6-2-4.9L275.6,424.7z"/>
</g>
</svg>
