<svg id="Layer_1" data-name="Layer 1" xmlns="http://www.w3.org/2000/svg" viewBox="0 0 597.7 512"><defs><style>.cls-1{stroke:#000;stroke-miterlimit:10;stroke-width:3px;}.cls-2{fill:#fff;}</style></defs><path class="cls-1" d="M128.5,222.5H238c5.6,0,11-.3,13.1-6.6,2.2-6.7-2.1-10.2-7-13.4Q191,167.25,138,131.7c-3-2-5.8-3.1-8.6-3.1h0c-2.8,0-5.6,1.1-8.6,3.1Q67.85,167.25,14.7,202.5c-4.9,3.3-9.3,6.7-7,13.4,2.1,6.3,7.6,6.6,13.1,6.6H128.5Z"/><path class="cls-1" d="M129.1,378.2h92.1c14.2,0,23.1-7.9,23.1-20.3s-8.9-20.4-23-20.4H37.1c-14,0-22.9,8.2-22.8,20.6.2,12.1,9,20,22.7,20Q83.05,378.25,129.1,378.2Z"/><path class="cls-2" d="M41.1,279.5v34.7c0,5.1,1.2,9.7,7.2,9.5,5.5-.1,6.6-4.6,6.6-9.4V245.6c0-5-1.1-9.7-7.2-9.5-5.6.2-6.6,4.6-6.6,9.4Z"/><path class="cls-2" d="M217.5,279.7v-34c0-5-1.1-9.7-7.2-9.6-5.6.1-6.7,4.5-6.7,9.3v68.7c0,5.1,1.1,9.7,7.1,9.6,5.5-.1,6.7-4.5,6.7-9.3C217.4,302.9,217.5,291.3,217.5,279.7Z"/><path class="cls-2" d="M163,280.1c0-11.6-.1-23.1,0-34.7,0-4.8-.9-9.2-6.6-9.2s-6.9,4-6.9,9c.1,23.1.1,46.3,0,69.4,0,4.9,1.2,9.2,6.7,9.3s6.9-4.1,6.8-9Z"/><path class="cls-2" d="M109,280.1V244.5c0-4.7-1.7-8.4-6.9-8.4s-6.6,3.8-6.6,8.5c0,23.5.1,46.9,0,70.4,0,4.7,1.2,8.6,6.4,8.7,5.5.1,7.1-3.8,7.1-8.9C108.9,303.3,109,291.7,109,280.1Z"/><path d="M41.1,279.5v-34c0-4.8,1-9.2,6.6-9.4,6.1-.2,7.2,4.5,7.2,9.5v68.7c0,4.8-1.1,9.2-6.6,9.4-6,.2-7.2-4.4-7.2-9.5Z"/><path d="M217.5,279.7v34.7c0,4.8-1.2,9.2-6.7,9.3-6,.1-7.1-4.5-7.1-9.6V245.4c0-4.8,1.1-9.2,6.7-9.3,6.1-.1,7.2,4.5,7.2,9.6C217.4,257,217.5,268.4,217.5,279.7Z"/><path d="M163,280.1c0,11.6-.1,23.1,0,34.7,0,4.9-1.3,9.1-6.8,9s-6.7-4.3-6.7-9.3c.1-23.1.1-46.3,0-69.4,0-4.9,1.3-9,6.9-9s6.7,4.4,6.6,9.2Z"/><path d="M109,280.1c0,11.6-.1,23.2,0,34.8,0,5-1.5,9-7.1,8.9-5.2-.1-6.4-4.1-6.4-8.7.1-23.5.1-46.9,0-70.4,0-4.7,1.4-8.5,6.6-8.5s6.9,3.6,6.9,8.4C108.9,256.4,109,268.2,109,280.1Z"/><path class="cls-1" d="M469.2,222.5H578.7c5.6,0,11-.3,13.1-6.6,2.2-6.7-2.1-10.2-7-13.4q-53.1-35.25-106.1-70.8c-3-2-5.8-3.1-8.6-3.1h0c-2.8,0-5.6,1.1-8.6,3.1q-53,35.55-106.1,70.8c-4.9,3.3-9.3,6.7-7,13.4,2.1,6.3,7.6,6.6,13.1,6.6H469.2Z"/><path class="cls-1" d="M469.7,378.2h92.1c14.2,0,23.1-7.9,23.1-20.3s-8.9-20.4-23-20.4H377.7c-14,0-22.9,8.2-22.8,20.6.2,12.1,9,20,22.7,20C408.4,378.2,439,378.2,469.7,378.2Z"/><path class="cls-2" d="M381.8,279.5v34.7c0,5.1,1.2,9.7,7.2,9.5,5.5-.1,6.6-4.6,6.6-9.4V245.6c0-5-1.1-9.7-7.2-9.5-5.6.2-6.6,4.6-6.6,9.4Z"/><path class="cls-2" d="M558.2,279.7v-34c0-5-1.1-9.7-7.2-9.6-5.6.1-6.7,4.5-6.7,9.3v68.7c0,5.1,1.1,9.7,7.1,9.6,5.5-.1,6.7-4.5,6.7-9.3C558.1,302.9,558.2,291.3,558.2,279.7Z"/><path class="cls-2" d="M503.7,280.1c0-11.6-.1-23.1,0-34.7,0-4.8-.9-9.2-6.6-9.2s-6.9,4-6.9,9c.1,23.1.1,46.3,0,69.4,0,4.9,1.2,9.2,6.7,9.3s6.9-4.1,6.8-9Z"/><path class="cls-2" d="M449.6,280.1V244.5c0-4.7-1.7-8.4-6.9-8.4s-6.6,3.8-6.6,8.5c0,23.5.1,46.9,0,70.4,0,4.7,1.2,8.6,6.4,8.7,5.5.1,7.1-3.8,7.1-8.9C449.6,303.3,449.7,291.7,449.6,280.1Z"/><path d="M381.8,279.5v-34c0-4.8,1-9.2,6.6-9.4,6.1-.2,7.2,4.5,7.2,9.5v68.7c0,4.8-1.1,9.2-6.6,9.4-6,.2-7.2-4.4-7.2-9.5Z"/><path d="M558.2,279.7v34.7c0,4.8-1.2,9.2-6.7,9.3-6,.1-7.1-4.5-7.1-9.6V245.4c0-4.8,1.1-9.2,6.7-9.3,6.1-.1,7.2,4.5,7.2,9.6C558.1,257,558.2,268.4,558.2,279.7Z"/><path d="M503.7,280.1c0,11.6-.1,23.1,0,34.7,0,4.9-1.3,9.1-6.8,9s-6.7-4.3-6.7-9.3c.1-23.1.1-46.3,0-69.4,0-4.9,1.3-9,6.9-9s6.7,4.4,6.6,9.2Z"/><path d="M449.6,280.1c0,11.6-.1,23.2,0,34.8,0,5-1.5,9-7.1,8.9-5.2-.1-6.4-4.1-6.4-8.7.1-23.5.1-46.9,0-70.4,0-4.7,1.4-8.5,6.6-8.5s6.9,3.6,6.9,8.4Z"/><path d="M318.1,283.1h-5.6c-18.1,0-36.2,0-54.4-.1-4,0-6.6-2.4-6.5-5.8.1-3.2,2.5-5.4,6.3-5.6h59.6c-1.2-1.4-1.9-2.3-2.7-3.1-5-5-10-10-15-15.1-2.9-3-3.1-6.2-.8-8.7s5.7-2.4,8.7.5c9.1,9,18.2,18.1,27.1,27.2,3.7,3.7,3.6,6.2,0,9.8-8.9,9-17.9,18-26.9,26.9-3.1,3.1-6.5,3.3-9,.8s-2.2-5.7,1-8.9C305.8,295.4,311.5,289.7,318.1,283.1Z"/></svg>