<?xml version="1.0" encoding="utf-8"?><!-- Generator: Adobe Illustrator 25.2.1, SVG Export Plug-In . SVG Version: 6.00 Build 0)  --><svg version="1.1" id="Capa_1" xmlns="http://www.w3.org/2000/svg" xmlns:xlink="http://www.w3.org/1999/xlink" x="0px" y="0px"	 viewBox="0 0 512 512" style="enable-background:new 0 0 512 512;" xml:space="preserve"><g>	<g>		<path d="M452.4,166.8C437.6,72.1,353.8,0.9,255.5,0c-59.4,1.2-110.6,23.5-150,69.4c-38.5,45.3-55,97.7-45.3,156.8			c6.8,40.6,25.9,76.5,47.4,110.9c38.5,61.2,85,115.6,135.9,166.5c10.6,10.9,14.7,11.2,24.7,0.3c27.1-29.4,54.4-58.3,79.7-88.6			c36.5-43.8,68.6-90.6,90.6-143.6C452.7,238,457.9,203.3,452.4,166.8z M255.8,371.9c-95.9,0-173.6-77.7-173.6-173.6			c0-95.9,77.7-173.6,173.6-173.6c95.9,0,173.6,77.7,173.6,173.6C429.4,294.2,351.7,371.9,255.8,371.9z"/>	</g>	<g>		<path d="M256.1,286.9c-28.5,0-57.1,0-85.6,0c-6.5,0-12.4-1.5-12.4-8.5c0-6.8,5.9-8.8,12.1-8.8c57.4,0,114.7,0,172.1,0			c9.1,0,14.4,6.5,10.3,12.4c-1.8,2.6-6.8,4.4-10.3,4.7C313.5,287.2,284.9,286.9,256.1,286.9z"/>		<path d="M255.5,148c-28.2,0-56.5,0-84.7,0c-5.9,0-11.5-0.6-12.7-7.4c-1.2-6.5,4.1-8.8,9.1-10.9c27.1-12.1,53.8-24.7,80.9-36.2			c4.7-2.1,11.5-1.8,16.2,0c27.1,11.5,53.5,23.8,80.3,35.9c0.9,0.3,1.5,0.9,2.1,1.2c4.7,1.8,7.9,5,6.8,10.6			c-0.9,5.9-5.6,6.8-10.3,6.8c-21.5,0-43,0-64.4,0C270.5,148,262.9,148,255.5,148z"/>	</g>	<path d="M337,247.6h-8.3v-78.2h8.3c4,0,7.2-3.2,7.2-7.2c0-4-3.2-7.2-7.2-7.2H174c-4,0-7.2,3.2-7.2,7.2c0,4,3.2,7.2,7.2,7.2h6.7		v78.2H174c-4,0-7.2,3.2-7.2,7.2c0,4,3.2,7.2,7.2,7.2h163c4,0,7.2-3.2,7.2-7.2C344.2,250.8,341,247.6,337,247.6z M307,247.6h-15.4		c-4.1,0-7.4-3.3-7.4-7.4v-63.4c0-4.1,3.3-7.4,7.4-7.4H307c4.1,0,7.4,3.3,7.4,7.4v63.4C314.4,244.3,311.1,247.6,307,247.6z		 M262.4,247.6h-15.3c-4.1,0-7.4-3.3-7.4-7.4v-63.4c0-4.1,3.3-7.4,7.4-7.4h15.3c4.1,0,7.4,3.3,7.4,7.4v63.4		C269.8,244.3,266.5,247.6,262.4,247.6z M202.5,169.4h15.4c4.1,0,7.4,3.3,7.4,7.4v63.4c0,4.1-3.3,7.4-7.4,7.4h-15.4		c-4.1,0-7.4-3.3-7.4-7.4v-63.4C195.1,172.7,198.4,169.4,202.5,169.4z"/></g></svg>