<svg id="Layer_1" data-name="Layer 1" xmlns="http://www.w3.org/2000/svg" viewBox="0 0 1034.67 1080"><path d="M753.58,143c2.68,1.07,5.39,2.08,8,3.21,18.07,7.63,29.28,20.85,30.84,40.64,1,13.09.66,26.3.43,39.45-.14,7.76-5.13,12.49-11.91,12.51s-11.69-4.7-12-12.45c-.37-10.74-.09-21.49-.27-32.23-.28-17.39-9.82-26.89-27-26.94-20.09-.06-40.19,0-61.45,0,0,7.21.08,13.81,0,20.41-.31,22.33-12.82,34.64-35.27,34.66q-97.49.06-195,.05c-22.94,0-35.37-12.29-35.61-35.14-.07-6.38,0-12.76,0-19.62-23.34,0-45.86-.71-68.3.29-11.49.51-19.42,10.71-20,22.73-.49,9.92-.28,19.87-.28,29.8q0,328.33,0,656.66v10.43h25.47c15,0,30.08,0,45.12.06,9.35.06,14.68,4.7,14.51,12.36-.17,7.3-5.37,11.72-14.31,11.76-20.41.1-40.82.06-61.23.07h-8.53c-3.08,19.59,7.11,32.15,25.61,32.16q195,.06,390,0c18.45,0,28.89-13.05,25.34-32.12h-8.55l-298.11,0c-1.61,0-3.22.05-4.83,0-8.11-.31-13.4-5-13.52-11.89s5.18-11.88,13.15-12.24c2.14-.1,4.29,0,6.44,0h306.6V876.16q0-292.06,0-584.13a60.84,60.84,0,0,1,.57-11.23c1.14-6.08,5.3-9.21,11.43-9.24s10.25,3.07,11.56,9.12a42.35,42.35,0,0,1,.58,8.81q0,312.62,0,625.22c0,33.85-19.82,53.35-53.72,53.36H355.79c-34.82,0-54.21-19.41-54.22-54.46q0-323.49,0-647c0-20.95.84-41.94-.21-62.84-1.54-30.36,9.82-51.38,39.7-60.78ZM439.23,167.48a21.94,21.94,0,0,0-.57,3.08c-.07,4.83-.12,9.66-.1,14.5.06,11.67,1.4,13,12.91,13H595.66c16.65,0,33.29-.05,49.94,0,5,0,9.69-.83,10.08-6.7.53-7.86.13-15.79.13-24Z"/><path d="M478.85,522.61c25.27,41.9,58,74.9,99.81,99.69,4.72-6.48,8.72-12.17,12.92-17.7,9.24-12.19,22.68-15,35.5-6.66q30.74,19.92,60.93,40.67c11.44,7.82,14.41,21.24,7.65,33.4-5.21,9.38-10.77,18.57-16.52,27.63-8.1,12.75-20.55,18.22-35,20.3-31,4.47-59.06-4.54-85.77-18.78-43-22.93-78.06-55.7-110.38-91.58-23.64-26.25-44.55-54.43-57.57-87.68-9.17-23.41-13.54-47.38-7.61-72.46,2.86-12.13,9.34-21.54,19.91-28.07,8.45-5.22,16.93-10.39,25.53-15.33,12.79-7.36,26.44-4.51,34.7,7.6q20.19,29.61,39.76,59.62c9.1,14,6.35,27.2-7.17,37.22C490.39,514.3,485.16,518,478.85,522.61Zm133.52,94.57c-4.29,5.92-8.13,11.37-12.13,16.71-9.46,12.62-21.63,15.7-35.27,7.84a282.75,282.75,0,0,1-105.2-105.05c-8.2-14.16-5.23-26.13,7.81-35.86,5.31-4,10.67-7.85,16.42-12.07l-41.84-62.84c-8.72,5.23-16.41,10.11-24.36,14.54-7.46,4.14-11,10.46-12.39,18.63-4,22.77,1.5,44.06,11.91,63.72,35.82,67.69,88.2,119.69,154.32,157.69,21.39,12.29,44.76,20,70.09,15,5.87-1.16,12.65-4.27,16.31-8.71,6.72-8.16,11.42-18,17.34-27.71Z"/><path d="M714.53,556.34a48,48,0,0,1,0,5.63c-.81,7.07-5.61,11.51-12.19,11.45s-11.06-4.43-11.85-11.66c-1.18-10.92-1.44-22-3.85-32.7C671.32,461.27,614.46,414.15,544.8,411c-1.34-.07-2.68,0-4-.13-8.29-.51-13.08-5-13-12.24s5.16-11.95,13.37-11.87a173.37,173.37,0,0,1,59,10.82C666.84,422.16,712.46,485.48,714.53,556.34Z"/><path d="M546.52,459.79c52.29,3.87,93.33,46.24,94.9,98.19.3,10-4,15.54-12.1,15.43-7.32-.09-11.52-4.53-12-14.16-.8-16.29-5.55-31.08-15.48-44-14.3-18.67-33.05-29.35-56.71-31a62.37,62.37,0,0,1-6.41-.63c-7.31-1.24-11.24-5.82-10.9-12.54s4.85-10.79,12.27-11.24C542.23,459.68,544.38,459.79,546.52,459.79Z"/></svg>