<?xml version="1.0" encoding="utf-8"?>
<!-- Generator: Adobe Illustrator 25.2.1, SVG Export Plug-In . SVG Version: 6.00 Build 0)  -->
<svg version="1.1" id="Capa_1" xmlns="http://www.w3.org/2000/svg" xmlns:xlink="http://www.w3.org/1999/xlink" x="0px" y="0px"
	 viewBox="0 0 512 512" style="enable-background:new 0 0 512 512;" xml:space="preserve">
<g>
	<g>
		<g>
			<path d="M420.5,50.1H432v23.7h-11.5V50.1z"/>
		</g>
		<g>
			<path d="M467,108.8h23.7v11.5H467V108.8z"/>
		</g>
		<g>
			<path d="M451,81.8l16.5-16.5l8.2,8.2L459.2,90L451,81.8z"/>
		</g>
		<g>
			<path d="M467.3,163.9L451,147.4l8.2-8.2l16.5,16.5L467.3,163.9z"/>
		</g>
		<g>
			<path d="M393.4,89.9l-16.5-16.5l8.2-8.2l16.5,16.5L393.4,89.9z"/>
		</g>
		<g>
			<path d="M397.7,108.8h30.2l9.1,32.8c10.7-4.3,18.3-15,18.3-27.1c0-16.1-13-29.2-29.2-29.2C412.3,85.4,400.4,95.5,397.7,108.8z"/>
		</g>
		<g>
			<path d="M339,248.7h58.1v-11.5h-23.4V225h-11.5v12.2h-23.4v11.5H339z"/>
		</g>
		<g>
			<path d="M354.2,143.8h30.2l-1.8-23.4h-26.2L354.2,143.8z"/>
		</g>
		<g>
			<path d="M303.1,178.4h36.8l1.8-23.4h-32.3L303.1,178.4z"/>
		</g>
		<g>
			<path d="M351.4,178.4H387l-1.8-23.4h-32L351.4,178.4z"/>
		</g>
		<g>
			<path d="M348.6,213.4H390l-1.8-23.4h-37.7L348.6,213.4z"/>
		</g>
		<g>
			<path d="M435.7,178.4l-6.6-23.4h-32.3l1.8,23.4H435.7z"/>
		</g>
		<g>
			<path d="M394.1,120.4l1.8,23.4h29.8l-6.6-23.4H394.1z"/>
		</g>
		<g>
			<path d="M445.4,213.4l-6.6-23.4h-39.2l1.8,23.4H445.4z"/>
		</g>
		<g>
			<path d="M292.2,213.4h44.7l1.8-23.4h-39.6L292.2,213.4z"/>
		</g>
		<g>
			<path d="M312.8,143.8h29.8l1.8-23.4h-25.2L312.8,143.8z"/>
		</g>
	</g>
	<g>
		<g>
			<g>
				<g>
					<path d="M228.3,154.2l-36-30.9c0-0.3,0-0.3,0-0.6V82.3c0-2.4-2-4.5-4.5-4.5h-20.3c-2.4,0-4.2,2-4.2,4.5V99l-28.8-24.7
						c-1.5-1.5-3.8-1.5-5.4,0L35.6,154c-1.8,1.5-2,4.2-0.6,6c1.5,1.8,4.2,2,6,0.6l0,0l91-77.4l32.4,27.7l19.4,16.7l39,33.3
						c1.8,1.5,4.5,1.1,6-0.6C230.1,158.4,230.1,155.7,228.3,154.2z M183.7,116.5l-11.9-9.8v-20h11.9V116.5z"/>
				</g>
			</g>
		</g>
		<g>
			<g>
				<g>
					<path d="M209.6,162.9l-11.9-10.1l-63.1-54.2c-1.5-1.5-3.8-1.5-5.4,0l-63,54.2l-11.9,10.1c-1.8,1.5-2,4.2-0.6,6
						c1.5,1.8,4.2,2,6,0.6l0,0l5.4-4.5v79.2c0,2.4,2,4.2,4.5,4.5H195c2.4,0,4.2-2,4.5-4.5V165l5.4,4.5c0.9,0.6,1.8,0.9,2.7,0.9
						c1.1,0,2.4-0.6,3.3-1.5C211.7,167.1,211.3,164.4,209.6,162.9z M148.6,239.7h-33.9v-45.5h33.9V239.7z M157.3,239.7V190
						c0-2.4-1.8-4.5-4.2-4.5h-42.6c-2.4,0-4.2,2-4.2,4.5v49.7H73v-82.1l58.7-50l58.7,50v82.1L157.3,239.7L157.3,239.7z"/>
				</g>
			</g>
		</g>
	</g>
	<g>
		<path d="M289,382.3h-0.1c0,0,0-0.1-0.1-0.1h0.1v-0.1l-8.7-13.2c-0.4-0.8-1.2-1.2-1.8-1.4c-0.1,0-0.1-0.1-0.2-0.1l-64.9-12.7
			c-5.2-3.7-45.2-31.4-85.9-31.4c-39.7,0-63.1,7.6-66.1,8.7l-12.2-4.1c-0.7-0.1-1.3-0.1-2.1,0.2c-0.5,0.1-1,0.4-1.2,0.7
			c-0.4,0.4-0.6,0.6-0.8,1.1c-0.1,0.5-0.1,0.8,0,1.3v4.2c0,0.8,0.4,1.4,0.7,1.9c-19.3,7.9-31.5,18.7-34.6,21.6
			c-0.4,0.2-0.7,0.6-1,1.1c-0.2,0.4-0.4,0.6-0.4,1v0.1c0,0.1,0,0.1,0,0.2c0,0.2,0,0.4,0,0.5v12.6l-4.1,7.9c-0.5,0.5-0.5,1.1-0.5,1.6
			v22c0,0.7,0.2,4.3,6,7.2c4.7,2.4,21.1,4.6,23.3,4.6h0.2c1,0,1.8-0.5,2.3-1c2.9,10.6,12.7,18.5,24.2,18.5
			c11.6,0,21.4-7.9,24.3-18.6c0.6,0.7,1.4,1.1,2.3,1.1h114.7c1,0,1.8-0.5,2.3-1.1c2.9,10.6,12.7,18.6,24.3,18.6
			c11.5,0,21-7.6,24.2-18.1c0.5,0.4,1.1,0.6,1.7,0.6h0.2c0.8,0,22.4-1.3,27.1-2.2c5.4-1.2,6.9-5.4,6.9-7.6v-22.8
			c0.1-0.2,0.2-0.4,0.2-0.6s0-0.6,0-0.8C289.4,383,289.2,382.5,289,382.3z M16.1,370v-4.3l7.2,1.4L16.1,370z M130.4,354.3
			c0.2-0.5,0.4-1.1,0.4-1.7c0-0.1,0-0.1,0-0.2l-4.5-22c0-0.2-0.1-0.5-0.2-0.7c0.4,0,0.7,0,1.2,0c28.4,0,57.7,15.1,73.5,24.6
			L130.4,354.3L130.4,354.3z M120.3,329.8c-0.2,0.5-0.4,1.1-0.4,1.8l4.5,22.1c0.1,0.2,0.1,0.5,0.2,0.6h-28
			c-20.2,0-27.9-15.7-28-15.9c-0.4-0.6-0.8-1.1-1.6-1.4C76.7,334.2,94.8,330.4,120.3,329.8z M275.3,373.4l4.1,6.2l-9.3-1.6h1.6
			c1.9,0,3.1-1.6,3.1-3.1c0-0.6-0.2-1.2-0.6-1.8L275.3,373.4z M61.3,391.2c10.3,0,19,8.7,19,19c0,10.4-8.5,19-19,19
			c-10.3,0-19-8.7-19-19S51,391.2,61.3,391.2z M202.5,411.5H87.9c-0.6,0-1.1,0.1-1.6,0.5c0-0.6,0.1-1.2,0.1-1.8
			c0-13.9-11.2-25.1-25.1-25.1s-25.1,11.2-25.1,25c0,0.6,0,1.2,0.1,1.7c-0.4-0.2-0.7-0.4-1.1-0.4l0,0c-4.7-0.5-17.9-2.7-20.9-4.1
			c-1.6-0.8-2.3-1.6-2.7-1.9v-9.8h10.1c1.9,0,3.1-1.6,3.1-3.1c0-1.6-1.4-3.1-3.1-3.1h-10v-5l4-7.7l18.8-7.5h0.1h0.5
			c1.4,0,2.7-1.1,3-2.5c0.2-0.7,0-1.6-0.4-2.3c-0.5-0.7-1.3-1.3-2.2-1.4l-15.3-3.1c6.3-5.1,16.2-12,29.4-17c0.7-0.4,1.3-1,1.6-1.8
			c0.4-0.8,0.2-1.7-0.1-2.4c-0.2-0.4-0.5-0.7-0.8-1.1c0.6-0.6,1-1.4,1-2.3l0,0l8.9,3c0.8,0.4,1.6,0.4,2.2,0c0.1,0,0.1,0,0.4-0.1
			c0.1,0,0.4-0.1,0.5-0.1c-0.1,0.2-0.2,0.4-0.4,0.6c-0.4,0.8-0.2,1.7,0,2.3c0.1,0.2,9.4,19.5,33.8,19.5h106c1.9,0,3-1.6,3-3
			c1.4,1,2.9,1.8,3.9,2.5c0.1,0.1,0.4,0.2,0.4,0.2c0.5,0.5,1.1,0.5,1.2,0.5l56.2,11.1H251c-1.9,0-3.1,1.6-3.1,3.1
			c0,1.4,0.8,2.4,1.9,2.9l0.1,0.1l7.5,3.9c0.5,0.5,1.1,0.8,1.8,1l23.6,4v21.3c0,0-0.1,0.8-1.9,1.2c-2.7,0.6-12.8,1.2-20.2,1.7
			c-2.2,0.1-4.2,0.2-5.8,0.4c-0.2,0-0.5,0.1-0.7,0.1c0-0.5,0.1-0.8,0.1-1.3c0-13.9-11.2-25.1-25.1-25.1s-25.1,11.2-25.1,25.1
			c0,0.6,0,1.3,0.1,1.9C203.6,411.8,203.1,411.5,202.5,411.5z M229.1,429.1c-10.3,0-19-8.7-19-19s8.7-19,19-19s19,8.7,19,19
			C247.8,420.7,239.5,429.1,229.1,429.1z"/>
		<path d="M149.5,367.4h-8.8c-1.9,0-3.1,1.6-3.1,3.1c0,1.9,1.6,3.1,3.1,3.1h8.8c1.9,0,3.1-1.6,3-2.9c0.1-0.7,0-1.4-0.5-2.1
			C151.4,367.9,150.5,367.4,149.5,367.4z"/>
		<path d="M101.2,367.4h-8.8c-1.9,0-3.1,1.6-3.1,3.1c0,1.9,1.6,3.1,3.1,3.1h8.8c1.9,0,3.1-1.6,3.1-3.1
			C104.2,369,102.7,367.4,101.2,367.4z"/>
		<circle cx="229.1" cy="410.1" r="3.1"/>
		<path d="M229.1,404.4c1.9,0,3.1-1.6,3.1-3.1v-4.5c0-1.6-1.4-3.1-3.1-3.1c-1.9,0-3.1,1.6-3.1,3.1v4.5
			C226,403.3,227.6,404.4,229.1,404.4z"/>
		<path d="M229.1,416c-1.9,0-3.1,1.6-3.1,3.1v4.5c0,1.9,1.6,3.1,3.1,3.1c1.9,0,3.1-1.6,3.1-3.1v-4.5
			C232.1,417.2,230.6,416,229.1,416z"/>
		<path d="M223.2,410.3c0.1-0.7,0-1.4-0.5-2.1c-0.6-0.7-1.6-1.2-2.5-1.2h-4.5c-1.9,0-3.1,1.6-3.1,3.1c0,1.9,1.6,3.1,3.1,3.1h4.5
			C222,413.2,223.2,411.7,223.2,410.3z"/>
		<path d="M244.7,408.3c-0.6-0.7-1.6-1.2-2.5-1.2h-4.5c-1.9,0-3.1,1.6-3.1,3.1c0,1.9,1.6,3.1,3.1,3.1h4.5c1.9,0,3.1-1.6,3-2.9
			C245.3,409.6,245.2,408.9,244.7,408.3z"/>
		<path d="M221.9,398.6c-1.2-1.2-3.4-1.2-4.6,0c-1.2,1.2-1.2,3.4,0,4.6l3.1,3.1c0.8,0.8,1.7,0.8,2.3,0.8c0.7,0,1.4-0.4,2.1-0.6
			c0.1,0,0.1-0.1,0.2-0.1c0.6-0.6,0.8-1.3,0.8-2.3s-0.4-1.7-0.8-2.3L221.9,398.6z"/>
		<path d="M237.5,414.2c-1.1-1.1-3.4-1.1-4.6,0c-0.6,0.6-0.8,1.3-0.8,2.3s0.4,1.7,0.8,2.3l3.1,3.1c0.8,0.8,1.7,0.8,2.3,0.8
			c0.7,0,1.4-0.4,2.1-0.6c0.1-0.1,0.2-0.1,0.4-0.2c1.1-1.4,1.1-3.3-0.1-4.5L237.5,414.2z"/>
		<path d="M220.4,414.2l-3.1,3.1c-0.6,0.6-0.8,1.4-0.8,2.3c0,0.8,0.4,1.7,0.8,2.3c0.8,0.8,1.7,0.8,2.3,0.8c0.7,0,1.4-0.4,2.1-0.6
			c0.1,0,0.1-0.1,0.2-0.1l3.1-3.1c0.6-0.6,0.8-1.4,0.8-2.3c0-0.8-0.4-1.7-0.8-2.3C223.9,413.1,222,413.1,220.4,414.2z"/>
		<path d="M233,406.6c0.8,0.8,1.7,0.8,2.3,0.8c0.7,0,1.4-0.4,2.1-0.6c0.1,0,0.1-0.1,0.2-0.1l3.3-3.3c1.1-1.4,1.1-3.3-0.1-4.5
			c-1.2-1.2-3.4-1.2-4.6,0l-3.1,3.1C231.8,403.2,231.8,405,233,406.6z"/>
		<circle cx="61.7" cy="410.1" r="3.1"/>
		<path d="M61.3,404.4c1.6,0,3.1-1.4,3.1-3.1V397c0.1-0.7,0-1.4-0.5-2.1c-0.6-0.7-1.6-1.2-2.5-1.2c-1.9,0-3.1,1.6-3.1,3.1v4.5
			C58.3,403.3,59.9,404.4,61.3,404.4z"/>
		<path d="M64,417.1c-0.6-0.7-1.4-1.1-2.5-1.1c-1.9,0-3.1,1.6-3.1,3.1v4.5c0,1.9,1.6,3.1,3.1,3.1c1.6,0,3.1-1.4,3.1-3.1v-4.3
			C64.6,418.6,64.5,417.7,64,417.1z"/>
		<path d="M52.6,413.2c1.9,0,3.1-1.6,3.1-3.1c0-1.6-1.2-3.1-3.1-3.1h-4.5c-1.9,0-3.1,1.6-3.1,3.1c0,1.9,1.6,3.1,3.1,3.1H52.6z"/>
		<path d="M67,410.1c0,1.9,1.6,3.1,3.1,3.1h4.5c1.9,0,3.1-1.6,3.1-3.1s-1.2-3.1-3.1-3.1h-4.5C68.2,407.1,67,408.6,67,410.1z"/>
		<path d="M53,406.3c0.8,0.8,1.7,0.8,2.3,0.8c0.7,0,1.4-0.4,2.1-0.6c0.1,0,0.1-0.1,0.2-0.1c0.6-0.6,0.8-1.3,0.8-2.3
			s-0.4-1.7-0.8-2.3l-3.1-3.1c-1.2-1.2-3.4-1.2-4.6,0s-1.2,3.4,0,4.6L53,406.3z"/>
		<path d="M69.8,414.2c-0.6-0.6-1.3-0.8-2.3-0.8l0,0c-0.8,0-1.7,0.4-2.3,0.8c-0.6,0.6-0.8,1.3-0.8,2.3s0.4,1.7,0.8,2.3l3.1,3.1
			c0.8,0.8,1.7,0.8,2.3,0.8c0.7,0,1.4-0.4,2.1-0.6c0.1,0,0.1-0.1,0.2-0.1c0.7-0.7,1.1-1.7,1.1-2.5s-0.5-1.4-1.1-2.1L69.8,414.2z"/>
		<path d="M57.6,414.2c-0.6-0.6-1.3-0.8-2.3-0.8l0,0c-0.8,0-1.7,0.4-2.3,0.8l-3.1,3.1c-0.6,0.6-0.8,1.4-0.8,2.3
			c0,0.8,0.4,1.7,0.8,2.3c0.8,0.8,1.7,0.8,2.3,0.8c0.7,0,1.4-0.4,2.1-0.6c0.1,0,0.1-0.1,0.2-0.1l3.1-3.1c0.6-0.6,0.8-1.4,0.8-2.3
			C58.4,415.7,58,414.8,57.6,414.2z"/>
		<path d="M65.2,406.6c0.8,0.8,1.7,0.8,2.3,0.8c0.7,0,1.4-0.4,2.1-0.6c0.1,0,0.1-0.1,0.2-0.1l3.1-3.1c0.7-0.7,1.1-1.7,1.1-2.5
			s-0.5-1.4-1.1-2.1c-1.2-1.1-3.4-1.1-4.5,0l-3.3,3C64.1,403.2,64,405,65.2,406.6z"/>
	</g>
	<path d="M466.3,389.8l-6.1-6.4l0.1-0.5c0.7-1.3,2.8-6.2,0.1-10c-2.1-3.1-6.3-4.1-12.9-3.2c-0.1,0-0.4,0.1-0.5,0.1l-46.3-48.5
		c-0.7-0.7-1.6-1.1-2.5-0.8l-89.3,19.7c-1.1,0.3-1.8,1.1-2,2c-0.3,1.1,0.1,2,0.8,2.7l24.5,21.9l-1.3,16.8c-0.1,1.5,0.9,2.7,2.5,2.9
		c0.3,0,24.7,2.5,44.9,8.8c20.1,6.3,41.6,18.3,41.9,18.4c0.4,0.3,0.8,0.4,1.3,0.4c0.9,0,1.9-0.5,2.4-1.3l6.9-11.8
		c0.4,0.1,0.6,0.1,0.9,0l14-2.7l-5.5,17.7l-2.7-0.8c-0.7-0.3-1.5-0.1-2,0.1c-0.7,0.4-1.1,0.9-1.3,1.6l-3.9,12.3
		c-0.4,0.9,0,2,0.7,2.7c0.7,0.7,1.8,0.9,2.7,0.7l6.8-2.1l5.1,6c0.5,0.6,1.3,0.9,2,0.9c0.1,0,0.4,0,0.5-0.1c0.9-0.1,1.8-0.9,2-1.9
		l3.9-12.3c0.4-1.5-0.4-2.9-1.8-3.4l-3.1-0.9l7.1-22.5l8.6-1.6c0.9-0.1,1.8-0.8,2-1.9C467.2,391.6,467,390.5,466.3,389.8z
		 M420.6,407.5c-6.2-3.3-23.6-12.3-40.6-17.5c-17-5.3-36.4-7.9-43.3-8.7l1.3-18.4c7.3-0.6,31-2,48.9,3.6
		c17.9,5.6,37.2,20.3,43.1,24.8L420.6,407.5z M446.4,428.8l-3.1-3.6c-0.5-0.6-1.3-0.9-2-0.9c-0.3,0-0.5,0-0.8,0.1l-3.6,1.1l1.5-4.7
		l2.7,0.8c0.8,0.3,1.5,0.1,2.2-0.3c0.4,0.7,0.8,1.2,1.6,1.5l3.1,0.9L446.4,428.8z M443.8,385.8c-0.8,2.5,0,5,1.7,6.7l-10.3,2
		l0.9-3.1c0-0.1,0-0.1,0-0.1c0-0.1,0-0.1,0.1-0.3c0-0.1,0-0.4,0-0.6c0-0.1,0-0.1,0-0.3c-0.1-0.3-0.1-0.5-0.3-0.8c0,0,0-0.1-0.1-0.1
		c-0.1-0.1-0.3-0.4-0.4-0.5c-0.8-0.8-21.4-21.4-46.4-29.2c-10-3.2-20.4-4.1-29.5-4.1c-13.6,0-24,2.1-24.7,2.3
		c-0.1,0-0.4,0.1-0.6,0.1h-0.1c-0.3,0.1-0.5,0.3-0.7,0.5c-0.1,0.1-0.1,0.1-0.1,0.1c-0.1,0.1-0.3,0.4-0.4,0.5
		c-0.1,0.1-0.1,0.1-0.1,0.3c0,0.1-0.1,0.1-0.1,0.1l-0.1,0.1l-17.5-15.6l82.6-18.3l46.5,48.9c0.5,0.6,1.3,0.8,2,0.8
		c0.4,0,0.8-0.1,1.2-0.4c-0.1,0.1-0.3,0.4-0.3,0.7c-0.3,0.9,0,1.9,0.7,2.5l2.5,2.5C447.6,380.9,444.7,382.8,443.8,385.8z
		 M451.1,388.1L451.1,388.1c-0.1,0.4-0.4,0.6-0.6,0.7c-0.1,0.1-0.5,0.1-0.8,0.1c-0.6-0.1-0.9-0.8-0.8-1.5c0.1-0.5,0.6-0.8,1.1-0.8
		c0.1,0,0.3,0,0.4,0.1c0.4,0.1,0.6,0.4,0.7,0.6C451.1,387.5,451.2,387.7,451.1,388.1z M456,390.5c0.1-0.3,0.1-0.5,0.3-0.8
		c0.3-0.8,0.4-1.5,0.3-2.2l2.3,2.4L456,390.5z"/>
</g>
</svg>
