<?xml version="1.0" encoding="utf-8"?>
<!-- Generator: Adobe Illustrator 25.2.1, SVG Export Plug-In . SVG Version: 6.00 Build 0)  -->
<svg version="1.1" id="Capa_1" xmlns="http://www.w3.org/2000/svg" xmlns:xlink="http://www.w3.org/1999/xlink" x="0px" y="0px"
	 viewBox="0 0 512 512" style="enable-background:new 0 0 512 512;" xml:space="preserve">
<g>
	<g>
		<g>
			<path class="st0" d="M222.6,308.7c-10.4,0-20.1,3.4-27.8,9.2c-12.8-6.5-26.8-10.1-39.9-10.1h-26.7c-23.2,0-45,9.2-61.5,25.9
				c-16.4,16.6-25.4,38.6-25.4,61.9c0,3.7,3,6.7,6.7,6.7h174.7c25.8,0,46.8-21,46.8-46.8C269.4,329.7,248.4,308.7,222.6,308.7z
				 M54.9,389c3.3-37.9,34.9-67.7,73.2-67.7h26.7c9.7,0,20.1,2.4,29.9,6.8c-5.6,7.7-9,17.2-9,27.5c0,13.1,5.4,24.9,14.1,33.4H54.9z
				 M222.6,389c-18.4,0-33.4-15-33.4-33.4c0-9.7,4.2-18.5,10.9-24.7c0,0,0,0,0.1-0.1c5.9-5.4,13.8-8.7,22.5-8.7
				c18.4,0,33.4,15,33.4,33.4S241,389,222.6,389z"/>
		</g>
	</g>
	<g>
		<g>
			<path class="st0" d="M235.9,348.9h-6.7v-6.7c0-3.7-3-6.7-6.7-6.7c-3.7,0-6.7,3-6.7,6.7v6.7h-6.7c-3.7,0-6.7,3-6.7,6.7
				c0,3.7,3,6.7,6.7,6.7h6.7v6.7c0,3.7,3,6.7,6.7,6.7c3.7,0,6.7-3,6.7-6.7v-6.7h6.7c3.7,0,6.7-3,6.7-6.7
				C242.6,351.9,239.6,348.9,235.9,348.9z"/>
		</g>
	</g>
	<path class="st0" d="M186.2,248L186.2,248L186.2,248c-5.9,19.1-23.7,33.1-44.7,33.1s-38.8-13.9-44.7-33.1h-0.3v-1.2
		c-0.3-1.2-0.5-2.4-0.8-3.6c-5-0.8-9.8-2.3-14.1-4.5c2.3,31.1,28.3,55.8,59.9,55.8c29.9,0,54.7-21.9,59.3-50.6h-13.7
		C186.8,245.3,186.6,246.7,186.2,248z"/>
	<path class="st0" d="M141.5,174.2c-33.2,0-60.2,27-60.2,60.2c0,1.5,0.1,3,0.2,4.4c4.4,2.2,9.1,3.8,14.1,4.5c-0.6-2.9-1-5.9-1-9
		c0-25.8,21-46.8,46.8-46.8s46.8,21,46.8,46.8c0,3.3-0.5,6.5-1.1,9.6h13.7c0.5-3.1,0.8-6.3,0.8-9.6
		C201.6,201.1,174.6,174.2,141.5,174.2z"/>
	<path class="st0" d="M186.2,248.1L186.2,248.1C186.2,248,186.2,248.1,186.2,248.1L186.2,248.1z"/>
	<path class="st0" d="M96.4,248.1h0.3c-0.1-0.4-0.2-0.8-0.3-1.2V248.1z"/>
	<g>
		<path class="st0" d="M303.9,169.5c-3,0-5,1.1-5,3.2c0,6.8,18.1,3.1,18,15.2c0,6.3-5.5,9.9-12.9,9.9c-5.4,0-10.6-2.2-14.2-5.4
			l2.7-5.4c3.5,3.1,8,4.9,11.6,4.9c3.6,0,5.8-1.3,5.8-3.7c0-7-18.1-3-18.1-15c0-5.9,5-9.6,12.6-9.6c4.5,0,8.9,1.4,12.2,3.6l-2.6,5.6
			C310.3,170.6,306.5,169.5,303.9,169.5z"/>
		<path class="st0" d="M344.7,190.5h-16.4l-3,7.1h-6.7l14.8-33.6h6.7l14.6,33.6h-6.9L344.7,190.5z M342.4,184.9l-5.9-14.1l-6,14.1
			H342.4z"/>
		<path class="st0" d="M359.1,163.9l9.9,26.5l10-26.5h6.6l-13.5,33.6h-6.7l-13.3-33.6H359.1z"/>
		<path class="st0" d="M414.6,163.9v5.6h-18.2v8.3h16.3v5.6h-16.3v8.5h18.8v5.6h-25.2v-33.6H414.6z"/>
	</g>
	<g>
		<path class="st0" d="M421.4,258.6H232c-4,0-7.2-3.2-7.2-7.2s3.2-7.2,7.2-7.2h189.4c33.1,0,60-26.9,60-60s-26.9-60-60-60H90.6
			c-33.1,0-60,26.9-60,60c0,21.7,11.8,41.8,30.7,52.4c3.5,1.9,4.7,6.3,2.8,9.8c-2,3.5-6.4,4.7-9.8,2.8c-23.5-13.2-38.1-38.1-38.1-65
			c0-41,33.4-74.4,74.4-74.4h330.9c41,0,74.4,33.4,74.4,74.4S462.5,258.6,421.4,258.6z"/>
	</g>
</g>
</svg>
