<?xml version="1.0" encoding="utf-8"?>
<!-- Generator: Adobe Illustrator 25.2.1, SVG Export Plug-In . SVG Version: 6.00 Build 0)  -->
<svg version="1.1" id="Capa_1" xmlns="http://www.w3.org/2000/svg" xmlns:xlink="http://www.w3.org/1999/xlink" x="0px" y="0px"
	 viewBox="0 0 512 512" style="enable-background:new 0 0 512 512;" xml:space="preserve">
<g>
	<g>
		<g>
			<g>
				<path d="M256,219.6c-115.7,0-179.2,54.8-179.2,154.1c0,7.6,6.3,13.9,14.1,13.9h330.1c7.6,0,14.1-6.3,14.1-13.9
					C435.2,274.2,371.7,219.6,256,219.6z M105.5,359.5C105.5,359.5,105.3,359.3,105.5,359.5c5.4-74.3,56.1-111.8,150.5-111.8
					s145.1,37.5,150.7,111.8l0,0H105.5z"/>
			</g>
		</g>
		<g>
			<g>
				<path d="M256,2.9c-53,0-93.2,40.9-93.2,95c0,55.7,41.8,101.1,93.2,101.1s93.2-45.4,93.2-101.1C349.2,43.8,309,2.9,256,2.9z
					 M256,170.9c-35.9,0-65.1-32.8-65.1-73c0-38.9,27.4-66.9,65.1-66.9c37.1,0,65.1,28.7,65.1,66.9
					C321.1,138.1,291.9,170.9,256,170.9z"/>
			</g>
		</g>
	</g>
	<path d="M344,454.6l-39.8-39.8c-3.2-3.2-8.9-3.2-12.1,0l-3.6,3.6c-1.6,1.6-2.5,3.8-2.5,6c0,2.3,0.9,4.5,2.5,6.1l19,19H173.6
		c-4.5,0-8.1,3.6-8.1,8.1v5.5c0,6.4,3.6,8.7,7,8.7h135.2L288.5,491c-1.6,1.6-2.5,3.7-2.5,6c0,2.3,0.9,4.4,2.5,6l3.6,3.6
		c1.6,1.6,3.8,2.5,6,2.5c2.3,0,4.4-0.9,6-2.5l39.8-39.8c1.6-1.6,2.5-3.8,2.5-6.1C346.5,458.4,345.6,456.2,344,454.6z"/>
</g>
</svg>
