<svg xmlns="http://www.w3.org/2000/svg" width="23.65" height="25.143" viewBox="0 0 23.65 25.143">
  <g id="selfiVideo_icon" transform="translate(-29.35 -231)">
    <path id="Icon_awesome-user-tie" data-name="Icon awesome-user-tie" d="M11,12.571A6.286,6.286,0,1,0,4.714,6.286,6.285,6.285,0,0,0,11,12.571Zm4.7,1.6-2.347,9.4-1.571-6.679,1.571-2.75H8.643l1.571,2.75L8.643,23.571,6.3,14.172A6.589,6.589,0,0,0,0,20.743v2.043a2.358,2.358,0,0,0,2.357,2.357H19.643A2.358,2.358,0,0,0,22,22.786V20.743a6.589,6.589,0,0,0-6.3-6.571Z" transform="translate(31 231)" fill="#707070"/>
    <g id="Icon_ionic-ios-videocam" data-name="Icon ionic-ios-videocam" transform="translate(27.1 238.687)">
      <path id="Path_5" data-name="Path 5" d="M27.962,10.8a.564.564,0,0,0-.307.089l-2.857,1.8a.283.283,0,0,0-.132.238v2.51a.283.283,0,0,0,.132.238l2.857,1.8a.594.594,0,0,0,.307.089h.687a.281.281,0,0,0,.284-.281v-6.21a.283.283,0,0,0-.284-.281Z" transform="translate(-11.886 -0.954)"/>
      <path id="Path_6" data-name="Path 6" d="M10.227,17.456H3.951a1.706,1.706,0,0,1-1.7-1.7V10.7A1.7,1.7,0,0,1,3.948,9h6.276a1.7,1.7,0,0,1,1.7,1.7v5.057A1.7,1.7,0,0,1,10.227,17.456Z"/>
    </g>
  </g>
</svg>
