<svg xmlns="http://www.w3.org/2000/svg" width="22" height="19.555" viewBox="0 0 22 19.555">
  <path id="specimenUpload_icon" d="M8.333,16.2a.423.423,0,0,0-.388-.249.417.417,0,0,0-.383.236l-.293.586a.611.611,0,0,1-1.126-.08L5.5,14.766l-.405,1.218a1.649,1.649,0,0,1-1.566,1.128H3.056a.611.611,0,1,1,0-1.222h.473a.428.428,0,0,0,.406-.293l.695-2.087a.917.917,0,0,1,1.74,0L6.9,15.1a1.714,1.714,0,0,1,2.521.541.434.434,0,0,0,.357.239V12.743l4.889-4.854V6.111H9.472a.919.919,0,0,1-.917-.917V0H.917A.914.914,0,0,0,0,.917V18.639a.914.914,0,0,0,.917.917H13.75a.914.914,0,0,0,.917-.917V17.111l-4.889,0A1.64,1.64,0,0,1,8.333,16.2ZM14.667,4.656A.914.914,0,0,0,14.4,4.01L10.66.267A.916.916,0,0,0,10.011,0H9.778V4.889h4.889ZM11,13.252v2.637h2.635L19.81,9.672,17.218,7.079,11,13.252ZM21.715,6.391,20.5,5.174a.973.973,0,0,0-1.375,0L18.082,6.215l2.593,2.593,1.041-1.041A.972.972,0,0,0,21.715,6.391Z" fill="#707070"/>
</svg>
