<svg id="Layer_1" data-name="Layer 1" xmlns="http://www.w3.org/2000/svg" viewBox="0 0 1034.67 1080"><path d="M100.81,484.58c6.57-19.62,20.62-27.2,40.69-26.06,10.54.6,21.18-.43,31.71.22,9.46.58,18.83,2.46,29.43,3.94,2.45-7.66,5.54-17.39,8.68-27.1,8.08-25,15.16-50.33,24.52-74.82,12.12-31.7,36.61-48.21,70.32-50.09,17-.94,34.12-.16,51.7-.16,5.51-18.82,10.92-37.23,16.29-55.65,7.51-25.75,20.44-35.52,47.14-35.51q96.39,0,192.77,0c25.68,0,38.8,9.83,46.19,34.65,5.41,18.15,10.73,36.33,16.12,54.49a9.22,9.22,0,0,0,1.23,1.85c14.55,0,29.44-.05,44.32,0,40.06.15,68,20.51,80.18,58.58,9.34,29.12,18.51,58.3,27.77,87.44.89,2.78,2,5.49,2.21,6.2,10.71-1.42,20.36-3.32,30.08-3.82,12.44-.65,24.94-.32,37.41-.17,20.67.27,33.94,13.61,34.22,34.26q.15,10.15,0,20.33c-.25,20.78-13.18,33.92-34,34.52-6.76.19-13.53,0-21.51,0,1.64,2.79,2.7,4.81,4,6.7,15.54,23.42,23.84,49.08,23.61,77.29-.24,29,.64,58.08-1.31,87-2,29.36-18.33,50.38-45,62.76-5.58,2.59-7.49,5.29-7.29,11.35.47,14.89.2,29.82.09,44.73-.21,31.58-20.49,52-51.87,52.13-16.27.09-32.54.24-48.81,0-29.58-.48-49.82-20.74-50.33-50.39-.28-16.48-.05-33-.05-49.91H333.35c0,16.49.12,32.68,0,48.86-.24,26.2-15.63,45.78-39.62,50.42a66.44,66.44,0,0,1-12.13,1c-16.27.11-32.54.2-48.8,0-29.59-.35-49.92-20.54-50.45-50.23-.28-16,.14-32-.26-48-.06-2.44-2.27-6.16-4.4-7-30.21-12.26-47.1-34.75-48.3-67-1.24-33.28-.8-66.69.45-100,.94-25.23,11.56-47.61,27.17-69.78-23.89.9-47.23,2.09-56.17-25.7Zm741.75,61.73c-7.54,13.57-13.93,26.06-21.29,38-4.5,7.28-9.66,14.56-16,20.24-14.85,13.37-33.17,17.11-52.78,17.08q-187.1-.24-374.18-.13c-12.58,0-18.52-3.76-18.72-11.81-.22-8.43,6-12.59,19-12.59H595q79.31,0,158.62,0c14.89,0,29.93-2.16,39-14.39,11-14.83,19.28-31.72,30.23-50.25-11-1.05-19.42-2.56-27.84-2.56q-211.9-.23-423.79-.11c-44.74,0-89.48-.09-134.22.19-7.53,0-15.06,1.73-23.92,2.83,7.54,13.66,14.42,25,20.2,36.9,9.44,19.42,25.35,27.21,46,27.36,11.12.08,22.24-.13,33.35.07,9,.16,14.32,4.83,14.4,12.11s-5.36,12.17-14.14,12.24c-13.28.11-26.6.46-39.84-.29-25.49-1.45-45.69-12.32-58.46-35.18-6.08-10.88-12.07-21.8-18.16-32.67-1.13-2-2.58-3.86-3.71-5.53a8.82,8.82,0,0,0-2.34.51,28.38,28.38,0,0,0-3.16,2.52c-18.77,17.84-31.22,39.42-32.64,65.32-1.69,30.83-1.19,61.78-1.31,92.67-.14,35.38,20.14,55.64,55.29,55.64q259.49,0,519,0c32.54,0,65.08.15,97.61-.05,30.49-.19,53.33-19.14,55.21-49.34,1.94-31.31.74-62.83.27-94.26-.11-7.71-2-15.63-4.32-23.05C870,578.13,859.77,560.94,842.56,546.31ZM820.5,507.43c-14-44.18-27.6-87-41.2-129.78-.82-2.58-1.69-5.15-2.69-7.66-9.2-23.08-27.7-35.13-54.92-35.14q-204.18-.12-408.35,0c-30.33,0-48.67,13.71-57.87,42.49q-9.63,30.17-19.24,60.34c-7.26,22.88-14.45,45.78-21.84,69.21,6.39-.52,12-1.51,17.56-1.28s7.86-2,9.5-7.29c11-35.41,22.31-70.71,33.52-106.06,7.51-23.66,20.68-33.47,45.54-33.49q129.75-.12,259.49-.08a95.14,95.14,0,0,1,10.55.43c6.71.74,10.28,5.05,10.45,11.42s-3.22,10.79-9.85,11.95a44.22,44.22,0,0,1-7.26.64q-27.25.11-54.5.08-104.13,0-208.24,0c-14.79,0-18.7,3-23.27,17.43q-11.75,37.15-23.44,74.33c-3.07,9.74-6.15,19.48-9.45,29.93H769.37c-.57-2.26-.92-4.07-1.47-5.82Q752,448.72,736,398.43c-3.81-11.92-8.26-15.17-20.71-15.24-21.14-.11-42.29,0-63.44-.08a35.26,35.26,0,0,1-9.64-1.06c-5.63-1.64-8.29-5.85-8.06-11.69s3.29-9.66,9-11a32,32,0,0,1,7.27-.57c21.42-.06,42.84-.16,64.26-.07,24.12.1,37.63,10.15,45,33.23,10.33,32.5,21.13,64.87,30.67,97.6,3.26,11.19,7,18.67,20.24,16.41C813.23,505.48,816.24,506.74,820.5,507.43ZM383.42,309.9H650.23a7.54,7.54,0,0,0,.18-2.06c-4.75-16.37-9.48-32.74-14.33-49.08-3.39-11.42-8.07-14.91-20-14.95-18.43-.06-36.86,0-55.29,0q-71.14,0-142.28,0c-8.31,0-15.56,2-18.29,10.45C394.33,272.41,389.13,290.85,383.42,309.9ZM725.81,789.16c0,18.41-.52,36,.17,53.49.53,13.22,10.78,22.35,24.14,22.55,17.59.26,35.19.21,52.77,0,14.63-.19,24.39-9.8,24.92-24.38.32-8.92.11-17.86.12-26.79q0-12.39,0-24.85Zm-416.92.37H206.76c0,18-.41,35.26.13,52.54.42,13.43,10.84,23,24.51,23.14q26.39.36,52.79,0c14.1-.19,24.2-9.79,24.59-23.88C309.24,824.3,308.89,807.25,308.89,789.53ZM157.76,483v0c-7.31,0-14.61.09-21.92,0-7.52-.13-10.87,3.43-10.64,10.92.21,6.48.09,13,0,19.47,0,6.29,3.07,9.76,9.28,9.83,14.88.16,29.78.48,44.63-.15,6.22-.26,11.15-3.62,10.64-11.45-.38-5.92-.12-11.9-.07-17.85.05-7.33-3.31-11-10.87-10.82C171.83,483.19,164.79,483,157.76,483Zm719.77,0c-7,0-14.06-.07-21.09,0-9,.11-11.35,2.5-11.52,11.71-.11,5.67.32,11.37,0,17-.48,7.89,4.56,11,10.8,11.29,14.85.59,29.74.35,44.61.16,6.22-.08,9.21-3.71,9.12-10-.09-6.76-.06-13.52,0-20.28s-3.36-9.93-10-9.93Q888.48,483.06,877.53,483Z"/><path d="M517.47,738.33c-42.83,0-85.66.07-128.49,0-17.08,0-30.92-9.1-31.45-24.35-.77-22,5.32-43.38,16.15-62.64,5.09-9,15.23-11.37,25.58-11.29,20.06.14,40.12,0,60.17,0q86.61,0,173.22,0c21.65,0,31,7.24,36.35,28.12,2.71,10.48,5.63,20.91,8.09,31.45,5.08,21.78-7.89,38.52-30.32,38.64C603.67,738.49,560.57,738.33,517.47,738.33Zm-.1-24.4v0q63,0,126.06,0c10.48,0,11.59-1.42,9.15-11.3-2.33-9.46-5.06-18.84-7-28.38-1.48-7.46-5.19-10.06-12.84-10-31.17.38-62.35.17-93.53.18-45.81,0-91.63.17-137.44-.08-7.33,0-10.78,2.5-12.2,9.68-1.84,9.27-4.66,18.35-7,27.53-2.79,10.91-1.66,12.39,9.52,12.39Q454.75,714,517.37,713.93Z"/><path d="M313.38,734.23c-28.38-3-58-6.05-87.62-9.5-11.09-1.29-17.93-8.1-20.9-18.87-3.59-13.05-7.55-26-10.86-39.11-4.9-19.37,7.52-33.5,27.43-31.29,25,2.77,50,5.86,75.07,8.76,11.48,1.33,19.5,6.94,24,17.87,5.38,13,11.69,25.62,16.92,38.67C344.42,718.14,332.94,734.65,313.38,734.23Zm1.47-24.37c-5.6-12.72-10.76-23.94-15.45-35.35-1.8-4.38-4.39-5.91-9-6.33-11.56-1-23.06-2.79-34.6-4.17-12.45-1.48-24.91-2.85-38.39-4.38,3.75,13.44,7,25.41,10.52,37.27.48,1.61,2.62,3.67,4.19,3.85C258.91,703.86,285.76,706.71,314.85,709.86Z"/><path d="M729.38,733.4c-27.34,2.39-39.62-14.44-31-34.75,5.29-12.46,11-24.72,16.33-37.17,4.49-10.52,12.42-15.94,23.62-17.23,25-2.87,50-6,75.06-8.76,20.4-2.27,32.67,11.81,27.59,31.74-3.28,12.84-7.24,25.51-10.71,38.31-3.33,12.29-11.57,18.39-23.89,19.69C778.88,728.13,751.41,731.06,729.38,733.4Zm88.37-73.93c-26.82,3.2-51.72,6.15-76.6,9.24a5.47,5.47,0,0,0-3.77,2.51c-5.65,12.38-11.08,24.87-17.14,38.63,28.66-3.1,55.77-6,82.85-9.08a5.51,5.51,0,0,0,3.81-3.17C810.53,685.49,813.87,673.29,817.75,659.47Z"/><path d="M548.89,285.49c-2.91,4.88-5.51,8.95-7.83,13.19-2.12,3.87-5.28,5.25-8.43,2.27-1.36-1.29-1.68-6-.48-7.28,10.18-10.68,9.57-20.8.05-31.49-1.09-1.23.49-4.83.83-7.33,2.69.72,6.35.6,7.85,2.35,3.1,3.6,5,8.19,8,13.23,2.77-4.74,5.17-8.56,7.29-12.53,2-3.67,4.8-6,8.21-2.84,1.49,1.36.73,5.18.95,7.89,0,.21-.24.49-.42.68-9.73,9.88-8.72,19.48.41,29.21,2.49,2.65,4.38,6.77-.66,8.37-2.19.7-6.26-1.28-8.08-3.3C553.56,294.58,551.71,290.22,548.89,285.49Z"/><path d="M510.08,292.67H497.13c-3.73,3-1.21,12-9.23,9s-2.35-8.76-1.3-12.95a246,246,0,0,1,8.89-28.53c1.07-2.78,5.06-6.16,7.67-6.12s6.46,3.54,7.48,6.35c4,10.88,6.84,22.13,10.42,33.15,1.27,3.88,1.72,7.49-3.07,8-2.06.2-4.59-2.72-6.58-4.57C510.58,296.21,510.6,294.51,510.08,292.67Zm-2.43-8.8c-1.41-5.08-2.65-9.58-3.89-14.08l-1.6.07c-1.14,4.49-2.27,9-3.55,14Z"/><path d="M457.74,264.77a12.63,12.63,0,0,0-1.55-1.24c-3.81-1.24-10.78,2-10.19-5.61.52-6.66,6.67-3.77,10.48-4.07a83.7,83.7,0,0,1,16.22.08c2.58.3,6.61,2.18,7.05,4,1.18,5-3,5.32-6.75,5.29-1.29,0-2.59.19-4.67.36,0,10.51,0,20.74,0,31,0,3.65.25,7.41-4.84,7.68-5.53.28-5.81-3.54-5.79-7.63C457.78,284.41,457.74,274.2,457.74,264.77Z"/><path d="M578.87,277.69c0-5.66-.48-11.39.22-17,.3-2.4,3-4.49,4.67-6.71,1.75,2.11,4.92,4.16,5,6.34.5,11.86.5,23.75,0,35.6-.09,2.17-3.29,4.2-5.06,6.3-1.61-2.25-4.34-4.37-4.62-6.77C578.41,289.62,578.87,283.63,578.87,277.69Z"/></svg>