<svg id="Layer_1" data-name="Layer 1" xmlns="http://www.w3.org/2000/svg" viewBox="0 0 1034.67 1080"><path d="M919.11,809.93c-13.93,33.62-34.35,63.6-54.33,93.61-17,25.56-44.3,34.84-73.58,39.38-48.59,7.55-95.57.41-141.58-15.1-70.32-23.69-132-62.78-189.57-108.63C367.59,745.57,285.33,661.92,216.3,565.78c-36.79-51.23-67.25-106-85-167-10.65-36.55-16.05-73.81-11.88-112,2.94-26.9,7.49-53.44,26.81-74.31a112.62,112.62,0,0,1,21.9-18.65c22.43-14.23,45.33-27.73,68.24-41.18,5.52-3.24,11.82-5.14,17.75-7.66h15.65c17.76,4.63,28.9,16.79,38.65,31.69,32.54,49.69,65.8,98.9,98.7,148.36,13.42,20.18,13.2,41.37-.66,58.7A66,66,0,0,1,395.69,394c-17.81,14-35.76,27.9-53.64,41.84-12.93,10.07-14.48,18.53-6.91,33.18,21.84,42.26,50.41,79.61,82.92,114.07,40.29,42.71,81.6,84.38,130.3,117.7,15.87,10.86,32.83,20.17,49.64,29.57,11.49,6.43,20.78,3.83,29.37-7.13,13.67-17.43,27.19-35,40.81-52.44,21-27,45.2-31,73.5-12.09,48.56,32.36,97,65,145.78,97,14.9,9.74,27.08,20.86,31.65,38.66ZM757,919.49c6.85-.69,20.11-1.64,33.25-3.45,27.45-3.78,48.59-16.84,62.33-41.73,10.81-19.6,23-38.47,34.44-57.69,8.58-14.33,6.29-24.54-7.61-33.82q-77-51.43-154.1-102.79c-14.62-9.75-24.11-8.21-34.93,5.62-14.3,18.26-28.39,36.69-42.78,54.88-16.41,20.75-39.38,25.66-62.63,13.28-12.4-6.61-24.69-13.49-36.65-20.87-42.88-26.5-79.63-60.46-115.21-95.73C386,590.45,342,541.19,311.31,481.48c-13.34-25.92-9.2-48.37,13.78-66.29,18.29-14.26,36.69-28.39,54.88-42.77,11.55-9.13,13.46-19.37,5.46-31.44Q332.75,261.51,279.7,182.29c-7.35-11-18.46-13.3-29.95-6.5-21.74,12.86-43.37,25.93-65,39-17.33,10.44-28.8,25.36-33.71,45.05-9.95,39.88-7.62,79.59,2.31,119.07C169.62,443.57,202,500.41,240.44,554,291.24,624.9,351,687.75,415.29,746.35c57.79,52.67,119.32,100.23,190,134.71C651.14,903.42,699,918.6,757,919.49Z"/><path d="M585.39,252.59c108.62,4.88,207.2,82.8,233.13,195.47,4.11,17.89,5,36.56,6.68,54.93.86,9.31-4.63,15.41-12.45,15.78-7.6.35-12.83-5.55-14.08-14.71-2.81-20.58-3.84-41.71-9.43-61.54C771.82,380.76,733.4,335.06,677,304.74a213.21,213.21,0,0,0-95.74-25.54A77.16,77.16,0,0,1,569.61,278c-6.81-1.25-10.48-5.64-10.62-12.49s3.29-11.75,10.1-12.79C574.41,251.94,580,252.59,585.39,252.59Z"/><path d="M580.27,332.56c90.36,4,162.42,77.56,165,168.39.32,11-4.52,17.69-13,17.85-8.08.15-13.11-6-13.64-16.66-3.18-64.19-40.37-115-100.34-135.48-12.15-4.15-25.4-5.08-38.17-7.4-2-.37-4.17-.16-6.24-.38-10.28-1.11-15.42-6.05-15-14.33s6.4-12.59,16.64-12.24C577.15,332.37,578.71,332.48,580.27,332.56Z"/><path d="M576.89,412.43c47.33,1.5,88.33,43.45,88.48,90.53,0,9.2-5,15.44-12.8,15.82-7.23.35-13.05-5-13.74-13.95-1.61-20.73-9.15-38.31-25.74-51.46-11.17-8.85-23.9-13.4-38.12-14.31-11.3-.73-16.74-6.09-16-14.95C559.73,415.8,565.45,412.07,576.89,412.43Z"/></svg>