<svg id="Layer_1" data-name="Layer 1" xmlns="http://www.w3.org/2000/svg" viewBox="0 0 1034.67 1080"><path d="M112.89,294.76c5.42-14.52,14-25.79,30.17-29.11a55.08,55.08,0,0,1,11-.88q363.29-.06,726.57,0c25.68,0,41.12,15.57,41.15,41.45q.06,47,0,94c0,10.41-4.92,16.43-13,16.18-7.8-.25-12.24-6-12.25-16.12q0-46.61,0-93.21c0-12.94-4.05-17-17-17H155.32c-13.27,0-17.14,4-17.14,17.59q0,197.47,0,394.94c0,13.33,4,17.24,17.51,17.24l492,0c2.64,0,5.27-.09,7.9,0,8,.39,13.33,5.5,13.32,12.66s-5.33,12.49-13.4,12.55c-25.54.17-51.07.07-76.61.07H568.34v50.56c7.85,0,15.89-.1,23.92,0,33,.47,58.31,22.32,63.54,54.66,2.49,15.39-2.35,21.21-17.7,21.21l-241.66,0c-15,0-19.91-5.68-17.75-20.54,4.73-32.38,30.83-55,63.8-55.33,7.83-.07,15.66,0,23.88,0V745.07H457.3c-99,0-198-.37-296.94.28-23.44.16-39.58-7.73-47.47-30.3ZM628.18,845.87c-5.76-15.3-18.47-24.75-34.19-24.82q-76.56-.34-153.11,0c-13.9.06-24.57,6.79-31.93,18.57a45.67,45.67,0,0,0-2.66,6.25ZM492.54,745.24v49.84H542V745.24Z"/><path d="M694.26,656.18q0-86.1,0-172.19c0-26.91,15.23-42.27,41.89-42.28q72.26,0,144.52,0c25.31,0,41.05,15.58,41.06,40.72q.06,174.16,0,348.32c0,25.1-15.79,40.7-41.09,40.72q-72.64.06-145.3,0c-25.55,0-41.1-15.72-41.11-41.53q-.07-86.88,0-173.76Zm202.22.4h0q0-86.1,0-172.21c0-13.41-4-17.38-17.39-17.38q-71.09,0-142.17,0c-13.41,0-17.32,3.93-17.32,17.41q0,172.22,0,344.43c0,13.43,3.94,17.36,17.39,17.36q70.68,0,141.38,0c14.47,0,18.15-3.69,18.16-18.2Z"/><path d="M807.86,644c34.6-.09,63.11,28,63.32,62.42a63.4,63.4,0,0,1-63.46,64c-34.45,0-62.74-28.31-62.89-62.86A63.28,63.28,0,0,1,807.86,644Zm-37.72,62.72a37.88,37.88,0,1,0,75.75.9c.31-20.5-16.63-38-37-38.32A38.06,38.06,0,0,0,770.14,706.68Z"/><path d="M757.48,517.48A12.58,12.58,0,1,1,770,504.86,12.69,12.69,0,0,1,757.48,517.48Z"/><path d="M808.32,492.32a12.58,12.58,0,1,1-12.88,12.26A12.71,12.71,0,0,1,808.32,492.32Z"/><path d="M871.17,505.52a12.6,12.6,0,1,1-11.79-13.18A12.77,12.77,0,0,1,871.17,505.52Z"/><path d="M758.07,542.89a12.59,12.59,0,1,1-13.19,12A12.75,12.75,0,0,1,758.07,542.89Z"/><path d="M820.62,555.44a12.59,12.59,0,1,1-12.43-12.55A12.74,12.74,0,0,1,820.62,555.44Z"/><path d="M858.59,568a12.58,12.58,0,1,1,12.54-12.62A12.69,12.69,0,0,1,858.59,568Z"/><path d="M770.07,606a12.6,12.6,0,1,1-12.44-12.55A12.75,12.75,0,0,1,770.07,606Z"/><path d="M820.58,605.76a12.57,12.57,0,1,1-12.84-12.31A12.75,12.75,0,0,1,820.58,605.76Z"/><path d="M858.67,593.45A12.58,12.58,0,1,1,846,605.9,12.69,12.69,0,0,1,858.67,593.45Z"/><path d="M770,808.4a12.58,12.58,0,1,1-12.46-12.7A12.73,12.73,0,0,1,770,808.4Z"/><path d="M807.73,820.85a12.58,12.58,0,1,1,12.85-12.31A12.7,12.7,0,0,1,807.73,820.85Z"/><path d="M871.13,808.19a12.59,12.59,0,1,1-12.45-12.53A12.72,12.72,0,0,1,871.13,808.19Z"/></svg>