<svg id="Layer_1" data-name="Layer 1" xmlns="http://www.w3.org/2000/svg" viewBox="0 0 1034.67 1080"><path d="M514.72,189.88h128a12.21,12.21,0,0,0,0-24.41h-128a12.21,12.21,0,0,0,0,24.41Z"/><path d="M514.72,241.58h128a12.21,12.21,0,0,0,0-24.41h-128a12.21,12.21,0,0,0,0,24.41Z"/><path d="M251.19,534.79h4.73a12.2,12.2,0,1,0,0-24.4h-4.73a12.2,12.2,0,0,0,0,24.4Z"/><path d="M338.8,510.39H303.08a12.2,12.2,0,0,0,0,24.4H338.8a12.2,12.2,0,0,0,0-24.4Z"/><path d="M642.71,510.39h-256a12.2,12.2,0,0,0,0,24.4h256a12.2,12.2,0,0,0,0-24.4Z"/><path d="M251.19,434.08h4.73a12.2,12.2,0,1,0,0-24.4h-4.73a12.2,12.2,0,0,0,0,24.4Z"/><path d="M338.8,409.68H303.08a12.2,12.2,0,0,0,0,24.4H338.8a12.2,12.2,0,0,0,0-24.4Z"/><path d="M642.71,409.68h-256a12.2,12.2,0,0,0,0,24.4h256a12.2,12.2,0,0,0,0-24.4Z"/><path d="M251.19,655.84h4.73a12.2,12.2,0,1,0,0-24.4h-4.73a12.2,12.2,0,0,0,0,24.4Z"/><path d="M338.8,631.44H303.08a12.2,12.2,0,0,0,0,24.4H338.8a12.2,12.2,0,0,0,0-24.4Z"/><path d="M281.22,765.61a17.84,17.84,0,0,1,17.83,17.82,12.21,12.21,0,0,0,24.41,0,42.32,42.32,0,0,0-30-40.42V736.9a12.2,12.2,0,1,0-24.4,0V743a42.23,42.23,0,0,0,12.2,82.66,17.82,17.82,0,1,1,.21,35.64H281a17.84,17.84,0,0,1-17.61-17.81,12.2,12.2,0,1,0-24.4,0,42.3,42.3,0,0,0,30,40.41v7.48a12.2,12.2,0,1,0,24.4,0v-7.48a42.22,42.22,0,0,0-12.2-82.64,17.83,17.83,0,0,1,0-35.66Z"/><path d="M390,765.61a17.84,17.84,0,0,1,17.83,17.82,12.2,12.2,0,1,0,24.4,0,42.3,42.3,0,0,0-30-40.42V736.9a12.2,12.2,0,0,0-24.4,0V743A42.23,42.23,0,0,0,390,825.67a17.82,17.82,0,1,1,.21,35.64h-.42a17.84,17.84,0,0,1-17.62-17.81,12.21,12.21,0,1,0-24.41,0,42.31,42.31,0,0,0,30,40.41v7.48a12.2,12.2,0,1,0,24.4,0v-7.48A42.22,42.22,0,0,0,390,801.27a17.83,17.83,0,1,1,0-35.66Z"/><path d="M251.19,345H452.62a12.21,12.21,0,0,0,12.21-12.2V177.67a12.21,12.21,0,0,0-12.21-12.2H251.19a12.2,12.2,0,0,0-12.2,12.2v155.1A12.2,12.2,0,0,0,251.19,345Zm12.2-155.09h177V320.57h-177Z"/><path d="M514.72,345h128a12.2,12.2,0,0,0,0-24.4h-128a12.2,12.2,0,0,0,0,24.4Z"/><path d="M514.72,293.28h128a12.21,12.21,0,0,0,0-24.41h-128a12.21,12.21,0,0,0,0,24.41Z"/><path d="M723.53,547.55V47.42a12.21,12.21,0,0,0-19.83-9.53L645.23,84.67,586.75,37.89a12.22,12.22,0,0,0-15.25,0L513,84.67,454.55,37.89a12.22,12.22,0,0,0-15.25,0L380.83,84.67,322.36,37.89a12.22,12.22,0,0,0-15.25,0L248.67,84.67,190.21,37.89a12.2,12.2,0,0,0-19.83,9.53v958.79a12.2,12.2,0,0,0,19.82,9.53L248.68,969l58.48,46.77a12.21,12.21,0,0,0,15.26,0L380.89,969l58.47,46.77a12.2,12.2,0,0,0,15.25,0l59-47.18a256.18,256.18,0,1,0,209.94-421ZM447,990.59,388.5,943.81a12.2,12.2,0,0,0-15.25,0l-58.48,46.78L256.3,943.81a12.2,12.2,0,0,0-15.25,0l-46.27,37v-908l46.26,37a12.22,12.22,0,0,0,15.25,0l58.46-46.78,58.47,46.78a12.22,12.22,0,0,0,15.25,0l58.47-46.78,58.47,46.78a12.22,12.22,0,0,0,15.25,0l58.48-46.78,58.48,46.78a12.24,12.24,0,0,0,15.26,0l46.28-37V547.37A255.69,255.69,0,0,0,519.5,631.44H386.72a12.2,12.2,0,0,0,0,24.4H499.91a255.69,255.69,0,0,0-1.2,293.36Zm262.31,44.64c-128,0-231.83-103.8-231.83-231.84S581.25,571.56,709.29,571.56,941.13,675.35,941.13,803.39,837.27,1035.08,709.29,1035.23Z"/><path d="M601,703.82a7.29,7.29,0,0,0-12.59,0l-52.88,90.26a68.58,68.58,0,1,0,118.35,0Zm31.87,163.09a54,54,0,0,1-84.74-65.45L594.7,722l46.57,79.5A54,54,0,0,1,632.86,866.91Z"/><path d="M629.58,820.68a7.29,7.29,0,0,0-8.6,5.72,26.84,26.84,0,0,1-17.54,20,7.3,7.3,0,1,0,4.75,13.81,41.45,41.45,0,0,0,27.09-31A7.3,7.3,0,0,0,629.58,820.68Z"/><path d="M722.71,747c-2.91-.42-5.5-.32-7.71-1.2A9.79,9.79,0,0,1,709.15,735c.78-4.13,5-7.35,10-7.4,8.55-.08,17.09,0,26.21,0,0-6.34.09-11.84,0-17.34-.11-5.16-.54-10.31-.67-15.46-.12-4.83.23-9.68-.07-14.5-.42-6.64,5-9.68,9.29-9.77,5.14-.11,9.48,4.39,9.61,9.8q.42,17.55.73,35.09c.06,3.47,0,6.94,0,10.18h39.71c0-7.84.07-15.16,0-22.48-.1-8.43-.59-16.88-.37-25.3.12-4.8,5-8.59,9.86-8.7a9,9,0,0,1,8.89,8.4c.63,13.48.77,27,1.18,40.47.07,2.34.54,4.67.8,6.74,9.35,0,18.24-.06,27.13,0a9.31,9.31,0,0,1,9.14,9.28,9.71,9.71,0,0,1-9.09,9.5c-1.32.07-2.65,0-4.31,0,0,6.6-.16,13.06,0,19.5.38,12.61,1.19,25.15-2.18,37.64-2.41,8.91-7.47,16-12.79,23.14-2.42,3.23-8.17,3.16-12.94.15-3-1.93-4.18-7.14-2.25-11.07a41.41,41.41,0,0,1,3.35-5.52c5.47-7.69,8.32-16,7.76-25.67-.53-9.15-.17-18.35-.32-27.53-.06-3.12-.46-6.22-.75-9.9l-84,2c0,7.76,0,15.06,0,22.37,0,4.34.29,8.69.18,13-.32,13,4.59,23.83,13.87,32.54a41.37,41.37,0,0,0,27.38,11.18c9.24.36,12.23,3.23,12.34,12.44.15,12.53.47,25.06.68,37.6a12.23,12.23,0,0,0,12.37,12.33c8.07,0,16.14-.43,24.21-.32,11.77.16,20.72,5.42,26.4,15.82,6.32,11.6,5.4,22.68-2.28,33.48-5.35,7.54-12.59,11.33-21.54,11.94-7.79.53-15.62.7-23.43.86-8.34.17-12.56,3.88-13.54,12.22-.64,5.4-5.29,10.24-9.68,10.06-5.41-.21-9.64-4.72-9.66-11a25.41,25.41,0,0,1,1.65-9.47c5.24-12.89,14.73-20.19,28.92-20.71,7.7-.29,15.4-.48,23.1-.71,6.25-.18,10-3.87,10.93-10.7.71-5.3-2.72-11.28-8-12.17-4.57-.77-9.37-.18-14.07-.23-6.75-.06-13.54.24-20.24-.41-3.18-.31-6.46-2-9.21-3.85-9.26-6.08-15-14.26-14.91-25.94.07-9.88-.48-19.76-.62-29.63,0-2-.54-3-2.67-3.4-16.76-2.75-29.77-11.35-39.8-25-7.33-10-10.62-21.15-11.13-33.27-.46-11-.52-21.92-.83-32.88A44.43,44.43,0,0,0,722.71,747Z"/></svg>