<svg xmlns="http://www.w3.org/2000/svg" width="24.5" height="19.6" viewBox="0 0 24.5 19.6">
  <path id="add-benef" d="M23.887,7.962h-2.45V5.512a.614.614,0,0,0-.613-.612H19.6a.614.614,0,0,0-.613.612v2.45h-2.45a.614.614,0,0,0-.613.613V9.8a.614.614,0,0,0,.613.612h2.45v2.45a.614.614,0,0,0,.613.612h1.225a.614.614,0,0,0,.613-.612v-2.45h2.45A.614.614,0,0,0,24.5,9.8V8.575A.614.614,0,0,0,23.887,7.962ZM8.575,9.8a4.9,4.9,0,1,0-4.9-4.9A4.9,4.9,0,0,0,8.575,9.8ZM12,11.025h-.639a6.664,6.664,0,0,1-5.581,0H5.145A5.146,5.146,0,0,0,0,16.17v1.592A1.838,1.838,0,0,0,1.837,19.6H15.313a1.838,1.838,0,0,0,1.837-1.838V16.17A5.146,5.146,0,0,0,12,11.025Z" fill="#248b92"/>
</svg>
