<?xml version="1.0" encoding="UTF-8" standalone="no"?>
<!-- Generated by IcoMoon.io -->

<svg
   xmlns:dc="http://purl.org/dc/elements/1.1/"
   xmlns:cc="http://creativecommons.org/ns#"
   xmlns:rdf="http://www.w3.org/1999/02/22-rdf-syntax-ns#"
   xmlns:svg="http://www.w3.org/2000/svg"
   xmlns="http://www.w3.org/2000/svg"
   xmlns:sodipodi="http://sodipodi.sourceforge.net/DTD/sodipodi-0.dtd"
   xmlns:inkscape="http://www.inkscape.org/namespaces/inkscape"
   version="1.1"
   width="32"
   height="32"
   viewBox="0 0 32 32"
   id="svg4"
   sodipodi:docname="auth-close.svg"
   inkscape:version="0.92.4 (5da689c313, 2019-01-14)">
  <metadata
     id="metadata10">
    <rdf:RDF>
      <cc:Work
         rdf:about="">
        <dc:format>image/svg+xml</dc:format>
        <dc:type
           rdf:resource="http://purl.org/dc/dcmitype/StillImage" />
      </cc:Work>
    </rdf:RDF>
  </metadata>
  <defs
     id="defs8" />
  <sodipodi:namedview
     pagecolor="#ffffff"
     bordercolor="#666666"
     borderopacity="1"
     objecttolerance="10"
     gridtolerance="10"
     guidetolerance="10"
     inkscape:pageopacity="0"
     inkscape:pageshadow="2"
     inkscape:window-width="640"
     inkscape:window-height="480"
     id="namedview6"
     showgrid="false"
     inkscape:zoom="7.375"
     inkscape:cx="16"
     inkscape:cy="16"
     inkscape:window-x="0"
     inkscape:window-y="0"
     inkscape:window-maximized="0"
     inkscape:current-layer="svg4" />
  <path
     style="fill:#008080"
     d="M23.051 8.95c-0.164-0.165-0.392-0.268-0.643-0.268s-0.479 0.102-0.643 0.268l-5.765 5.765-5.765-5.765c-0.165-0.165-0.392-0.266-0.643-0.266-0.502 0-0.91 0.407-0.91 0.91 0 0.251 0.102 0.479 0.266 0.643l5.765 5.765-5.765 5.765c-0.164 0.165-0.266 0.392-0.266 0.644 0 0.502 0.405 0.909 0.905 0.912h0c0.001 0 0.002 0 0.003 0 0.25 0 0.475-0.103 0.637-0.269l5.765-5.765 5.765 5.765c0.164 0.165 0.39 0.267 0.639 0.269h0c0.002 0 0.005 0 0.008 0 0.248 0 0.472-0.103 0.632-0.269l0-0c0.165-0.164 0.268-0.392 0.268-0.643s-0.102-0.479-0.268-0.643l-0-0-5.751-5.765 5.765-5.765c0.165-0.164 0.268-0.392 0.268-0.643s-0.102-0.479-0.268-0.643l-0-0z"
     id="path2" />
</svg>
