<svg xmlns="http://www.w3.org/2000/svg" width="5220" height="930" viewBox="0 0 5220 930">
  <g id="biometric" transform="translate(513.967 221)">
    <rect id="Rectangle_3" data-name="Rectangle 3" width="5220" height="930" rx="8" transform="translate(-513.967 -221)" fill="#9acd00"/>
    <g id="finger-print" transform="translate(20.791 80.637)">
      <path id="Path_1" data-name="Path 1" d="M74.289,172.818A10.219,10.219,0,0,1,65.395,157.5c12.978-21.879,52.434-73,138.636-73,37.34,0,70.082,9.919,97.288,29.463,22.39,16.045,34.933,34.2,40.913,42.955a10.135,10.135,0,0,1-2.7,14.148,10.373,10.373,0,0,1-14.294-2.7c-10.864-15.753-43.831-63.594-121.209-63.594-75.555,0-109.686,44.05-120.844,62.938a10.067,10.067,0,0,1-8.9,5.105Z" transform="translate(-64.033 -46.212)" fill="#248b92"/>
      <path id="Path_2" data-name="Path 2" d="M251.691,387.04a10.162,10.162,0,0,1-2.553-.292c-62.5-15.683-85.838-78.837-86.786-81.462l-.146-.583c-.511-1.823-13.054-45.143,6.2-70.523,8.822-11.6,22.243-17.5,39.966-17.5,16.482,0,28.369,5.178,36.538,15.9,6.709,8.751,9.408,19.545,12.033,29.977,5.473,21.66,9.408,33.037,32.162,34.2,9.991.51,16.555-5.4,20.274-10.429,10.064-13.711,11.814-36.1,4.23-55.788-9.772-25.525-44.341-73.586-105.311-73.586-26.036,0-49.957,8.46-69.137,24.358-15.9,13.2-28.516,31.8-34.568,50.9-11.231,35.589,3.5,91.527,3.646,92.037a10.116,10.116,0,0,1-7.293,12.4,10.358,10.358,0,0,1-12.616-7.22c-.653-2.553-16.409-62.209-3.431-103.341C99.05,181.525,142.662,136.6,208.3,136.6c30.339,0,59,10.429,82.921,30.12,18.524,15.315,33.693,35.882,41.57,56.447,10.064,26.255,7.366,55.718-6.856,74.972-9.481,12.835-22.973,19.548-37.923,18.813-38.945-1.969-45.946-29.463-51.051-49.519-5.251-20.566-8.606-30.484-28.661-30.484-11.012,0-18.743,3.063-23.556,9.408-6.564,8.679-7.074,22.243-6.345,32.089a104.735,104.735,0,0,0,3.431,20.274c1.6,4.084,22.462,55.788,72.419,68.335a10.129,10.129,0,0,1,7.439,12.325,10.353,10.353,0,0,1-9.991,7.658Z" transform="translate(-68.301 -60.316)" fill="#248b92"/>
      <path id="Path_3" data-name="Path 3" d="M185.886,396.882a10.383,10.383,0,0,1-7.515-3.209c-25.015-26.546-39.163-56.228-44.487-93.35V300.1c-2.99-24.577,1.389-59.365,22.827-83.285,15.826-17.649,38.069-26.619,66-26.619,33.037,0,59,15.534,75.191,44.852a126.07,126.07,0,0,1,14.153,43.393,10.3,10.3,0,1,1-20.494,2.115,105.567,105.567,0,0,0-12.031-36.246c-12.544-22.39-31.651-33.766-56.885-33.766-21.809,0-38.871,6.637-50.613,19.767-16.919,18.889-20.2,47.988-17.868,67.241,4.667,32.819,17.138,58.927,39.163,82.264a10.087,10.087,0,0,1-.511,14.367,10.345,10.345,0,0,1-6.928,2.7Z" transform="translate(-82.718 -74.826)" fill="#248b92"/>
      <path id="Path_4" data-name="Path 4" d="M296.689,324.812c-21.879,0-40.476-6.126-55.354-18.306-29.9-24.358-33.256-64.032-33.4-65.709a10.278,10.278,0,1,1,20.494-1.6c.072.583,3.062,33.037,26.108,51.7,13.641,11.012,31.87,15.388,54.333,12.835a10.25,10.25,0,0,1,11.381,8.974,10.128,10.128,0,0,1-9.043,11.231,124.826,124.826,0,0,1-14.516.875Zm17.285-270.5C305.44,48.7,275.175,32,218.29,32c-59.729,0-90.068,18.451-96.777,23.116a7.962,7.962,0,0,0-1.24.948.226.226,0,0,1-.146.073,10.128,10.128,0,0,0,6.855,17.725,10.417,10.417,0,0,0,5.98-1.9l-.073.073c.292-.219,26.474-19.691,85.4-19.691s85.112,19.545,85.4,19.691l-.073-.073.146-.146a10.22,10.22,0,1,0,10.21-17.5Z" transform="translate(-78.292 -32)" fill="#248b92"/>
    </g>
    <text id="Se_connecter_avec_empreinte" data-name="Se connecter avec empreinte" transform="translate(399.275 331.638)" fill="#248b92" font-size="250" font-family="Montserrat-SemiBold, Montserrat" font-weight="600"><tspan x="0" y="0">Se connecter avec empreinte</tspan></text>
  </g>
</svg>
