<svg xmlns="http://www.w3.org/2000/svg" width="18.458" height="23.964" viewBox="0 0 18.458 23.964"><defs><style>.a{fill:#fff;opacity:0.35;}</style></defs><path class="a" d="M22.9,11.682H12.058V8.913a3.923,3.923,0,1,1,7.846,0h0a.808.808,0,0,0,1.615,0h0a5.539,5.539,0,1,0-11.077.075v2.694H9.058A2.314,2.314,0,0,0,6.75,13.99V25.067a2.314,2.314,0,0,0,2.308,2.308H22.9a2.314,2.314,0,0,0,2.308-2.308V13.99A2.314,2.314,0,0,0,22.9,11.682Zm-6.115,7.2v3.969a.827.827,0,0,1-.767.831.809.809,0,0,1-.848-.808V18.882a1.846,1.846,0,1,1,1.615,0Z" transform="translate(-6.75 -3.411)"/></svg>