<svg xmlns="http://www.w3.org/2000/svg" width="35" height="28.576" viewBox="0 0 35 28.576">
  <path id="ic_credit_card" d="M29.853,2A5.159,5.159,0,0,1,35,7.147h0V25.429a5.159,5.159,0,0,1-5.147,5.147H5.147A5.158,5.158,0,0,1,0,25.429H0V7.147A5.158,5.158,0,0,1,5.147,2H29.853Zm3.088,21.177H2.059v2.252a3.108,3.108,0,0,0,3.088,3.088H29.853a3.111,3.111,0,0,0,3.088-3.088h0ZM29.853,4.059H5.147A3.109,3.109,0,0,0,2.059,7.147h0V18.252H32.941V7.147a3.112,3.112,0,0,0-3.088-3.088ZM9.431,9.613a1.021,1.021,0,0,1,1.046.994h0v4.439a1.019,1.019,0,0,1-1.742.694h0L6.516,13.576a1.023,1.023,0,0,1,0-1.443h0L8.736,9.911A1.028,1.028,0,0,1,9.431,9.613Zm17.357,1.145a1.029,1.029,0,0,1,1.029,1.029h0v2.022a1.029,1.029,0,0,1-1.029,1.029H14.365a1.031,1.031,0,0,1-1.029-1.029h0V11.788a1.031,1.031,0,0,1,1.029-1.029H26.788Z" transform="translate(0 -2)" fill="#fff" fill-rule="evenodd"/>
</svg>
