<svg xmlns="http://www.w3.org/2000/svg" width="20" height="19.998" viewBox="0 0 20 19.998">
  <path id="clock" d="M20.445,6.3a10,10,0,1,0,0,14.143A10,10,0,0,0,20.445,6.3ZM19.652,8.86a.771.771,0,1,1-.284,1.053A.771.771,0,0,1,19.652,8.86ZM4.912,13.374a.769.769,0,1,1,.769.769A.771.771,0,0,1,4.912,13.374Zm2.182,4.514a.771.771,0,1,1,.284-1.053A.771.771,0,0,1,7.095,17.888Zm.284-7.975A.771.771,0,1,1,7.095,8.86.775.775,0,0,1,7.379,9.913ZM9.143,6.048A.771.771,0,1,1,8.859,7.1.771.771,0,0,1,9.143,6.048Zm-.375,5.322.75-1.279,4.577,2.735v6.7H12.6V13.6ZM10.2,20.422a.771.771,0,1,1-.284-1.053A.775.775,0,0,1,10.2,20.422Zm3.178,1.413a.769.769,0,1,1,.769-.769A.771.771,0,0,1,13.373,21.835Zm0-15.383a.769.769,0,1,1,.769-.769A.771.771,0,0,1,13.373,6.452ZM17.6,20.7a.771.771,0,1,1,.284-1.053A.771.771,0,0,1,17.6,20.7Zm.284-13.6A.771.771,0,1,1,17.6,6.043.775.775,0,0,1,17.887,7.1ZM20.7,17.6a.771.771,0,1,1-.284-1.053A.775.775,0,0,1,20.7,17.6Zm.365-3.461a.769.769,0,1,1,.769-.769A.771.771,0,0,1,21.065,14.143Z" transform="translate(-3.372 -3.375)" fill="#fff"/>
</svg>
