<svg xmlns="http://www.w3.org/2000/svg" width="29.395" height="24" viewBox="0 0 29.395 24">
  <g id="demande-decarte-icon" transform="translate(0 -2)">
    <path id="ic_credit_card" d="M25.072,2a4.333,4.333,0,0,1,4.323,4.323h0V21.677A4.333,4.333,0,0,1,25.072,26H4.323A4.332,4.332,0,0,1,0,21.677H0V6.323A4.332,4.332,0,0,1,4.323,2H25.072Zm2.594,17.786H1.729v1.892a2.61,2.61,0,0,0,2.594,2.594H25.072a2.612,2.612,0,0,0,2.594-2.594h0ZM25.072,3.729H4.323A2.611,2.611,0,0,0,1.729,6.323h0V15.65H27.666V6.323a2.614,2.614,0,0,0-2.594-2.594ZM7.921,8.394a.857.857,0,0,1,.878.835h0v3.728a.856.856,0,0,1-1.463.583h0L5.473,11.722a.859.859,0,0,1,0-1.212h0L7.337,8.644A.863.863,0,0,1,7.921,8.394ZM22.5,9.356a.864.864,0,0,1,.865.865h0v1.7a.864.864,0,0,1-.865.865H12.065a.866.866,0,0,1-.865-.865h0v-1.7a.866.866,0,0,1,.865-.865H22.5Z" fill="#fff" fill-rule="evenodd"/>
  </g>
</svg>
