<?xml version="1.0" encoding="UTF-8"?>
<svg width="24px" height="24px" viewBox="0 0 24 24" version="1.1" xmlns="http://www.w3.org/2000/svg" xmlns:xlink="http://www.w3.org/1999/xlink">
    <!-- Generator: Sketch 59.1 (86144) - https://sketch.com -->
    <title>Icons/notifications/ic_alert_1</title>
    <desc>Created with Sketch.</desc>
    <g id="Icons/notifications/ic_alert_1" stroke="none" stroke-width="1" fill="none" fill-rule="evenodd">
        <path d="M12.0018462,0 C18.5907692,0 23.9556923,5.31692308 24,11.9187692 L24,11.9187692 L24,12.0018462 C23.9981538,18.5926154 18.6793846,23.9538462 12.0756923,24 L12.0756923,24 L11.9981538,24 C5.41846154,24 0.0609230769,18.6941538 0.00184615385,12.1052308 L0.00184615385,12.1052308 L0,12.1052308 L0,11.9963077 C0,5.40553846 5.32061538,0.0443076923 11.9187692,0 L11.9187692,0 Z M12.0018462,1.84615328 L11.9316923,1.84615328 C6.34707692,1.88307692 1.84430769,6.42276923 1.84430769,11.9963077 L1.84430769,11.9963077 L1.84615385,12.0406154 L1.84615385,12.0664615 C1.88492308,17.6529231 6.42276923,22.1538462 11.9981538,22.1538462 L11.9981538,22.1538462 L12.0664615,22.1538462 C17.6529231,22.1169231 22.1538462,17.5772308 22.1538462,12.0018462 L22.1538462,12.0018462 L22.1538462,11.9316923 C22.1150769,6.34707692 17.5772308,1.84430769 12.0018462,1.84615328 L12.0018462,1.84615328 Z M12.1369846,15.3732923 C12.6465231,15.3732923 13.0600615,15.7868308 13.0600615,16.2963692 L13.0600615,16.2963692 L13.0600615,17.2859077 C13.0600615,17.7954462 12.6465231,18.2089846 12.1369846,18.2089846 C11.6274462,18.2089846 11.2139077,17.7954462 11.2139077,17.2859077 L11.2139077,17.2859077 L11.2139077,16.2963692 C11.2139077,15.7868308 11.6274462,15.3732923 12.1369846,15.3732923 Z M12.1369846,5.87390769 C12.6465231,5.87390769 13.0600615,6.28744615 13.0600615,6.79698462 L13.0600615,6.79698462 L13.0600615,13.6499077 C13.0600615,14.1612923 12.6465231,14.5729846 12.1369846,14.5729846 C11.6274462,14.5729846 11.2139077,14.1612923 11.2139077,13.6499077 L11.2139077,13.6499077 L11.2139077,6.79698462 C11.2139077,6.28744615 11.6274462,5.87390769 12.1369846,5.87390769 Z" id="ic_alert_1" fill="#454545"></path>
    </g>
</svg>