<svg xmlns="http://www.w3.org/2000/svg" width="26.054" height="26.102" viewBox="0 0 26.054 26.102">
  <path id="information-circle-outline" d="M18.653,6.287a5.984,5.984,0,0,1,4.728,4.728M18.653,1.5A10.772,10.772,0,0,1,28.168,11m-1.2,9.551v3.591a2.394,2.394,0,0,1-2.609,2.394,23.686,23.686,0,0,1-10.329-3.674,23.339,23.339,0,0,1-7.181-7.181A23.686,23.686,0,0,1,3.178,5.306,2.394,2.394,0,0,1,5.559,2.7H9.15a2.394,2.394,0,0,1,2.394,2.059,15.367,15.367,0,0,0,.838,3.363,2.394,2.394,0,0,1-.539,2.525l-1.52,1.52A19.15,19.15,0,0,0,17.5,19.345l1.52-1.52a2.394,2.394,0,0,1,2.525-.539,15.367,15.367,0,0,0,3.363.838A2.394,2.394,0,0,1,26.971,20.554Z" transform="translate(-2.667 -0.948)" fill="none" stroke="#737573" stroke-linecap="round" stroke-linejoin="round" stroke-width="1"/>
</svg>
