<svg xmlns="http://www.w3.org/2000/svg" width="18" height="12.462" viewBox="0 0 18 12.462">
  <g id="mail" transform="translate(-48 -112)">
    <path id="Path_216" data-name="Path 216" d="M65.853,146.712,61.2,151.454a.084.084,0,0,0,0,.121l3.258,3.47a.561.561,0,0,1,0,.8.564.564,0,0,1-.8,0l-3.245-3.457a.089.089,0,0,0-.125,0l-.792.8a3.484,3.484,0,0,1-2.484,1.047,3.554,3.554,0,0,1-2.536-1.077l-.762-.775a.089.089,0,0,0-.125,0l-3.245,3.457a.564.564,0,0,1-.8,0,.562.562,0,0,1,0-.8l3.258-3.47a.092.092,0,0,0,0-.121l-4.66-4.742a.085.085,0,0,0-.147.061v9.489a1.389,1.389,0,0,0,1.385,1.385H64.615A1.389,1.389,0,0,0,66,156.261v-9.489A.087.087,0,0,0,65.853,146.712Z" transform="translate(0 -33.184)" fill="#737573"/>
    <path id="Path_217" data-name="Path 217" d="M68.576,119.923a2.352,2.352,0,0,0,1.692-.71l6.789-6.91a1.36,1.36,0,0,0-.857-.3H60.957a1.351,1.351,0,0,0-.857.3l6.789,6.91A2.353,2.353,0,0,0,68.576,119.923Z" transform="translate(-11.576 0)" fill="#737573"/>
  </g>
</svg>
