<svg xmlns="http://www.w3.org/2000/svg" width="29.521" height="22.477" viewBox="0 0 29.521 22.477">
  <g id="MesDocuments" transform="translate(-9 -2.873)">
    <path id="Icon_awesome-money-check" data-name="Icon awesome-money-check" d="M28.783,2.25H.738A.738.738,0,0,0,0,2.988V5.2H29.521V2.988A.738.738,0,0,0,28.783,2.25Z" transform="translate(9 0.623)" fill="#9acd00"/>
    <path id="Icon_awesome-money-check-2" data-name="Icon awesome-money-check" d="M0,21.439a1.476,1.476,0,0,0,1.476,1.476H28.045a1.476,1.476,0,0,0,1.476-1.476V6.678H0Zm20.665-9.594a.738.738,0,0,1,.738-.738h4.428a.738.738,0,0,1,.738.738v1.476a.738.738,0,0,1-.738.738H21.4a.738.738,0,0,1-.738-.738Zm0,5.535a.369.369,0,0,1,.369-.369H26.2a.369.369,0,0,1,.369.369v.738a.369.369,0,0,1-.369.369H21.034a.369.369,0,0,1-.369-.369ZM2.952,12.952a.369.369,0,0,1,.369-.369H17.344a.369.369,0,0,1,.369.369v.738a.369.369,0,0,1-.369.369H3.321a.369.369,0,0,1-.369-.369Zm0,4.428a.369.369,0,0,1,.369-.369H11.44a.369.369,0,0,1,.369.369v.738a.369.369,0,0,1-.369.369H3.321a.369.369,0,0,1-.369-.369ZM28.783,2.25H.738A.738.738,0,0,0,0,2.988V5.2H29.521V2.988A.738.738,0,0,0,28.783,2.25Z" transform="translate(9 2.435)" fill="#248b92"/>
  </g>
</svg>
