<svg xmlns="http://www.w3.org/2000/svg" width="15" height="15" viewBox="0 0 15 15">
  <path id="pencil" d="M14.589,4.166,13.238,5.517a.352.352,0,0,1-.5,0L9.488,2.265a.352.352,0,0,1,0-.5L10.838.416a1.409,1.409,0,0,1,1.989,0l1.761,1.761A1.4,1.4,0,0,1,14.589,4.166ZM8.328,2.927.634,10.621.013,14.18a.7.7,0,0,0,.814.814l3.56-.624,7.694-7.694a.352.352,0,0,0,0-.5L8.829,2.927a.355.355,0,0,0-.5,0ZM3.637,9.962a.408.408,0,0,1,0-.58L8.149,4.87a.41.41,0,0,1,.58.58L4.217,9.962a.408.408,0,0,1-.58,0ZM2.579,12.426H3.986v1.064L2.1,13.82l-.911-.911.331-1.89H2.579Z" transform="translate(-0.002 -0.005)" fill="#fff"/>
</svg>
