<svg xmlns="http://www.w3.org/2000/svg" width="11.373" height="24" viewBox="0 0 11.373 24">
  <path id="pending-transfers" d="M16.168,12.833a.706.706,0,0,1,1,1h0L8.411,22.588h4.105a.706.706,0,0,1,0,1.412H6.707S6.7,24,6.7,24a.679.679,0,0,1-.261-.052.7.7,0,0,1-.223-.148h0a.064.064,0,0,1-.011-.013.658.658,0,0,1-.145-.22A.707.707,0,0,1,6,23.3H6V17.486a.706.706,0,1,1,1.412,0h0v4.1ZM16.67,0a.731.731,0,0,1,.267.054.71.71,0,0,1,.383.383.755.755,0,0,1,.052.26h0V6.514a.706.706,0,1,1-1.412,0h0V2.41L7.206,11.167a.706.706,0,0,1-1-1h0l8.756-8.756h-4.1a.706.706,0,1,1,0-1.412H16.67Z" transform="translate(-6 0)" fill="#fff" fill-rule="evenodd"/>
</svg>
