<svg xmlns="http://www.w3.org/2000/svg" width="13" height="27.433" viewBox="0 0 13 27.433">
  <g id="podium" transform="translate(-6)">
    <path id="ic_transferts" d="M17.623,14.669a.807.807,0,0,1,1.141,1.141h0L8.755,25.819h4.693a.807.807,0,0,1,0,1.614H6.808s-.006,0-.011,0a.776.776,0,0,1-.3-.06.8.8,0,0,1-.255-.169h0a.073.073,0,0,1-.013-.015.752.752,0,0,1-.166-.252A.808.808,0,0,1,6,26.628H6v-6.64a.807.807,0,1,1,1.614,0h0v4.691ZM18.2,0a.836.836,0,0,1,.3.061A.812.812,0,0,1,18.939.5.863.863,0,0,1,19,.8h0l0,.011V7.446a.807.807,0,1,1-1.614,0h0V2.755L7.378,12.764a.807.807,0,0,1-1.141-1.142h0L16.245,1.614H11.554a.807.807,0,1,1,0-1.614H18.2Z" transform="translate(0 0)" fill="#fff" fill-rule="evenodd"/>
  </g>
</svg>
