<svg xmlns="http://www.w3.org/2000/svg" width="27.301" height="24" viewBox="0 0 27.301 24">
  <g id="quick_mnenu_checkbook" transform="translate(0 -1)">
    <path id="ic_chequier" d="M26.651,23.7a.65.65,0,1,1,0,1.3H.8a.65.65,0,1,1,0-1.3H26.651ZM15.356,1.326a.65.65,0,0,1,1.213.324h0v8.671h9.315A1.416,1.416,0,0,1,27.3,11.738h0v9.237a1.419,1.419,0,0,1-1.417,1.417H1.417A1.419,1.419,0,0,1,0,20.975H0V10.608a.66.66,0,0,1,.19-.459.656.656,0,0,1,.46-.191,17.592,17.592,0,0,0,8.416-2.83A18.574,18.574,0,0,0,15.356,1.326Zm10.528,10.3H16.536l-.053.2a19.75,19.75,0,0,1-6.745,6.266,19.748,19.748,0,0,1-8.349,2.98h0l.027.026H25.884L26,20.975V11.738ZM15.269,3.671a22.868,22.868,0,0,1-5.532,4.57,19.825,19.825,0,0,1-8.309,2.976.652.652,0,0,1-.108.456h0l-.021.065v8.033a18.566,18.566,0,0,0,7.766-2.8,18.825,18.825,0,0,0,6.2-5.668h0Zm8.292,9.709a.653.653,0,0,1,.65.65h0v1.144a.653.653,0,0,1-.65.65H19.6a.652.652,0,0,1-.65-.65h0V14.031a.652.652,0,0,1,.65-.65h3.959Z" transform="translate(0 0)" fill="#fff" fill-rule="evenodd"/>
  </g>
</svg>
