<svg xmlns="http://www.w3.org/2000/svg" width="30.162" height="24" viewBox="0 0 30.162 24">
  <g id="quick_mnenu_accounts_accounts" transform="translate(0 -2)">
    <path id="ic_facture_energie" d="M11.683,2a.7.7,0,0,1,.092.019.633.633,0,0,1,.09.019.727.727,0,0,1,.326.174h0L18.17,8.19a.724.724,0,0,1,.174.327.6.6,0,0,1,.017.089.681.681,0,0,1,.019.092h0v2.4a.718.718,0,1,1-1.436,0h0V9.417H11.683a.723.723,0,0,1-.508-.21.732.732,0,0,1-.21-.508h0V3.436h-8.5A1.033,1.033,0,0,0,1.436,4.467h0V23.533a1.032,1.032,0,0,0,1.031,1.031H13.113a.718.718,0,0,1,0,1.436H2.467A2.469,2.469,0,0,1,0,23.533H0V4.467A2.468,2.468,0,0,1,2.467,2h9.215Zm10.307,8.011a.718.718,0,0,1,.85,0h0l7.03,5.176a.722.722,0,0,1,.292.579h0v9.515a.716.716,0,0,1-.718.718H24.46a.72.72,0,0,1-.507-.21.727.727,0,0,1-.211-.508h0V20.246H21.09v5.036a.718.718,0,0,1-.718.718H15.388a.723.723,0,0,1-.508-.21.732.732,0,0,1-.21-.508h0V15.766a.718.718,0,0,1,.292-.579h0Zm.425,1.471-6.309,4.646v8.435h3.549V19.528a.718.718,0,0,1,.718-.718H24.46a.713.713,0,0,1,.508.211.706.706,0,0,1,.21.507h0v5.036h3.548V16.128Zm-8.959,7.4a.718.718,0,1,1,0,1.436H4.926a.718.718,0,0,1,0-1.436h8.53Zm0-3.322a.718.718,0,1,1,0,1.436H4.926a.718.718,0,0,1,0-1.436h8.53ZM9.191,12.235a.718.718,0,0,1,0,1.436H4.925a.718.718,0,0,1,0-1.436H9.191ZM12.4,4.453V7.981h3.528L14.164,6.217Z" transform="translate(0 0)" fill="#fff" fill-rule="evenodd"/>
  </g>
</svg>
