<svg xmlns="http://www.w3.org/2000/svg" width="39.128" height="24" viewBox="0 0 39.128 24">
  <path id="mon-rib" d="M36.333,5a2.8,2.8,0,0,1,2.795,2.795h0v18.41A2.8,2.8,0,0,1,36.333,29H2.795A2.8,2.8,0,0,1,0,26.205H0V7.795A2.8,2.8,0,0,1,2.795,5H36.333Zm0,1.863H2.795a.947.947,0,0,0-.932.932h0v18.41a.945.945,0,0,0,.932.932H36.333a.945.945,0,0,0,.932-.932h0V7.795a.947.947,0,0,0-.932-.932Zm-17.8,14.029a.932.932,0,0,1,0,1.863H5.637a.932.932,0,1,1,0-1.863h12.9Zm14.953-4.824a.932.932,0,0,1,0,1.863H5.637a.932.932,0,0,1,0-1.863H33.491Zm0-4.823a.932.932,0,0,1,0,1.863H5.637a.932.932,0,1,1,0-1.863H33.491Z" transform="translate(0 -5)" fill="#fff" fill-rule="evenodd"/>
</svg>
