<?xml version="1.0" encoding="utf-8"?>
<!-- Generator: Adobe Illustrator 26.3.1, SVG Export Plug-In . SVG Version: 6.00 Build 0)  -->
<svg version="1.1" id="Layer_1" xmlns="http://www.w3.org/2000/svg" xmlns:xlink="http://www.w3.org/1999/xlink" x="0px" y="0px"
	 viewBox="0 0 15.5 20.4" style="enable-background:new 0 0 15.5 20.4;" xml:space="preserve">
<style type="text/css">
	.st0{fill:#FFFFFF;}
</style>
<path id="lock" class="st0" d="M13.6,6.8h-1V4.9c0-2.7-2.2-4.9-4.9-4.9C5.1,0,2.9,2.2,2.9,4.9h1.8c0-1.7,1.3-3,3-3s3,1.3,3,3l0,0
	v1.9H1.9C0.9,6.8,0,7.7,0,8.7v9.7c0,1.1,0.9,1.9,1.9,1.9h11.7c1.1,0,1.9-0.9,1.9-1.9V8.7C15.5,7.7,14.7,6.8,13.6,6.8z M7.8,15.6
	c-1.1,0-1.9-0.9-1.9-1.9c0-1.1,0.9-1.9,1.9-1.9c1.1,0,1.9,0.9,1.9,1.9c0,0,0,0,0,0C9.7,14.8,8.8,15.6,7.8,15.6z"/>
</svg>
