<?xml version="1.0" encoding="utf-8"?>
<!-- Generator: Adobe Illustrator 25.2.1, SVG Export Plug-In . SVG Version: 6.00 Build 0)  -->
<svg version="1.1" id="Layer_1" xmlns="http://www.w3.org/2000/svg" xmlns:xlink="http://www.w3.org/1999/xlink" x="0px" y="0px"
	 viewBox="0 0 119 119" style="enable-background:new 0 0 119 119;" xml:space="preserve">
<g>
	<path d="M20.8,51.3v5.6h6.1v-5.6h3v13.4h-3v-5.3h-6.1v5.3h-3V51.3H20.8z"/>
	<path d="M36,51.3v13.4h-3V51.3H36z"/>
	<path d="M43.6,53.8c-1,0-1.7,0.4-1.7,1.1c0,2.5,7.2,1.1,7.1,5.9c0,2.6-2.3,4.1-5.3,4.1c-2.2,0-4.4-0.8-5.9-2.1l1.2-2.5
		c1.4,1.2,3.3,2,4.8,2c1.2,0,2-0.5,2-1.3c0-2.5-7.2-1.1-7.2-5.8c0-2.4,2.1-4,5.2-4c1.9,0,3.8,0.6,5.1,1.5l-1.2,2.5
		C46.4,54.3,44.7,53.8,43.6,53.8z"/>
	<path d="M61.1,51.3v2.6H57v10.9h-3V53.9h-4.1v-2.6H61.1z"/>
	<path d="M75.5,58c0,3.9-3.1,6.9-7.2,6.9c-4.1,0-7.2-3-7.2-6.9c0-3.9,3.1-6.8,7.2-6.8C72.4,51.2,75.5,54.1,75.5,58z M64.2,58
		c0,2.4,1.9,4.2,4.1,4.2s4.1-1.8,4.1-4.2c0-2.4-1.8-4.2-4.1-4.2C66,53.9,64.2,55.7,64.2,58z"/>
	<path d="M85.7,64.8l-2.1-3.8h-0.3h-2.8v3.8h-3V51.3h5.8c3.5,0,5.5,1.7,5.5,4.7c0,2.1-0.9,3.6-2.5,4.3l2.9,4.4H85.7z M80.5,58.4h2.8
		c1.7,0,2.6-0.8,2.6-2.3c0-1.5-1-2.2-2.6-2.2h-2.8V58.4z"/>
	<path d="M97.7,60.4v4.3h-3v-4.3l-5-9.2h3.1l3.4,6l3.4-6h3.1L97.7,60.4z"/>
</g>
<g>
	<path d="M109.9,77.8H9.1c-5,0-9.1-4.1-9.1-9.1V50.3c0-5,4.1-9.1,9.1-9.1h100.8c5,0,9.1,4.1,9.1,9.1v18.5
		C119,73.7,114.9,77.8,109.9,77.8z M9.1,45.2c-2.8,0-5.1,2.3-5.1,5.1v18.5c0,2.8,2.3,5.1,5.1,5.1h100.8c2.8,0,5.1-2.3,5.1-5.1V50.3
		c0-2.8-2.3-5.1-5.1-5.1H9.1z"/>
</g>
</svg>
