<?xml version="1.0" encoding="utf-8"?>
<!-- Generator: Adobe Illustrator 25.2.1, SVG Export Plug-In . SVG Version: 6.00 Build 0)  -->
<svg version="1.1" id="Capa_1" xmlns="http://www.w3.org/2000/svg" xmlns:xlink="http://www.w3.org/1999/xlink" x="0px" y="0px"
	 viewBox="0 0 512 512" style="enable-background:new 0 0 512 512;" xml:space="preserve">
<g>
	<path class="st0" d="M146,224l5.9,1v17.1c0,4.6,3.8,8.4,8.4,8.4h1.5c4.6,0,8.4-3.8,8.4-8.4v-17.3l5.8-1.1
		c25.7-4.9,40.4-20.1,40.4-41.7c0.2-29.2-21.9-40-41.3-46.2l-4.9-1.6V80.3l8.6,1.9c6.7,1.5,12.8,3.8,17.5,6.6
		c3.8,2.3,9.1,1,11.4-2.7l0.7-1.1c1.2-1.9,1.6-4.2,1-6.4c-0.5-2.1-1.9-4.1-3.8-5.2c-8-4.9-18.5-8.5-29.5-10.1l-6-0.9v-14
		c0-4.6-3.8-8.4-8.4-8.4h-1.5c-4.6,0-8.4,3.8-8.4,8.4v14.6l-5.7,1.2c-23.6,4.8-37.1,18.7-37.1,38.3c0,21.3,12.1,35.3,38,44.1
		l4.8,1.6V207l-8.9-2.4c-10.3-2.8-19.5-7.9-26-14.4c-3.2-3.2-8.6-3.2-11.8,0l-1,1c-1.6,1.6-2.5,3.8-2.5,6c0,2.2,1,4.4,2.6,6
		C114.9,213.7,130.1,221.2,146,224z M151.8,80.5v49l-10.4-5.6c-9.9-5.3-14.1-11.8-14.1-21.7c0-5.8,2.6-13.7,15-18.2L151.8,80.5z
		 M170.1,152.9l9.9,4.4c12.9,5.6,18.1,12.8,18,24.6c0,5.9-2.4,16.7-18.6,22l-9.3,3.1L170.1,152.9z"/>
	<path class="st0" d="M289.1,164.9c-3.7,0-6.8,3.1-6.8,6.8c0,3.8,3.1,6.8,6.8,6.8h54.8v53.2c0,6.1,5,11.1,11.1,11.1
		c6.1,0,11.1-5,11.1-11.1v-53.2h51.5c3.8,0,6.8-3.1,6.8-6.8c0-3.7-3.1-6.8-6.8-6.8H366v-22l0.5-0.7h51c3.8,0,6.8-3.1,6.8-6.8
		c0-3.7-3.1-6.8-6.8-6.8h-41.4l44.7-63.2c1.7-2.4,2.4-5.4,1.9-8.3c-0.5-2.9-2.1-5.5-4.5-7.2c-4.8-3.4-12-2.1-15.4,2.7l-48.1,68
		L303.8,52c-3.5-4.8-10.7-5.8-15.5-2.3c-4.9,3.6-5.9,10.6-2.3,15.5l47,63.4h-43.9c-3.7,0-6.8,3.1-6.8,6.8c0,3.8,3.1,6.8,6.8,6.8h54
		l0.8,1v21.7H289.1z"/>
	<path class="st0" d="M228.9,288.1c-9.6-3.7-19.6-5.6-29.9-5.6c-35.7,0-67.6,23.1-81.2,58.8l-0.5,1.3H93.1
		c-6.3,0-11.5,5.1-11.5,11.5s5.1,11.5,11.5,11.5h18.8l-0.2,2.2c-0.3,3.1-0.3,16.2,0,19.3l0.2,2.2H93.1c-6.3,0-11.5,5.1-11.5,11.5
		S86.8,412,93.1,412h24.2l0.5,1.3c13.6,35.7,45.5,58.8,81.2,58.8c8.3,0,16.6-1.3,24.6-3.8c2.9-0.9,5.3-2.9,6.7-5.6
		c1.4-2.7,1.7-5.8,0.8-8.8c-1.8-5.8-8.6-9.3-14.4-7.5c-5.7,1.8-11.7,2.7-17.7,2.7c-22.6,0-43.3-12.8-55.2-34.2l-1.6-2.9h60.3
		c6.3,0,11.5-5.1,11.5-11.5s-5.1-11.5-11.5-11.5H135l-0.2-1.7c-0.4-3.4-0.4-16.7,0-20.1l0.2-1.7h67.5c6.3,0,11.5-5.1,11.5-11.5
		s-5.1-11.5-11.5-11.5h-60.3l1.6-2.9c11.9-21.4,32.6-34.2,55.2-34.2c7.4,0,14.7,1.4,21.5,4c5.8,2.3,12.6-0.7,14.9-6.5
		c1.1-2.9,1-6-0.2-8.8C234,291.4,231.7,289.2,228.9,288.1z"/>
	<path class="st0" d="M430.1,449.4c-1.2-5.3-6-9.1-11.4-9.1c-0.3,0-0.6,0-1.3,0.1l-1.3,0.3c-0.8,0.1-1.4,0.3-1.8,0.5l-0.7,0.3
		c-8.7,4.4-17.8,6.6-27,6.6c-1.7,0-4.8-0.4-9.3-1.3c-4.5-0.8-9.5-1.7-14.8-2.6c-5.3-1-10.5-1.9-15.6-2.7c-8.7-1.5-13.5-1.5-18.7-1
		l-8.1,0.8l5.6-6c0.6-0.7,1.2-1.3,1.8-2c2.8-3.3,5.2-6.8,7-10.4c1.8-3.6,3.1-7.6,3.9-11.8c0.8-4.2,1.2-9,1.2-14.1
		c0-2.4-0.3-4.7-0.8-7l-0.9-3.8l34.5-0.1c0.8-0.1,1.3-0.3,1.8-0.5c4-1.3,6.7-4.8,6.7-8.9c0-4.5-3.3-8.4-7.7-9.2l-39.7-0.1l-0.7-2.2
		c-4-12.8-6-23.7-6-32.3c0-4.2,0.8-8.2,2.3-11.9c1.5-3.7,3.7-7.1,6.3-9.9c2.7-2.8,5.9-5.1,9.8-6.7c3.8-1.6,8.1-2.4,12.8-2.4
		c19.1,0,29.2,9,31,27.9l0.1,0.9l0,0.6l0,0.2c0,0.3,0.1,0.8,0.3,1.3c0.9,6.2,5.9,10.6,12,10.6c6.2,0,11.4-4.6,12.1-10.9l0.1-1.7
		l0-0.7c-0.7-7.6-2.5-14.4-5.4-20.2c-2.9-5.8-6.8-10.8-11.5-14.7c-4.7-3.9-10.3-7-16.8-9c-6.4-2-13.6-3.1-21.3-3.1
		c-8.3,0-16,1.2-22.9,3.6c-6.9,2.4-12.9,5.8-17.8,10.2c-4.9,4.4-8.8,9.9-11.6,16.4c-2.7,6.4-4.1,13.7-4.1,21.7
		c0,3.8,0.5,8.4,1.5,13.7c0.8,4.2,2,9.1,3.5,14.5l1.2,4l-19.4,0c-4.8,0.4-8.5,4.6-8.5,9.3c0,4.8,3.7,8.8,8.4,9.3l24.9,0.2l0.5,2.4
		c0.9,4.2,1.4,8.5,1.4,12.8c0,6.3-0.6,12-1.8,16.8c-1.2,4.8-2.9,9.2-5.1,12.9c-2.2,3.7-4.9,7-8.1,9.7c-3.2,2.8-6.9,5.2-10.9,7.3
		c-9.7,3.2-14.1,7.8-13.1,13.7c1,5.4,5.8,9.5,11.3,9.5c0.4,0,0.8,0,1.2-0.1l0.8-0.2c16.1-7.3,30.8-11,43.6-11c1.7,0,4,0.3,6.9,0.8
		c2.9,0.6,6.2,1.2,9.7,2c3.5,0.8,7.1,1.7,10.8,2.6c3.7,1,7.3,1.8,10.8,2.6c3.5,0.8,6.6,1.5,9.5,2.1c2.9,0.6,5.1,0.9,7.4,0.9
		c12.7,0,26.1-5.1,27.6-5.7c1.2-0.5,4.9-1.9,5.1-2C427.4,461.9,431.5,455.6,430.1,449.4z"/>
</g>
</svg>
