<?xml version="1.0" encoding="utf-8"?>
<!-- Generator: Adobe Illustrator 25.2.1, SVG Export Plug-In . SVG Version: 6.00 Build 0)  -->
<svg version="1.1" id="Capa_1" xmlns="http://www.w3.org/2000/svg" xmlns:xlink="http://www.w3.org/1999/xlink" x="0px" y="0px"
	 viewBox="0 0 512 512" style="enable-background:new 0 0 512 512;" xml:space="preserve">
<g>
	<g>
		<g>
			<path d="M222.3,309.1c-10.5,0-20.2,3.5-28.1,9.3c-12.9-6.6-27-10.2-40.2-10.2h-26.9c-23.4,0-45.4,9.3-61.9,26.1
				c-16.5,16.8-25.6,38.9-25.6,62.3c0,3.7,3,6.7,6.7,6.7h176c26,0,47.1-21.1,47.1-47.1S248.3,309.1,222.3,309.1z M53.3,390
				c3.4-38.2,35.2-68.2,73.8-68.2h26.9c9.8,0,20.2,2.4,30.2,6.8c-5.7,7.8-9,17.4-9,27.7c0,13.2,5.4,25.1,14.2,33.7H53.3z M222.3,390
				c-18.6,0-33.7-15.1-33.7-33.7c0-9.8,4.2-18.7,11-24.8c0,0,0,0,0.1-0.1c6-5.4,13.9-8.8,22.6-8.8c18.6,0,33.7,15.1,33.7,33.7
				S240.9,390,222.3,390z"/>
		</g>
	</g>
	<g>
		<g>
			<path d="M235.8,349.6h-6.7v-6.7c0-3.7-3-6.7-6.7-6.7s-6.7,3-6.7,6.7v6.7h-6.7c-3.7,0-6.7,3-6.7,6.7s3,6.7,6.7,6.7h6.7v6.7
				c0,3.7,3,6.7,6.7,6.7s6.7-3,6.7-6.7V363h6.7c3.7,0,6.7-3,6.7-6.7S239.5,349.6,235.8,349.6z"/>
		</g>
	</g>
	<path d="M185.7,248L185.7,248L185.7,248c-5.9,19.3-23.9,33.3-45.1,33.3s-39.1-14-45.1-33.3h-0.3v-1.2c-0.3-1.2-0.5-2.4-0.8-3.7
		c-5.1-0.8-9.8-2.4-14.3-4.6c2.3,31.3,28.5,56.2,60.4,56.2c30.1,0,55.1-22.1,59.8-50.9h-13.8C186.3,245.2,186.1,246.6,185.7,248z"/>
	<path d="M140.6,173.5c-33.4,0-60.6,27.2-60.6,60.6c0,1.5,0.1,3,0.2,4.4c4.4,2.2,9.2,3.8,14.3,4.6c-0.6-2.9-1-5.9-1-9
		c0-26,21.1-47.1,47.1-47.1s47.1,21.1,47.1,47.1c0,3.3-0.5,6.5-1.1,9.7h13.8c0.5-3.2,0.8-6.4,0.8-9.7
		C201.2,200.7,174,173.5,140.6,173.5z"/>
	<path d="M185.7,248L185.7,248C185.7,248,185.7,248,185.7,248L185.7,248z"/>
	<path d="M95.2,248h0.3c-0.1-0.4-0.2-0.8-0.3-1.2V248z"/>
	<g>
		<path d="M254.3,161.2v37.3h-7.1v-37.3H254.3z"/>
		<path d="M270.2,161.2l19.2,25.5v-25.5h6.9v37.3h-6.8L270.4,173v25.5h-7v-37.3H270.2z"/>
		<path d="M308.7,161.2l11,29.4l11.1-29.4h7.4l-14.9,37.3h-7.4L301,161.2H308.7z"/>
		<path d="M370.2,161.2v6.2H350v9.2h18.1v6.2H350v9.4h20.8v6.2h-28v-37.3H370.2z"/>
		<path d="M390.4,167.4c-3.4,0-5.5,1.2-5.5,3.5c0,7.6,20,3.5,20,16.8c0,7-6.1,11-14.3,11c-6,0-11.8-2.4-15.8-6l3-6
			c3.8,3.4,8.9,5.5,12.9,5.5c4,0,6.4-1.5,6.4-4.1c0-7.8-20-3.4-20-16.6c0-6.5,5.6-10.7,14-10.7c5,0,9.9,1.6,13.5,3.9l-2.9,6.2
			C397.6,168.6,393.2,167.4,390.4,167.4z"/>
		<path d="M437.9,161.2v6.3h-11.6v31H419v-31h-11.6v-6.3H437.9z"/>
	</g>
	<g>
		<path d="M422.7,258.6H231.8c-4,0-7.3-3.3-7.3-7.3c0-4,3.3-7.3,7.3-7.3h190.8c33.3,0,60.5-27.1,60.5-60.5
			c0-33.3-27.1-60.5-60.5-60.5H89.3c-33.3,0-60.5,27.1-60.5,60.5c0,21.8,11.8,42.1,30.9,52.8c3.5,2,4.7,6.4,2.8,9.9
			c-2,3.5-6.4,4.7-9.9,2.8c-23.7-13.3-38.3-38.4-38.3-65.4c0-41.4,33.6-75,75-75h333.3c41.4,0,75,33.6,75,75
			C497.7,224.9,464,258.6,422.7,258.6z"/>
	</g>
</g>
</svg>
