<?xml version="1.0" encoding="utf-8"?>
<!-- Generator: Adobe Illustrator 25.4.1, SVG Export Plug-In . SVG Version: 6.00 Build 0)  -->
<svg version="1.1" id="svg" xmlns="http://www.w3.org/2000/svg" xmlns:xlink="http://www.w3.org/1999/xlink" x="0px" y="0px"
	 viewBox="0 0 212 192" style="enable-background:new 0 0 212 192;" xml:space="preserve">
<style type="text/css">
	.st0{fill-rule:evenodd;clip-rule:evenodd;fill:#FFFFFF;}
</style>
<g id="svgg">
	<path id="path0" class="st0" d="M97.2,5.2c-6.4,1.3-11.8,3.4-16.5,6.4c-2.1,1.4-1.8,1.5-5.1-2.5c-3.4-4.1-4.3-4.7-6.2-4.1
		c-2,0.6-1.8-0.1-5.3,18.1c-2.5,13.2-3.2,16.6-3.8,19.8l-0.7,3.4l0.6,1c1.1,1.9,0.3,1.9,21.8,1.5c21.5-0.4,21.7-0.4,22.4-2.2
		c0.9-2.1,0.6-2.9-3.6-7.7c-3-3.5-2.9-3-0.7-4.1c8.3-4.2,19-1.3,24.3,6.6c1.4,2.2,2.2,2.6,3.9,2.4c3-0.3,3.8-3.1,1.6-6.2
		c-8.7-12.9-27-15.3-38.5-5.1c-2.4,2.1-2,3.5,2.2,8.1c0.8,0.8,0.7,1.1-0.5,1.1c-0.5,0-6.5,0.1-13.1,0.3c-6.7,0.1-12.3,0.2-12.4,0
		c-0.1-0.1,0.2-2.4,0.7-5.1c0.5-2.7,1.4-7.2,2-10c0.6-2.8,1.2-6.4,1.5-8c0.6-3.5,0.6-3.5,2.6-1.1c2.6,3.1,4.1,3.6,6.4,1.9
		c21.6-16.4,51.7-8.2,60.3,16.5c2.1,6.1,8.4,4.5,6.5-1.7C141.3,14.5,118.4,1,97.2,5.2 M144.4,43.2c-14.3,1.5-29.5,10.6-37.4,22.6
		c-1,1.5-1.1,1.5-3.5-1.8c-4.2-5.8-11.2-11.9-13.5-11.9c-4,0-4.6,4-1.1,6.6C93.3,62,98,67.3,100.8,72l1.4,2.4l-1.1,2.9
		c-4.5,12.6-4.3,26.5,0.6,38.4c1.4,3.3-8.6,14.7-17.2,19.7c-23.8,13.8-55.1,3.7-65.5-21.3c-0.5-1.1-1-2.4-1.2-3
		c-2.5-5.7-3.3-17.6-1.7-24.8c4-18.6,18.8-32.9,37.5-36.1c3.9-0.7,3.3-6.6-0.7-6.6c-4.5,0-14.3,3.8-20.8,8
		c-24.1,15.7-30.9,48.8-14.9,73c20.2,30.6,64.6,31.8,86.5,2.5c2.6-3.5,2-3.5,4.3-0.3c5.6,7.7,12.1,12.9,14.7,11.8
		c3.1-1.3,2.8-4.1-0.9-7c-26.2-20.7-21.6-62.6,8.5-77.2c39.1-19,79.8,20.9,62.1,60.8c-5.8,13-18.6,22.9-33.5,25.8
		c-4,0.8-4.5,1-5.2,2.4c-0.9,1.7,0.3,4.2,2.2,4.7c0.9,0.2,7-0.9,9.8-1.8c22.6-7,37.6-27.1,37.7-50.3C203.4,64,176.5,40,144.4,43.2
		 M147.9,62c-1,1-1,1.1-1,3.6v2.6l-1.7,0.4c-17.9,3.6-17.8,25.6,0.1,29.6l1.5,0.3l0.1,8.9l0.1,8.9l-0.7-0.2c-2.6-0.7-3.9-1.6-7.8-6
		c-2.4-2.6-6.4-0.4-5.4,3c1.1,4,6.1,7.9,12.2,9.6l1.7,0.5v2.5c0,2.4,0.1,2.6,0.9,3.5c2.6,2.8,5.8,0.9,5.8-3.5c0-2.1,0.1-2.6,0.5-2.7
		c0.3-0.1,1.4-0.4,2.4-0.7c11.6-3.3,16.3-16.5,8.7-24.5c-1.9-2-4.4-3.3-8.4-4.4l-3-0.8l-0.1-8.7c-0.1-10-0.3-9.4,2.9-7.9
		c1.6,0.8,2.9,1.9,5.3,4.6c2.2,2.5,6,1,5.7-2.3c-0.4-3.8-6.4-8.7-12.1-9.8l-1.7-0.4v-2.5C153.5,61.2,150.6,59.3,147.9,62 M59,64.7
		c-2.1,0.7-3,1.9-6.5,9c-1.8,3.7-3.5,6.7-3.7,6.8S46.4,81,44,81.3c-2.3,0.3-5.6,0.8-7.2,1c-4.9,0.7-7.2,2.9-7.2,6.8
		c0,2.5,0.8,3.6,6.7,9.3l5.4,5.3l-0.3,1.1c-0.2,0.6-0.5,2.4-0.8,4.1c-0.3,1.7-0.7,4.1-0.9,5.5c-1.1,6.3,0.1,9.4,4.1,10.5
		c2.6,0.7,3.6,0.3,14.5-5.5c2.7-1.5,2.9-1.5,5.9,0.2c11.2,5.9,11.5,6.1,14.2,5.4c4.4-1.2,5.3-4.4,3.7-12.9c-0.3-1.7-0.8-4.2-1-5.7
		l-0.4-2.7l5.3-5.2c7.3-7.1,8.4-10,5-13.6c-1.7-1.8-2-1.9-12.8-3.4c-2.3-0.3-4.5-0.7-4.7-0.8c-0.2-0.1-1.9-3.2-3.7-6.9
		C65.5,64.6,63.7,63.2,59,64.7 M64.5,78c4.6,9.3,3.8,8.8,15.5,10.3c2.8,0.4,5.1,0.8,5.3,0.9c0.1,0.1-2.1,2.6-5.1,5.4
		c-7.1,6.9-6.7,6-5.1,15.7c0.7,4,1.1,7.3,1.1,7.4c-0.2,0.2-3.4-1.5-9.1-4.5c-4.3-2.3-7-2.7-9.3-1.4c-0.6,0.4-3,1.6-5.3,2.9
		c-2.3,1.2-4.6,2.4-5,2.6c-1.2,0.6-1.6,0.5-1.4-0.4c0.3-1.3,2-11.6,2.2-13c0.3-2.4-0.6-3.8-6.3-9.4c-5.5-5.5-5.5-5.5-3.4-5.7
		C54.1,87,53.1,87.6,58.4,77c1.5-3,2.7-5.4,2.8-5.4C61.3,71.6,62.8,74.5,64.5,78 M146.9,83.3v8H146c-3.7,0-7.6-4.1-7.6-7.9
		c0-3.3,4.6-8.1,7.8-8.2l0.7,0V83.3 M158.1,101c6.9,3.2,4.4,13.1-3.8,15.1l-0.7,0.2v-8.2c0-4.5,0.1-8.3,0.2-8.4
		C153.9,99.5,156.6,100.3,158.1,101 M142,142.2c-0.6,0.1-8.8,0.2-18.2,0.4c-19.2,0.4-18.5,0.2-19.2,2.6c-0.5,1.7,0.5,3.4,4,7.2
		c0.3,0.3,1,1.1,1.5,1.7l0.9,1.1l-0.9,0.6c-6.7,4.8-18.9,2.2-24.3-5.1c-4.2-5.7-9.7-2-5.6,3.7c8.1,11.5,24.6,13.8,36.4,5.2
		c3.7-2.7,3.8-3.8,0.5-7.7c-1.9-2.3-2-2.6-0.8-2.6c6.5-0.3,25.7-0.4,25.7-0.2c0,0.3-1.4,7.7-2.3,11.9c-0.3,1.3-0.8,4.1-1.2,6.2
		c-1.7,9-1.4,8.4-3.7,5.7c-1.9-2.2-2.3-2.5-4.1-2.5c-0.8,0-1.5,0.3-2.6,1.1c-20.6,16.1-50.7,7.9-59.6-16.3c-1.1-3.1-1.3-3.3-2.7-3.7
		c-1.8-0.5-3.1,0.1-3.9,1.7l-0.6,1.3l0.7,2.3c8.3,26.8,43,38.5,66.9,22.6c1.4-0.9,1.7-1,2-0.7c0.2,0.2,1.4,1.6,2.6,3.1
		c3.5,4.3,3.4,4.2,5.1,4.3c2.8,0.3,3.1-0.3,4.8-8.7c2.5-13.1,3.7-19.2,5-25.9l1.3-6.6l-0.6-1.1C148.2,142.3,146.5,141.8,142,142.2"
		/>
	<path id="path2" class="st0" d="M104.3,4.4c0.5,0.1,1.4,0.1,2,0c0.5-0.1,0.1-0.1-1-0.1C104.2,4.3,103.7,4.3,104.3,4.4 M81,42
		c0.5,0.1,1.2,0.1,1.7,0c0.5-0.1,0.1-0.1-0.8-0.1C80.9,41.9,80.6,42,81,42 M95.1,48.7c0.4,0.1,0.9,0.1,1.2,0c0.3-0.1,0-0.1-0.7-0.1
		C95,48.6,94.8,48.6,95.1,48.7 M78.3,49c0.5,0.1,1.2,0.1,1.7,0s0.1-0.1-0.8-0.1C78.2,48.9,77.8,49,78.3,49 M63.4,49.3
		c0.6,0.1,1.7,0.1,2.3,0c0.6-0.1,0.1-0.1-1.1-0.1C63.3,49.2,62.8,49.3,63.4,49.3 M153.6,65.7c0,1.2,0.1,2.2,0.2,2.3
		c0.1,0.1,0.2-0.6,0.1-1.4C153.7,63.8,153.6,63.5,153.6,65.7 M60.7,64.2c0.3,0.1,0.8,0.1,1.1,0c0.3-0.1,0.1-0.1-0.5-0.1
		C60.6,64.1,60.4,64.1,60.7,64.2 M153.7,84c0,4.8,0,6.7,0.1,4.3c0.1-2.4,0.1-6.3,0-8.7C153.7,77.3,153.7,79.3,153.7,84 M131.4,83.4
		c0,0.6,0.1,0.8,0.1,0.5c0.1-0.3,0.1-0.8,0-1.1C131.5,82.6,131.4,82.8,131.4,83.4 M32.8,95.3c0.7,0.7,1.3,1.2,1.3,1.2
		c0.1,0-0.4-0.5-1-1.2c-0.7-0.7-1.3-1.2-1.3-1.2C31.7,94.1,32.2,94.6,32.8,95.3 M153.7,108c0,4.4,0,6.2,0.1,4c0.1-2.2,0.1-5.8,0-8
		C153.7,101.8,153.7,103.6,153.7,108 M60.7,111c0.3,0.1,0.8,0.1,1.1,0c0.3-0.1,0.1-0.1-0.5-0.1C60.6,110.8,60.4,110.9,60.7,111
		 M153.6,125.5c0,1.2,0.1,1.6,0.1,1c0.1-0.6,0.1-1.6,0-2.1C153.7,123.8,153.6,124.3,153.6,125.5 M60.2,141.7c0.5,0.1,1.4,0.1,2,0
		c0.5-0.1,0.1-0.1-1-0.1S59.7,141.6,60.2,141.7 M134.8,142.3c0.5,0.1,1.1,0.1,1.5,0c0.4-0.1,0-0.1-0.8-0.1
		C134.6,142.1,134.3,142.2,134.8,142.3 M121.3,142.6c0.5,0.1,1.4,0.1,2,0c0.5-0.1,0.1-0.1-1-0.1
		C121.2,142.4,120.7,142.5,121.3,142.6 M135.7,149.3c0.5,0.1,1.2,0.1,1.7,0c0.5-0.1,0.1-0.1-0.8-0.1
		C135.6,149.1,135.2,149.2,135.7,149.3 M120,149.6c0.4,0.1,1,0.1,1.4,0c0.4-0.1,0.1-0.1-0.7-0.1C120,149.4,119.7,149.5,120,149.6
		 M100.3,165.3c0.4,0.1,0.9,0.1,1.2,0c0.3-0.1,0-0.1-0.7-0.1C100.2,165.2,99.9,165.3,100.3,165.3"/>
	<path id="path3" class="st0" d="M106.2,26.2c0.3,0.1,0.8,0.1,1.1,0c0.3-0.1,0.1-0.1-0.5-0.1C106.2,26.1,105.9,26.2,106.2,26.2
		 M109.6,26.2c0.3,0.1,0.8,0.1,1.1,0c0.3-0.1,0.1-0.1-0.5-0.1C109.5,26.1,109.3,26.2,109.6,26.2 M67.4,41.7c0.1,0.5,0.3,0.6,1.9,0.6
		l1.8,0l-1.7-0.1C68,42.1,67.6,42,67.4,41.7C67.4,41.2,67.3,41.2,67.4,41.7 M84.5,42c0.7,0.1,1.9,0.1,2.6,0c0.7-0.1,0.1-0.1-1.3-0.1
		C84.4,41.9,83.8,42,84.5,42 M149.1,43c1,0.1,2.5,0.1,3.3,0c0.9-0.1,0.1-0.1-1.8-0.1C148.8,42.8,148.1,42.9,149.1,43 M91.3,48.7
		c0.6,0.1,1.7,0.1,2.3,0c0.6-0.1,0.1-0.1-1.1-0.1C91.2,48.6,90.7,48.7,91.3,48.7 M73.7,49c0.8,0.1,2,0.1,2.7,0
		c0.7-0.1,0.1-0.1-1.5-0.1C73.5,48.9,72.9,49,73.7,49 M188.8,59.2c0,0.1,0.4,0.5,1,1l1,0.9l-0.9-1C189,59.2,188.8,59,188.8,59.2
		 M37,89.2c-0.1,0.2,0,0.5,0.2,0.7c0.3,0.3,0.3,0.2,0.2-0.2c-0.1-0.3,0-0.6,0.4-0.6c0.5-0.1,0.5-0.1,0-0.2
		C37.5,88.9,37.2,89,37,89.2 M84.7,89.1c0.4,0.1,0.5,0.3,0.4,0.6c-0.1,0.4-0.1,0.4,0.2,0.2c0.4-0.4,0.1-1-0.6-1
		C84.2,89,84.2,89,84.7,89.1 M196.4,91.9c0,0.6,0.1,0.8,0.1,0.5c0.1-0.3,0.1-0.8,0-1.1C196.5,91.1,196.4,91.4,196.4,91.9 M8.5,95.7
		c0,2,0,2.8,0.1,1.7c0.1-1.1,0.1-2.7,0-3.6C8.5,92.9,8.5,93.7,8.5,95.7 M203.5,95.7c0,1.8,0.1,2.6,0.1,1.6c0.1-1,0.1-2.5,0-3.3
		S203.5,93.9,203.5,95.7 M97.8,95.6c0,1.6,0.1,2.2,0.1,1.4c0.1-0.8,0.1-2.1,0-2.9C97.8,93.3,97.8,94,97.8,95.6 M164.2,96.9
		c0,0.1,0.4,0.5,1,1l1,0.9l-0.9-1C164.4,96.9,164.2,96.7,164.2,96.9 M39.8,102c0.8,0.8,1.6,1.5,1.6,1.5c0.1,0-0.5-0.7-1.3-1.5
		c-0.8-0.8-1.6-1.5-1.6-1.5C38.4,100.4,39,101.1,39.8,102 M83.2,118.5c0,0.8,0.1,1.1,0.1,0.7c0.1-0.5,0.1-1.1,0-1.5
		C83.2,117.3,83.2,117.7,83.2,118.5 M39.1,118.7c0,0.8,0.1,1.1,0.1,0.7c0.1-0.4,0.1-1,0-1.4C39.2,117.6,39.1,117.9,39.1,118.7
		 M28.9,128.4c1,1,1.9,1.8,2,1.8c0.1,0-0.7-0.8-1.7-1.8c-1-1-1.9-1.8-2-1.8C27.1,126.6,27.9,127.4,28.9,128.4 M117.8,128.1
		c0.7,0.7,1.3,1.2,1.3,1.2c0.1,0-0.4-0.5-1-1.2c-0.7-0.7-1.3-1.2-1.3-1.2C116.7,126.9,117.2,127.4,117.8,128.1 M183.3,128l-1,1.1
		L183.3,128c0.7-0.5,1.2-1,1.2-1C184.5,126.7,184.3,126.9,183.3,128 M23.7,132.9c0.8,0.8,1.6,1.5,1.6,1.5c0.1,0-0.5-0.7-1.3-1.5
		c-0.8-0.8-1.6-1.5-1.6-1.5C22.3,131.4,22.9,132.1,23.7,132.9 M57.9,141.7c0.3,0.1,0.8,0.1,1.1,0c0.3-0.1,0.1-0.1-0.5-0.1
		C57.9,141.5,57.6,141.6,57.9,141.7 M63.4,141.7c0.3,0.1,0.8,0.1,1.1,0c0.3-0.1,0.1-0.1-0.5-0.1C63.4,141.5,63.1,141.6,63.4,141.7
		 M138.3,142.3c0.9,0.1,2.3,0.1,3.2,0c0.9-0.1,0.2-0.1-1.6-0.1C138.1,142.2,137.4,142.2,138.3,142.3 M125.7,142.6
		c1,0.1,2.5,0.1,3.5,0c1-0.1,0.2-0.1-1.7-0.1C125.5,142.5,124.7,142.5,125.7,142.6 M109.7,142.9c0.7,0.1,1.9,0.1,2.6,0
		c0.7-0.1,0.1-0.1-1.3-0.1S109,142.8,109.7,142.9 M130.2,149.3c1,0.1,2.5,0.1,3.3,0c0.9-0.1,0.1-0.1-1.8-0.1
		C130,149.1,129.3,149.2,130.2,149.3 M117.5,149.6c0.5,0.1,1.1,0.1,1.5,0c0.4-0.1,0-0.1-0.8-0.1C117.3,149.4,117,149.5,117.5,149.6
		 M86.7,152.2c0,0.1,0.4,0.5,1,1l1,0.9l-0.9-1C87,152.1,86.7,151.9,86.7,152.2 M77,168.9c0.9,0.9,1.7,1.7,1.8,1.7
		c0.1,0-0.6-0.8-1.5-1.7c-0.9-0.9-1.7-1.7-1.8-1.7C75.4,167.3,76.1,168,77,168.9 M72.1,173.8c0.6,0.6,1.1,1.1,1.2,1.1
		c0.1,0-0.3-0.5-0.9-1.1c-0.6-0.6-1.1-1.1-1.2-1.1C71.2,172.7,71.6,173.2,72.1,173.8 M103,180.2c0.5,0.1,1.5,0.1,2.1,0
		c0.6-0.1,0.2-0.1-1-0.1C103,180.1,102.5,180.2,103,180.2 M100.6,186.9c0.4,0.1,0.9,0.1,1.2,0c0.3-0.1,0-0.1-0.7-0.1
		C100.5,186.8,100.2,186.8,100.6,186.9 M106.4,186.9c0.4,0.1,0.9,0.1,1.2,0c0.3-0.1,0-0.1-0.7-0.1
		C106.2,186.8,106,186.8,106.4,186.9"/>
	<path id="path4" class="st0" d="M101.5,4.4c0.4,0.1,1,0.1,1.4,0c0.4-0.1,0.1-0.1-0.7-0.1C101.5,4.2,101.1,4.3,101.5,4.4 M107.6,4.4
		c0.4,0.1,1,0.1,1.4,0c0.4-0.1,0.1-0.1-0.7-0.1S107.2,4.3,107.6,4.4 M69.8,4.7c0.3,0.1,0.8,0.1,1.1,0c0.3-0.1,0.1-0.1-0.5-0.1
		C69.7,4.5,69.5,4.6,69.8,4.7 M104.4,11.4c0.5,0.1,1.1,0.1,1.5,0c0.4-0.1,0-0.1-0.8-0.1C104.3,11.2,103.9,11.3,104.4,11.4
		 M101.1,11.7c0.3,0.1,0.8,0.1,1.1,0c0.3-0.1,0.1-0.1-0.5-0.1C101,11.5,100.8,11.6,101.1,11.7 M108.2,11.7c0.4,0.1,0.9,0.1,1.2,0
		c0.3-0.1,0-0.1-0.7-0.1C108.1,11.5,107.8,11.6,108.2,11.7 M95.1,12.7c-0.4,0.2-0.4,0.3-0.2,0.3c0.3,0,0.7-0.1,1.1-0.3
		c0.4-0.2,0.4-0.3,0.2-0.3C95.9,12.4,95.4,12.5,95.1,12.7 M88.2,15.2c-0.4,0.2-0.6,0.4-0.5,0.4c0.2,0,0.6-0.2,1.1-0.4
		c0.4-0.2,0.6-0.4,0.5-0.4C89.1,14.8,88.6,15,88.2,15.2 M135.5,16c0.7,0.7,1.3,1.2,1.3,1.2c0.1,0-0.4-0.5-1-1.2
		c-0.7-0.7-1.3-1.2-1.3-1.2C134.3,14.8,134.8,15.3,135.5,16 M138,18.6c0.6,0.6,1.1,1.1,1.2,1.1c0.1,0-0.3-0.5-0.9-1.1
		c-0.6-0.6-1.1-1.1-1.2-1.1C137.1,17.5,137.5,18,138,18.6 M140.6,21.6c0.6,0.8,1.2,1.4,1.3,1.4c0.2,0-1.7-2.4-2.1-2.6
		C139.6,20.2,139.9,20.8,140.6,21.6 M131.4,21.9c0,0.1,0.4,0.5,1,1l1,0.9l-0.9-1C131.6,21.8,131.4,21.6,131.4,21.9 M144.9,28.2
		c0.3,0.5,0.5,0.9,0.6,0.9c0.1,0-0.1-0.4-0.3-0.9c-0.3-0.5-0.5-0.9-0.6-0.9C144.5,27.2,144.6,27.7,144.9,28.2 M98,28
		c-0.4,0.2-0.6,0.4-0.5,0.4c0.2,0,0.6-0.2,1.1-0.4c0.4-0.2,0.6-0.4,0.5-0.4C98.8,27.6,98.4,27.8,98,28 M127,33.9
		c0.8,0.8,1.6,1.5,1.6,1.5c0.1,0-0.5-0.7-1.3-1.5c-0.8-0.8-1.6-1.5-1.6-1.5C125.5,32.4,126.1,33.1,127,33.9 M107.3,33.2
		c0.5,0.1,1.5,0.1,2.1,0c0.6-0.1,0.2-0.1-1-0.1C107.3,33.1,106.7,33.2,107.3,33.2 M113.4,33.9c0.3,0.2,0.8,0.4,1.2,0.5
		c0.5,0.1,0.6,0.1,0.3-0.1c-0.3-0.2-0.8-0.4-1.2-0.5C113.2,33.7,113.1,33.7,113.4,33.9 M99,35.6c-0.6,0.4-0.6,0.5,0.2,1.1
		c0.7,0.7,0.7,0.7,0.2,0c-0.6-0.7-0.6-0.7,0-1.1c0.3-0.2,0.5-0.4,0.4-0.4C99.7,35.1,99.3,35.3,99,35.6 M85.3,41.7
		c1.5,0.1,3.8,0.1,5.2,0c1.4-0.1,0.2-0.1-2.7-0.1C84.9,41.6,83.8,41.7,85.3,41.7 M72.5,42c1.5,0.1,3.9,0.1,5.3,0s0.3-0.1-2.7-0.1
		C72.2,41.9,71.1,42,72.5,42 M149.5,42.6c0.5,0.1,1.5,0.1,2.1,0s0.2-0.1-1-0.1C149.5,42.5,149,42.6,149.5,42.6 M144.6,42.9
		c0.4,0.1,1,0.1,1.4,0c0.4-0.1,0.1-0.1-0.7-0.1S144.3,42.9,144.6,42.9 M155.3,42.9c0.4,0.1,0.9,0.1,1.2,0c0.3-0.1,0-0.1-0.7-0.1
		C155.1,42.8,154.9,42.9,155.3,42.9 M59.4,45.8c0,0.6,0.1,0.8,0.1,0.5c0.1-0.3,0.1-0.8,0-1.1C59.5,44.9,59.4,45.2,59.4,45.8
		 M43.4,45.6c-0.8,0.4-0.8,0.4-0.2,0.3c0.9-0.2,1.8-0.7,1.4-0.7C44.5,45.2,43.9,45.4,43.4,45.6 M167.5,45.4c0.3,0.2,0.8,0.4,1.2,0.5
		c0.5,0.1,0.6,0.1,0.3-0.1c-0.3-0.2-0.8-0.4-1.2-0.5C167.3,45.2,167.2,45.2,167.5,45.4 M40.2,46.8c-0.4,0.2-0.6,0.4-0.5,0.4
		c0.2,0,0.6-0.2,1.1-0.4s0.6-0.4,0.5-0.4C41.1,46.4,40.7,46.6,40.2,46.8 M104,47.4c-0.4,0.6-0.5,0.8-0.2,0.6c0.5-0.4,1.3-1.5,1-1.5
		C104.8,46.4,104.4,46.8,104,47.4 M98,48.7c0.8,0.1,2,0.1,2.7,0c0.7-0.1,0.1-0.1-1.5-0.1C97.8,48.6,97.2,48.7,98,48.7 M82.7,49
		c1.2,0.1,3.2,0.1,4.4,0s0.2-0.1-2.2-0.1C82.5,48.9,81.5,49,82.7,49 M69.3,49.3c1.5,0.1,4.1,0.1,5.6,0c1.5-0.1,0.3-0.1-2.8-0.1
		C69,49.2,67.8,49.3,69.3,49.3 M53.9,50.2c-0.7,0.3-0.9,0.4-0.4,0.4c0.3,0,0.9-0.2,1.2-0.4C55.4,49.7,55.3,49.7,53.9,50.2
		 M149.2,49.9c0.9,0.1,2.3,0.1,3.2,0c0.9-0.1,0.2-0.1-1.6-0.1S148.3,49.9,149.2,49.9 M23.8,58.1l-2.9,3L23.8,58.1c2.8-2.6,3.2-3,3-3
		C26.8,55.2,25.4,56.5,23.8,58.1 M188,58.2c1.5,1.5,2.8,2.7,2.9,2.7c0.1,0-1.1-1.2-2.6-2.7c-1.5-1.5-2.8-2.7-2.9-2.7
		C185.4,55.5,186.5,56.7,188,58.2 M98.4,57.9c1,1,1.9,1.8,2,1.8c0.1,0-0.7-0.8-1.7-1.8s-1.9-1.8-2-1.8
		C96.7,56.1,97.4,56.9,98.4,57.9 M112.7,58.6l-2.4,2.5L112.7,58.6c1.5-1.2,2.6-2.4,2.6-2.4C115.3,56,114.9,56.3,112.7,58.6
		 M90.7,60.4c0,0.1,0.4,0.5,1,1l1,0.9l-0.9-1C90.9,60.4,90.7,60.2,90.7,60.4 M146.7,65.7c0,1.3,0.1,1.8,0.1,1.1
		c0.1-0.7,0.1-1.8,0-2.4C146.7,63.7,146.6,64.3,146.7,65.7 M56.2,66.2l-0.9,1L56.2,66.2c1-0.7,1.2-1,1-1
		C57.1,65.2,56.7,65.7,56.2,66.2 M65.1,65.3c0,0.1,0.4,0.5,1,1l1,0.9l-0.9-1C65.4,65.3,65.1,65.1,65.1,65.3 M163.9,72.6
		c0,0.1,0.4,0.5,1,1l1,0.9l-0.9-1C164.1,72.6,163.9,72.4,163.9,72.6 M145.2,75.7c-0.9,0.4-0.2,0.4,1-0.1c0.3-0.1,0.4,1.5,0.4,7.6
		c0,7.1,0,7.8-0.5,7.9c-0.4,0.1-0.4,0.1,0.2,0.2l0.7,0l-0.1-7.9C146.7,74.9,146.7,75,145.2,75.7 M153.8,75.5c0,0.1,0.4,0.3,0.8,0.3
		c0.7,0,0.8,0,0.2-0.2C154.1,75.2,153.8,75.2,153.8,75.5 M50.4,77.1C50.2,77.6,50,78,50.1,78c0.1,0,0.4-0.4,0.6-0.9
		c0.3-0.5,0.4-0.9,0.3-0.9C51,76.1,50.7,76.6,50.4,77.1 M57.8,78.4c-0.3,0.6-0.4,1.1-0.4,1.1c0.2,0,1.1-1.9,1-2
		C58.3,77.4,58,77.8,57.8,78.4 M140.8,78.5l-1,1.1L140.8,78.5c1.2-0.9,1.4-1.1,1.1-1.1C141.8,77.4,141.3,77.9,140.8,78.5
		 M159.5,78.6c0.7,0.7,1.3,1.2,1.3,1.2s-0.4-0.5-1-1.2c-0.7-0.7-1.3-1.2-1.3-1.2C158.3,77.4,158.8,77.9,159.5,78.6 M131.4,85.3
		c0,0.6,0.1,0.8,0.1,0.5c0.1-0.3,0.1-0.8,0-1.1C131.5,84.4,131.4,84.7,131.4,85.3 M53.7,85.6l-0.9,1L53.7,85.6c1-0.7,1.2-1,1-1
		C54.7,84.6,54.2,85.1,53.7,85.6 M67.6,84.7c0,0.1,0.4,0.5,1,1l1,0.9l-0.9-1C67.8,84.7,67.6,84.5,67.6,84.7 M8.7,88
		c0,0.6,0.1,0.8,0.1,0.5c0.1-0.3,0.1-0.8,0-1.1C8.8,87.2,8.7,87.4,8.7,88 M139.6,87.5c0,0.1,0.4,0.5,1,1l1,0.9l-0.9-1
		C139.8,87.4,139.6,87.2,139.6,87.5 M37.2,89.4c0,0.1,1.1,1.3,2.4,2.5l2.4,2.3l-2.2-2.3c-1.2-1.3-2.1-2.4-2-2.5
		c0.1-0.1,0.1-0.2-0.1-0.2C37.4,89.2,37.2,89.3,37.2,89.4 M84.7,89.4c0.1,0.1-0.8,1.2-2,2.5l-2.2,2.3l2.4-2.3c2.3-2.2,2.7-2.7,2-2.7
		C84.6,89.2,84.6,89.3,84.7,89.4 M97.7,91.3c0,0.6,0.1,0.8,0.1,0.5c0.1-0.3,0.1-0.8,0-1.1C97.8,90.5,97.7,90.7,97.7,91.3
		 M134.4,92.6c0,0.1,0.4,0.5,1,1l1,0.9l-0.9-1C134.6,92.6,134.4,92.4,134.4,92.6 M15.4,95.6c0,1.4,0.1,2,0.1,1.3
		c0.1-0.7,0.1-1.9,0-2.6C15.5,93.6,15.4,94.2,15.4,95.6 M104.7,95.6c0,1.4,0.1,2,0.1,1.3c0.1-0.7,0.1-1.9,0-2.6
		C104.8,93.6,104.7,94.2,104.7,95.6 M157.3,93.5c0.3,0.1,0.8,0.3,1.1,0.3c0.3,0,0.2-0.1-0.2-0.3c-0.3-0.1-0.8-0.3-1.1-0.3
		C156.9,93.2,156.9,93.3,157.3,93.5 M196.5,95.7c0,1,0.1,1.4,0.1,0.8c0.1-0.5,0.1-1.4,0-1.8C196.5,94.3,196.4,94.7,196.5,95.7
		 M38,100.4c1.7,1.8,3.2,3.4,3.2,3.6c0.1,0.4,0.2,0.4,0.2,0c0-0.3-1.4-1.9-3.2-3.6l-3.3-3.2L38,100.4 M83.9,100.7
		c-1.8,1.8-2.9,3.2-2.8,3.4c0.1,0.3,0.2,0.3,0.2,0c0-0.2,1.4-1.8,3-3.4c1.6-1.6,2.9-3,2.8-3C86.9,97.7,85.5,99.1,83.9,100.7
		 M144.3,98.3c0.3,0.1,0.8,0.3,1.1,0.3c0.3,0,0.2-0.1-0.2-0.3c-0.3-0.1-0.8-0.3-1.1-0.3C143.8,98.1,143.9,98.1,144.3,98.3
		 M146.5,107.1c0.1,6.7,0,8.5-0.3,8.6c-0.2,0.1-0.2,0.1,0.1,0.1c0.5,0,0.9-16.4,0.4-16.9C146.5,98.8,146.4,102.5,146.5,107.1
		 M203.4,100.4c0,0.6,0.1,0.8,0.1,0.5c0.1-0.3,0.1-0.8,0-1.1C203.5,99.6,203.4,99.9,203.4,100.4 M8.4,100.7c0,0.6,0.1,0.8,0.1,0.5
		c0.1-0.3,0.1-0.8,0-1.1C8.5,99.9,8.4,100.2,8.4,100.7 M159,101.7c0,0.1,0.4,0.5,1,1l1,0.9l-0.9-1C159.3,101.7,159,101.5,159,101.7
		 M48.5,103.5c0,0.6,0.1,0.8,0.1,0.5c0.1-0.3,0.1-0.8,0-1.1C48.6,102.7,48.5,102.9,48.5,103.5 M73.7,103.5c0,0.6,0.1,0.8,0.1,0.5
		c0.1-0.3,0.1-0.8,0-1.1C73.8,102.7,73.7,102.9,73.7,103.5 M105.6,104.5c0,0.3,0.1,0.9,0.3,1.2c0.3,0.8,0.3,0,0-1.1
		C105.7,104.1,105.6,104.1,105.6,104.5 M161.8,107.6c0,0.7,0.1,0.9,0.1,0.5c0.1-0.4,0.1-0.9,0-1.2
		C161.9,106.6,161.8,106.9,161.8,107.6 M135.5,108.9c0.4,0.1,0.9,0.1,1.2,0c0.3-0.1,0-0.1-0.7-0.1
		C135.4,108.7,135.2,108.8,135.5,108.9 M106.9,109.9c0.1,0.4,0.3,1,0.5,1.2c0.2,0.3,0.2,0.2,0.1-0.3c-0.1-0.4-0.3-1-0.5-1.2
		C106.8,109.2,106.8,109.3,106.9,109.9 M99.5,110.2c0,0.3,0.1,0.7,0.3,1.1c0.2,0.4,0.3,0.4,0.3,0.2c0-0.3-0.1-0.7-0.3-1.1
		C99.6,109.9,99.5,109.9,99.5,110.2 M132.3,112.3c0,0.6,0.1,0.8,0.1,0.5c0.1-0.3,0.1-0.8,0-1.1C132.4,111.5,132.3,111.7,132.3,112.3
		 M46.4,116.8c0,0.6,0.1,0.8,0.1,0.5c0.1-0.3,0.1-0.8,0-1.1C46.5,116,46.4,116.3,46.4,116.8 M75.9,116.8c0,0.6,0.1,0.8,0.1,0.5
		c0.1-0.3,0.1-0.8,0-1.1C75.9,116,75.9,116.3,75.9,116.8 M135.8,118.1c0.8,0.8,1.6,1.5,1.6,1.5c0.1,0-0.5-0.7-1.3-1.5
		c-0.8-0.8-1.6-1.5-1.6-1.5C134.3,116.5,134.9,117.2,135.8,118.1 M38.8,118.5c0,0.7,0.1,0.9,0.1,0.5c0.1-0.4,0.1-0.9,0-1.2
		C38.9,117.5,38.8,117.8,38.8,118.5 M83.4,118.5c0,0.7,0.1,0.9,0.1,0.5c0.1-0.4,0.1-0.9,0-1.2C83.5,117.5,83.4,117.8,83.4,118.5
		 M162.9,119.3c-0.8,0.7-1,1-0.5,0.6c0.8-0.6,2.2-1.9,1.9-1.9C164.4,118.1,163.7,118.6,162.9,119.3 M55.4,121
		c-1.1,0.6-1.1,0.9,0.1,0.3c0.5-0.3,0.9-0.5,0.9-0.6C56.3,120.4,56.3,120.4,55.4,121 M113.4,122.6c0.4,0.5,0.7,0.9,0.8,0.9
		c0.1,0-0.1-0.4-0.5-0.9c-0.4-0.5-0.7-0.9-0.8-0.9C112.9,121.7,113.1,122.1,113.4,122.6 M39.9,122.4c0,0.1,0.4,0.5,1,1l1,0.9l-0.9-1
		C40.2,122.4,39.9,122.2,39.9,122.4 M81.4,123.3l-0.9,1L81.4,123.3c0.6-0.4,1.1-0.8,1.1-0.9C82.5,122.2,82.2,122.4,81.4,123.3
		 M146.5,125.7l0.1,2.5l0.1-2.2c0.1-1.2,0-2.4-0.1-2.5C146.5,123.4,146.5,124.4,146.5,125.7 M105.4,124.9c-0.1,0.4-0.1,0.4,0.2,0.2
		c0.3-0.3,0.5-0.2,0.8,0c0.3,0.3,0.3,0.3,0.2-0.2C106.3,124.3,105.7,124.3,105.4,124.9 M28.7,127.9c1.4,1.4,2.6,2.6,2.7,2.6
		c0.1,0-1-1.2-2.4-2.6c-1.4-1.4-2.6-2.6-2.7-2.6C26.2,125.3,27.3,126.5,28.7,127.9 M93.8,127.9l-1.8,1.9L93.8,127.9
		c1.1-0.9,2-1.8,2-1.8C95.8,125.8,95.5,126.1,93.8,127.9 M118.1,128.1c1.2,1.2,2.2,2.1,2.3,2.1c0.1,0-0.8-1-2-2.1
		c-1.2-1.2-2.2-2.1-2.3-2.1C116.1,126,117,126.9,118.1,128.1 M182.7,128.2c-1.2,1.3-2.2,2.3-2.1,2.3c0.1,0,1.2-1,2.4-2.3
		c1.2-1.3,2.2-2.3,2.1-2.3C185,126,183.9,127,182.7,128.2 M20.2,129.4c0,0.1,0.4,0.5,1,1l1,0.9l-0.9-1
		C20.4,129.4,20.2,129.2,20.2,129.4 M190.7,130.3l-0.9,1L190.7,130.3c0.6-0.4,1.1-0.8,1.1-0.9C191.8,129.2,191.5,129.4,190.7,130.3
		 M101.1,130.6l-0.9,1L101.1,130.6c1-0.7,1.2-1,1-1C102.1,129.6,101.6,130,101.1,130.6 M109.8,129.7c0,0.1,0.4,0.5,1,1l1,0.9l-0.9-1
		C110,129.7,109.8,129.5,109.8,129.7 M23.8,133.4c0.9,0.9,1.7,1.7,1.8,1.7c0.1,0-0.6-0.8-1.5-1.7c-0.9-0.9-1.7-1.7-1.8-1.7
		C22.3,131.7,22.9,132.5,23.8,133.4 M96.1,135.6l-1,1.1L96.1,135.6c1.2-0.9,1.4-1.1,1.1-1.1C97.2,134.5,96.7,135,96.1,135.6
		 M185.4,135.6l-1,1.1L185.4,135.6c1.2-0.9,1.4-1.1,1.1-1.1C186.5,134.5,186,135,185.4,135.6 M115,134.9c0,0.1,0.4,0.5,1,1l1,0.9
		l-0.9-1C115.2,134.8,115,134.6,115,134.9 M42.7,137.6c0.4,0.2,0.9,0.4,1.1,0.4c0.2,0,0-0.2-0.5-0.4c-0.4-0.2-0.9-0.4-1.1-0.4
		C42.1,137.2,42.3,137.4,42.7,137.6 M76.2,138.9c-0.8,0.4-0.8,0.4-0.2,0.3c0.9-0.2,1.8-0.7,1.4-0.7
		C77.3,138.4,76.7,138.6,76.2,138.9 M57.2,141.4c0.5,0.1,1.4,0.1,1.8,0c0.5-0.1,0-0.1-1-0.1C57,141.2,56.6,141.3,57.2,141.4
		 M63.9,141.4c0.5,0.1,1.4,0.1,1.8,0c0.5-0.1,0-0.1-1-0.1C63.7,141.2,63.3,141.3,63.9,141.4 M144.6,142c0.4,0.1,1,0.1,1.4,0
		c0.4-0.1,0.1-0.1-0.7-0.1S144.3,141.9,144.6,142 M127.8,142.3c1.1,0.1,3,0.1,4.3,0c1.2-0.1,0.3-0.1-2-0.1
		C127.7,142.2,126.7,142.2,127.8,142.3 M112,142.6c1.6,0.1,4.2,0.1,5.8,0c1.5-0.1,0.2-0.1-3-0.1S110.4,142.5,112,142.6 M71.8,147.5
		c-0.6,0.2-0.6,0.2-0.2,0.3c0.3,0,0.9-0.1,1.2-0.3C73.7,147.2,72.9,147.2,71.8,147.5 M59.2,148.7c1.3,0.1,3.4,0.1,4.6,0
		c1.2-0.1,0.1-0.1-2.4-0.1C58.8,148.5,57.9,148.6,59.2,148.7 M138.9,149.3c0.5,0.1,1.4,0.1,2,0s0.1-0.1-1-0.1
		S138.3,149.2,138.9,149.3 M123.4,149.6c0.9,0.1,2.3,0.1,3.2,0c0.9-0.1,0.2-0.1-1.6-0.1S122.5,149.5,123.4,149.6 M78.4,150.4
		c-0.2,0.6-0.2,1.7,0,2.1c0.1,0.2,0.2-0.3,0.2-1.1C78.7,149.8,78.7,149.7,78.4,150.4 M141.2,151c-0.1,0.6-0.1,1.2-0.1,1.2
		c0.1,0.1,0.2-0.4,0.3-1c0.1-0.6,0.1-1.2,0.1-1.2C141.5,150,141.4,150.4,141.2,151 M65.5,151.5c0.4,0.1,1,0.3,1.2,0.5
		c0.2,0.1,0.1,0-0.2-0.3c-0.3-0.3-0.9-0.5-1.2-0.5C64.8,151.2,64.9,151.3,65.5,151.5 M87.3,152.5c0.6,0.6,1.5,1.4,2,1.8
		c1.1,0.7,0.9,0.5-1.4-1.5C86.6,151.6,86.5,151.6,87.3,152.5 M119.6,156c0,0.6,0.1,0.8,0.1,0.5c0.1-0.3,0.1-0.8,0-1.1
		C119.6,155.2,119.6,155.4,119.6,156 M103.7,157.8c-0.6,0.2-0.6,0.2-0.2,0.2c0.3,0,0.9-0.1,1.4-0.2c0.6-0.2,0.6-0.2,0.2-0.2
		C104.8,157.6,104.1,157.7,103.7,157.8 M97.9,165.3c0.4,0.1,1,0.1,1.4,0c0.4-0.1,0.1-0.1-0.7-0.1S97.5,165.3,97.9,165.3
		 M102.4,165.3c0.4,0.1,1,0.1,1.4,0c0.4-0.1,0.1-0.1-0.7-0.1C102.4,165.2,102.1,165.3,102.4,165.3 M77.1,168.8
		c1.2,1.2,2.2,2.1,2.3,2.1c0.1,0-0.8-1-2-2.1c-1.2-1.2-2.2-2.1-2.3-2.1C75.1,166.6,76,167.6,77.1,168.8 M137.6,169.8
		c-0.1,0.4-0.2,1-0.2,1.3c0,0.3,0.2,0.1,0.3-0.6C138.1,169.2,137.9,168.6,137.6,169.8 M129.7,179.1c-0.1,0.2,0,0.2,0.3,0.1
		c0.3-0.1,0.7,0,1,0.2c0.5,0.4,0.5,0.4,0.1-0.1C130.6,178.7,130,178.6,129.7,179.1 M102.6,179.9c1,0.1,2.5,0.1,3.3,0
		c0.9-0.1,0.1-0.1-1.8-0.1C102.3,179.8,101.6,179.9,102.6,179.9 M142.1,184.2c-0.3,1-0.3,1.1,0.1,0.5c0.4-0.5,0.6-1.7,0.4-1.7
		C142.5,183.1,142.3,183.6,142.1,184.2 M135.8,185.2c0.7,0.7,1.3,1.2,1.3,1.2c0.1,0-0.4-0.5-1-1.2c-0.7-0.7-1.3-1.2-1.3-1.2
		C134.6,184,135.1,184.5,135.8,185.2 M115.7,185.5c-0.4,0.2-0.4,0.3-0.2,0.3c0.3,0,0.7-0.1,1.1-0.3c0.4-0.2,0.4-0.3,0.2-0.3
		C116.5,185.2,116.1,185.3,115.7,185.5 M103,187.2c0.5,0.1,1.5,0.1,2.1,0c0.6-0.1,0.2-0.1-1-0.1C103,187.1,102.5,187.2,103,187.2"/>
</g>
</svg>
