<svg xmlns="http://www.w3.org/2000/svg" width="15.54" height="20.396" viewBox="0 0 15.54 20.396">
  <path id="lock" d="M20.347,10.033h-.971V8.091a4.856,4.856,0,0,0-9.712,0h1.845a3.011,3.011,0,1,1,6.022,0h0v1.942H8.692A1.948,1.948,0,0,0,6.75,11.975v9.712A1.948,1.948,0,0,0,8.692,23.63H20.347a1.948,1.948,0,0,0,1.942-1.942V11.975A1.948,1.948,0,0,0,20.347,10.033ZM14.52,18.871a1.942,1.942,0,1,1,1.942-1.942A1.948,1.948,0,0,1,14.52,18.871Z" transform="translate(-6.75 -3.234)" fill="#535353"/>
</svg>
