<?xml version="1.0" encoding="utf-8"?>
<!-- Generator: Adobe Illustrator 25.2.1, SVG Export Plug-In . SVG Version: 6.00 Build 0)  -->
<svg version="1.1" id="Capa_1" xmlns="http://www.w3.org/2000/svg" xmlns:xlink="http://www.w3.org/1999/xlink" x="0px" y="0px"
	 viewBox="0 0 512 512" style="enable-background:new 0 0 512 512;" xml:space="preserve">
<g>
	<g>
		<path d="M50.6,237.6c20.6,0,37.4,16.8,37.4,37.4c0,6.4,5.2,11.5,11.5,11.5h312.9c6.4,0,11.5-5.2,11.5-11.5
			c0-20.6,16.8-37.4,37.4-37.4c6.4,0,11.5-5.2,11.5-11.5v-78.2c0-6.4-5.2-11.5-11.5-11.5c-20.6,0-37.4-16.8-37.4-37.4
			c0-6.4-5.2-11.5-11.5-11.5H99.5C93.2,87.5,88,92.6,88,99c0,20.6-16.8,37.4-37.4,37.4c-6.4,0-11.5,5.2-11.5,11.5v78.2
			C39.1,232.5,44.3,237.6,50.6,237.6z M62.2,215.7v-57.3c24.2-4.7,43.2-23.7,47.8-47.9h292c4.7,24.2,23.6,43.2,47.8,47.8v57.5
			c-24.2,4.7-43,23.7-47.6,47.7H109.9C105.3,239.3,86.4,220.3,62.2,215.7z"/>
		<path d="M256,237.6c27.9,0,50.6-22.7,50.6-50.6s-22.7-50.6-50.6-50.6c-27.9,0-50.6,22.7-50.6,50.6S228.1,237.6,256,237.6z
			 M256,159.4c15.2,0,27.6,12.4,27.6,27.6s-12.4,27.6-27.6,27.6c-15.2,0-27.6-12.4-27.6-27.6S240.8,159.4,256,159.4z"/>
		<path d="M511.7,302.6V48.4H11.5C5.2,48.4,0,53.5,0,59.9v254.3c0,6.4,5.2,11.5,11.5,11.5h489c6.4,0,11.5-5.2,11.5-11.5v-11.5H511.7
			z M489,71.4v231.2H23V71.4H489z"/>
	</g>
	<path d="M348.4,385.7l-41.9-41.9c-1.6-1.6-3.8-2.5-6.1-2.5c-2.3,0-4.5,0.9-6.1,2.5l-3.8,3.8c-1.6,1.6-2.5,3.8-2.5,6.1
		c0,2.3,0.9,4.6,2.5,6.2l20.5,20.6H169.2c-4.5,0-8.2,3.7-8.2,8.2v5.8c0,5.5,2.6,8.9,7,8.9h143.1L290.4,424c-1.6,1.6-2.5,3.8-2.5,6.1
		c0,2.3,0.9,4.5,2.5,6.1l3.8,3.8c1.6,1.6,3.8,2.5,6.1,2.5c2.3,0,4.5-0.9,6.1-2.5l41.9-41.9c1.6-1.6,2.5-3.8,2.5-6.1
		C351,389.6,350.1,387.4,348.4,385.7z"/>
</g>
</svg>
