<?xml version="1.0" encoding="UTF-8"?>
<svg xmlns="http://www.w3.org/2000/svg" xmlns:xlink="http://www.w3.org/1999/xlink" width="33pt" height="33pt" viewBox="0 0 33 33" version="1.1">
<g id="surface1">
<path style=" stroke:none;fill-rule:nonzero;fill:rgb(64.705882%,40%,76.862745%);fill-opacity:1;" d="M 15.710938 0.3125 C 9.203125 0.3125 3.917969 5.660156 3.863281 12.261719 C 3.875 14.492188 4.523438 16.675781 5.734375 18.554688 L 14.785156 31.234375 C 15.042969 31.691406 15.375 31.925781 15.710938 31.925781 C 16.050781 31.925781 16.382812 31.691406 16.636719 31.234375 L 25.691406 18.5625 C 26.894531 16.6875 27.546875 14.5 27.5625 12.265625 C 27.511719 5.660156 22.230469 0.3125 15.710938 0.3125 Z M 15.710938 0.3125 "/>
<path style=" stroke:none;fill-rule:nonzero;fill:rgb(100%,100%,100%);fill-opacity:1;" d="M 23.609375 12.398438 C 23.609375 16.742188 20.085938 20.265625 15.738281 20.265625 C 11.398438 20.265625 7.875 16.742188 7.875 12.398438 C 7.875 8.050781 11.398438 4.527344 15.738281 4.527344 C 20.085938 4.527344 23.609375 8.050781 23.609375 12.398438 Z M 23.609375 12.398438 "/>
<path style=" stroke:none;fill-rule:nonzero;fill:rgb(64.705882%,40%,76.862745%);fill-opacity:1;" d="M 20.265625 8.535156 L 16.210938 8.535156 C 16.054688 8.96875 15.882812 9.398438 15.699219 9.828125 L 14.941406 9.828125 C 14.96875 9.699219 14.96875 9.585938 15.023438 9.476562 C 15.15625 9.125 15.320312 8.746094 15.425781 8.394531 C 15.558594 7.992188 15.859375 7.746094 16.292969 7.746094 C 17.585938 7.746094 18.886719 7.722656 20.15625 7.746094 C 20.753906 7.746094 20.992188 8.042969 21.019531 8.664062 C 21.039062 9.09375 21.019531 9.554688 21.019531 9.984375 L 21.019531 17.144531 C 20.964844 17.765625 20.613281 18.109375 19.988281 18.109375 L 15.316406 18.109375 C 14.636719 18.109375 14.234375 17.734375 14.207031 17.085938 C 14.179688 15.328125 14.207031 13.546875 14.207031 11.792969 C 14.214844 11.695312 14.234375 11.59375 14.257812 11.496094 L 14.929688 11.496094 L 14.929688 16.730469 C 14.929688 17.300781 14.984375 17.355469 15.527344 17.355469 L 19.042969 17.355469 C 19.074219 17.175781 19.089844 16.996094 19.097656 16.816406 C 19.097656 15.304688 19.097656 13.789062 19.125 12.277344 C 19.128906 11.863281 19.199219 11.453125 19.339844 11.058594 C 19.5625 10.382812 19.800781 9.738281 20.042969 9.089844 C 20.128906 8.964844 20.183594 8.777344 20.265625 8.535156 Z M 20.265625 8.535156 "/>
<path style=" stroke:none;fill-rule:nonzero;fill:rgb(64.705882%,40%,76.862745%);fill-opacity:1;" d="M 13.234375 10.101562 C 13.1875 10.992188 13.046875 11.769531 13.101562 12.585938 C 13.234375 14.234375 13.347656 15.875 13.484375 17.5 C 13.507812 17.878906 13.324219 18.125 13.023438 18.148438 C 12.695312 18.175781 12.457031 17.992188 12.425781 17.582031 C 12.292969 16.28125 12.183594 15.011719 12.070312 13.71875 C 12.046875 13.496094 12.070312 13.257812 11.71875 13.203125 C 11.667969 13.425781 11.613281 13.585938 11.613281 13.773438 C 11.507812 14.964844 11.425781 16.175781 11.34375 17.367188 C 11.347656 17.441406 11.339844 17.515625 11.316406 17.589844 C 11.265625 17.964844 11.046875 18.15625 10.75 18.128906 C 10.453125 18.097656 10.265625 17.855469 10.265625 17.472656 C 10.316406 16.421875 10.371094 15.371094 10.421875 14.316406 C 10.503906 12.882812 10.578125 11.480469 10.667969 10.050781 C 10.695312 9.667969 10.695312 9.265625 10.75 8.882812 C 10.800781 8.429688 11.074219 8.234375 11.535156 8.34375 C 12.042969 8.445312 12.550781 8.570312 13.046875 8.726562 C 13.257812 8.792969 13.457031 8.914062 13.617188 9.074219 C 13.941406 9.375 14.214844 9.703125 14.5 10.023438 C 14.664062 10.179688 14.828125 10.269531 15.042969 10.269531 L 16.558594 10.269531 C 16.910156 10.269531 17.066406 10.425781 17.066406 10.671875 C 17.066406 10.945312 16.910156 11.105469 16.558594 11.105469 C 15.910156 11.105469 15.261719 11.132812 14.585938 11.105469 C 14.425781 11.105469 14.261719 11 14.128906 10.886719 C 13.832031 10.664062 13.589844 10.425781 13.234375 10.101562 Z M 13.234375 10.101562 "/>
<path style=" stroke:none;fill-rule:nonzero;fill:rgb(64.705882%,40%,76.862745%);fill-opacity:1;" d="M 17.152344 11.421875 C 17.640625 10.398438 17.429688 10.050781 16.125 9.828125 C 16.207031 9.5625 16.28125 9.289062 16.421875 9.074219 C 16.472656 8.992188 16.644531 8.941406 16.773438 8.941406 C 17.589844 8.941406 18.394531 8.914062 19.230469 8.941406 C 19.582031 8.941406 19.6875 9.074219 19.554688 9.425781 C 19.371094 9.996094 19.179688 10.59375 18.957031 11.152344 C 18.894531 11.289062 18.777344 11.398438 18.632812 11.449219 C 18.15625 11.421875 17.695312 11.421875 17.152344 11.421875 Z M 17.152344 11.421875 "/>
<path style=" stroke:none;fill-rule:nonzero;fill:rgb(64.705882%,40%,76.862745%);fill-opacity:1;" d="M 12.480469 5.804688 C 13.136719 5.808594 13.667969 6.339844 13.671875 6.992188 C 13.667969 7.308594 13.535156 7.613281 13.304688 7.828125 C 13.078125 8.046875 12.773438 8.167969 12.457031 8.160156 C 11.804688 8.160156 11.292969 7.617188 11.292969 6.945312 C 11.320312 6.304688 11.84375 5.804688 12.480469 5.804688 Z M 12.480469 5.804688 "/>
<path style=" stroke:none;fill-rule:nonzero;fill:rgb(64.705882%,40%,76.862745%);fill-opacity:1;" d="M 17.074219 12.554688 L 15.882812 12.554688 C 15.53125 12.554688 15.375 12.425781 15.375 12.207031 C 15.375 11.957031 15.566406 11.828125 15.917969 11.828125 L 18.261719 11.828125 C 18.640625 11.828125 18.804688 11.957031 18.804688 12.234375 C 18.78125 12.554688 18.558594 12.582031 18.292969 12.582031 C 17.882812 12.554688 17.480469 12.554688 17.074219 12.554688 Z M 17.074219 12.554688 "/>
</g>
</svg>
