<?xml version="1.0" encoding="utf-8"?>
<!-- Generator: Adobe Illustrator 25.2.1, SVG Export Plug-In . SVG Version: 6.00 Build 0)  -->
<svg version="1.1" id="Layer_1" xmlns="http://www.w3.org/2000/svg" xmlns:xlink="http://www.w3.org/1999/xlink" x="0px" y="0px"
	 viewBox="0 0 1920 1080" style="enable-background:new 0 0 1920 1080;" xml:space="preserve">
<style type="text/css">
	.st0{opacity:0.4;clip-path:url(#SVGID_1_);fill:url(#SVGID_2_);}
</style>
<g>
	<defs>
		<rect id="SVGID_4_" width="1920" height="1080"/>
	</defs>
	<clipPath id="SVGID_1_">
		<use xlink:href="#SVGID_4_"  style="overflow:visible;"/>
	</clipPath>
	<linearGradient id="SVGID_2_" gradientUnits="userSpaceOnUse" x1="984.8264" y1="-219.2406" x2="984.8264" y2="1693.1538">
		<stop  offset="0" style="stop-color:#FFFFFF;stop-opacity:0.3"/>
		<stop  offset="0.2521" style="stop-color:#CFBDDB;stop-opacity:0.4765"/>
		<stop  offset="0.5103" style="stop-color:#A281BA;stop-opacity:0.6572"/>
		<stop  offset="0.7303" style="stop-color:#8154A2;stop-opacity:0.8112"/>
		<stop  offset="0.9004" style="stop-color:#6D3993;stop-opacity:0.9303"/>
		<stop  offset="1" style="stop-color:#662F8E"/>
	</linearGradient>
	<path class="st0" d="M1025.5,789.9l1.1-1.4L1129.1,664l120.3,249l-4-2.2L1025.5,789.9z M1128.4,669.4L1030,789l212.7,117
		L1128.4,669.4z M494.4,591.7l-222-288.6l1.8-0.7l231.2-88.1l-0.1,2.2L494.4,591.7z M277.2,304.5l214.5,278.9l10.7-364.7
		L277.2,304.5z M491.4,593.5l0.2-6l11-374l139.7,111.8l-0.6,1.1L491.4,593.5z M505.3,219.5l-10.7,362.1L638.5,326L505.3,219.5z
		 M871.7,824.4l2.1-3l130.3-191.3l25.3,160.5l-1.4,0.3L871.7,824.4z M1002.4,637.8L878.3,820l147.8-31.7L1002.4,637.8z
		 M1026.8,792.9l-25.4-161l2.2,0.6l127.7,33.3L1026.8,792.9z M1005,635.9l23.7,150.1l97.4-118.5L1005,635.9z M1240.9,908.3
		l339.6-16.7l-0.2,1.7l-19.3,195.9l-2-1.1L1240.9,908.3z M1577.2,894.7l-326.1,16l307.4,173.7L1577.2,894.7z M1557.9,1090.7l0.4-4
		l19.2-194.7l1-0.3l251-66.9l-4,3.9L1557.9,1090.7z M1580.2,894.3l-18.6,188.7l257.8-252.5L1580.2,894.3z M1817.7,836.4l159.4-279
		l45.6,74L1817.7,836.4z M1977.3,563.2l-146.1,255.7L2019,631L1977.3,563.2z M2020.6,633.6l-1-1.6l-44.5-72.3l1.4-0.7l223.2-110.2
		l-5.9,6.1L2020.6,633.6z M1979.3,560.9l41.8,68L2185.8,459L1979.3,560.9z M948.6-219.2l-222.9,87.4l-35.1-87.4h-3.2l36.1,89.8
		l0.5,1.3l232.6-91.2H948.6z M-29.6,689.2l-2.3-2.4l-195.4-206.4l2.4-0.6l214.8-55.1l-0.1,2L-29.6,689.2z M-221.7,482L-32,682.4
		l18.7-253.8L-221.7,482z M-13.4,428.9l0.3-2.5l22-214.6l1.7,0.6l268.3,91.3l-3.5,1.5L-13.4,428.9z M11.4,215.8L-10,424.3L270.7,304
		L11.4,215.8z M1051.5,1100.7l-3.1-4.9L872.6,821.2l2.1-0.4l154.4-33.1l0.1,1.7L1051.5,1100.7z M877.4,823.2l170.4,266.2
		l-21.3-298.1L877.4,823.2z M1048.4,1098.2l-0.2-3.1l-22-308.2l2.4,1.3l220,121l-1.4,1.4L1048.4,1098.2z M1029.4,792l21.4,299.8
		l192.7-182L1029.4,792z M1692.3,300.9l-0.3-2.4L1664.4,89l237.1,69.7l-2.6,1.7L1692.3,300.9z M1667.9,93.1l26.7,202.7l200.1-136
		L1667.9,93.1z M1041.5-219.2L967-74.4l-237.1-56l226.8-88.9h-8.1l-224.2,87.9l-4.4,1.7l247.4,58.4l1.1,0.2l76.2-148.2H1041.5z
		 M1264.7-219.2l142.5,93.1l-303.9-10.7l22-82.4h-3l-22.2,83.4l-0.5,1.8l312.9,11l5.3,0.2l-147.6-96.4H1264.7z M1409.3-124
		l115.1-87.1l0.9,0.9l190,184.4l-6-1.9L1409.3-124z M1524.2-207.2l-108.6,82.1l288.7,92.7L1524.2-207.2z M1537.5,134.3l-0.9-1.8
		l-127-259.6l303,97.3L1537.5,134.3z M1415.3-122l123.1,251.6L1707-28.4L1415.3-122z M1532.2,135.3l4.7-4.4l176.4-165.2l-46,126.5
		L1532.2,135.3z M1706.4-23.8l-162.6,152.3l121.4-38.7L1706.4-23.8z M1695.5,302.7l-3.1-3.3l-157.1-168.1l132.1-42.1l0.2,1.7
		L1695.5,302.7z M1540.6,132.6L1691.4,294L1665,92.9L1540.6,132.6z M1406.9,476.5l1.5-4l129.1-343.3l1.6,1.7l156.7,167.8l-1.5,1
		L1406.9,476.5z M1538.5,134.7l-125.9,334.8l278.5-171.4L1538.5,134.7z M1689.7,299.2l3-2l206.5-140.4l0.4,2.2l35.9,184.9l-2.1-0.4
		L1689.7,299.2z M1897.1,161.7l-199.8,135.9l234.4,42.6L1897.1,161.7z M1976.8,565.5l-1-4.9l-44-220l1.7-0.1l133.2-5.5l-0.8,2.1
		L1976.8,565.5z M1935.3,343.4l42.3,211.7l84.7-217L1935.3,343.4z M750,313.9l4.8-0.6l302.9-38.5l-1.3,2.5l-79.8,151.3L750,313.9z
		 M1052.4,278.3l-292.6,37.2l215.4,109L1052.4,278.3z M1001.9,635.1l-0.1-1l-28.1-213.9l3.6,5.6L1132,669.1l-3.6-1L1001.9,635.1z
		 M978.3,433l26.3,199.8l120.9,31.5L978.3,433z M1046.3,1096.1l2.3-2.2l198.6-187.6l0.3,3l22,214.7l-1.8-0.2L1046.3,1096.1z
		 M1244.9,912.6l-192,181.3l213.3,26.7L1244.9,912.6z M1266.6,1123.9l-0.1-1.5l-22.1-215.6l2.5,1.4l317.7,179.6l-4.4,0.5
		L1266.6,1123.9z M1247.8,912.2l21.4,208.5l286-34.8L1247.8,912.2z M591.6,1015.8l1.6-1.1l283.5-195.4l-0.2,3L849,1228.9l-2.2-1.8
		L591.6,1015.8z M873.3,825.1L596.4,1016l250,207L873.3,825.1z M628.2,1249.4l-0.2-1.4l-36-235.7l3,2.5l256.4,212.3l-3.5,0.3
		L628.2,1249.4z M596,1019.5l34.7,226.7l213.4-21.4L596,1019.5z M846,1228.8l0.2-2.9l27.6-408.2l2.4,3.7l175.4,274.1l-1.2,0.8
		L846,1228.8z M876.2,826.7l-26.8,396.4l198.2-128.5L876.2,826.7z M171,803.2l2-1.3l323.2-218.2l-1.8,4.4L365.6,908.9l-1.5-0.8
		L171,803.2z M489.9,591.4L176.7,802.9l187.4,101.7L489.9,591.4z M299.7,1058.6l1-2.4L364,904.8l1.4,0.7L599,1016.7l-4.8,0.7
		L299.7,1058.6z M365.6,908.8L304.4,1055l284.5-39.9L365.6,908.8z M171.8,806.2l0.5-3.3l38.4-241.4l1.4,0.1l285.1,24.9l-3.5,2.3
		L171.8,806.2z M213.2,564.6L175.8,800l313-211.3L213.2,564.6z M-14.9,426.4l2.6-1.1l289.2-123.9l-0.7,2.9L213,565.3L-14.9,426.4z
		 M272.6,306.3L-8.5,426.8l219.6,133.9L272.6,306.3z M-32.5,688.3l0.2-2.6L-13,424.1l2.1,1.3L215,563.1L-32.5,688.3z M-10.4,429.1
		l-18.8,254.2L209,562.9L-10.4,429.1z M210.2,564.3l0.4-1.7l63.5-262.1l1.9,2.4l220.3,286.4L210.2,564.3z M275.5,307.1l-61.6,254.6
		l276,24.1L275.5,307.1z M-33.9,685.7l2.4-1.2l245.4-124.1l-0.5,2.8l-38.5,242.2l-1.8-1.1L-33.9,685.7z M210.1,565.6L-27.7,685.9
		l200.4,114.9L210.1,565.6z M5.7,216.1L187.5,34.3l1.1,1.1l119.2,124.7l-2.7,0.5L5.7,216.1z M187.5,38.5L14.5,211.5l287.3-53.2
		L187.5,38.5z M305.7,162.3l-2-2.1L185.4,36.4l1-1l175.2-169.7l-0.9,4.6L305.7,162.3z M189.5,36.5l114.3,119.6L357-125.7L189.5,36.5
		z M4.3,213.3l5.5-1l296.8-55l-30.8,148.4l-1.6-0.5L4.3,213.3z M302.9,161.1l-287,53.1l257.7,87.7L302.9,161.1z M272.8,306.2
		l30.9-148.8l1.5,0.4l203.4,58.5L272.8,306.2z M305.9,161.1l-29.1,140.4l222.6-84.8L305.9,161.1z M615.1-12.5l-0.7-2.6L570-186.9
		l2.6,0.9l154.9,55.3L726-129L615.1-12.5z M574.3-182.2l42.3,163.9l105.7-111L574.3-182.2z M752.3,316.5l1.3-2.5l99-187l1.4,1
		l204.9,149.5l-3.7,0.5L752.3,316.5z M853.7,131.4l-96.1,181.5l293.6-37.4L853.7,131.4z M853.1,132.3l-1.2-2.5l-129.6-262l3,0.7
		L970-73.7l-1,1.7L853.1,132.3z M727.6-127.8l125.6,253.9L965.5-71.7L727.6-127.8z M613.5-15.1l1.2-1.3l110.6-116.1l0.9,1.9
		l130.5,263.7l-4.3-2.6L613.5-15.1z M724.5-127.5L618.1-15.7l231.5,141L724.5-127.5z M965-73l2.1-1l135.1-63.4l0.6,1.5l94.7,256.1
		l-4.2-3.5L965-73z M1100.6-133.4L970.5-72.3l220.5,183.3L1100.6-133.4z M850.6,130.8l1.3-2.3L967.3-75l1.3,1.1l229.4,190.7
		l-3.8,0.2L850.6,130.8z M968.2-70.4L855.7,127.7l334.6-13.4L968.2-70.4z M1193.7,118.3l-0.8-2.3L1099.3-137l2.2,0.1l314.2,11
		l-2.1,2.4L1193.7,118.3z M1103.6-133.9l91.2,246.7l214.5-235.9L1103.6-133.9z M848.9,127.9l4.2-0.2l344.4-13.8l-142.2,164.6
		l-1.1-0.8L848.9,127.9z M1190.9,117.2l-333.4,13.3l197.4,144L1190.9,117.2z M1191,116.9l2.1-2.3l219.7-241.7l1,1.9l126.6,258.7
		l-2.5-0.1L1191,116.9z M1412.1-121.9l-214.7,236.2l338.2,16.1L1412.1-121.9z M1052.5,277.2l1.4-1.6l141-163l0.7,2.7l63.5,234.6
		L1052.5,277.2z M1193.5,118.6l-135.9,157.3l197.2,69.3L1193.5,118.6z M1256.1,350l-0.6-2.1L1192.3,114l2,0.1l347.8,16.6l-3.2,2.4
		L1256.1,350z M1196.2,117.1l61.6,227.9l276.1-211.8L1196.2,117.1z M973,428.9l1.6-3l79.7-151.2l1.2,0.4l206.3,72.5l-4.5,1.3
		L973,428.9z M1055.8,278.3l-76.9,145.9l273.2-76.9L1055.8,278.3z M1129,669.9l-1.6-2.4L973.6,425.7l1.9-0.5l283.9-79.9l-1.1,2.8
		L1129,669.9z M978.2,427.5l150.2,236l126-313.8L978.2,427.5z M1254.6,347.4l1.5-1.1l285.1-218.7l-1.8,4.8l-128.9,343l-1.6-1.3
		L1254.6,347.4z M1534.8,136.2l-275.5,211.3l149.8,123L1534.8,136.2z M1125.5,670.7l1.8-4.5l129-321.1l1.5,1.3l154.3,126.7l-1.6,1.1
		L1125.5,670.7z M1257.5,349.9l-125.6,312.8l275.4-189.9L1257.5,349.9z M1405.9,473.6l3.1-1.9l286.1-176.1l-0.1,2.8l-11,236.4
		l-1.7-0.4L1405.9,473.6z M1691.9,301.1l-278.3,171.3l267.6,58.9L1691.9,301.1z M1680.9,536.1l0.2-3.1l11-236.3l1.7,0.3l243.4,44.2
		L1680.9,536.1z M1694.9,300.1l-10.7,229.8L1930,342.8L1694.9,300.1z M1678.7,534.1l3-2.3l252.9-192.4l0.5,2.3l44,220.2l-2-0.2
		L1678.7,534.1z M1932.6,344.6l-246.1,187.3l288.9,26.7L1932.6,344.6z M1576.8,895.2l0.7-2.5l104.7-363.9l1.7,3.5l142.6,296.2
		l-1.7,0.5L1576.8,895.2z M1682.9,537.1L1581,891l241.3-64.3L1682.9,537.1z M1824.3,830.8l-1.2-2.5l-143-297l2.6,0.2l296.9,27.5
		l-1.1,2L1824.3,830.8z M1685,534.7l139.6,289.8l150.2-263L1685,534.7z M361.9,910l1.5-3.8l129.1-321.5l1.6,1.9l145.8,173.3
		l-1.6,0.9L361.9,910z M493.5,590.4L367.7,903.5L635.4,759L493.5,590.4z M361.6,906.9l2.5-1.4l275.5-148.8l-44.5,261.3l-1.8-0.8
		L361.6,906.9z M635.7,762.2L368.1,906.7l224.8,107.1L635.7,762.2z M592,1019.1l0.6-3.4l43.9-258.1l1.6,0.4l240.4,63.6l-2.6,1.8
		L592,1019.1z M638.8,761.3L596,1012.7l275.5-189.9L638.8,761.3z M717.3,505.1l-79.1-180.7l2-0.2l116.6-11.1l-0.4,1.9L717.3,505.1z
		 M642.5,326.9l73.7,168.5l36.9-179.1L642.5,326.9z M489.7,590.4l2-3.6l148.8-264.5l1.2,2.7l77,176l-1.4,0.6L489.7,590.4z
		 M640.2,328.9L496.3,584.7l218.5-85.2L640.2,328.9z M714.8,502.3l0.5-2.4l38.6-187.4l1.7,0.9L980,427l-3.6,1L714.8,502.3z
		 M756,316.9l-37.3,181.3l253.2-72L756,316.9z M638.3,762.4l-1.7-2.1L490.6,586.9l1.9-0.8L719,497.8l-0.9,2.9L638.3,762.4z
		 M495.5,588.2L637,756.4l77.4-253.7L495.5,588.2z M635.8,760.5l0.4-1.5l80.2-262.7l1.6,3.3l159.7,324.8L635.8,760.5z M717.1,504.2
		l-77.6,254.2l232.8,61.5L717.1,504.2z M712.6,499.9l3.8-1.1l260.8-74.1l0.2,1.7l27.6,210l-2.4-1.1L712.6,499.9z M974.7,428.5
		l-253.8,72.1l280.5,130.9L974.7,428.5z M874.8,825.1l-1.1-2.3L713.6,497.2l3.8,1.8l288,134.4l-1,1.4L874.8,825.1z M719.9,503.4
		l155.3,315.9L1001,634.5L719.9,503.4z M484.9,55.9l1.3-3.6l86.2-241.9l1.2,4.6l44,170.3l-1,0.5L484.9,55.9z M571.9-179.5
		L490.2,49.7l123.9-65.9L571.9-179.5z M301.1,159.7l3-1.7L488.8,50.4l0.2,2.3l16.6,165.9l-2.1-0.6L301.1,159.7z M486.3,55.2
		L308.5,158.7l193.8,55.7L486.3,55.2z M488,56l-1.6-2.3L356.9-130.9l2.1-0.5l215.5-55.2L488,56z M361.8-129.1L487.2,49.6l82.7-232.1
		L361.8-129.1z M302.7,162.1l0.6-3.2l55.2-292.6l2,2.8L489.7,53.3l-1.4,0.8L302.7,162.1z M360.1-126.3l-53.3,282.6l178.6-104
		L360.1-126.3z M638.8,327.3l0.1-1.7l11.2-190.3L757.4,316l-2.3,0.2L638.8,327.3z M652.5,145l-10.5,179l110.6-10.5L652.5,145z
		 M755,317.7l-1.3-2.3L648.8,138.8l206.9-11.2l-1.2,2.3L755,317.7z M653.8,141.4l101.1,170.3l95.8-180.9L653.8,141.4z M484.5,52.8
		l2.4-1.3l129.9-69.1l0.4,1.9l36.2,158.7l-2.8-1.5L484.5,52.8z M614.8-13.2l-124.1,66l158.4,84.5L614.8-13.2z M502.7,218.8l-0.2-2.1
		L485.8,50.2l2.4,1.3l166.2,88.6l-2.5,1.3L502.7,218.8z M489.3,55.4l15.9,158.8l142.9-74.1L489.3,55.4z M650.1,141.7L613.6-18.5
		L858,130.4l-4.7,0.3L650.1,141.7z M618-12.3l34.4,150.9L848.4,128L618-12.3z M501.3,216.2l2-1l149.6-77.6l-0.1,2.6l-11.1,188.4
		l-2.2-1.8L501.3,216.2z M649.7,142.6l-143,74.2l132.4,105.9L649.7,142.6z M844.6,1226.3l2.3-1.5l204.4-132.5l-0.2,2.9l-13.8,212.1
		L844.6,1226.3z M1047.9,1097.8l-197.1,127.8l183.8,77.3L1047.9,1097.8z M1034.3,1308.3l0.2-3.3l13.7-211.6l1.5,0.2l221.7,27.7
		l-2.7,2.2L1034.3,1308.3z M1051,1096.7l-13.3,205.2l226.6-178.6L1051,1096.7z M1032.7,1305.8l236.5-186.4l0.1,2.9l11,247.6
		l-1.9-0.5L1032.7,1305.8z M1266.5,1125.2l-227.3,179.2l238,61.5L1266.5,1125.2z M1020.7,1539.8l14-236.6l1.7,0.4l246,63.6l-2.8,1.8
		L1020.7,1539.8z M1037.3,1307l-13.3,227.2l251.2-165.7L1037.3,1307z M875.1,1507.9l1.4-1.9l161.1-205.6l-0.3,4.7l-13.8,233.6
		L875.1,1507.9z M1034.2,1309.7L880.3,1506l140.6,29.2L1034.2,1309.7z M968,1682.4l-1.5-2.9L875,1504.9l3,0.6l146.3,30.4l-0.6,1.6
		L968,1682.4z M880.5,1509.1l87.1,166.3l52.8-137.2L880.5,1509.1z M298.5,1055.8l298.9-41.9l-2.3,2.9l-137.4,170.3l-1.1-0.9
		L298.5,1055.8z M590.5,1017.9l-285,39.9L457.4,1183L590.5,1017.9z M455.1,1185.7l1.3-1.6l138.5-171.8l0.5,3.3l35.8,234.4l-2.3-0.9
		L455.1,1185.7z M593,1019.4l-133,165l167.6,61.2L593,1019.4z M222,952.2l-0.5-1.4L171.2,800l197.3,107.1L222,952.2z M176.4,806.2
		l47.5,142.4L361,906.4L176.4,806.2z M623.9,1246.9l5.4-0.5l220.1-22l-0.3,1.9l-16.7,116.6l-1.8-0.8L623.9,1246.9z M846,1227.6
		l-211,21.1l195.2,89.7L846,1227.6z M724.5,1443.9l-0.9-1.8l-97.3-197.4l207.6,95.4l-1.6,1.5L724.5,1443.9z M632.6,1250.9
		l92.8,188.2l103.4-98.1L632.6,1250.9z M829.6,1342.4l0.3-2l16.6-116.5l1.8,0.7l192.9,81.1L829.6,1342.4z M848.9,1228.1l-15.8,110.7
		l197.7-34.3L848.9,1228.1z M722.3,1442l109.8-104.2l0.7,2.4l47.2,169.4l-2.8-1.2L722.3,1442z M830.6,1343.3l-103,97.7l147.9,63.4
		L830.6,1343.3z M877.1,1510.2l-0.8-2.8l-46.8-168l1.6-0.3l208.4-36.1l-2.4,3L877.1,1510.2z M833.2,1341.7l45.2,162.1l154.1-196.6
		L833.2,1341.7z M1125.1,667.4l2.8-1.9L1411,470.3l0.2,2.5l24.7,261.2L1125.1,667.4z M1408.5,475.6L1132.4,666l300.3,64.3
		L1408.5,475.6z M1245.6,911.9l-0.9-1.8l-118.6-245.5l2.9,0.6l308.3,66.1L1245.6,911.9z M1131.3,668.8L1246.5,907l184.8-174
		L1131.3,668.8z M1433.1,735l-0.3-2.7l-24.7-261.2l2,0.4l275.8,60.7l-2.4,1.9L1433.1,735z M1411.4,474.8l24.1,254.5l243.8-195.5
		L1411.4,474.8z M1242.1,911.2l2.9-2.7l189.4-178.4l1,1.1L1582,894.4l-3.1,0.2L1242.1,911.2z M1434.2,734.3l-184.3,173.6l325.8-16
		L1434.2,734.3z M1579.5,896.1L1432.1,732l1.2-1l251.9-202.1l-1.3,4.5L1579.5,896.1z M1436.4,732.3l141.8,157.9L1679.9,537
		L1436.4,732.3z M1419-116c6.1-3.4,8.3-11.2,4.9-17.3c-3.4-6.1-11.2-8.3-17.3-4.9c-6.1,3.4-8.3,11.2-4.9,17.3
		C1405.1-114.8,1412.9-112.6,1419-116z M1718.5-17.4c6.4-3.6,8.7-11.7,5.1-18.1c-3.6-6.4-11.7-8.7-18.1-5.1
		c-6.4,3.6-8.7,11.7-5.1,18.1C1704-16.1,1712.1-13.8,1718.5-17.4z M1674.7,100.9c5.7-3.2,7.8-10.4,4.6-16.1
		c-3.2-5.7-10.4-7.8-16.1-4.6c-5.7,3.2-7.8,10.4-4.6,16.1S1669,104.1,1674.7,100.9z M1543.1,139c4.6-2.6,6.3-8.4,3.7-13.1
		c-2.6-4.6-8.4-6.3-13.1-3.7c-4.6,2.6-6.3,8.5-3.7,13.1C1532.6,139.9,1538.4,141.6,1543.1,139z M1901.1,169.2
		c5.1-2.9,7-9.4,4.1-14.5c-2.9-5.1-9.4-7-14.5-4.1c-5.1,2.9-7,9.4-4.1,14.5C1889.4,170.2,1895.9,172,1901.1,169.2z M1698.9,303.6
		c4.3-2.4,5.8-7.8,3.4-12.1c-2.4-4.3-7.8-5.8-12.1-3.4c-4.3,2.4-5.8,7.8-3.4,12.1C1689.2,304.4,1694.7,305.9,1698.9,303.6z
		 M1937.9,351.6c4.7-2.6,6.4-8.6,3.8-13.3s-8.6-6.4-13.3-3.8c-4.7,2.6-6.4,8.6-3.8,13.3S1933.2,354.2,1937.9,351.6z M2072.5,344.9
		c5.1-2.9,7-9.4,4.1-14.5c-2.9-5.1-9.4-7-14.5-4.1c-5.1,2.9-7,9.4-4.1,14.5C2060.9,345.9,2067.4,347.8,2072.5,344.9z M1982.8,567.5
		c5.6-3.1,7.6-10.1,4.5-15.7c-3.1-5.6-10.1-7.6-15.7-4.5c-5.6,3.1-7.6,10.1-4.5,15.7C1970.2,568.6,1977.2,570.6,1982.8,567.5z
		 M2202.3,464.9c6.7-3.7,9.1-12.2,5.4-18.9c-3.7-6.7-12.2-9.1-18.9-5.4c-6.7,3.7-9.1,12.2-5.4,18.9
		C2187.1,466.2,2195.6,468.6,2202.3,464.9z M2023.3,639.7c5.9-3.3,7.9-10.7,4.7-16.5s-10.7-7.9-16.5-4.7c-5.9,3.3-7.9,10.7-4.7,16.5
		C2010,640.9,2017.4,643,2023.3,639.7z M1832.5,839c6.1-3.4,8.3-11.2,4.9-17.3c-3.4-6.1-11.2-8.3-17.3-4.9
		c-6.1,3.4-8.3,11.2-4.9,17.3C1818.6,840.2,1826.4,842.4,1832.5,839z M1690.3,547.5c7-3.9,9.5-12.7,5.6-19.7
		c-3.9-7-12.7-9.5-19.7-5.6c-7,3.9-9.5,12.7-5.6,19.7C1674.5,548.9,1683.3,551.4,1690.3,547.5z M1413.2,483.2
		c6-3.3,8.1-10.9,4.8-16.9s-10.9-8.1-16.9-4.8c-6,3.3-8.1,10.9-4.8,16.9C1399.6,484.4,1407.2,486.5,1413.2,483.2z M1585.8,907.3
		c6.2-3.5,8.4-11.3,5-17.5c-3.5-6.2-11.3-8.4-17.5-5c-6.2,3.5-8.4,11.3-5,17.5C1571.8,908.6,1579.6,910.8,1585.8,907.3z
		 M1439.8,743.9c5.9-3.3,8.1-10.8,4.7-16.7c-3.3-5.9-10.8-8.1-16.7-4.7c-5.9,3.3-8,10.8-4.7,16.7
		C1426.4,745.1,1433.9,747.3,1439.8,743.9z M1251.4,918.7c4.9-2.7,6.7-9,3.9-13.9c-2.7-4.9-9-6.7-13.9-3.9c-4.9,2.7-6.7,9-3.9,13.9
		C1240.3,919.7,1246.5,921.5,1251.4,918.7z M1272.5,1132.6c6.1-3.4,8.2-11,4.9-17.1c-3.4-6.1-11-8.2-17.1-4.9
		c-6.1,3.4-8.2,11-4.9,17.1C1258.7,1133.8,1266.4,1136,1272.5,1132.6z M1565.2,1092c4.3-2.4,5.8-7.8,3.4-12.1
		c-2.4-4.3-7.8-5.8-12.1-3.4c-4.3,2.4-5.8,7.8-3.4,12.1C1555.5,1092.8,1560.9,1094.4,1565.2,1092z M1133.1,675.5
		c4.4-2.4,5.9-7.9,3.5-12.3c-2.4-4.4-7.9-5.9-12.3-3.5c-4.4,2.4-5.9,7.9-3.5,12.3C1123.2,676.4,1128.7,678,1133.1,675.5z
		 M1263.3,360.9c6-3.3,8.1-10.9,4.8-16.9c-3.3-6-10.9-8.1-16.9-4.8c-6,3.3-8.1,10.9-4.8,16.9S1257.3,364.3,1263.3,360.9z
		 M982.2,437.4c6.2-3.5,8.4-11.3,5-17.5c-3.5-6.2-11.3-8.4-17.5-5c-6.2,3.5-8.4,11.3-5,17.5C968.2,438.7,976,440.9,982.2,437.4z
		 M1062.3,290.7c7-3.9,9.5-12.7,5.6-19.7c-3.9-7-12.7-9.5-19.7-5.6c-7,3.9-9.5,12.7-5.6,19.7
		C1046.5,292.1,1055.3,294.6,1062.3,290.7z M1199.2,123.7c4.5-2.5,6.1-8.2,3.6-12.7c-2.5-4.5-8.2-6.1-12.7-3.6
		c-4.5,2.5-6.1,8.2-3.6,12.7C1189,124.6,1194.7,126.2,1199.2,123.7z M971.2-62.5c5.8-3.2,7.9-10.5,4.6-16.3
		c-3.2-5.8-10.5-7.9-16.3-4.6c-5.8,3.2-7.9,10.5-4.6,16.3C958.1-61.3,965.4-59.2,971.2-62.5z M861.3,137.5c5.2-2.9,7.1-9.5,4.2-14.7
		c-2.9-5.2-9.5-7.1-14.7-4.2c-5.2,2.9-7.1,9.5-4.2,14.7C849.5,138.6,856.1,140.4,861.3,137.5z M729-115.4c6.6-3.7,8.9-12,5.3-18.5
		c-3.7-6.6-12-8.9-18.5-5.3s-8.9,12-5.3,18.5C714.2-114,722.5-111.7,729-115.4z M656.2,148.1c4.9-2.7,6.6-8.8,3.9-13.7
		c-2.7-4.9-8.8-6.6-13.7-3.9c-4.9,2.7-6.6,8.8-3.9,13.7C645.2,149.1,651.4,150.8,656.2,148.1z M619.4-5.1c5.1-2.8,6.9-9.2,4.1-14.3
		c-2.8-5.1-9.2-6.9-14.3-4.1c-5.1,2.8-6.9,9.2-4.1,14.3C607.9-4.1,614.3-2.3,619.4-5.1z M759.7,325.3c5-2.8,6.8-9.1,4-14.1
		c-2.8-5-9.1-6.8-14.1-4c-5,2.8-6.8,9.1-4,14.1C748.4,326.3,754.7,328.1,759.7,325.3z M721.4,509.7c4.8-2.7,6.5-8.7,3.8-13.5
		c-2.7-4.8-8.7-6.5-13.5-3.8c-4.8,2.7-6.5,8.7-3.8,13.5C710.6,510.7,716.7,512.4,721.4,509.7z M644.3,338.3c7-3.9,9.5-12.7,5.6-19.7
		c-3.9-7-12.7-9.5-19.7-5.6c-7,3.9-9.5,12.7-5.6,19.7C628.4,339.7,637.3,342.2,644.3,338.3z M507.5,227.5c6.4-3.6,8.7-11.7,5.1-18.1
		c-3.6-6.4-11.7-8.7-18.1-5.1c-6.4,3.6-8.7,11.7-5.1,18.1C492.9,228.8,501.1,231.1,507.5,227.5z M492.7,66.8
		c7.1-3.9,9.6-12.9,5.7-19.9c-3.9-7.1-12.9-9.6-19.9-5.7c-7.1,3.9-9.6,12.9-5.7,19.9S485.7,70.7,492.7,66.8z M309.4,166.6
		c4.3-2.4,5.8-7.8,3.4-12.1c-2.4-4.3-7.8-5.8-12.1-3.4c-4.3,2.4-5.8,7.8-3.4,12.1C299.7,167.5,305.2,169,309.4,166.6z M365.6-122.8
		c6.2-3.5,8.4-11.3,5-17.5c-3.5-6.2-11.3-8.4-17.5-5c-6.2,3.5-8.4,11.3-5,17.5C351.6-121.6,359.4-119.4,365.6-122.8z M194.3,43.2
		c4.4-2.4,5.9-7.9,3.5-12.3c-2.4-4.4-7.9-5.9-12.3-3.5c-4.4,2.4-5.9,7.9-3.5,12.3C184.4,44.1,189.9,45.7,194.3,43.2z M13.1,226
		c4.9-2.7,6.7-9,3.9-13.9c-2.7-4.9-9-6.7-13.9-3.9c-4.9,2.7-6.7,9-3.9,13.9S8.2,228.8,13.1,226z M-5.8,435.9
		c5.1-2.8,6.9-9.2,4.1-14.3s-9.2-6.9-14.3-4.1c-5.1,2.8-6.9,9.2-4.1,14.3C-17.3,436.9-10.9,438.7-5.8,435.9z M278,313.2
		c5.6-3.1,7.6-10.1,4.5-15.7c-3.1-5.6-10.1-7.6-15.7-4.5c-5.6,3.1-7.6,10.1-4.5,15.7C265.4,314.3,272.5,316.3,278,313.2z
		 M217.6,571.4c5.4-3,7.4-9.9,4.3-15.3c-3-5.4-9.9-7.4-15.3-4.3c-5.4,3-7.4,9.9-4.3,15.3C205.3,572.4,212.2,574.4,217.6,571.4z
		 M497.2,600.1c7-3.9,9.5-12.7,5.6-19.7c-3.9-7-12.7-9.5-19.7-5.6c-7,3.9-9.5,12.7-5.6,19.7C481.3,601.5,490.2,604,497.2,600.1z
		 M642.3,766.6c4.3-2.4,5.8-7.8,3.4-12.1c-2.4-4.3-7.8-5.8-12.1-3.4c-4.3,2.4-5.8,7.8-3.4,12.1S638,769,642.3,766.6z M371.3,917.5
		c6.4-3.6,8.7-11.7,5.1-18.1c-3.6-6.4-11.7-8.7-18.1-5.1c-6.4,3.6-8.7,11.7-5.1,18.1C356.7,918.8,364.9,921.1,371.3,917.5z
		 M229.2,964.5c6.4-3.5,8.6-11.6,5.1-17.9c-3.5-6.4-11.6-8.6-17.9-5.1c-6.3,3.5-8.6,11.6-5.1,17.9
		C214.9,965.8,222.9,968.1,229.2,964.5z M308.1,1070.9c6.9-3.9,9.4-12.6,5.5-19.5c-3.9-6.9-12.6-9.4-19.5-5.5
		c-6.9,3.9-9.4,12.6-5.5,19.5C292.4,1072.3,301.2,1074.8,308.1,1070.9z M464.2,1196.8c5.7-3.2,7.8-10.4,4.6-16.1
		c-3.2-5.7-10.4-7.8-16.1-4.6c-5.7,3.2-7.8,10.4-4.6,16.1C451.3,1197.9,458.5,1200,464.2,1196.8z M599.8,1030.6
		c6.1-3.4,8.3-11.2,4.9-17.3c-3.4-6.1-11.2-8.3-17.3-4.9c-6.1,3.4-8.3,11.2-4.9,17.3C586,1031.9,593.7,1034.1,599.8,1030.6z
		 M851.4,1237.2c6.3-3.5,8.5-11.4,5-17.7s-11.4-8.5-17.7-5c-6.3,3.5-8.5,11.4-5,17.7S845.1,1240.7,851.4,1237.2z M839.5,1349.6
		c4.9-2.7,6.7-9,3.9-13.9c-2.7-4.9-9-6.7-13.9-3.9c-4.9,2.7-6.7,9-3.9,13.9C828.3,1350.6,834.6,1352.4,839.5,1349.6z M1043.5,1315.1
		c5-2.8,6.8-9.1,4-14.1c-2.8-5-9.1-6.8-14.1-4c-5,2.8-6.8,9.1-4,14.1C1032.2,1316.1,1038.5,1317.9,1043.5,1315.1z M1287.1,1379.9
		c6-3.3,8.1-10.9,4.8-16.9s-10.9-8.1-16.9-4.8c-6,3.4-8.1,10.9-4.8,16.9C1273.6,1381.1,1281.1,1383.2,1287.1,1379.9z M1054,1101.5
		c4.9-2.7,6.7-9,3.9-13.9c-2.7-4.9-9-6.7-13.9-3.9c-4.9,2.7-6.7,9-3.9,13.9C1042.8,1102.5,1049.1,1104.3,1054,1101.5z
		 M1029.7,1547.9c6.9-3.8,9.3-12.5,5.5-19.3c-3.8-6.9-12.5-9.3-19.3-5.5s-9.3,12.5-5.5,19.3
		C1014.2,1549.3,1022.8,1551.8,1029.7,1547.9z M884.8,1514c4.4-2.5,6-8.1,3.5-12.5c-2.5-4.4-8.1-6-12.5-3.5c-4.4,2.5-6,8.1-3.5,12.5
		C874.8,1514.9,880.4,1516.5,884.8,1514z M973,1691.7c5.4-3,7.3-9.8,4.3-15.1c-3-5.4-9.8-7.3-15.1-4.3c-5.4,3-7.3,9.7-4.3,15.1
		C960.9,1692.8,967.6,1694.7,973,1691.7z M733.7,1455.2c6.9-3.8,9.3-12.5,5.5-19.3c-3.8-6.9-12.5-9.3-19.3-5.5
		c-6.9,3.8-9.3,12.5-5.5,19.3C718.2,1456.6,726.9,1459,733.7,1455.2z M636.3,1262.4c6.1-3.4,8.3-11.2,4.9-17.3
		c-3.4-6.1-11.2-8.3-17.3-4.9c-6.1,3.4-8.3,11.2-4.9,17.3C622.4,1263.6,630.1,1265.8,636.3,1262.4z M-222.4,491.4
		c5.6-3.1,7.7-10.3,4.5-15.9c-3.2-5.6-10.3-7.7-15.9-4.5c-5.6,3.2-7.7,10.3-4.5,15.9C-235.2,492.5-228.1,494.5-222.4,491.4z
		 M-27.1,694.2c5.2-2.9,7.1-9.5,4.2-14.7c-2.9-5.2-9.5-7.1-14.7-4.2c-5.2,2.9-7.1,9.5-4.2,14.7C-38.9,695.2-32.4,697.1-27.1,694.2z
		 M179.2,810.2c4.3-2.4,5.8-7.8,3.4-12.1c-2.4-4.3-7.8-5.8-12.1-3.4c-4.3,2.4-5.8,7.8-3.4,12.1C169.5,811.1,174.9,812.6,179.2,810.2
		z M1005.6,642.8c5.1-2.8,6.9-9.2,4.1-14.3c-2.8-5.1-9.2-6.9-14.3-4.1c-5.1,2.8-6.9,9.2-4.1,14.3
		C994.1,643.9,1000.5,645.7,1005.6,642.8z M1031.7,801.6c4.8-2.7,6.5-8.7,3.8-13.5c-2.7-4.8-8.7-6.5-13.5-3.8s-6.5,8.7-3.8,13.5
		C1020.8,802.5,1026.9,804.2,1031.7,801.6z M877.3,832.9c6.6-3.7,9-12.1,5.3-18.7c-3.7-6.6-12.1-9-18.7-5.3
		c-6.6,3.7-9,12.1-5.3,18.7C862.3,834.3,870.6,836.6,877.3,832.9z"/>
</g>
</svg>
