<svg xmlns="http://www.w3.org/2000/svg" width="55" height="55" viewBox="0 0 55 55">
  <path id="avatar" d="M27.5.563A27.5,27.5,0,1,0,55,28.062,27.5,27.5,0,0,0,27.5.563Zm0,10.645a9.758,9.758,0,1,1-9.758,9.758A9.758,9.758,0,0,1,27.5,11.208Zm0,38.145A21.249,21.249,0,0,1,11.255,41.79a12.363,12.363,0,0,1,10.922-6.631,2.713,2.713,0,0,1,.787.122,14.682,14.682,0,0,0,4.535.765,14.626,14.626,0,0,0,4.535-.765,2.713,2.713,0,0,1,.787-.122A12.363,12.363,0,0,1,43.745,41.79,21.249,21.249,0,0,1,27.5,49.353Z" transform="translate(0 -0.563)" fill="#bdd8dc"/>
</svg>
