<svg xmlns="http://www.w3.org/2000/svg" width="100" height="91.663" viewBox="0 0 100 91.663">
  <g id="checkmark" transform="translate(0 -0.015)">
    <path id="Path_228" data-name="Path 228" d="M45.832,91.678A45.832,45.832,0,1,1,70.556,7.261a3.127,3.127,0,0,1-3.379,5.262A39.576,39.576,0,1,0,85.414,45.847c0-1.3-.062-2.6-.183-3.866a3.125,3.125,0,0,1,6.221-.6q.213,2.229.212,4.471A45.885,45.885,0,0,1,45.832,91.678Z" fill="#0a6054"/>
    <path id="Path_229" data-name="Path 229" d="M171.207,73.435A3.1,3.1,0,0,1,169,72.519L150.25,53.769a3.126,3.126,0,0,1,4.42-4.421L171.212,65.89l43.619-43.62a3.126,3.126,0,1,1,4.421,4.42L173.42,72.522a3.132,3.132,0,0,1-2.213.913Z" transform="translate(-120.168 -17.172)" fill="#0a6054"/>
  </g>
</svg>
