<svg xmlns="http://www.w3.org/2000/svg" width="30" height="42.992" viewBox="0 0 30 42.992">
  <g id="Group_604" data-name="Group 604" transform="translate(6667.67 -1207.906)">
    <path id="Icon_map-map-pin" data-name="Icon map-map-pin" d="M22.843,1.728c-8.285,0-15,5.724-15,12.781s15,30.211,15,30.211,15-23.151,15-30.211-6.719-12.781-15-12.781Z" transform="translate(-6675.514 1206.178)" fill="#248b92"/>
    <g id="Card" transform="translate(-6657.985 1213.621)">
      <path id="Path_220" data-name="Path 220" d="M105.711,57.037l.546.093v1.583a.782.782,0,0,0,.778.778h.139a.782.782,0,0,0,.778-.778v-1.6l.537-.1c2.38-.454,3.741-1.861,3.741-3.861.019-2.7-2.028-3.7-3.824-4.278l-.454-.148V43.732l.8.176a5.632,5.632,0,0,1,1.62.611.792.792,0,0,0,1.056-.25l.065-.1a.741.741,0,0,0,.093-.593.774.774,0,0,0-.352-.481,7.388,7.388,0,0,0-2.732-.935l-.556-.083v-1.3a.782.782,0,0,0-.778-.778h-.139a.782.782,0,0,0-.778.778V42.13l-.528.111c-2.185.444-3.435,1.732-3.435,3.546,0,1.972,1.12,3.269,3.519,4.083l.444.148v5.445l-.824-.222a5.45,5.45,0,0,1-2.407-1.333.783.783,0,0,0-1.093,0l-.093.093a.793.793,0,0,0-.231.556.8.8,0,0,0,.241.556A7.462,7.462,0,0,0,105.711,57.037Zm.537-13.287v4.537l-.963-.519a2.1,2.1,0,0,1-1.306-2.009,1.769,1.769,0,0,1,1.389-1.685Zm1.694,6.7.917.407a2.265,2.265,0,0,1,1.667,2.278,2.122,2.122,0,0,1-1.722,2.037l-.861.287Z" transform="translate(-101.6 -40)" fill="#fff"/>
    </g>
  </g>
</svg>
