<svg xmlns="http://www.w3.org/2000/svg" width="30" height="42.992" viewBox="0 0 30 42.992">
  <g id="Group_603" data-name="Group 603" transform="translate(6677.67 -1207.906)">
    <path id="Icon_map-map-pin" data-name="Icon map-map-pin" d="M22.843,1.728c-8.285,0-15,5.724-15,12.781s15,30.211,15,30.211,15-23.151,15-30.211-6.719-12.781-15-12.781Z" transform="translate(-6685.514 1206.178)" fill="#248b92"/>
    <g id="Card" transform="translate(-6671.447 1217.33)">
      <g id="Group_42995" data-name="Group 42995" transform="translate(0)">
        <path id="Path_120985" data-name="Path 120985" d="M-183.08,1524.816v6.169c-.008.014-.023.029-.024.044a1.959,1.959,0,0,1-2.01,1.641c-4.514-.013-9.029,0-13.543-.006a1.908,1.908,0,0,1-1.413-.554,1.908,1.908,0,0,1-.562-1.41q0-2.862,0-5.724c0-.216.045-.262.258-.262h17.034a.791.791,0,0,1,.26.1Zm-14.805,4.277c-.049.609.169.845.823.846s.832-.253.832-.832c0-.557-.14-.842-.844-.832-.621-.015-.864.211-.813.805Z" transform="translate(200.633 -1520.6)" fill="#fff"/>
        <path id="Path_120986" data-name="Path 120986" d="M-198.952,1404.71h14.189c.043.013.084.029.128.038a1.886,1.886,0,0,1,1.4,1.141,4.268,4.268,0,0,1,.153.5v1.234a1.067,1.067,0,0,1-.308.1q-8.465.007-16.929,0h-.086c-.16.006-.227-.074-.226-.229v-.857a1.9,1.9,0,0,1,1.224-1.794A2.929,2.929,0,0,1-198.952,1404.71Z" transform="translate(200.636 -1404.71)" fill="#fff"/>
      </g>
    </g>
  </g>
</svg>
