<?xml version="1.0" encoding="utf-8"?>
<!-- Generator: Adobe Illustrator 25.2.1, SVG Export Plug-In . SVG Version: 6.00 Build 0)  -->
<svg version="1.1" id="Layer_1" xmlns="http://www.w3.org/2000/svg" xmlns:xlink="http://www.w3.org/1999/xlink" x="0px" y="0px"
	 viewBox="0 0 618 618" style="enable-background:new 0 0 618 618;" xml:space="preserve">
<g>
	<g>
		<path d="M23.3,422.5C7.7,483.2,35.1,546.7,89.9,577c54.8,30.3,123.2,19.6,166.2-25.9c0.8-0.9,1.5-1.6,2.2-2.5l327.6,0.6
			c3.3,0,6.5-1.3,8.9-3.6c2.3-2.4,3.6-5.5,3.6-8.9c0.1-60.5-21.7-116.3-61.6-157.1c-39.3-40.4-92.3-62.6-149.5-62.8h-0.4
			c-47.5-0.2-93.7,15.9-130.9,45.5c-25.8-27.5-62-43.1-99.7-42.9C93.6,319.5,39,361.9,23.3,422.5z M276,523.6
			c24.7-44.5,22.9-98.9-4.7-141.6c32.8-26.2,73.6-40.3,115.5-40.2h0.4c50.3,0,97.1,19.6,131.6,55.2c32.6,33.3,51.5,78.1,54.2,127.1
			L276,523.6z M43.9,456.7c0-62,50.3-112.3,112.3-112.3s112.3,50.3,112.3,112.3c0,62-50.3,112.3-112.3,112.3S43.9,518.8,43.9,456.7z
			"/>
		<path d="M519,155.3c0-72.8-59.1-131.9-131.9-131.9S255.2,82.4,255.2,155.3c0,72.8,59.1,131.9,131.9,131.9
			C459.9,287.1,518.9,228.1,519,155.3z M494,155.3c0,59.1-47.9,106.9-106.9,106.9c-59.1,0-106.9-47.9-106.9-106.9
			c0-59.1,47.9-106.9,106.9-106.9C446.1,48.4,494,96.2,494,155.3z"/>
	</g>
	<path d="M93.2,456.7c0,6.9,5.6,12.5,12.5,12.5h38.1v38.1c0,6.9,5.6,12.5,12.5,12.5s12.5-5.6,12.5-12.5v-38.1h38.1
		c6.9,0,12.5-5.6,12.5-12.5c0-6.9-5.6-12.5-12.5-12.5h-38.1v-38.1c0-6.9-5.6-12.5-12.5-12.5s-12.5,5.6-12.5,12.5v38.1h-38.1
		C98.8,444.3,93.2,449.9,93.2,456.7z"/>
</g>
</svg>
