<svg xmlns="http://www.w3.org/2000/svg" width="34" height="34" viewBox="0 0 34 34">
  <g id="Group_43393" data-name="Group 43393" transform="translate(-334 -46)">
    <rect id="Rectangle_17018" data-name="Rectangle 17018" width="34" height="34" transform="translate(334 46)" fill="none"/>
    <g id="filter" transform="translate(276.322 -26.794)">
      <path id="Path_122777" data-name="Path 122777" d="M84.794,82.124H72.067a2.625,2.625,0,0,0-4.977,0H65.1a.836.836,0,0,0,0,1.671h1.987a2.625,2.625,0,0,0,4.977,0H84.794a.836.836,0,1,0,0-1.671Zm-15.216,1.79a.954.954,0,1,1,.954-.954A.956.956,0,0,1,69.578,83.914Z" transform="translate(0)" fill="#fff"/>
      <path id="Path_122778" data-name="Path 122778" d="M84.794,210.657H82.807a2.625,2.625,0,0,0-4.977,0H65.1a.836.836,0,0,0,0,1.671H77.83a2.625,2.625,0,0,0,4.977,0h1.987a.836.836,0,1,0,0-1.671Zm-4.475,1.79a.954.954,0,1,1,.954-.954A.956.956,0,0,1,80.319,212.447Z" transform="translate(0 -121.373)" fill="#fff"/>
      <path id="Path_122779" data-name="Path 122779" d="M84.794,339.19H75.647a2.625,2.625,0,0,0-4.977,0H65.1a.836.836,0,0,0,0,1.671H70.67a2.625,2.625,0,0,0,4.977,0h9.147a.836.836,0,1,0,0-1.671Zm-11.636,1.79a.954.954,0,1,1,.954-.955A.956.956,0,0,1,73.158,340.98Z" transform="translate(0 -242.745)" fill="#fff"/>
    </g>
  </g>
</svg>
