<svg xmlns="http://www.w3.org/2000/svg" xmlns:xlink="http://www.w3.org/1999/xlink" viewBox="0 0 250 250">
<g id="surface1">
<path style=" stroke:none;fill-rule:nonzero;fill:rgb(0%,0%,0%);fill-opacity:1;" d="M 224.402344 48.488281 L 25.597656 48.488281 C 11.484375 48.488281 0 59.980469 0 74.089844 L 0 168.269531 C 0 186.597656 14.910156 201.511719 33.234375 201.511719 L 216.761719 201.511719 C 235.089844 201.511719 250 186.597656 250 168.269531 L 250 74.089844 C 250 59.980469 238.511719 48.488281 224.402344 48.488281 Z M 237.066406 168.269531 C 237.066406 179.46875 227.960938 188.578125 216.761719 188.578125 L 33.234375 188.578125 C 22.039062 188.578125 12.929688 179.46875 12.929688 168.269531 L 12.929688 74.089844 C 12.929688 67.105469 18.613281 61.425781 25.597656 61.425781 L 224.402344 61.425781 C 231.386719 61.425781 237.066406 67.105469 237.066406 74.089844 Z M 237.066406 168.269531 "/>
<path style=" stroke:none;fill-rule:nonzero;fill:rgb(0%,0%,0%);fill-opacity:1;" d="M 92.671875 114.222656 L 114.222656 114.222656 L 114.222656 135.777344 L 92.671875 135.777344 Z M 92.671875 114.222656 "/>
<path style=" stroke:none;fill-rule:nonzero;fill:rgb(0%,0%,0%);fill-opacity:1;" d="M 125 114.222656 L 146.550781 114.222656 L 146.550781 135.777344 L 125 135.777344 Z M 125 114.222656 "/>
<path style=" stroke:none;fill-rule:nonzero;fill:rgb(0%,0%,0%);fill-opacity:1;" d="M 157.328125 114.222656 L 178.878906 114.222656 L 178.878906 135.777344 L 157.328125 135.777344 Z M 157.328125 114.222656 "/>
<path style=" stroke:none;fill-rule:nonzero;fill:rgb(0%,0%,0%);fill-opacity:1;" d="M 200.429688 146.550781 L 221.980469 146.550781 L 221.980469 168.101562 L 200.429688 168.101562 Z M 200.429688 146.550781 "/>
<path style=" stroke:none;fill-rule:nonzero;fill:rgb(0%,0%,0%);fill-opacity:1;" d="M 92.671875 81.898438 L 114.222656 81.898438 L 114.222656 103.449219 L 92.671875 103.449219 Z M 92.671875 81.898438 "/>
<path style=" stroke:none;fill-rule:nonzero;fill:rgb(0%,0%,0%);fill-opacity:1;" d="M 60.34375 114.222656 L 81.898438 114.222656 L 81.898438 135.777344 L 60.34375 135.777344 Z M 60.34375 114.222656 "/>
<path style=" stroke:none;fill-rule:nonzero;fill:rgb(0%,0%,0%);fill-opacity:1;" d="M 60.34375 81.898438 L 81.898438 81.898438 L 81.898438 103.449219 L 60.34375 103.449219 Z M 60.34375 81.898438 "/>
<path style=" stroke:none;fill-rule:nonzero;fill:rgb(0%,0%,0%);fill-opacity:1;" d="M 28.019531 146.550781 L 49.566406 146.550781 L 49.566406 168.101562 L 28.019531 168.101562 Z M 28.019531 146.550781 "/>
<path style=" stroke:none;fill-rule:nonzero;fill:rgb(0%,0%,0%);fill-opacity:1;" d="M 28.019531 114.222656 L 49.566406 114.222656 L 49.566406 135.777344 L 28.019531 135.777344 Z M 28.019531 114.222656 "/>
<path style=" stroke:none;fill-rule:nonzero;fill:rgb(0%,0%,0%);fill-opacity:1;" d="M 28.019531 81.898438 L 49.566406 81.898438 L 49.566406 103.449219 L 28.019531 103.449219 Z M 28.019531 81.898438 "/>
<path style=" stroke:none;fill-rule:nonzero;fill:rgb(0%,0%,0%);fill-opacity:1;" d="M 125 81.898438 L 146.550781 81.898438 L 146.550781 103.449219 L 125 103.449219 Z M 125 81.898438 "/>
<path style=" stroke:none;fill-rule:nonzero;fill:rgb(0%,0%,0%);fill-opacity:1;" d="M 157.328125 81.898438 L 178.878906 81.898438 L 178.878906 103.449219 L 157.328125 103.449219 Z M 157.328125 81.898438 "/>
<path style=" stroke:none;fill-rule:nonzero;fill:rgb(0%,0%,0%);fill-opacity:1;" d="M 60.34375 146.550781 L 189.65625 146.550781 L 189.65625 168.101562 L 60.34375 168.101562 Z M 60.34375 146.550781 "/>
<path style=" stroke:none;fill-rule:nonzero;fill:rgb(0%,0%,0%);fill-opacity:1;" d="M 189.65625 81.898438 L 221.980469 81.898438 L 221.980469 135.777344 L 189.65625 135.777344 Z M 189.65625 81.898438 "/>
</g>
</svg>