<svg id="Group_43455" data-name="Group 43455" xmlns="http://www.w3.org/2000/svg" width="13.469" height="17.959" viewBox="0 0 13.469 17.959">  <path id="Path_120952" data-name="Path 120952" d="M170.425,696.888v-8.383a.528.528,0,0,0,.034-.077,1.642,1.642,0,0,1,1.415-1.3,5.29,5.29,0,0,1,.8-.006c0-.09,0-.141,0-.192,0-.719-.009-1.438,0-2.156a4.251,4.251,0,0,1,.087-.834,4.475,4.475,0,0,1,6.526-3.023,4.238,4.238,0,0,1,2.322,3.533c.069.807.03,1.623.04,2.435,0,.068,0,.136,0,.219.217,0,.415,0,.612,0a1.675,1.675,0,0,1,1.6,1.406,2.264,2.264,0,0,1,.029.348q0,3.866,0,7.732a1.684,1.684,0,0,1-1.289,1.685l-.184.051H171.863c-.037-.013-.074-.029-.112-.038a1.663,1.663,0,0,1-1.17-.942A4.03,4.03,0,0,1,170.425,696.888Zm6.721.316h4.98a.575.575,0,0,0,.645-.649q0-3.84,0-7.68a.577.577,0,0,0-.646-.65H172.2a.576.576,0,0,0-.652.659q0,3.823,0,7.645c0,.467.207.675.671.675Zm3.375-10.11c0-.04.006-.069.006-.1,0-.713.012-1.427-.006-2.139a3.769,3.769,0,0,0-.124-.882,3.349,3.349,0,0,0-5.237-1.823,3.219,3.219,0,0,0-1.367,2.692c0,.585,0,1.169,0,1.754,0,.162,0,.324,0,.495Z" transform="translate(-170.425 -680.367)"/>  <path id="Path_120953" data-name="Path 120953" d="M320.786,961.366c0-.274,0-.549,0-.823a.176.176,0,0,0-.113-.187,1.5,1.5,0,0,1,.063-2.7,1.49,1.49,0,0,1,2.086,1.174,1.466,1.466,0,0,1-.8,1.522.188.188,0,0,0-.117.2q.005.823,0,1.647a.547.547,0,0,1-.36.531.506.506,0,0,1-.6-.146.8.8,0,0,1-.151-.395C320.77,961.916,320.786,961.64,320.786,961.366Zm.934-2.341a.374.374,0,1,0-.747,0,.374.374,0,1,0,.747,0Z" transform="translate(-314.613 -947.799)" /></svg>