<!DOCTYPE svg PUBLIC "-//W3C//DTD SVG 1.1//EN" "http://www.w3.org/Graphics/SVG/1.1/DTD/svg11.dtd">
<!-- Uploaded to: SVG Repo, www.svgrepo.com, Transformed by: SVG Repo Mixer Tools -->
<svg fill="#ffffff" width="100px" height="100px" viewBox="0 0 24 24" xmlns="http://www.w3.org/2000/svg" stroke="#ffffff">
<g id="SVGRepo_bgCarrier" stroke-width="0"/>
<g id="SVGRepo_tracerCarrier" stroke-linecap="round" stroke-linejoin="round"/>
<g id="SVGRepo_iconCarrier">
<path d="M12,1A11,11,0,1,0,23,12,11.013,11.013,0,0,0,12,1ZM3,12a9.011,9.011,0,0,1,8-8.941v8.527L4.975,17.611A8.948,8.948,0,0,1,3,12Zm9,9a8.948,8.948,0,0,1-5.611-1.975L12.414,13h8.527A9.011,9.011,0,0,1,12,21Zm1-10V3.059A9.013,9.013,0,0,1,20.941,11Z"/>
</g>
</svg>