<?xml version="1.0" encoding="utf-8"?>
<!-- Generator: Adobe Illustrator 25.4.1, SVG Export Plug-In . SVG Version: 6.00 Build 0)  -->
<svg version="1.1" id="svg" xmlns="http://www.w3.org/2000/svg" xmlns:xlink="http://www.w3.org/1999/xlink" x="0px" y="0px"
	 viewBox="0 0 400 400" style="enable-background:new 0 0 400 400;" xml:space="preserve">
<style type="text/css">
	.st0{fill-rule:evenodd;clip-rule:evenodd;fill:#FFFFFF;}
</style>
<g id="svgg">
	<path id="path0" class="st0" d="M220.8,56.5c1.6,1.7,2.4,2.3,3.2,2.2l1-0.1l-1-0.2c-0.6-0.1-2-1.1-3.2-2.2l-2.2-2.1L220.8,56.5
		 M125.2,71.8c-1.6,1.6-2.9,3-2.8,3s1.5-1.4,3.2-3c1.6-1.7,2.9-3,2.8-3S126.8,70.2,125.2,71.8 M41.6,81.8c2.1,2.1,3.9,3.8,4,3.8
		s-1.5-1.7-3.6-3.8c-2.1-2.1-3.9-3.8-4-3.8S39.5,79.7,41.6,81.8 M112.2,84.5l-3.2,3.3l3.3-3.2c3.1-3,3.5-3.4,3.2-3.4
		C115.4,81.2,113.9,82.7,112.2,84.5 M221.6,91.9l-1.4,1.5l1.4-1.3c0.8-0.7,1.8-1.3,2.2-1.5c0.8-0.2,0.8-0.2,0-0.2
		C223.3,90.4,222.4,91,221.6,91.9 M105.7,95.2c0,1,0.7,2.7,0.7,1.8c0-0.4-0.1-1.2-0.3-1.6C105.8,94.9,105.7,94.8,105.7,95.2
		 M207.2,104.7c0,1.1,1.1,1.4,1.8,0.4l0.8-0.9l-0.9,0.7c-0.8,0.7-0.9,0.7-1.3,0C207.4,104.5,207.2,104.4,207.2,104.7 M48.6,108.4
		c-0.2,0.7-0.2,1.3-0.1,1.4c0.1,0.1,0.3-0.4,0.4-1.1C49.3,107.1,49,106.8,48.6,108.4 M109.1,114.8c0.1,1,0.3,1.9,0.4,2
		c0.3,0.3,0.1-2.2-0.3-3C109,113.3,108.9,113.6,109.1,114.8 M71.5,114.4c-0.8,0.4-1.5,0.9-1.5,1c0,0.1,0.7-0.2,1.6-0.6
		c0.9-0.4,1.6-0.9,1.6-1C73.2,113.5,73.2,113.5,71.5,114.4 M87.6,115.8c0,0.1,0.5,0.5,1.2,0.8c0.7,0.3,1.2,0.5,1.2,0.4
		c0-0.1-0.5-0.5-1.2-0.8C88.1,115.9,87.6,115.7,87.6,115.8 M47,117.6c-0.2,0.7-0.2,1.3-0.1,1.4c0.1,0.1,0.3-0.4,0.4-1.1
		C47.7,116.3,47.4,116,47,117.6 M46.2,122c-0.2,0.7-0.2,1.3-0.1,1.4c0.1,0.1,0.3-0.4,0.4-1.1C46.9,120.7,46.6,120.4,46.2,122
		 M45.5,126.5c-0.1,0.5-0.2,1-0.2,1.2c0,0.5,1.4,0.3,2.2-0.3c0.8-0.6,0.7-0.6-0.1-0.2c-1.4,0.7-1.8,0.5-1.5-0.6c0.1-0.5,0.2-1,0.1-1
		C45.8,125.6,45.6,126,45.5,126.5 M110.8,127.4c-0.4,0.5-0.4,0.6,0.2,0.6c0.4,0,0.6-0.3,0.6-0.6s-0.1-0.6-0.2-0.6
		S111.1,127.1,110.8,127.4 M258.3,136.7c-0.1,0.2,0.5,0.3,1.3,0.2c2.5-0.2,2.8-0.4,0.8-0.4C259.3,136.4,258.4,136.5,258.3,136.7
		 M255.6,138.4l-1.4,1.2l1.6-1.1c0.9-0.6,1.7-1.2,1.8-1.2c0.1-0.1,0-0.1-0.2-0.1C257.1,137.2,256.3,137.8,255.6,138.4 M266.9,141.6
		c0.7,1.1,1.4,1.9,1.4,1.8c0.2-0.2-2.3-3.8-2.6-3.8C265.7,139.6,266.2,140.5,266.9,141.6 M242.4,147.7c-3.1,2.3-3.5,2.8-0.5,0.8
		c1.4-0.9,2.6-1.8,2.7-2.1C245,145.8,244.8,145.9,242.4,147.7 M237.8,151.1c-0.7,0.6-0.9,0.9-0.4,0.6c0.7-0.4,2.1-1.7,1.7-1.6
		C239.1,150,238.5,150.5,237.8,151.1 M234.8,153c-1.8,1.2-2.2,2-1.6,2.9c0.4,0.6,0.4,0.6,0.2-0.2c-0.2-0.6,0-1.1,0.5-1.5
		c0.4-0.3,1.2-1,1.7-1.4C237,151.7,236.5,151.8,234.8,153 M277,155.8c1.4,1.8,1.6,1.8,0.5,0c-0.5-0.8-1-1.4-1.2-1.4
		C276.1,154.4,276.4,155,277,155.8 M177.7,156.3c0.6,0.2,0.7,0.8,0.7,5.9v5.7l1.5,1.2c0.8,0.6,2.9,2.1,4.6,3.3
		c3.1,2.1,3.7,3,2.4,3.4c-0.4,0.1-0.3,0.2,0.3,0.1c1.6-0.1,1.2-1.3-0.9-2.8c-1-0.7-3-2.1-4.4-3.1c-3.4-2.3-3.2-1.9-3.1-8.2l0.1-5.6
		l-1-0.1C177.4,156.1,177.3,156.1,177.7,156.3 M234,156.6c0,0.5,3.4,5.4,3.7,5.4c0.2,0-1.9-3.3-3.6-5.6
		C234.1,156.3,234,156.4,234,156.6 M174.8,158.1c-1,0.7-1.9,1.4-2,1.5c-0.5,0.6-3.9,2.7-4.6,2.9c-0.8,0.2-0.8,0.2,0,0.2
		c0.7,0,8.6-5.3,8.6-5.8C176.8,156.7,176.6,156.8,174.8,158.1 M279,158.6c0.4,0.6,0.7,0.9,0.8,0.8c0.2-0.2-0.8-1.9-1.2-1.9
		C278.5,157.6,278.7,158.1,279,158.6 M156.8,159.6c0,0.2,0.2,0.8,0.4,1.3c0.2,0.5,0.5,1.3,0.6,1.7c0.1,0.4,0.3,0.7,0.4,0.6
		c0.1-0.1-0.1-1-0.4-1.9l-0.6-1.7l1.2,0.2c0.8,0.2,1.1,0.1,1-0.2C159.1,159.1,156.8,159.1,156.8,159.6 M160.6,160.4
		c1.1,0.5,1.5,0.5,1.2,0c-0.1-0.2-0.6-0.4-1.1-0.4C159.8,160.1,159.8,160.1,160.6,160.4 M280.4,160.2c0,0.4,7.6,11,7.8,11
		c0.2,0-5-7.6-5.5-8c-0.1-0.1-0.7-0.9-1.3-1.8C280.9,160.5,280.4,160,280.4,160.2 M165.4,162c1.1,0.5,1.5,0.5,1.2,0
		c-0.1-0.2-0.6-0.4-1.1-0.4C164.6,161.7,164.6,161.7,165.4,162 M158.4,164.3c0,0.5,0.2,1,0.4,1.1c0.5,0.3,0.5-0.1,0-1.2
		C158.5,163.4,158.5,163.4,158.4,164.3 M240.1,165.6c0.7,1.1,1.4,2,1.6,2c0.2,0-0.3-0.9-1.1-2C238.7,163,238.4,163,240.1,165.6
		 M159.2,166.7c0,0.5,0.2,1,0.4,1.1c0.5,0.3,0.5-0.1,0-1.2C159.3,165.8,159.3,165.8,159.2,166.7 M160.2,169.4
		c0.2,1.1-1.1,3.7-2.2,4.6c-0.1,0.1-0.7,0.8-1.2,1.6c-0.5,0.8-1.1,1.5-1.2,1.6c-0.7,0.6-2,2.9-1.9,3.3c0.1,0.3,2,0.5,6.1,0.5l6,0
		l2.7,4c3.7,5.4,5.1,6.9,5.1,5.2c0-0.3-0.2-0.6-0.5-0.5c-0.5,0.1-1.5-1.1-5.1-6.2l-2.2-3.1l-5.9-0.1l-5.9-0.1l3.4-4.6
		c3.4-4.6,3.7-5.1,3-6.6C160.1,168.4,160,168.4,160.2,169.4 M245.9,173.7c1.3,1.8,2.8,4.1,3.5,5.1c0.7,1,1.3,1.9,1.5,2
		c0.1,0.1,1,1.4,2,2.8c1,1.4,1.9,2.7,2.1,2.7c0.2,0.1,0.3,0.4,0.3,0.7c0,0.3,0.1,0.6,0.3,0.6s0.8,0.7,1.3,1.6
		c0.5,0.9,1.1,1.6,1.3,1.6c0.3,0-1.1-2.1-3.9-6c-0.4-0.6-1.4-1.9-2.1-2.9c-3.6-5.2-8.2-11.5-8.4-11.5
		C243.7,170.4,244.6,171.9,245.9,173.7 M289,172.6c0.4,0.5,0.7,1,0.8,1c0.1,0-0.1-0.5-0.3-1c-0.3-0.6-0.6-1-0.8-1
		C288.5,171.6,288.7,172.1,289,172.6 M290.5,174.8c0.3,0.4,0.6,0.8,0.8,0.8c0.2,0,0.1-0.4-0.2-0.8s-0.6-0.8-0.8-0.8
		C290.1,174,290.2,174.4,290.5,174.8 M183,176.8c-1.9,0.7-1.7,0.7,1.5,0.1c1.1-0.2,2-1,1-0.9C185.2,176,184.1,176.4,183,176.8
		 M292.7,177.7c0.8,1.1,13.1,18.4,13.5,19c0.2,0.4,0.6,0.9,0.9,1.3c2.1,2.7,5,6.9,5.7,8l0.8,1.4l-2.5,1.8c-1.4,1-5.2,3.8-8.6,6.2
		c-19.9,14.2-17.4,12.8-18.9,10.7c-0.5-0.8-1.1-1.6-1.2-1.7c-0.1-0.1-1-1.4-2-2.8c-1-1.4-1.9-2.7-2-2.8c-0.1-0.1-1.2-1.6-2.4-3.4
		c-1.2-1.7-2.4-3.5-2.8-4c-0.3-0.5-2.5-3.5-4.7-6.6c-2.3-3.2-4.4-6.1-4.7-6.5c-0.3-0.4-1.5-2-2.6-3.7c-1.1-1.7-2.2-3.1-2.5-3.3
		c-0.5-0.3,0.3,1.3,1.1,2.1c0.3,0.3,0.5,0.7,0.5,0.9c0,0.2,0.2,0.6,0.5,0.9c0.5,0.5,1.7,2.2,3.5,5.1c0.4,0.6,0.8,1.2,1,1.4
		c0.2,0.2,1,1.3,1.7,2.4c0.8,1.1,1.7,2.3,2.1,2.8c1.2,1.3,0.9,1.4-5.1,1.4h-5.8v1c0,0.6-0.2,0.9-0.4,0.8c-0.2-0.1-0.4-0.1-0.4,0.1
		c0,0.2,0.4,0.6,1,0.8c0.7,0.3,0.9,0.7,0.8,1.3c-0.1,0.5,0,0.8,0.2,0.8c0.2,0,0.3,0.3,0.2,0.7c-0.2,0.5-0.1,0.6,0.4,0.4
		c0.4-0.2,0.8,0.1,1.1,1c0.3,0.7,0.8,1.5,1.2,1.9c0.4,0.3,1.3,1.6,2.1,2.8s1.7,2.4,2.1,2.7c0.4,0.3,0.7,0.7,0.7,1
		c0,0.2,0.3,0.8,0.7,1.2c0.4,0.4,0.6,0.8,0.5,0.9c-0.1,0.1-44.4,0.2-98.4,0.2l-98.2,0l-0.1,73c-0.1,53.2,0,73,0.3,73
		c0.3,0,0.4,1,0.4,2.8c0,1.6,0.2,2.8,0.4,2.8c0.2,0,0.4,0.4,0.4,0.9c0,0.9,0.8,3.6,1.2,3.9c0.1,0.1,0.4,0.7,0.5,1.2
		c0.6,2.6,6.2,9.4,8.8,10.8c0.6,0.3,1.1,0.7,1.1,0.9c0,0.2,0.2,0.3,0.5,0.3c0.3,0,0.9,0.4,1.4,0.8s1.1,0.8,1.5,0.8
		c0.3,0,0.6,0.2,0.6,0.4s0.5,0.4,1.2,0.4s1.2,0.1,1.2,0.3c0,1.5,206.2,2.5,206.7,1c0.1-0.3,0.6-0.5,1.1-0.5c0.5,0,1.1-0.2,1.2-0.4
		c0.1-0.2,0.6-0.4,1-0.4s0.8-0.2,0.8-0.4s0.4-0.4,0.8-0.4s0.8-0.2,0.8-0.4s0.3-0.4,0.6-0.4c0.3,0,0.6-0.2,0.6-0.4s0.2-0.4,0.5-0.4
		c0.3,0,0.9-0.4,1.4-0.8c0.5-0.4,1-0.8,1.2-0.8c0.2,0,0.5-0.3,0.6-0.7c0.1-0.4,0.6-1,1.1-1.3c1.5-1,3.9-3.7,3.9-4.2
		c0-0.3,0.2-0.6,0.3-0.6s0.9-1.2,1.6-2.7s1.5-3,1.7-3.4c0.2-0.4,0.4-1,0.4-1.5s0.2-0.9,0.4-1c0.2-0.1,0.4-1,0.4-2c0-1,0.2-1.9,0.4-2
		c0.3-0.2,0.4-13.4,0.4-38.4c0-21,0.1-38.2,0.2-38.2c0.4,0,1.4,1.1,1.4,1.6c0,0.2,0.5,1,1.2,1.7s1.2,1.5,1.2,1.7
		c0,0.2,0.4,0.7,0.8,1s0.8,0.8,0.8,1.1c0,0.3,0.2,0.5,0.4,0.5s0.4,0.3,0.4,0.6c0,0.3,0.4,1,0.8,1.4s0.7,0.8,0.5,0.8
		c-0.1,0,0.1,0.3,0.6,0.7c0.5,0.4,0.9,0.9,0.9,1c0,0.4,2.3,3.8,3.3,4.8c0.4,0.4,0.7,1,0.7,1.2c0,0.2,0.4,0.7,0.8,1
		c0.4,0.3,0.8,0.8,0.8,1c0,0.2,0.5,1,1.2,1.8c0.7,0.8,1.2,1.6,1.2,1.9c0,0.3,0.2,0.4,0.4,0.3c0.2-0.1,0.4,0,0.4,0.4
		c0,0.3,0.2,0.6,0.4,0.6s0.4,0.2,0.4,0.5c0,0.3,0.4,0.8,0.8,1.1c0.4,0.3,0.8,0.8,0.8,1c0,0.2,0.5,1,1.2,1.7c0.7,0.7,1.2,1.4,1.2,1.7
		c0,0.4,1.3,2.3,3.1,4.6c0.2,0.2,1.4,2,2.7,3.9c1.3,2,2.6,3.6,2.9,3.7c0.3,0.1,0.5,0.4,0.5,0.7c0,0.3,0.4,1,1,1.6
		c0.5,0.6,0.9,1.3,0.7,1.6c-0.1,0.2-0.1,0.3,0.2,0.1c0.3-0.2,0.5,0,0.5,0.3c0,0.3,0.1,0.6,0.3,0.6c0.2,0,0.6,0.5,0.9,1.1
		c0.3,0.6,1.1,1.6,1.7,2.3c0.6,0.6,1.1,1.3,1.1,1.5c0,0.7,1.1,1.5,2,1.5c0.5,0,0.8-0.2,0.8-0.4s0.2-0.4,0.5-0.4c0.3,0,1-0.5,1.7-1
		c0.6-0.5,1.3-1,1.4-1s0.8-0.5,1.4-1c0.6-0.5,1.3-1,1.6-1c0.2,0,0.7-0.4,1-0.8s0.8-0.8,1.1-0.8c0.3,0,0.5-0.2,0.5-0.4
		s0.2-0.4,0.4-0.4s0.8-0.4,1.3-0.8c0.5-0.4,1.1-0.8,1.4-0.8c0.3,0,0.5-0.2,0.3-0.3c-0.1-0.2,0.3-0.6,0.9-0.9
		c0.6-0.3,1.2-0.7,1.3-0.8c0.1-0.1,0.8-0.6,1.6-1.1s1.8-1.2,2.4-1.7c0.5-0.4,1.1-0.8,1.2-0.8c0.2,0,0.8-0.4,1.4-1
		c0.6-0.5,1.3-1,1.6-1c0.2,0,0.7-0.4,1-0.8c0.3-0.4,0.8-0.8,1.1-0.8c0.3,0,0.5-0.2,0.5-0.4s0.3-0.4,0.6-0.4c0.3,0,0.6-0.1,0.6-0.3
		c0-0.2,0.5-0.6,1.1-0.9c0.6-0.3,1.3-0.9,1.6-1.3c0.3-0.4,0.7-0.7,0.9-0.7c0.2,0,0.9-0.5,1.6-1.2c0.7-0.7,1.4-1.2,1.6-1.2
		c0.6,0,3.9-3.7,3.9-4.4c0-0.2,0.2-0.4,0.4-0.4s0.4-0.3,0.4-0.7s0.2-0.9,0.5-1.2c0.4-0.4,0.5-2.4,0.5-7.5c0-5.3-0.1-7.1-0.5-7.2
		c-0.3-0.1-0.5-0.5-0.5-0.9c0-0.4-0.2-0.8-0.4-0.8s-0.4-0.3-0.4-0.7c0-0.4-0.4-1-0.8-1.3c-0.4-0.3-0.8-0.8-0.8-1.1
		c0-0.3-0.2-0.5-0.4-0.5s-0.4-0.2-0.4-0.5s-0.4-0.8-0.8-1.2c-0.5-0.4-0.8-0.8-0.7-0.9c0.1-0.1-0.3-0.7-0.8-1.2
		c-0.5-0.6-0.9-1.3-0.9-1.7c0-0.3-0.2-0.5-0.4-0.4c-0.2,0.1-0.4,0-0.4-0.4c0-0.3-0.2-0.6-0.3-0.6s-0.7-0.6-1.1-1.4
		c-0.4-0.8-0.9-1.4-1-1.4s-0.4-0.3-0.5-0.7c-0.1-0.4-0.6-1.1-1.1-1.7c-0.5-0.6-1.2-1.5-1.5-2.1c-0.3-0.6-0.7-1.1-0.9-1.1
		c-0.2,0-0.3-0.2-0.3-0.5s-0.5-1-1.1-1.7c-0.6-0.7-1.4-1.7-1.7-2.3c-0.3-0.6-0.9-1.4-1.2-1.8c-0.4-0.4-1.3-1.6-2-2.7
		c-0.7-1.1-1.5-2.1-1.7-2.1c-0.2-0.1-0.3-0.3-0.3-0.5c0-0.2-0.4-0.8-1-1.4c-0.5-0.6-1-1.3-1-1.6c0-0.3-0.3-0.7-0.6-0.8
		c-0.3-0.1-0.5-0.4-0.4-0.5c0.1-0.2-0.1-0.4-0.4-0.5c-0.3-0.1-0.6-0.5-0.6-0.8c0-0.3-0.2-0.7-0.5-0.8c-0.5-0.2-0.3-0.4,2.1-2.4
		c0.5-0.4,1-0.7,1.1-0.7s0.6-0.4,0.9-0.8c0.3-0.4,0.9-0.8,1.2-0.8c0.3,0,0.9-0.4,1.2-0.8c0.3-0.4,0.7-0.8,0.9-0.8
		c0.8,0,5.9-5,5.9-5.8c0-0.3,0.2-0.5,0.4-0.4s0.4-0.1,0.4-0.5s0.2-0.9,0.4-1.2c0.7-0.7,2-4.7,2-6c0-0.7,0.1-1.4,0.3-1.5
		c0.5-0.3-0.5-7-1.4-9.3c-1.3-3.5-6.3-9.8-7.8-9.8c-0.2,0-0.3-0.2-0.2-0.4c0.1-0.2-0.1-0.3-0.6-0.2c-0.5,0.1-0.8,0-0.8-0.4
		c0-0.4-0.3-0.6-0.8-0.5c-0.4,0.1-1-0.1-1.3-0.4c-0.3-0.3-0.8-0.5-1.2-0.3c-0.4,0.1-0.7,0-0.7-0.2s-0.5-0.4-1.2-0.4
		s-1.3-0.2-1.4-0.4c-0.1-0.2-0.9-0.4-1.8-0.4s-1.7-0.2-1.8-0.4c-0.1-0.2-0.8-0.4-1.4-0.4s-1.3-0.2-1.4-0.4c-0.1-0.2-0.9-0.4-1.6-0.4
		s-1.4-0.2-1.4-0.4s-0.6-0.4-1.4-0.4s-1.4-0.2-1.4-0.4s-0.7-0.4-1.6-0.4c-0.9,0-1.7-0.2-1.8-0.4c-0.1-0.2-0.5-0.4-0.7-0.3
		c-0.6,0.1-4.2-0.8-5.2-1.3c-0.4-0.2-1.4-0.4-2.3-0.4c-1.1,0-1.5-0.2-1.4-0.4c0.1-0.2,0-0.4-0.3-0.3c-0.8,0.2-5.2-0.9-5.9-1.4
		c-0.4-0.3-0.6-0.3-0.7,0.1c-0.1,0.3-0.3,0.4-0.6,0.1c-0.3-0.2-0.6-0.4-0.9-0.5c-0.2-0.1-0.4-0.7-0.4-1.3c0-0.7-0.1-1.4-0.2-1.6
		c-0.5-0.9-0.2-4.4,0.4-4.3c0.3,0.1,0.5,0,0.3-0.1s-5.6-0.2-12.1-0.2c-11.6,0-11.8,0-11.8-0.8c0-0.4-0.2-0.8-0.4-0.8
		s-0.4-0.3-0.4-0.6s-0.5-1.2-1.2-1.9c-0.7-0.7-1.2-1.5-1.2-1.7c0-0.2-0.4-0.7-0.8-1s-0.8-0.8-0.8-1.1c0-0.3-0.2-0.5-0.4-0.5
		s-0.4-0.2-0.4-0.6c0-0.3-0.3-0.8-0.6-1c-0.3-0.3-1.2-1.4-2-2.6c-0.8-1.2-1.6-2.4-1.9-2.7c-0.3-0.3-1.3-1.7-2.3-3.1
		s-1.9-2.7-2.1-2.7c-0.2-0.1-0.3-0.3-0.3-0.5c0-0.4-2.4-3.7-2.9-3.9c-0.2-0.1-0.3-0.4-0.3-0.7c0-0.3-0.1-0.6-0.3-0.6
		c-0.2,0-0.9-1-1.7-2.2c-0.8-1.2-1.6-2.2-1.7-2.2C292.5,177.2,292.5,177.4,292.7,177.7 M178.8,178.1c-1.9,0.5-3.9,3.1-2.4,3.1
		c0.2,0,0.4-0.4,0.4-0.9c0-0.9,1.5-1.9,2.9-1.9c0.4,0,0.8-0.2,0.9-0.4C180.9,177.5,180.7,177.5,178.8,178.1 M174.7,185.2
		c-0.6,2.1-1,3.8-0.9,3.9c0.2,0.2,0.2,0.2,1-2.7c0.3-1,0.7-2.2,0.9-2.6c0.2-0.5,0.3-1.2,0.3-1.6
		C175.9,181.8,175.3,183.1,174.7,185.2 M70.9,193.5c1.5,0.1,3.9,0.1,5.4,0c1.5-0.1,0.3-0.1-2.7-0.1S69.4,193.4,70.9,193.5
		 M257.1,208.3c-0.4,0.4-0.3,1.3,0.1,1.3c0.2,0,0.3-0.3,0.1-0.7c-0.2-0.5-0.1-0.6,0.3-0.3c0.4,0.2,0.4,0.2,0.2-0.1
		C257.5,207.9,257.4,207.9,257.1,208.3 M173.2,209.1c0,0.4,0.2,0.9,0.5,1.2c0.3,0.3,0.4,0.5,0.2,0.5c-0.2,0-0.6-0.4-1.1-0.8
		s-1-0.8-1.3-0.8c-0.3,0-0.1,0.3,0.5,0.6c0.6,0.3,0.9,0.6,0.7,0.6c-0.2,0,0,0.3,0.3,0.6c0.3,0.3,0.8,0.5,1,0.4
		c0.2-0.1,0.4-0.1,0.4,0.2s-0.2,0.4-0.4,0.4s-0.4,0.2-0.4,0.4s0.4,0.3,0.9,0.2c0.6-0.1,0.8,0,0.4,0.3c-0.5,0.5-0.2,1.7,0.3,1.3
		c0.2-0.1,0.4,0.2,0.4,0.7c0,0.5,0.2,1.2,0.4,1.5c0.3,0.5,0.4,0.4,0.2-0.2c-0.2-0.6-0.2-0.7,0.2-0.3c0.7,0.7,1.3,0.6,1-0.1
		c-0.1-0.4,0-0.6,0.4-0.6c0.5,0,0.6-0.3,0.4-1.1c-0.2-0.8-0.1-1.3,0.4-1.6c0.7-0.6,0.8-1.4,0.1-1c-0.3,0.2-0.2-0.1,0.3-0.6
		c0.6-0.7,0.7-0.9,0.1-0.9c-0.4,0-0.6-0.3-0.4-0.8c0.2-0.7,0-0.8-2.6-0.8C173.6,208.4,173.2,208.5,173.2,209.1 M326.3,225.2
		c6.2,8.7,6,8.1,3.3,10c-0.8,0.5-2.2,1.5-3.2,2.3c-5.6,4.1-22.3,15.9-22.7,16c-0.3,0.1-1.4-1.1-2.5-2.7c-1.1-1.6-2.9-4.1-3.9-5.6
		c-4-5.5-5.3-7.5-5.3-7.9c0-0.3,16.4-12.2,23.2-16.8c1.4-1,3-2.1,3.4-2.5C320,216.6,320.5,217.1,326.3,225.2 M346.9,231.6
		c0.8,0,2.7,0.5,4.5,1.2c0.4,0.2,1.3,0.4,2,0.5c2.2,0.4,3.6,0.7,4.4,1.1c0.4,0.2,1.5,0.5,2.4,0.6c0.9,0.1,2.3,0.3,3.1,0.5
		c0.8,0.1,1.6,0.4,1.7,0.6c0.1,0.2,0.6,0.4,1,0.4c0.9,0,5.9,1.6,6.5,2.1c1.8,1.5,3.1,2.8,2.9,3c-0.1,0.1,0,0.6,0.3,1.1
		c1.1,1.8,0,5.5-2.3,7.6c-3.1,2.8-5.1,4-5.6,3.6c-0.2-0.2-0.2-0.1-0.1,0.2c0.1,0.2-0.2,0.7-0.7,1c-0.5,0.3-1,0.7-1,0.9
		c0,0.2-0.3,0.3-0.6,0.3c-0.3,0-0.6,0.2-0.6,0.4c0,0.8-1.1,0.4-1.6-0.7c-0.3-0.6-0.8-1.4-1.2-1.7s-0.9-1.1-1.2-1.7
		c-0.3-0.6-0.7-1.1-0.9-1.1c-0.2,0-0.3-0.3-0.3-0.6c0-0.3-0.1-0.6-0.3-0.7c-0.2-0.1-1.1-1.3-2.1-2.7c-1-1.4-2-2.7-2.2-2.9
		c-0.3-0.2-0.3-0.3,0-0.3c0.2,0,0.1-0.3-0.4-0.6c-0.4-0.3-0.7-0.6-0.5-0.6c0.2,0-1-1.6-2.4-3c-0.3-0.3-0.5-0.7-0.5-0.9
		s-0.5-1-1.2-1.7s-1.4-1.7-1.7-2.3c-0.3-0.6-1-1.6-1.6-2.2c-0.6-0.6-1.1-1.4-1.1-1.6c0-0.3,0.1-0.2,0.2,0.1
		C346,231.4,346.4,231.6,346.9,231.6 M173.4,313.2v75l-36,0.1c-26.4,0.1-36.6,0-38.4-0.4c-7.7-1.5-13.5-7.4-14.6-14.8
		c-0.4-2.8-0.5-133.5-0.1-134.5c0.2-0.6,4.4-0.6,44.7-0.5l44.5,0.1V313.2 M279.3,239.7c0.7,0.9,1.6,2.1,1.9,2.6
		c0.3,0.5,2.5,3.5,4.8,6.7s5,7,6,8.4c1,1.4,3.9,5.6,6.6,9.3c2.6,3.7,5.5,7.7,6.4,8.9l1.6,2.2v48.5c0,35-0.1,48.7-0.4,49.4
		c-0.2,0.5-0.9,1.9-1.4,3c-1.3,2.8-5.2,6.5-8.2,7.9c-4.5,2-4.4,2-43,1.9l-36.2-0.1l-0.1-74.6c-0.1-41,0-74.8,0.1-75.1
		c0.2-0.4,6.6-0.5,30.4-0.5h30.2L279.3,239.7 M205.5,313.3l-0.1,74.9l-9.2,0.1c-5.1,0.1-9.6,0-10.1-0.1l-0.9-0.2v-74.8v-74.8h10.2
		h10.2L205.5,313.3 M339.8,243.9c0.4,0.6,1.5,2.1,2.4,3.4c3,4.3,11.2,15.8,11.4,16c0.1,0.1,1,1.4,2,2.8c1,1.4,1.9,2.8,2.1,3
		c0.2,0.2,3.4,4.7,7.1,10s7.4,10.4,8.1,11.4c2.1,2.9,12.8,18,14.2,20.1c0.9,1.4,1.3,2.3,1.3,3.7c0,3-0.7,3.9-5.4,7.2
		c-1.3,0.9-2.6,1.9-3,2.2c-1.4,1.1-17.6,12.6-17.8,12.6c-0.4,0-1.1-0.8-2.2-2.4c-1.3-1.9-12.3-17.4-13.9-19.6
		c-0.7-1-4.4-6.1-8.1-11.4c-3.7-5.3-6.9-9.8-7.1-10c-0.2-0.2-1.1-1.6-2.1-3c-1-1.4-1.9-2.7-2-2.8c-0.1-0.1-2.2-3-4.6-6.4
		c-2.4-3.4-4.9-7-5.7-8c-3.8-5.2-6.1-8.6-6.1-9c0-0.5,1.3-1.5,12.2-9.2c4.6-3.3,9.3-6.6,10.4-7.4C339,242.4,338.8,242.5,339.8,243.9
		"/>
	<path id="path1" class="st0" d="M77.3,0.3C77,0.4,76.8,0.7,76.8,1c0,0.3-0.5,1.4-1,2.6c-0.6,1.1-1,2.3-1,2.7s-0.2,0.6-0.4,0.6
		S74,7.2,74,7.6s-0.1,0.8-0.3,0.8c-0.2,0-0.6,0.6-0.9,1.4c-0.3,0.8-0.7,1.4-0.9,1.4c-0.2,0-0.3,0.4-0.3,0.8s-0.2,0.8-0.4,0.8
		c-0.2,0-0.4,0.4-0.4,0.8c0,0.4-0.2,0.8-0.4,0.8S70,14.8,70,15.2c0,0.4-0.2,0.8-0.4,0.8s-0.4,0.4-0.4,0.8c0,0.4-0.2,0.8-0.4,0.8
		c-0.2,0-0.4,0.4-0.4,0.8s-0.2,0.8-0.4,0.8s-0.4,0.4-0.4,0.8s-0.2,0.8-0.4,0.8c-0.2,0-0.4,0.4-0.4,0.8s-0.2,0.8-0.4,0.8
		S66,22.8,66,23.2c0,0.4-0.2,0.8-0.4,0.8s-0.4,0.4-0.4,0.8c0,0.4-0.2,0.8-0.4,0.8c-0.2,0-0.4,0.4-0.4,0.8s-0.2,0.8-0.4,0.8
		s-0.4,0.2-0.4,0.5c0,0.3-1.2,2.8-2.6,5.7c-1.4,2.9-2.6,5.5-2.6,5.9c0,0.4-0.2,0.8-0.4,0.9c-0.2,0.1-0.4,0.6-0.4,1
		c0,0.4-0.2,0.8-0.4,0.8c-0.2,0-0.4,0.3-0.4,0.6c0,0.3-0.2,0.6-0.4,0.6c-0.2,0-0.4,0.4-0.4,0.8s-0.2,0.8-0.4,0.8
		c-0.2,0-0.4,0.4-0.4,0.8c0,0.4-0.2,0.8-0.4,0.8c-0.2,0-0.4,0.3-0.4,0.6c0,1.1-1.1,1.8-2.7,1.8c-0.9,0-1.7,0.2-1.9,0.4
		c-0.1,0.2-1.4,0.4-2.8,0.4c-1.5,0-2.6,0.2-2.6,0.4c0,0.2-1.1,0.4-2.4,0.4s-2.4,0.2-2.4,0.4c0,0.2-1.2,0.4-2.8,0.4
		c-1.6,0-2.8,0.2-2.8,0.4S32.8,52,31.2,52c-1.6,0-2.8,0.2-2.8,0.4c0,0.2-1.1,0.4-2.6,0.4c-1.5,0-2.6,0.2-2.6,0.4
		c0,0.2-1.2,0.4-2.8,0.4s-2.8,0.2-2.8,0.4s-1.2,0.4-2.8,0.4S12,54.6,12,54.8c0,0.2-1.1,0.4-2.6,0.4s-2.6,0.2-2.6,0.4
		C6.8,55.8,5.6,56,4,56s-2.8,0.2-2.8,0.4c0,0.2-0.3,0.4-0.6,0.4c-1.6,0-0.6,2.1,2.3,4.7C6.5,64.9,14,72.2,26.2,84.3
		c5.3,5.2,10.1,9.8,10.7,10.2c1.1,0.7,1.7,5.8,0.7,5.8c-0.2,0-0.4,1.1-0.4,2.4s-0.2,2.4-0.4,2.4c-0.2,0-0.4,1-0.4,2.2
		s-0.2,2.3-0.4,2.4c-0.2,0.1-0.4,1.1-0.4,2.2s-0.2,2.1-0.4,2.2c-0.2,0.1-0.4,1.1-0.4,2.2c0,1.1-0.2,2.1-0.4,2.2
		c-0.2,0.1-0.4,1.2-0.4,2.4s-0.2,2.2-0.4,2.2c-0.2,0-0.4,1-0.4,2.2s-0.2,2.3-0.4,2.4c-0.2,0.1-0.4,1.2-0.4,2.4s-0.2,2.2-0.4,2.2
		c-0.2,0-0.4,1.1-0.4,2.4c0,1.3-0.2,2.4-0.4,2.4c-0.2,0-0.5,0.9-0.6,2.1c-0.6,5.7-0.7,6.5-1.1,6.9c-0.8,0.8-0.4,4.2,0.4,4.2
		c0.4,0,0.8-0.2,0.8-0.4s0.4-0.4,0.8-0.4s0.8-0.2,0.8-0.4s0.4-0.4,0.8-0.4c0.4,0,0.8-0.2,0.8-0.4s0.4-0.4,0.8-0.4
		c0.4,0,0.8-0.2,0.8-0.4s0.4-0.4,0.8-0.4c0.4,0,0.8-0.2,0.8-0.4s0.4-0.4,0.8-0.4s0.8-0.1,0.8-0.3s0.6-0.6,1.4-0.9s1.4-0.7,1.4-0.9
		s0.4-0.3,0.8-0.3c0.4,0,0.8-0.2,0.8-0.4s0.4-0.4,0.8-0.4s0.8-0.1,0.8-0.3c0-0.2,0.4-0.5,0.9-0.8c5.4-2.6,10.5-5.1,10.7-5.3
		c0.2-0.2,2.9-1.7,4.7-2.6c0.5-0.2,0.9-0.6,0.9-0.7c0-0.2,0.4-0.3,0.8-0.3c0.4,0,0.8-0.2,0.8-0.4s0.4-0.4,0.8-0.4
		c0.4,0,0.8-0.2,0.8-0.4s0.4-0.4,0.8-0.4s0.8-0.2,0.8-0.4s0.4-0.4,0.8-0.4c0.4,0,0.8-0.2,0.8-0.4s0.4-0.4,0.8-0.4
		c0.4,0,0.8-0.1,0.8-0.3s0.6-0.6,1.4-0.9c0.8-0.3,1.4-0.7,1.4-0.9s0.3-0.3,0.6-0.3s1-0.4,1.5-0.8c0.5-0.4,1.1-0.8,1.4-0.8
		c0.3,0,0.5-0.2,0.5-0.4s0.4-0.4,0.9-0.4c1.1,0,3.1,0.9,3.1,1.3c0,0.2,0.4,0.3,0.8,0.3c0.4,0,0.8,0.2,0.8,0.4c0,0.2,0.4,0.4,0.8,0.4
		c0.4,0,0.8,0.2,0.8,0.4s0.4,0.4,0.8,0.4c0.4,0,0.8,0.2,0.8,0.4s0.4,0.4,0.8,0.4c0.4,0,0.8,0.2,0.8,0.4s0.4,0.4,0.8,0.4
		s0.8,0.2,0.8,0.4s0.4,0.4,0.8,0.4c0.4,0,0.8,0.2,0.8,0.4s0.4,0.4,0.8,0.4c0.4,0,0.8,0.2,0.8,0.4s0.3,0.4,0.6,0.4s0.6,0.1,0.6,0.3
		s0.6,0.6,1.4,0.9c0.8,0.3,1.4,0.7,1.4,0.8s0.6,0.5,1.4,0.8c0.8,0.3,1.4,0.7,1.4,0.9s0.4,0.3,0.8,0.3c0.4,0,0.8,0.2,0.8,0.4
		s0.4,0.4,0.8,0.4c0.4,0,0.8,0.2,0.8,0.4s0.4,0.4,0.8,0.4c0.4,0,0.8,0.2,0.8,0.4s0.4,0.4,0.8,0.4c0.4,0,0.8,0.2,0.8,0.4
		s0.4,0.4,0.8,0.4s0.8,0.2,0.8,0.4s0.3,0.4,0.6,0.4c0.3,0,0.9,0.3,1.2,0.6c0.3,0.3,0.9,0.6,1.4,0.6c0.4,0,0.8,0.2,0.8,0.4
		s0.3,0.4,0.6,0.4s0.6,0.2,0.6,0.4s0.4,0.4,0.8,0.4c0.4,0,0.8,0.2,0.8,0.4s0.4,0.4,0.8,0.4c0.4,0,0.8,0.2,0.8,0.4s0.4,0.4,0.8,0.4
		s0.8,0.2,0.8,0.4s0.4,0.4,0.8,0.4c0.4,0,0.8,0.2,0.8,0.4s0.4,0.4,0.8,0.4c0.4,0,0.8,0.2,0.8,0.4s0.4,0.4,0.8,0.4
		c0.4,0,0.8,0.2,0.8,0.4s0.4,0.4,0.8,0.4c0.4,0,0.8,0.2,0.8,0.4s0.2,0.4,0.5,0.4c0.3,0,0.9,0.4,1.4,0.8c1.5,1.4,2.5,1.1,2.5-0.8
		c0-0.9-0.2-1.7-0.4-1.8c-0.2-0.1-0.4-1.1-0.4-2.2c0-1.1-0.2-2.1-0.4-2.2c-0.2-0.1-0.4-1.2-0.4-2.4c0-1.2-0.2-2.2-0.4-2.2
		s-0.4-0.9-0.4-2.1c0-2-0.3-3.7-1.2-9.3c-0.2-1.3-0.5-3.3-0.6-4.5c-0.1-1.2-0.4-2.1-0.6-2.1s-0.4-1-0.4-2.2c0-1.2-0.2-2.3-0.4-2.4
		s-0.4-1.2-0.4-2.4s-0.2-2.3-0.4-2.4c-0.2-0.1-0.4-1.2-0.4-2.4c0-1.2-0.2-2.2-0.4-2.2s-0.4-1-0.4-2.2c0-1.2-0.2-2.3-0.4-2.4
		s-0.4-1-0.4-2c0-1-0.2-2.1-0.5-2.5c-0.5-0.8,0.9-2.3,7.5-8.2c1.7-1.5,8.9-8.6,16-15.6s13.4-13.3,14.1-13.9c1.5-1.3,1.7-2.3,0.3-2.3
		c-0.6,0-1-0.2-1-0.4c0-0.2-1.1-0.4-2.6-0.4s-2.6-0.2-2.6-0.4c0-0.2-1.2-0.4-2.8-0.4c-1.6,0-2.8-0.2-2.8-0.4c0-0.2-1.1-0.4-2.6-0.4
		c-1.4,0-2.7-0.2-2.8-0.4c-0.1-0.2-1.4-0.4-2.8-0.4c-1.5,0-2.6-0.2-2.6-0.4c0-0.2-1.2-0.4-2.8-0.4c-1.6,0-2.8-0.2-2.8-0.4
		c0-0.2-1.1-0.4-2.6-0.4c-1.5,0-2.6-0.2-2.6-0.4c0-0.2-1.1-0.4-2.5-0.4c-1.4,0-2.7-0.2-2.9-0.4c-0.2-0.2-1.5-0.5-2.9-0.6
		c-1.4-0.1-3.6-0.3-5-0.5c-1.4-0.1-2.7-0.4-2.9-0.6c-0.2-0.2-1-0.4-1.7-0.4c-1.4,0-2.5-0.7-2.5-1.8c0-0.3-0.2-0.6-0.4-0.6
		S102,46,102,45.6c0-0.4-0.1-0.8-0.3-0.8c-0.2,0-0.6-0.6-0.9-1.4c-0.3-0.8-0.7-1.4-0.9-1.4c-0.2,0-0.3-0.4-0.3-0.8
		c0-0.4-0.2-0.8-0.4-0.8c-0.2,0-0.4-0.4-0.4-0.8c0-0.4-0.2-0.8-0.4-0.8S98,38.4,98,38s-0.2-0.8-0.4-0.8s-0.4-0.4-0.4-0.8
		c0-0.4-0.2-0.8-0.4-0.8c-0.2,0-0.4-0.4-0.4-0.8c0-0.4-0.2-0.8-0.4-0.8s-0.4-0.4-0.4-0.8c0-0.4-0.2-0.8-0.4-0.8
		c-0.2,0-0.4-0.4-0.4-0.8s-0.2-0.8-0.4-0.8S94,30.4,94,30s-0.2-0.8-0.4-0.8s-0.4-0.4-0.4-0.8s-0.2-0.8-0.4-0.8
		c-0.2,0-0.4-0.4-0.4-0.8c0-0.4-0.2-0.8-0.4-0.8s-0.5-0.6-0.6-1.4c-0.1-0.8-0.4-1.4-0.6-1.4c-0.2,0-0.4-0.4-0.4-0.8
		s-0.2-0.8-0.4-0.8s-0.4-0.4-0.4-0.8c0-0.4-0.2-0.8-0.4-0.8c-0.2,0-0.4-0.4-0.4-0.8c0-0.4-0.2-0.8-0.4-0.8S88,18,88,17.6
		s-0.2-0.8-0.4-0.8s-0.4-0.4-0.4-0.8c0-0.4-0.2-0.8-0.4-0.8c-0.2,0-0.4-0.2-0.4-0.5c0-0.3-0.9-2.3-2-4.5s-2-4.2-2-4.5
		S82.2,5.2,82,5.2s-0.4-0.4-0.4-0.8s-0.2-0.8-0.4-0.8c-0.2,0-0.4-0.4-0.4-0.8S80.6,2,80.4,2S80,1.7,80,1.2C80,0.2,78.7-0.3,77.3,0.3
		 M199.1,17.1c-0.1,0.1-0.3,0.7-0.3,1.2c0,0.5-0.2,0.9-0.4,0.9c-0.2,0-0.4,1.2-0.4,2.8s-0.2,2.8-0.4,2.8c-0.2,0-0.4,1.1-0.4,2.6
		c0,1.4-0.2,2.7-0.4,2.8c-0.2,0.1-0.4,1.4-0.4,2.8c0,1.5-0.2,2.6-0.4,2.6c-0.2,0-0.4,1.1-0.4,2.5c0,1.4-0.2,2.7-0.4,2.9
		c-0.2,0.2-0.5,1.5-0.6,2.9c-0.1,1.4-0.3,3.6-0.5,5c-0.1,1.4-0.4,2.7-0.6,2.9c-0.2,0.2-0.4,1.4-0.4,2.7c0,1.8-0.1,2.3-0.6,2.3
		c-0.3,0-0.6,0.2-0.6,0.4c0,0.2-0.4,0.4-0.8,0.4s-0.8,0.2-0.8,0.4s-0.3,0.4-0.7,0.4c-0.4,0-1.2,0.3-1.8,0.6
		c-0.6,0.3-1.4,0.6-1.7,0.6c-0.3,0-0.6,0.2-0.6,0.4s-0.4,0.4-0.8,0.4s-0.8,0.2-0.8,0.4c0,0.2-0.4,0.4-0.8,0.4s-0.8,0.2-0.8,0.4
		c0,0.2-0.4,0.4-0.8,0.4c-0.4,0-0.8,0.2-0.8,0.4c0,0.2-0.4,0.4-0.8,0.4s-0.8,0.2-0.8,0.4c0,0.2-0.4,0.4-0.8,0.4
		c-0.4,0-0.8,0.2-0.8,0.4s-0.2,0.4-0.5,0.4c-0.2,0-2.2,0.9-4.4,2c-2.2,1.1-4.2,2-4.5,2c-0.3,0-0.6,0.1-0.7,0.3
		c-0.1,0.2-1.8,1.1-3.7,2.1s-3.7,1.9-3.7,2.1c-0.1,0.2-0.4,0.3-0.7,0.3c-0.6,0-1.7,0.9-1.7,1.4c0,0.5,1.1,1.4,1.8,1.4
		c0.3,0,0.6,0.2,0.6,0.4s0.4,0.4,0.8,0.4s0.8,0.2,0.8,0.4c0,0.2,0.4,0.4,0.8,0.4c0.4,0,0.8,0.2,0.8,0.4s0.4,0.4,0.8,0.4
		s0.8,0.2,0.8,0.4c0,0.2,0.4,0.4,0.8,0.4c0.4,0,0.8,0.2,0.8,0.4s0.3,0.4,0.6,0.4c0.3,0,1.2,0.4,2,0.8c0.8,0.4,1.7,0.8,2,0.8
		c0.3,0,0.6,0.2,0.6,0.4s0.4,0.4,0.8,0.4c0.4,0,0.8,0.2,0.8,0.4c0,0.2,0.4,0.4,0.8,0.4s0.8,0.2,0.8,0.4s0.3,0.4,0.6,0.4
		c0.3,0,0.6,0.2,0.6,0.4s0.4,0.4,0.8,0.4s0.8,0.2,0.8,0.4c0,0.2,0.4,0.4,0.8,0.4c0.4,0,0.8,0.2,0.8,0.4s0.4,0.4,0.8,0.4
		s0.8,0.2,0.8,0.4c0,0.2,0.4,0.4,0.8,0.4c0.4,0,0.8,0.2,0.8,0.4s0.4,0.4,0.8,0.4s0.8,0.2,0.8,0.4s0.4,0.4,0.8,0.4s0.8,0.2,0.8,0.4
		c0,0.2,0.4,0.4,0.8,0.4c0.4,0,0.8,0.2,0.8,0.4s0.4,0.4,0.8,0.4s0.8,0.2,0.8,0.4c0,0.2,0.7,0.5,1.6,0.6c0.9,0.1,1.6,0.4,1.6,0.6
		c0,0.2,0.3,0.4,0.6,0.4c0.5,0,0.9,2.3,0.6,4.3c0,0.3,0.1,0.6,0.4,0.7c0.2,0.1,0.4,1.3,0.4,2.6s0.2,2.5,0.4,2.6s0.4,1.4,0.4,2.8
		c0,1.5,0.2,2.6,0.4,2.6c0.2,0,0.4,1.2,0.4,2.8c0,1.6,0.2,2.8,0.4,2.8c0.2,0,0.4,1.1,0.4,2.6c0,1.4,0.2,2.7,0.4,2.8s0.4,1.4,0.4,2.8
		c0,1.5,0.2,2.6,0.4,2.6c0.2,0,0.4,1.2,0.4,2.8c0,1.5,0.2,2.8,0.4,2.8c0.2,0,0.4,0.4,0.5,0.9c0.3,2.2,1.8,1.1,9.1-6.9
		c1.6-1.8,6.7-7,11.2-11.5l8.2-8.2l2.4,0.1c1.3,0,2.6,0.3,2.8,0.5s1.3,0.4,2.5,0.4s2.1,0.2,2.1,0.4c0,0.2,0.9,0.5,2.1,0.6
		c2.1,0.2,4.5,0.6,9.3,1.5c1.3,0.2,4.3,0.6,6.7,0.9c2.3,0.3,4.4,0.6,4.6,0.8c0.2,0.2,1.2,0.3,2.2,0.3c1.1,0,1.9,0.2,1.9,0.4
		s0.6,0.4,1.4,0.4c1.2,0,1.4-0.1,1.4-1c0-0.6-0.2-1-0.4-1s-0.4-0.4-0.4-0.8c0-0.4-0.2-0.8-0.4-0.8s-0.4-0.4-0.4-0.8
		s-0.2-0.8-0.4-0.8s-0.4-0.4-0.4-0.8c0-0.4-0.2-0.8-0.4-0.8s-0.4-0.4-0.4-0.8c0-0.4-0.2-0.8-0.4-0.8s-0.4-0.4-0.4-0.8
		c0-0.4-0.2-0.8-0.4-0.8s-0.4-0.4-0.4-0.8c0-0.4-0.2-0.8-0.4-0.8s-0.4-0.4-0.4-0.8s-0.2-0.8-0.4-0.8s-0.4-0.3-0.4-0.6
		S260.2,96,260,96s-0.4-0.4-0.4-0.8c0-0.4-0.2-0.8-0.4-0.8c-0.2,0-0.5-0.5-0.6-1.2c-0.1-0.7-0.4-1.2-0.6-1.2c-0.2,0-0.4-0.4-0.4-0.8
		c0-0.4-0.2-0.8-0.4-0.8s-0.4-0.4-0.4-0.8c0-0.4-0.2-0.8-0.4-0.8S256,88.4,256,88s-0.2-0.8-0.4-0.8s-0.4-0.3-0.4-0.8
		c0-0.4-0.1-0.8-0.3-0.9c-0.3-0.1-1.8-2.9-3.5-6.2c-0.2-0.5-0.6-0.9-0.7-0.9c-0.2,0-0.3-0.4-0.3-0.8c0-0.4-0.2-0.8-0.4-0.8
		s-0.4-0.3-0.4-0.6c0-0.3-0.2-0.6-0.4-0.6s-0.4-0.2-0.4-0.5c0-0.7,0.9-2.7,1.3-2.7c0.2,0,0.3-0.4,0.3-0.8c0-0.4,0.2-0.8,0.4-0.8
		s0.4-0.4,0.4-0.8s0.1-0.8,0.3-0.8s0.5-0.4,0.7-0.9c1.2-2.4,2.4-4.5,2.7-4.6c0.2-0.1,0.3-0.5,0.3-0.9c0-0.4,0.2-0.8,0.4-0.8
		s0.4-0.4,0.4-0.8c0-0.4,0.2-0.8,0.4-0.8s0.4-0.4,0.4-0.8c0-0.4,0.1-0.8,0.3-0.8c0.2,0,0.6-0.6,0.9-1.3c1.2-2.8,1.8-4.1,2.1-4.3
		c0.1-0.1,0.5-0.8,0.8-1.5c0.3-0.7,0.7-1.3,0.9-1.3c0.2,0,0.3-0.4,0.3-0.8c0-0.4,0.2-0.8,0.4-0.8s0.4-0.4,0.4-0.8s0.2-0.8,0.4-0.8
		s0.4-0.4,0.4-0.8c0-0.4,0.2-0.8,0.4-0.8s0.4-0.4,0.4-0.8c0-0.4,0.2-0.8,0.4-0.8s0.4-0.4,0.4-0.8c0-0.4,0.2-0.8,0.4-0.8
		s0.4-0.3,0.4-0.6c0-0.3,0.2-0.6,0.4-0.6s0.4-0.5,0.4-1.2c0-1.1-0.1-1.2-1.6-1.2c-0.9,0-1.6,0.2-1.6,0.4c0,0.2-1,0.4-2.2,0.4
		s-2.2,0.2-2.2,0.4s-0.9,0.4-2,0.4c-1.1,0-2,0.2-2,0.3c0,0.2-1.3,0.5-2.9,0.6c-2.6,0.2-5.7,0.7-13.3,1.9c-1.3,0.2-3.3,0.5-4.4,0.6
		c-1.1,0.1-2.2,0.4-2.4,0.6c-0.2,0.2-1.4,0.4-2.6,0.4l-2.2,0.1l-7-7c-3.8-3.9-8.6-8.8-10.6-10.9c-4.8-5.2-9.8-10.2-10.2-10.2
		C199.5,16.8,199.2,16.9,199.1,17.1 M87.8,45.7l7.1,14.3l2.4,0.4c1.3,0.2,3.9,0.6,5.6,0.9c1.8,0.2,4.3,0.6,5.7,0.8
		c1.4,0.2,3.8,0.6,5.4,0.8c1.6,0.2,4,0.6,5.3,0.8c1.3,0.2,3.9,0.6,5.8,0.8c7.2,1,7.1,0.7,1.5,6.2c-2.5,2.4-8.3,8.1-12.8,12.5
		l-8.3,8.2l0.2,2c0.3,2.5,1.1,7.3,2.2,13.6c0.6,3,1.2,6.6,1.6,9.2c0.3,1.9,0.5,2.9,1.6,9.2c0.2,1.3,0.4,2.4,0.4,2.5
		c0,0.3-1.3,0-2.8-0.8c-5.5-2.9-10-5.2-14.6-7.7c-2.9-1.5-6.7-3.5-8.6-4.6c-1.9-1-4.3-2.3-5.3-2.8l-1.9-0.9l-5.5,2.9
		c-3,1.6-7,3.7-8.7,4.6c-1.8,0.9-5.1,2.7-7.4,3.9c-2.3,1.2-5.6,2.9-7.3,3.8c-3.6,1.9-4.5,2.1-4.1,0.8c0.1-0.5,0.4-2,0.7-3.3
		c0.2-1.3,0.5-3.3,0.7-4.4c0.4-2.2,1-5.5,1.6-9.4c0.2-1.4,0.6-3.5,0.8-4.6s0.5-3.1,0.8-4.4c0.7-4,1.1-6.3,1.4-8
		c0.3-1.6,0.3-1.6-3-4.8c-12-11.5-22.7-22.4-22.4-22.7c0.2-0.2,1.6-0.5,3.1-0.7c3.2-0.4,7.6-1,11.3-1.6c1.4-0.2,3.9-0.6,5.4-0.8
		s4-0.6,5.4-0.8c1.4-0.2,4-0.6,5.8-0.8c1.8-0.2,3.6-0.5,4.1-0.6c0.7-0.2,2.5-3.4,8.7-16.1c4.3-8.7,8.1-16.1,8.3-16.4
		C78.6,27,77.8,25.6,87.8,45.7 M306,44.6v6.6h6.6h6.6v-6.6V38h-6.6H306V44.6 M215.6,51c6,6,7.6,7.4,8.5,7.4c0.6,0,5.3-0.7,10.6-1.6
		c5.2-0.9,9.6-1.5,9.7-1.4c0.2,0.2-1.7,4.1-6.2,12.6c-3.9,7.4-4.2,5.4,2.2,17.4c5.3,10,5.7,9.3-4.4,7.4c-1-0.2-3.1-0.6-4.6-0.8
		c-1.5-0.3-3.6-0.6-4.5-0.8c-3.7-0.8-3.4-1-11.4,7.3c-5.7,5.8-7.5,7.5-7.8,7.1c-0.2-0.3-1.1-5.1-1.9-10.7
		c-1.2-8.3-1.6-10.3-2.1-10.6c-0.4-0.2-4.7-2.4-9.5-4.8c-4.8-2.4-8.8-4.6-8.8-4.8s4.2-2.5,9.3-5c5.1-2.5,9.4-4.7,9.5-4.9
		c0.2-0.3,1.1-5.6,2.4-14.9c0.8-5.5,0.9-6.2,1.3-6.2C208.1,43.6,211.5,46.9,215.6,51 M287.2,63.4V70h6.6h6.6v-6.6v-6.6h-6.6h-6.6
		V63.4 M324.8,63.4V70h6.6h6.6v-6.6v-6.6h-6.6h-6.6V63.4 M306.7,75.5c-0.6,0.2-0.7,0.8-0.7,6.8v6.6h6.6h6.6v-6.6v-6.6l-1.3-0.3
		C316.6,75.2,307.8,75.2,306.7,75.5 M255.2,125.2c0,0.2-0.3,0.3-0.6,0.2c-0.3-0.1-1.1,0.1-1.6,0.4c-0.5,0.4-1,0.5-1,0.4
		c0-0.1-0.3,0-0.7,0.3c-0.4,0.3-1.1,0.7-1.6,0.9c-0.5,0.2-0.9,0.4-0.9,0.6c0,0.2-0.2,0.4-0.5,0.4c-0.3,0-0.9,0.4-1.4,0.8
		s-1,0.8-1.2,0.8c-0.2,0-0.9,0.5-1.6,1.2c-0.7,0.7-1.4,1.2-1.5,1.2s-0.7,0.5-1.4,1.2c-0.6,0.7-1.3,1.2-1.6,1.2s-1,0.5-1.7,1.2
		c-0.7,0.7-1.4,1.2-1.6,1.2c-0.2,0-0.9,0.5-1.6,1.2c-0.7,0.7-1.5,1.2-1.7,1.2c-0.2,0-0.7,0.4-1,0.8c-0.3,0.4-0.7,0.8-0.9,0.8
		c-0.4,0-6.6,4.3-7.4,5.1c-0.3,0.3-0.7,0.5-0.8,0.5s-0.8,0.4-1.5,1c-0.6,0.5-1.3,1-1.6,1c-0.2,0-0.7,0.4-1,0.8
		c-0.3,0.4-0.8,0.8-1.1,0.8c-1.6,0-2.3,2.6-0.9,3.6c0.4,0.3,0.8,0.8,0.8,1.1c0,0.3,0.2,0.5,0.4,0.5s0.4,0.2,0.4,0.5
		c0,0.3,0.4,0.8,0.8,1.1s0.8,0.8,0.8,1s0.4,0.7,0.8,1s0.8,0.8,0.8,1.1c0,0.3,0.5,1.1,1.2,1.7s1.2,1.4,1.2,1.8c0,0.4,0.2,0.6,0.4,0.6
		c0.2,0,0.6,0.6,1,1.3s0.9,1.7,1.3,2.1c0.4,0.4,1,1.3,1.3,1.9c0.3,0.6,0.7,1.1,0.9,1.1c0.2,0,0.3,0.2,0.3,0.4c0,0.4,0.8,1.4,1.9,2.6
		c0.3,0.3,0.5,0.7,0.5,0.9s0.4,0.6,0.8,0.9c0.4,0.3,0.8,0.8,0.8,1.1s0.5,1.1,1.2,1.8c0.7,0.7,1.2,1.5,1.2,1.7c0,0.2,0.4,0.7,0.8,1
		c0.4,0.3,0.8,0.9,0.8,1.2c0,0.3,0.4,0.9,0.8,1.2s0.8,0.8,0.8,1.1c0,0.3,0.2,0.5,0.4,0.5s0.4,0.2,0.4,0.5c0,0.3,0.4,0.8,0.8,1.1
		c0.4,0.3,0.8,0.9,0.8,1.2s0.4,0.9,0.8,1.2s0.8,0.8,0.8,1.1c0,0.3,0.2,0.5,0.4,0.5s0.3,0.1,0.2,0.3c-0.1,0.2,0.1,0.6,0.6,0.9
		c0.4,0.3,0.8,0.8,0.8,1.1c0,0.3,0.5,1.1,1.2,1.8c0.7,0.7,1.2,1.5,1.2,1.7c0,0.2,0.4,0.7,0.8,1s0.8,0.9,0.8,1.2s0.4,0.9,0.8,1.2
		c0.4,0.3,0.8,0.8,0.8,1c0,0.2,0.5,1,1.2,1.7c0.7,0.7,1.2,1.5,1.2,1.8c0,0.3,0.4,0.8,0.8,1.1c0.4,0.3,0.8,0.7,0.8,0.9
		c0,0.9,2,2.4,2.5,1.9c0.5-0.4,0.7-0.4,0.9,0c0.2,0.3,0.1,0.4-0.2,0.2c-0.4-0.2-0.5-0.1-0.3,0.3c0.1,0.4,0.1,0.7-0.1,0.7
		c-0.2,0-0.4,0.2-0.4,0.4c0,0.2,0.4,0.3,0.8,0.3c0.5,0,0.8-0.3,0.8-1c0-0.9,0-0.9,5.8-0.9c6,0,6.3-0.1,5.1-1.4
		c-0.4-0.4-1.3-1.7-2.1-2.8c-0.8-1.1-1.5-2.2-1.7-2.4c-0.2-0.2-0.6-0.9-1-1.4c-1.8-2.8-3-4.6-3.5-5c-0.3-0.3-0.6-0.9-0.8-1.3
		c-0.1-0.4-0.4-0.8-0.6-0.8c-0.2,0-0.4-0.2-0.4-0.5c0-0.3-0.5-1-1-1.7s-1.3-1.7-1.7-2.3s-0.8-1.1-1-1.1c-0.2,0-0.3-0.3-0.3-0.6
		c0-0.3-0.1-0.6-0.3-0.7c-0.2-0.1-1.1-1.3-2.1-2.7c-1-1.4-1.8-2.7-2-2.8c-0.2-0.2-0.3-0.3-5-7.2c-1.7-2.5-3.3-4.7-3.5-4.7
		c-0.2-0.1-0.3-0.4-0.3-0.7s-0.1-0.6-0.3-0.7c-0.2-0.1-1.1-1.3-2.1-2.7c-1-1.4-1.9-2.7-2-2.8s-1.1-1.4-2-2.8c-1-1.4-2-2.8-2.3-3.1
		c-1.2-1.3-1.7-0.8,11.3-9.9c2.8-2,5.3-3.7,5.4-3.8s1.1-0.8,2.2-1.6c1.1-0.7,2.4-1.6,2.8-2c5.5-4.8,8-3.5,16.2,8.3
		c3.3,4.8,4.2,6,4.5,6.1c0.2,0.1,0.3,0.4,0.3,0.7c0,0.3,0.1,0.6,0.3,0.6c0.2,0,0.6,0.5,1,1.1s1.1,1.6,1.7,2.3s1,1.4,1,1.7
		c0,0.3,0.1,0.5,0.3,0.5c0.2,0,0.6,0.5,1,1.2c0.4,0.7,0.9,1.4,1.2,1.7c0.3,0.3,1.7,2.3,3.3,4.5c1.5,2.2,3,4.2,3.3,4.5
		c0.3,0.3,0.5,0.7,0.5,0.8c0,0.2,0.4,0.8,1,1.5c0.5,0.6,1,1.3,1,1.5c0,0.2,0.3,0.6,0.7,1c0.4,0.4,1.3,1.5,2.1,2.6
		c0.7,1.1,1.5,2.1,1.7,2.1c0.2,0.1,0.3,0.4,0.3,0.7s0.1,0.6,0.3,0.7c0.5,0.2,2.9,3.4,2.9,3.9c0,0.2,0.1,0.4,0.3,0.5
		c0.2,0.1,1.1,1.3,2.1,2.7s2,2.8,2.3,3.1c0.3,0.3,1.1,1.5,1.9,2.7c0.8,1.2,1.7,2.4,2,2.6c0.3,0.3,0.6,0.7,0.6,1
		c0,0.3,0.2,0.6,0.4,0.6s0.4,0.2,0.4,0.5c0,0.3,0.4,0.8,0.8,1.1s0.8,0.8,0.8,1c0,0.2,0.5,1,1.2,1.7c0.7,0.7,1.2,1.5,1.2,1.9
		s0.2,0.6,0.4,0.6s0.4,0.4,0.4,0.8c0,0.8,0.2,0.8,11.8,0.8c6.5,0,12,0.1,12.1,0.2s0,0.2-0.3,0.1c-0.7-0.2-0.9,3.5-0.3,4.4
		c0.8,1.1,1.1-0.1,1.1-4.3c0-2.4,0.2-4.5,0.4-4.6c0.2-0.1,0.4-2.1,0.4-4.5c0-2.3,0.2-4.4,0.3-4.7c0.4-0.5,0.9-7.4,1.1-15.7
		c0.2-5.9-0.8-11.8-1.9-11.8c-0.2,0-0.3-0.2-0.3-0.5c0-0.3-0.3-0.9-0.7-1.3c-0.4-0.4-1.2-1.4-1.7-2.2c-1-1.4-6-5.1-6-4.5
		c0,0.2-0.2,0.1-0.5-0.2c-0.3-0.3-0.9-0.5-1.4-0.5c-0.5,0-0.9-0.2-0.9-0.4s-0.5-0.4-1.2-0.4s-1.2-0.2-1.2-0.4c0-0.2-1.8-0.4-4.6-0.4
		c-2.8,0-4.6,0.2-4.6,0.4c0,0.2-0.5,0.4-1.2,0.4c-0.7,0-1.2,0.2-1.2,0.4s-0.4,0.4-0.8,0.4c-1,0-4.7,1.9-5.6,2.9
		c-0.3,0.4-0.9,0.7-1.2,0.8c-0.3,0.1-1.1,0.6-1.7,1.2c-0.7,0.6-1.3,1.1-1.5,1.1c-0.2,0-0.8,0.5-1.4,1l-1,1l-1.2-1.2
		c-0.6-0.7-1.2-1.4-1.2-1.6s-0.2-0.4-0.4-0.4s-0.4-0.2-0.4-0.5c0-0.3-0.4-0.8-0.8-1.1s-0.8-0.7-0.8-0.9s-0.5-0.9-1.2-1.5
		s-1.2-1.3-1.2-1.6c0-0.2-0.3-0.7-0.7-1.1c-0.4-0.4-1.1-1.3-1.4-2.1c-0.4-0.8-0.9-1.5-1.1-1.5c-0.2,0-0.4-0.2-0.4-0.5
		c0-0.3-0.5-1-1-1.7c-0.6-0.6-1-1.3-1-1.5c0-0.2-0.5-0.8-1-1.3c-0.6-0.6-1-1.2-1-1.5c0-0.3-0.3-0.8-0.7-1.1c-0.4-0.4-1-1.1-1.3-1.7
		c-0.3-0.6-0.7-1-0.9-0.9c-0.2,0.1-0.3-0.1-0.3-0.5c0-0.4-0.4-1-0.8-1.3s-0.8-0.9-0.8-1.2c0-0.3-0.4-0.9-0.8-1.2s-0.8-0.9-0.8-1.2
		s-0.4-0.9-0.8-1.2s-0.8-0.8-0.8-1c0-0.2-0.6-1.1-1.4-2c-0.8-0.8-1.4-1.6-1.4-1.8c0-0.4-1.7-2.1-3-3c-0.6-0.4-1.4-1-1.7-1.3
		c-0.8-0.8-3.3-1.7-3.8-1.5c-0.2,0.1-0.4,0-0.4-0.2c0-0.3-1.9-0.4-5.4-0.4C257.4,124.8,255.2,125,255.2,125.2 M188.1,132.8
		c-0.7,0.7-1.4,1.2-1.6,1.2s-0.9,0.5-1.6,1.2c-0.7,0.7-1.4,1.2-1.6,1.2s-0.9,0.5-1.6,1.2c-0.7,0.7-1.4,1.2-1.6,1.2
		c-0.2,0-0.9,0.5-1.6,1.2c-0.7,0.7-1.4,1.2-1.5,1.2c-0.1,0-0.4,0.2-0.7,0.4c-1.8,1.5-2.4,2-2.7,2c-0.2,0-0.8,0.4-1.3,1
		c-0.5,0.5-1.2,1-1.4,1c-0.2,0-0.9,0.5-1.5,1.1c-2.1,2-4.1,2.7-4.7,1.7c-0.1-0.2-0.6-0.4-1-0.4c-0.4,0-1.1-0.2-1.6-0.4
		c-0.4-0.2-1.2-0.6-1.6-0.8s-1.1-0.4-1.6-0.4c-0.4,0-0.9-0.2-1-0.4s-0.6-0.4-1-0.4c-0.4,0-1.1-0.2-1.5-0.4c-0.7-0.4-6.5-2.4-7.7-2.6
		c-0.3-0.1-1.4-0.4-2.4-0.8c-1-0.3-2.2-0.6-2.7-0.6c-0.5,0-0.9-0.2-0.9-0.4s-0.4-0.4-1-0.4c-0.5,0-1.1-0.2-1.2-0.4
		c-0.7-1.1-1.4-0.3-1.4,1.4c0,1,0.2,1.8,0.4,1.8s0.4,0.5,0.4,1.2c0,0.7,0.2,1.2,0.4,1.2s0.4,0.4,0.4,1s0.2,1.1,0.4,1.2
		s0.4,0.7,0.4,1.2s0.2,1,0.4,1c0.2,0,0.4,0.5,0.6,1.1c0.4,2,1.2,4.7,1.7,5.9c0.3,0.7,0.4,1.3,0.3,1.5c-0.1,0.2,0,0.3,0.2,0.3
		s0.4,0.5,0.4,1.2s0.2,1.2,0.4,1.2s0.4,0.5,0.4,1.2c0,0.7,0.2,1.2,0.4,1.2s0.4,0.5,0.4,1.2s0.2,1.2,0.4,1.2c1.2,0,0.2,3.7-1.5,5.5
		c-0.5,0.5-1,1.3-1.1,1.7c-0.1,0.4-0.4,0.8-0.7,0.8c-0.2,0-0.3,0.1-0.2,0.3c0.1,0.2-0.1,0.6-0.6,0.9c-0.4,0.3-0.8,0.8-0.8,1.1
		c0,0.3-0.4,0.7-0.8,1c-0.4,0.3-0.8,0.8-0.8,1.2c0,0.4-0.2,0.6-0.4,0.5s-0.4,0-0.4,0.4c0,0.3-0.1,0.6-0.3,0.6c-0.2,0-0.6,0.5-1,1.2
		c-0.4,0.7-1.2,1.6-1.7,2.2c-0.5,0.5-1,1.1-1,1.3c0,0.2-0.5,0.9-1.2,1.6c-0.7,0.7-1.2,1.4-1.2,1.6c0,0.2-0.5,0.9-1.1,1.5
		c-1.2,1.3-2.1,2.7-2.1,3.3c0,0.3,5.1,0.4,14.8,0.4c10,0,14.8-0.1,14.8-0.4c0-0.2,0.2-0.2,0.6,0.1c0.3,0.3,0.5,0.7,0.4,0.8
		c-0.1,0.2,0,0.3,0.2,0.3c0.2,0,0.5,0.4,0.7,0.8c0.1,0.4,0.7,1.2,1.2,1.8c0.5,0.5,1,1.2,1,1.5c0,0.3,0.4,0.8,0.8,1.1
		c0.4,0.3,0.8,0.8,0.8,1c0,0.2,0.5,1,1.2,1.8c0.7,0.8,1.2,1.6,1.2,1.8c0,0.2,0.3,0.6,0.7,1c0.4,0.4,1,1.1,1.3,1.7
		c0.3,0.6,0.7,1,0.9,0.9c0.2-0.1,0.5,0.1,0.8,0.5c0.4,0.5,0.4,0.6,0,0.4c-0.3-0.2-0.5-0.2-0.5,0c0,0.4,1.1,1.4,1.3,1.1
		c0.1-0.1,0.5,0,0.9,0.3c0.6,0.4,0.7,0.4,0,0.2c-0.4-0.1-0.7,0-0.7,0.2s0.4,0.3,0.8,0.2c0.4-0.1,0.8,0,0.8,0.2
		c0,0.2-0.2,0.4-0.4,0.4c-0.6,0-0.5,0.7,0.1,1.4c0.4,0.4,0.6,0.4,1,0c0.7-0.7,0.6-1-0.1-0.7c-0.3,0.1-0.6,0-0.6-0.2
		c0-0.2,0.2-0.4,0.5-0.4c0.4,0,0.4-0.1,0-0.5c-1.3-1.3-0.6-1.9,2.4-1.9c2.6,0,2.8,0.1,2.6,0.8c-0.1,0.5,0,0.8,0.4,0.8
		c0.5,0,0.5,0.1-0.1,0.8c-0.7,0.7-0.7,0.8,0.1,0.6c0.6-0.2,0.8-0.5,0.8-1.4c0-0.6,0.2-1.2,0.4-1.2s0.4-0.5,0.4-1.2
		c0-0.7,0.2-1.2,0.4-1.2s0.4-0.5,0.4-1.2s0.2-1.3,0.4-1.4s0.4-0.9,0.4-1.6c0-0.8,0.2-1.3,0.4-1.2c0.2,0.1,0.4-0.3,0.4-1
		c0-0.7,0.2-1.2,0.4-1.2s0.4-0.5,0.4-1.2c0-0.7,0.2-1.2,0.4-1.2s0.4-0.5,0.4-1.2s0.2-1.3,0.4-1.4s0.4-0.8,0.4-1.4
		c0-0.6,0.2-1.3,0.4-1.4s0.4-0.7,0.4-1.2c0-0.7,0.2-1,0.8-1c0.4,0,0.9-0.2,1-0.4s0.8-0.4,1.4-0.4c0.6,0,1.2-0.2,1.2-0.4
		s0.5-0.4,1.2-0.4s1.2-0.2,1.2-0.4s0.5-0.4,1.2-0.4c0.7,0,1.2-0.2,1.2-0.4s0.5-0.4,1.2-0.4s1.3-0.2,1.4-0.4s0.9-0.4,1.6-0.4
		c0.8,0,1.4-0.2,1.4-0.4s0.5-0.4,1.2-0.4c0.7,0,1.2-0.2,1.2-0.4s0.5-0.4,1.2-0.4s1.2-0.2,1.2-0.4s0.5-0.4,1.2-0.4s1.2-0.2,1.2-0.4
		s0.6-0.4,1.4-0.4s1.4-0.2,1.4-0.4s0.5-0.4,1.2-0.4c0.7,0,1.2-0.2,1.2-0.4s0.4-0.4,0.8-0.4c0.5,0,0.8-0.3,0.8-0.6
		c0-0.7-1.7-2.6-2.4-2.6c-0.2,0-0.7-0.2-1-0.5c-1.4-1.2-1.8-1.5-2.3-1.5c-0.3,0-0.8-0.4-1.1-0.8s-0.8-0.8-1-0.8
		c-0.2,0-0.7-0.4-1-0.8c-0.3-0.4-0.8-0.8-1.1-0.8c-0.3,0-0.5-0.2-0.5-0.4s-0.2-0.4-0.5-0.4c-0.3,0-0.8-0.4-1.1-0.8s-0.9-0.8-1.2-0.8
		s-0.9-0.4-1.2-0.8c-0.3-0.4-0.8-0.8-1-0.8c-0.2,0-1-0.5-1.7-1.2c-0.7-0.7-1.5-1.2-1.8-1.2c-0.3,0-0.8-0.4-1.1-0.8
		c-0.3-0.4-0.8-0.8-1.1-0.8s-1.1-0.5-1.7-1.1l-1.2-1.1v-14.9v-14.9h-0.9C189.7,131.6,188.8,132.1,188.1,132.8 M66.8,162.6v6.6h6.6
		H80v-6.6V156h-6.6h-6.6V162.6 M178.9,161.8c-0.1,6.4-0.3,5.9,3.1,8.2c1.4,1,3.4,2.4,4.4,3.1c1.9,1.4,2.4,2.6,1.1,2.8
		c-0.4,0.1-1.2,0.3-1.6,0.5s-1.6,0.6-2.6,0.8c-1,0.3-2.1,0.6-2.5,0.8s-0.9,0.4-1.2,0.4c-1.2,0-2.7,1-2.7,1.9c0,0.5-0.2,0.9-0.4,0.9
		s-0.4,0.5-0.4,1c0,0.6-0.2,1.3-0.4,1.7c-0.2,0.4-0.6,1.5-0.8,2.5c-0.3,1-0.6,2.1-0.8,2.5c-0.2,0.4-0.4,1-0.4,1.3
		c0,1.7-1.4,0.2-5.1-5.2l-2.7-4l-6,0c-4.1,0-6-0.2-6.1-0.5c-0.1-0.4,1.2-2.7,1.9-3.3c0.1-0.1,0.7-0.8,1.2-1.6
		c0.5-0.8,1.1-1.5,1.2-1.6c1.9-1.5,2.7-4.9,1.5-6.2c-0.2-0.2-0.3-0.8-0.3-1.3c0-0.5-0.2-1-0.4-1.1c-0.2-0.1-0.4-0.7-0.4-1.2
		s-0.1-1-0.3-1.2c-0.3-0.3-1.3-3-1.3-3.6c0-0.5,2.3-0.4,2.6,0.1c0.1,0.2,0.7,0.4,1.2,0.4c0.5,0,1.1,0.2,1.2,0.4s0.7,0.4,1.2,0.4
		s1.1,0.2,1.2,0.4s0.7,0.4,1.2,0.4c0.5,0,1.1,0.2,1.2,0.4c0.6,1,4.8-0.6,6.2-2.4c0.1-0.1,1.1-0.9,2.2-1.6c1.1-0.8,2.1-1.5,2.1-1.7
		c0.1-0.2,0.5-0.3,1-0.2C179,156.2,179,156.3,178.9,161.8 M323.6,170.9c1.7,0.9,3.4,2.4,3.4,3c0,0.2,0.2,0.6,0.3,1
		c0.5,1.1-0.2,16.3-0.8,17.2c-0.2,0.3-0.4,2.3-0.4,4.5c-0.1,5.8-0.1,6.2-0.6,6.2c-0.2,0-0.4-0.3-0.4-0.7c0-0.4-0.4-1.2-0.9-1.7
		c-0.5-0.5-1.2-1.5-1.5-2.1c-0.3-0.6-0.7-1.1-0.9-1.1c-0.2,0-0.3-0.2-0.3-0.5c0-0.3-0.5-1.1-1.2-1.8c-0.7-0.7-1.2-1.4-1.2-1.6
		c0-0.2-0.4-0.6-0.8-0.9s-0.8-0.8-0.8-1.1s-0.5-1.1-1.2-1.8c-0.7-0.7-1.2-1.5-1.2-1.7c0-0.2-0.4-0.7-0.8-1s-0.8-0.9-0.8-1.2
		c0-0.3-0.4-0.9-0.8-1.2s-0.8-0.8-0.8-1.1c0-0.3-0.2-0.5-0.4-0.5s-0.4-0.2-0.4-0.5c0-0.3-0.4-0.8-0.8-1.1s-0.8-0.8-0.8-1.1
		c0-0.3-0.3-0.9-0.7-1.3c-0.9-1-1-2-0.2-2c0.3,0,0.9-0.3,1.3-0.7c0.4-0.4,1.2-1,1.8-1.4c0.7-0.3,1.6-1,2-1.4s1.3-1,1.9-1.3
		c0.6-0.3,1.1-0.7,1.1-0.9c0-0.2,0.3-0.3,0.8-0.3s0.9-0.2,1-0.4C319,169.7,321.9,170,323.6,170.9 M48.1,181.3l0.1,6.5l6.5,0.1
		l6.5,0.1v-6.6v-6.6h-6.6H48L48.1,181.3 M85.6,181.4v6.6h6.6h6.6v-6.6v-6.6h-6.6h-6.6V181.4 M67.5,193.5c-0.6,0.1-0.7,0.7-0.6,6.6
		l0.1,6.5l6.5,0.1l6.5,0.1v-6.7l0-6.7h-5.9C70.8,193.4,67.9,193.5,67.5,193.5 M257.9,211.1c0.3,0.1,0.5,0.5,0.5,0.9
		c0,0.8,1.1,1.9,1.5,1.5c0.1-0.1,0-0.3-0.3-0.3c-0.3,0-0.4-0.3-0.3-0.8c0.2-0.8-0.7-1.6-1.6-1.6C257.5,210.8,257.6,211,257.9,211.1
		 M178.5,212.5c-0.7,0.8-0.5,1.6,0.3,1.1c0.3-0.2,0.5-0.7,0.4-1C179,211.9,179,211.9,178.5,212.5 M174,213.5c0,0.5,0.2,0.9,0.4,0.9
		c0.2,0,0.3-0.2,0.2-0.6s0-0.7,0.2-0.9c0.2-0.2,0.2-0.4-0.2-0.4C174.2,212.5,174,212.9,174,213.5 M175,214.4
		c-0.1,0.2-0.1,0.6,0.2,0.9c0.3,0.3,0.4,0.2,0.4-0.4C175.6,213.9,175.4,213.8,175,214.4 M260.4,214.6c0,0.4,0.3,1.1,0.6,1.6
		c0.8,1,0.8,0,0-1.4C260.5,213.9,260.4,213.9,260.4,214.6 M337.7,214.9c0.1,0.6,0.3,1.1,0.5,1.1c0.2,0,0.6,0.2,0.9,0.4
		c0.3,0.3,0.5,0.3,0.5,0c0-0.2-0.3-0.5-0.6-0.6c-0.3-0.1-0.8-0.6-1-1.1C337.6,213.8,337.6,213.9,337.7,214.9 M177.5,215.8
		c0.3,0.7-0.3,0.8-1,0.1c-0.4-0.4-0.4-0.3-0.2,0.3c0.5,1.4,0.6,1.5,1.4,0.8c0.9-0.8,1-1.8,0.2-1.8
		C177.5,215.2,177.3,215.4,177.5,215.8 M262,217.3c0,0.6,1.7,2.7,2.2,2.7c0.3,0-0.8-1.9-1.7-2.7C262.1,216.8,262,216.8,262,217.3
		 M343.4,217.2c1.1,0.5,1.4,0.5,1.4,0c0-0.2-0.5-0.4-1.1-0.4C342.7,216.9,342.7,216.9,343.4,217.2 M346.6,218
		c-0.1,0.2,0.1,0.4,0.6,0.4s0.8-0.2,0.8-0.4s-0.3-0.4-0.6-0.4C347.1,217.6,346.7,217.8,346.6,218 M353,219.6c1.1,0.5,1.5,0.5,1.2,0
		c-0.1-0.2-0.6-0.4-1.1-0.4C352.2,219.3,352.2,219.3,353,219.6 M264.4,220.7c0,0.2,0.4,0.8,0.8,1.3s0.8,1,0.8,1.1s0.4,0.6,0.8,1.1
		s0.8,1,0.8,1.2c0,0.2-44,0.3-97.8,0.3H72l-0.2,0.9c-0.1,0.5-0.2,5.3-0.1,10.7l0.1,9.8l0.1-10.3l0.1-10.3l0.9-0.2
		c0.5-0.1,44.7-0.2,98.2-0.2c55.5,0,97.3-0.2,97.3-0.4c0-0.2-0.3-0.6-0.6-0.8c-0.3-0.3-0.6-0.7-0.6-0.9
		C267.2,223.3,264.4,220.1,264.4,220.7 M378.4,226.8c0,0.2,0.4,0.5,0.8,0.6c0.7,0.2,0.7,0.1,0.4-0.4
		C379,226.3,378.4,226.2,378.4,226.8 M381.7,228.9c0.8,0.7,2,2,2.7,2.7c0.8,1,1.1,1.1,0.7,0.4c-0.7-1.3-2.8-3.4-4-4
		C380.5,227.7,380.7,228,381.7,228.9 M353.6,233.6c0,0.2,0.4,0.4,0.9,0.4c0.7,0,0.8-0.1,0.3-0.4C354,233.1,353.6,233.1,353.6,233.6
		 M349.5,236.6c0.4,0.5,0.8,0.8,0.9,0.6c0.1-0.2-0.1-0.6-0.5-1C348.9,235.3,348.7,235.5,349.5,236.6 M389,244.8
		c0,1.3,0.1,2.3,0.2,2.2c0.4-0.2,0.4-4.1,0.1-4.3C389.1,242.6,389,243.5,389,244.8 M357.1,247.1c0.6,0.8,1.3,1.7,1.5,1.9
		c0.4,0.4,0.1,0-1.4-2.5c-0.3-0.5-0.7-0.9-0.9-0.9C356.1,245.6,356.5,246.3,357.1,247.1 M375.5,246.5c-0.3,1.1-0.1,1.3,0.4,0.3
		c0.3-0.4,0.3-0.9,0.1-1C375.8,245.7,375.6,246,375.5,246.5"/>
	<path id="path2" class="st0" d="M48,86.2c0,0.8,1,1.8,1.7,1.8c0.3,0,0.8,0.4,1.1,0.8c0.3,0.5,0.9,1.2,1.3,1.7
		c0.8,0.9,0.9,2.1,0.3,2.5c-0.2,0.1-0.4,1.1-0.4,2.2c0,1.1-0.2,2.1-0.4,2.2c-0.2,0.1-0.4,1.1-0.4,2.2c0,1.1-0.2,2.1-0.4,2.2
		c-0.2,0.1-0.4,1.1-0.4,2.1s-0.2,2.1-0.4,2.3c-0.2,0.2-0.5,1.3-0.6,2.4c-0.1,1.1-0.4,3.1-0.7,4.4s-0.5,3.3-0.7,4.4
		c-0.1,1.1-0.4,2.2-0.6,2.4s-0.4,1.2-0.4,2.3s-0.2,2-0.4,2.1c-0.2,0.1-0.4,0.9-0.4,1.7c0,0.8,0.1,1.3,0.2,1s0.5-0.5,1-0.5
		c0.4,0,0.8-0.2,0.8-0.4s0.4-0.4,0.8-0.4c0.4,0,0.8-0.1,0.8-0.3s0.6-0.6,1.4-0.9c0.8-0.3,1.4-0.7,1.4-0.9s0.4-0.3,0.8-0.3
		c0.4,0,0.8-0.2,0.8-0.4c0-0.2,0.3-0.4,0.8-0.4c0.4,0,0.8-0.1,0.9-0.3c0.1-0.3,1.8-1.2,6.9-3.9c0.9-0.5,1.7-0.9,1.8-1
		s1.5-0.9,3.2-1.7s4.5-2.3,6.4-3.3c1.9-1,3.7-1.8,4-1.8c0.5,0,8.7,3.9,9.2,4.4c0.1,0.1,1.3,0.8,2.6,1.4c5.2,2.6,7.6,4,7.7,4.3
		c0.1,0.2,0.5,0.3,0.9,0.3c0.4,0,0.8,0.1,0.8,0.3c0,0.2,1,0.8,2.2,1.3c1.2,0.5,2.2,1.1,2.2,1.3c0,0.2,0.4,0.3,0.8,0.3
		c0.4,0,0.8,0.2,0.8,0.4s0.4,0.4,0.8,0.4c0.4,0,0.8,0.2,0.8,0.4c0,0.2,0.2,0.4,0.4,0.4s1,0.4,1.6,0.8c1.4,1,1.8,0.8,1.2-0.7
		c-0.3-0.6-0.5-1.8-0.5-2.8c0-1-0.2-1.9-0.4-2s-0.4-1.2-0.4-2.4c0-1.2-0.2-2.2-0.4-2.2c-0.2,0-0.4-1-0.4-2.2s-0.2-2.3-0.4-2.4
		c-0.2-0.1-0.4-1.1-0.4-2.2c0-1.1-0.2-2.1-0.4-2.2c-0.2-0.1-0.4-1.1-0.4-2.2c0-1.1-0.2-2.1-0.4-2.2s-0.4-1.2-0.4-2.4
		c0-1.2-0.2-2.2-0.4-2.2s-0.4-1-0.4-2.2c0-1.2-0.2-2.2-0.4-2.2c-1.5,0-0.3-3.3,2-5.6c1.3-1.3,2.4-2.5,2.4-2.6s-13.8-0.2-30.6-0.2
		C51,85.6,48,85.7,48,86.2 M206,88.3c0,1.5,0.2,2.9,0.4,3.1c0.2,0.2,0.5,1.5,0.6,2.8c0.8,10.3,1.1,10.7,4.3,7.1
		c8.6-9.4,13.5-13.5,13.5-11.3c0,0.2,1,0.4,2.2,0.4s2.2,0.2,2.2,0.4c0,0.2,1.1,0.4,2.4,0.4c1.3,0,2.4,0.2,2.4,0.4
		c0,0.2,1,0.4,2.2,0.4c1.2,0,2.3,0.2,2.4,0.4c0.1,0.2,1.2,0.4,2.4,0.4c1.3,0,2.2,0.2,2.3,0.5c0.1,0.3,0.2,0.2,0.2-0.2
		c0-0.4-0.1-0.7-0.4-0.7s-0.4-0.3-0.4-0.6c0-0.3-0.2-0.6-0.4-0.6s-0.4-0.4-0.4-0.8c0-0.4-0.2-0.8-0.4-0.8s-0.4-0.3-0.4-0.7
		c0-0.4-0.4-1-0.8-1.3c-0.4-0.3-0.8-0.9-0.8-1.3c0-0.7-1-0.7-16.8-0.7H206V88.3 M258.8,137.2c-0.4,0.3-0.2,0.3,0.8,0.1
		c1.7-0.3,2.1-0.5,0.8-0.5C259.8,136.8,259.1,137,258.8,137.2 M255.2,139.2l-1,0.8l1.1-0.5c0.6-0.3,1.1-0.6,1.1-0.8
		C256.4,138.3,256.3,138.3,255.2,139.2 M268.6,144.8c0.6,1.1,3.4,4.8,3.6,4.8c0.1,0-0.6-1-1.5-2.3C269,144.9,268,143.8,268.6,144.8
		 M241,149.4l-1.2,1l1.3-0.9c0.7-0.5,1.3-0.9,1.3-1C242.4,148.3,242.2,148.4,241,149.4 M274,152.4c1.2,1.8,1.2,1.8,1.2,1.4
		c0-0.2-0.5-0.9-1-1.6l-1-1.2L274,152.4 M234.5,154c-1,0.9-1.1,1.4-0.4,1.8c0.3,0.2,0.4,0.1,0.2-0.2c-0.2-0.3,0.1-0.9,0.6-1.5
		C235.9,153,235.7,152.9,234.5,154 M176.8,157.5c0,0.2-0.5,0.6-1.2,1c-0.7,0.4-1.4,0.9-1.7,1.2c-3,2.8-6,4.4-6.5,3.5
		c-0.1-0.2-0.7-0.4-1.2-0.4s-1.1-0.2-1.2-0.4s-0.7-0.4-1.2-0.4s-1.1-0.2-1.2-0.4c-0.1-0.2-0.7-0.4-1.2-0.4c-0.5,0-1.1-0.2-1.2-0.4
		c-0.5-0.8-2.3-0.5-2,0.3c0.2,0.4,0.4,1.2,0.5,1.8c0.1,0.6,0.3,1.1,0.5,1.1c0.2,0,0.4,0.4,0.4,1s0.2,1.1,0.4,1.2s0.4,0.7,0.4,1.2
		c0,0.5,0.2,1.1,0.4,1.2c0.7,0.4,0.5,2.8-0.3,3.6c-0.4,0.4-1.1,1.4-1.7,2.2c-0.5,0.8-1.1,1.5-1.2,1.6c-0.4,0.3-2.8,3.9-2.8,4.2
		c0,0.2,2.5,0.2,5.6,0.1c6.5-0.3,5.7-0.7,9.4,4.9c2.6,3.9,3.4,4.6,3.4,3.1c0-0.5,0.2-1.1,0.4-1.2s0.4-0.7,0.4-1.2s0.2-1.1,0.4-1.2
		c0.2-0.1,0.4-0.8,0.4-1.4s0.2-1.3,0.4-1.4s0.4-0.6,0.4-1c0-1.3,1.2-2.8,2.2-2.8c0.5,0,1-0.2,1.2-0.4s0.6-0.4,1-0.4
		c0.4,0,1.1-0.2,1.5-0.4c0.4-0.2,1.5-0.6,2.5-0.8c1-0.3,2-0.5,2.3-0.6c1.1-0.3,0.7-0.7-5.6-5.1l-2.7-1.9v-5.6c0-4.7-0.1-5.6-0.6-5.6
		C177.1,157.2,176.8,157.3,176.8,157.5 M241.2,165.8c0,0.2,0.5,0.9,1,1.6l1,1.2l-0.9-1.4C241.2,165.4,241.2,165.4,241.2,165.8
		 M245.8,172.6c1,1.4,1.9,2.6,2,2.6c0.3,0-3-4.7-3.4-5C244.2,170.1,244.8,171.1,245.8,172.6 M289.2,173.8c0.7,1,1.4,1.9,1.6,2
		c0.2,0.1-0.2-0.7-1-1.8C288,171.5,287.5,171.3,289.2,173.8 M251.6,180.7c1,1.4,1.9,2.6,2.2,2.8c0.5,0.3-2.4-3.8-3.3-4.7
		C250.1,178.5,250.7,179.3,251.6,180.7 M298,186.2c0.8,1,1.5,2,1.8,2.1c0.2,0.1-0.2-0.6-1-1.7c-0.8-1-1.5-2-1.8-2.1
		C296.8,184.4,297.3,185.1,298,186.2 M256.6,187.8c1.4,1.8,1.6,1.8,0.5,0c-0.5-0.8-1-1.4-1.2-1.4C255.7,186.4,256,187,256.6,187.8
		 M302.6,192.6c1.1,1.5,2.3,3.2,2.7,3.6c0.4,0.4-0.2-0.6-1.3-2.2s-2.4-3.3-2.7-3.6C301,190.1,301.5,191.1,302.6,192.6 M260,192.2
		c0,0.4,2.4,3.8,2.6,3.8c0.1,0-0.4-0.9-1.1-1.9C260,191.8,260,191.8,260,192.2 M307.9,200.1c0.7,1,1.5,2,1.7,2.1
		c0.3,0.2-0.1-0.6-0.9-1.6C307,198.2,306.3,197.7,307.9,200.1 M265.6,200.4c0.5,0.7,0.9,1.2,1.1,1.2c0.1,0-0.2-0.5-0.7-1.2
		c-0.5-0.7-0.9-1.2-1.1-1.2C264.8,199.2,265.1,199.7,265.6,200.4 M312.6,206.9c0.1,0.3-0.3,0.8-0.8,1.1c-0.6,0.3-0.9,0.6-0.8,0.7
		c0.1,0.1,0.6-0.1,1.2-0.5c1-0.7,1.4-1.8,0.6-1.8C312.6,206.4,312.5,206.6,312.6,206.9 M306.5,211.7c-0.7,0.5-1.3,1-1.3,1.2
		c0,0.2,0.6-0.2,1.4-0.7c0.8-0.6,1.4-1.1,1.4-1.2C308,210.7,307.9,210.8,306.5,211.7 M275.6,214.2c0,0.2,0.5,0.9,1,1.6l1,1.2
		l-0.9-1.4C275.6,213.8,275.6,213.8,275.6,214.2 M300,216.4c-3.1,2.3-3.5,2.8-0.5,0.7c2.1-1.5,3.3-2.4,2.8-2.4
		C302.3,214.8,301.2,215.6,300,216.4 M318.6,218.5c-0.7,0.5-2.6,1.9-4.4,3.1c-1.7,1.2-3.4,2.4-3.8,2.6c-0.4,0.2-0.7,0.5-0.8,0.6
		c-0.1,0.1-1.4,1-2.8,2c-1.4,1-2.8,1.9-3.1,2.2c-0.3,0.2-2.9,2.1-5.9,4.2c-6.3,4.4-6,3.8-3.5,7.2c1.1,1.4,3.4,4.7,5.2,7.2
		c1.8,2.6,3.5,4.8,3.8,5.1c0.5,0.4,6.3-3.3,9.5-6.1c0.4-0.3,1.8-1.3,3.2-2.3c1.4-0.9,2.8-1.9,3.2-2.2c0.4-0.3,3.2-2.3,6.3-4.6
		c3.1-2.2,5.7-4.2,5.7-4.4c0-0.4-3.1-5.2-3.6-5.6c-0.1-0.1-1-1.4-2-2.8c-1-1.4-2-2.8-2.3-3.2c-0.3-0.4-1.1-1.4-1.7-2.3
		C320.2,217.4,320.2,217.4,318.6,218.5 M280.2,221c1,1.4,1.9,2.6,2,2.6c0.3,0-3-4.7-3.5-5C278.6,218.5,279.2,219.5,280.2,221
		 M295.4,219.8l-1.2,1l1.3-0.9c0.7-0.5,1.3-0.9,1.3-1C296.8,218.7,296.6,218.8,295.4,219.8 M292.4,221.8c-0.8,0.5-1.2,1-1,1
		c0.2,0,0.9-0.4,1.6-1C294.5,220.5,294.2,220.6,292.4,221.8 M289.4,224.1l-0.8,0.9l1.1-0.7c1.1-0.7,1.3-1,0.8-1
		C290.3,223.2,289.8,223.6,289.4,224.1 M286.9,225.8c-1.9,1.3-2.1,1.7-0.6,0.8c0.7-0.4,1.5-1,1.7-1.3
		C288.7,224.6,288.4,224.7,286.9,225.8 M84.6,279.6c0,22.8,0,32.1,0.1,20.7c0.1-11.4,0.1-30,0-41.4
		C84.6,247.5,84.6,256.8,84.6,279.6 M173.2,313v74.6l-37.1,0.1L99,387.8l37.3,0.1l37.3,0.1v-74.8c0-41.1-0.1-74.8-0.2-74.8
		S173.2,272,173.2,313 M185.4,312.9c-0.2,43.4-0.1,74.6,0.1,74.8c0.2,0.2,4.8,0.3,10.1,0.2l9.8-0.1l0.1-19.4
		c0.1-10.7,0-44.3-0.1-74.7l-0.3-55.3h-9.7h-9.7L185.4,312.9 M217.3,313.1l-0.1,74.9l37.3-0.1l37.3-0.1l-37.1-0.1l-37.1-0.1
		l-0.1-74.7l-0.1-74.7L217.3,313.1 M282.4,245c1.8,2.5,2.5,2.9,0.8,0.5c-0.7-1-1.5-2-1.7-2.1C281.3,243.2,281.7,243.9,282.4,245
		 M336.6,244.6l-1.2,1l1.4-0.9c1.8-1.2,1.8-1.2,1.4-1.2C338,243.6,337.3,244.1,336.6,244.6 M333.7,246.5c-0.6,0.5-2.2,1.7-3.6,2.6
		c-1.4,0.9-2.6,1.8-2.7,2.1c-0.1,0.2,1.2-0.6,2.9-1.8c3.7-2.6,5.2-3.8,4.8-3.8C335,245.6,334.4,246,333.7,246.5 M341.2,246.8
		c1.2,1.8,1.2,1.8,1.2,1.4c0-0.2-0.5-0.9-1-1.6l-1-1.2L341.2,246.8 M286.4,250.5c1.1,1.7,2.5,3.6,3,4.2c0.5,0.6,0-0.3-1.1-1.9
		c-1.1-1.7-2.5-3.6-3-4.2C284.8,247.9,285.3,248.8,286.4,250.5 M345.2,252.4c1.2,1.8,1.2,1.8,1.2,1.3c0-0.2-0.5-0.9-1-1.6l-1-1.1
		L345.2,252.4 M322.6,254.4c-2.4,1.8-2.7,2.3-0.5,0.7c1.7-1.2,2.6-2,2.2-2C324.3,253.2,323.5,253.8,322.6,254.4 M291.2,257.2
		c1.2,1.8,1.2,1.8,1.2,1.4c0-0.2-0.5-0.9-1-1.6l-1-1.2L291.2,257.2 M350.4,259.6c1.1,1.6,2.5,3.5,3,4.2c0.6,0.7,0.1-0.2-1.1-1.9
		c-1.1-1.7-2.5-3.6-3.1-4.2C348.8,257.1,349.3,258,350.4,259.6 M315.8,259.3c-2.4,1.8-2.7,2.3-0.5,0.8c1-0.7,2-1.4,2.1-1.7
		C317.8,257.8,317.6,257.9,315.8,259.3 M292.8,259.5c0,0.2,0.4,0.7,0.9,1.1l0.9,0.8l-0.7-1.1C293.1,259.2,292.8,259,292.8,259.5
		 M295.9,263.9c0.9,1.4,1.9,2.6,2.1,2.8c0.3,0.2-0.2-0.7-1.1-1.9C294.8,261.6,294,261,295.9,263.9 M311.1,262.7
		c-0.5,0.5-0.3,1.6,0.4,2.2c0.6,0.5,0.6,0.5,0.2-0.1c-0.3-0.4-0.5-1.1-0.3-1.5C311.5,262.3,311.5,262.2,311.1,262.7 M356,267.5
		c1,1.4,1.9,2.6,2.2,2.8c0.5,0.3-2.4-3.8-3.3-4.7C354.5,265.3,355.1,266.1,356,267.5 M314,268.5c1.2,1.7,2.5,3.6,3.1,4.2
		c0.5,0.6-0.1-0.4-1.3-2.3c-1.3-1.9-2.6-3.8-3.1-4.2C312.3,265.8,312.9,266.8,314,268.5 M301.2,271.4c1.2,1.7,2.4,3.3,2.7,3.5
		c0.3,0.2-0.5-1-1.7-2.8c-1.2-1.8-2.4-3.4-2.7-3.5C299.3,268.4,300,269.7,301.2,271.4 M359.9,273.1c0.9,1.4,1.9,2.6,2.1,2.8
		c0.3,0.2-0.2-0.7-1.1-1.9C358.8,270.8,358,270.2,359.9,273.1 M305.2,276.6c0.7,1,0.8,2,0.9,5.4l0.1,4.2l0.1-4.2
		c0.1-4,0-4.3-0.9-5.4l-1-1.2L305.2,276.6 M320.6,277.8c1.4,1.8,1.6,1.8,0.5,0c-0.5-0.8-1-1.4-1.2-1.4
		C319.7,276.4,320,277,320.6,277.8 M364.3,279.3c0.7,1,1.5,2,1.7,2.1c0.3,0.2-0.1-0.6-0.9-1.6C363.4,277.4,362.7,276.9,364.3,279.3
		 M325,284c0.8,1.1,1.5,2,1.6,2c0.3,0-2.4-4-2.7-4C323.7,282,324.2,282.9,325,284 M366.4,282c0,0.1,1.2,1.8,2.6,3.8
		c1.4,2,3.5,5,4.7,6.7c1.2,1.7,2.2,3.1,2.4,3.1c0.2,0-0.4-0.9-1.2-2.1c-0.8-1.2-1.8-2.5-2.1-2.9C368.6,284.6,366.4,281.6,366.4,282
		 M329.8,290.7c2.2,3.1,4.5,6,3.3,4.2c-1.8-2.8-5-7.3-5.2-7.3C327.8,287.6,328.6,289,329.8,290.7 M334.8,297.8c0.8,1,1.5,2,1.8,2.1
		c0.2,0.1-0.2-0.6-1-1.7c-0.8-1-1.5-2-1.8-2.1C333.6,296,334.1,296.7,334.8,297.8 M378.8,299.5c1,1.4,1.9,2.6,2.2,2.8
		c0.5,0.3-2.4-3.8-3.3-4.7C377.3,297.3,377.9,298.1,378.8,299.5 M339,303.6c2.3,3.2,3,3.8,1.1,0.9c-0.9-1.4-1.9-2.6-2.1-2.8
		C337.6,301.6,338.1,302.4,339,303.6 M383.3,305.8c1.8,2.5,2.3,2.7,0.7,0.2c-0.7-1.1-1.5-2-1.7-2C382.1,304,382.5,304.8,383.3,305.8
		 M344.6,311.5c1.2,1.7,3.1,4.4,4.2,5.9c2,2.9,3.9,5.2,3.4,4.2c-0.2-0.3-1.4-2-2.7-3.8c-1.3-1.8-3.3-4.6-4.4-6.3
		c-1.1-1.7-2.2-3.1-2.4-3.1C342.5,308.4,343.4,309.8,344.6,311.5 M385.8,309.2c1.9,2.9,2.3,4.2,2.1,5.7c-0.1,1.1-0.1,1.4,0.1,1
		c0.9-1.4,0-4.4-2.1-6.8l-0.9-1L385.8,309.2 M387.1,317.4c-0.1,0.3-1.5,1.5-3.1,2.6c-1.6,1.1-2.8,2-2.6,2c1,0,6.6-4.6,6.2-5
		C387.4,316.9,387.2,317,387.1,317.4 M378.1,324.1c-1.4,0.9-2.5,1.8-2.5,2c0,0.2,0.8-0.3,1.9-1c1-0.7,2.3-1.6,2.9-2s0.8-0.7,0.6-0.7
		C380.8,322.4,379.5,323.2,378.1,324.1 M355,326.2c1.4,1.8,1.6,1.8,0.5,0c-0.5-0.8-1-1.4-1.2-1.4C354.1,324.8,354.4,325.4,355,326.2
		 M358.6,331.2c3.7,5.3,3.1,5,5.9,3.1c1.3-0.9,2.5-1.9,2.6-2.1c0.1-0.2-0.9,0.4-2.3,1.4c-2.9,2.1-2.5,2.3-5.5-2.1
		c-1.1-1.7-2.3-3.2-2.6-3.4C356.5,328,357.3,329.4,358.6,331.2 M370.7,329.3c-1,0.7-1.9,1.4-1.9,1.6c0,0.3,3.5-2.1,3.9-2.6
		C372.9,327.8,372.8,327.9,370.7,329.3 M306.4,353.4c-0.2,16.3-0.3,21.1-0.7,22c-1.7,3.8-2.4,5-4.2,6.9c-1.9,2.1-6.2,4.6-8.7,5
		c-1,0.2-1,0.2,0.1,0.2c0.6,0,1.4-0.1,1.8-0.3c0.4-0.2,1.6-0.8,2.6-1.3c3.6-1.8,6.8-5.5,8.6-10.1c0.6-1.6,1.3-33.2,0.8-40.9
		C306.6,333.7,306.5,342,306.4,353.4 M84.4,372.6c0,0.9,0.2,1.8,0.4,2.2c0.3,0.4,0.3,0,0.1-1.4C84.6,370.9,84.4,370.6,84.4,372.6
		 M86,378.2c0,0.9,3.6,5,5.4,6.2c0.7,0.4,0.4,0.1-0.7-0.8c-1-0.9-2.4-2.5-3.1-3.6C86.4,378.1,86,377.7,86,378.2 M92.8,385.4
		c0,0.4,4.4,2.2,5.3,2.2c0.5,0-0.1-0.3-1.3-0.7c-1.2-0.4-2.6-0.9-3.1-1.2C93.2,385.4,92.8,385.3,92.8,385.4"/>
	<path id="path3" class="st0" d="M258.6,137.5c-0.5,0.1-1.3,0.6-2,1.2c-0.6,0.5-1.3,1-1.5,1s-0.5,0.2-0.8,0.5
		c-0.3,0.3-1.4,1.1-2.5,1.9c-1.1,0.7-2.6,1.8-3.4,2.4c-0.8,0.6-4.1,3-7.5,5.4c-7.8,5.5-7.4,4.9-5.5,7.7c0.9,1.3,1.7,2.4,1.8,2.5
		c0.1,0.1,1,1.4,2,2.8c1,1.4,1.9,2.7,2,2.8s0.9,1.1,1.6,2.2c0.7,1.1,1.8,2.6,2.4,3.4s3.1,4.3,5.5,7.8c2.5,3.5,4.7,6.7,5,7
		c0.3,0.4,1.3,1.8,2.3,3.2c1,1.4,1.8,2.7,2,2.8s1,1.3,1.9,2.6c1.7,2.5,9,12.9,9.6,13.6c0.2,0.2,1.1,1.6,2.1,3c1,1.4,1.9,2.7,2,2.8
		c0.1,0.1,0.8,1.1,1.6,2.2c0.7,1.1,1.8,2.6,2.4,3.4c0.6,0.8,2,2.8,3.2,4.5l2.2,3.1l2.4-1.7c1.3-0.9,2.7-1.8,3-2.1
		c0.4-0.2,0.7-0.5,0.8-0.6c0.1-0.1,3.1-2.2,6.6-4.7c3.5-2.5,6.7-4.7,7-5c0.4-0.3,1.8-1.3,3.2-2.3c1.4-1,2.8-2,3.1-2.2
		c0.3-0.3,0.8-0.7,1.2-0.9c0.7-0.4,0.2-1.2-5-8.5c-7-9.8-13-18.3-13.5-19c-0.2-0.3-0.6-0.9-0.9-1.3c-0.7-0.9-4-5.5-5.8-8.1
		c-0.8-1.2-2.9-4-4.5-6.3c-1.6-2.3-3.1-4.4-3.3-4.6c-0.2-0.2-1.1-1.6-2.1-3c-1-1.4-1.9-2.7-2-2.8c-0.1-0.1-1-1.3-1.9-2.6
		c-0.9-1.3-2.8-3.9-4.1-5.8c-1.3-1.9-2.7-3.9-3.1-4.4C264,138,261.5,136.8,258.6,137.5 M84.7,304.3c-0.3,64.9-0.2,68.4,1,72.1
		c1.3,4,5.6,8.4,9.9,10.1l2.3,0.9l37.7,0.1l37.7,0.1V313v-74.6h-44.1H84.9L84.7,304.3 M217.6,313v74.6l37.9-0.1l37.9-0.1l3.1-1.5
		c4.4-2.2,7.1-5.3,9.2-10.7c0.4-1.1,0.5-10,0.5-49.2v-47.8l-1.3-1.8c-4.2-5.8-11.2-15.6-11.9-16.7c-0.2-0.3-0.6-0.9-0.9-1.2
		c-0.4-0.5-11.7-16.4-13.8-19.3c-0.5-0.7-2.4-0.7-30.6-0.7h-30.1V313 M338.3,243.5c-0.1,0.2-1.2,1.1-2.5,2c-1.3,0.9-3.2,2.2-4.2,2.9
		c-1,0.7-4.2,3-7.2,5.1c-3,2.1-5.5,3.9-5.6,4c-0.1,0.1-0.5,0.4-0.8,0.6c-6.6,4.1-7.4,5.1-5.7,7.4c0.6,0.8,2.5,3.4,4.2,5.8
		c1.7,2.4,3.2,4.6,3.4,4.8c0.2,0.2,1.1,1.6,2.1,3c1,1.4,1.9,2.7,2,2.8s1,1.4,2,2.8c1,1.4,1.9,2.8,2.2,3.1c0.2,0.2,1.5,2,2.8,3.9
		c1.3,1.9,3.5,5,4.9,6.9s3.4,4.8,4.6,6.5c1.1,1.6,2.2,3.1,2.3,3.2c0.1,0.1,1.2,1.6,2.3,3.2c1.1,1.6,3.1,4.4,4.4,6.2
		c1.3,1.8,2.9,4,3.5,5c0.7,1,1.4,2.1,1.7,2.4c1.5,1.9,3.4,4.5,4.9,6.8c1,1.4,1.9,2.8,2.2,3c0.3,0.4,6.1-3.1,7-4.3
		c0.1-0.1,1.6-1.2,3.4-2.4c1.8-1.2,3.3-2.3,3.4-2.4c0.1-0.1,1.4-1.1,2.8-2s2.7-1.9,2.8-2c0.1-0.1,1.4-1.1,2.9-2.1
		c4.8-3.4,5-5.7,1.3-11c-4.2-5.9-8.7-12.3-9.2-12.9c-0.3-0.4-1.5-2-2.6-3.6c-1.1-1.6-3.2-4.6-4.6-6.5c-1.4-2-3.3-4.6-4.1-5.8
		c-0.8-1.2-2.2-3.2-3.1-4.4c-3.5-4.8-12.5-17.5-13.8-19.4c-0.7-1.1-1.5-2.1-1.6-2.2s-1-1.4-2-2.8c-1-1.4-1.9-2.7-2-2.8
		s-1-1.3-1.9-2.7C338.7,243.1,338.6,243,338.3,243.5"/>
	<path id="path4" class="st0" d="M70.3,43.5c-4.5,9.1-8.4,16.6-8.7,16.7c-0.5,0.2-13,2.1-20.2,3c-13.6,1.9-15.1,2.1-15.3,2.6
		c-0.1,0.2,2.7,3.2,6.2,6.6c3.5,3.4,9.3,9,12.9,12.6l6.5,6.4l-0.2,2c-0.1,1.1-0.4,3-0.7,4.2s-0.6,3.3-0.8,4.6
		c-0.9,5.7-1.2,7.1-2,11.6c-0.5,2.6-1,5.8-1.2,7c-0.7,4-1.1,6.6-0.9,6.8c0.2,0.2,6-2.7,23.5-12c2.6-1.4,5.8-3,7-3.6l2.2-1.1l5,2.6
		c2.8,1.4,6.3,3.3,7.8,4.1c1.5,0.8,4.8,2.5,7.2,3.8c2.4,1.3,6.1,3.2,8.1,4.3c4.6,2.5,4.6,2.5,3.6-3.9c-0.8-4.4-0.9-4.9-1-3.2
		c-0.1,1.1,0.1,2.1,0.3,2.4c0.2,0.2,0.4,1.2,0.4,2.1c0,0.9,0.2,2.2,0.5,2.7c0.6,1.4,0.2,1.7-1.2,0.7c-0.7-0.5-1.4-0.8-1.6-0.8
		s-0.4-0.2-0.4-0.4c0-0.2-0.4-0.4-0.8-0.4c-0.4,0-0.8-0.2-0.8-0.4s-0.4-0.4-0.8-0.4c-0.4,0-0.8-0.1-0.8-0.3c0-0.2-1-0.8-2.2-1.3
		c-1.2-0.6-2.2-1.1-2.2-1.3c0-0.2-0.3-0.3-0.8-0.3c-0.4,0-0.8-0.1-0.9-0.3c-0.1-0.3-2.6-1.6-7.7-4.3c-1.3-0.7-2.5-1.3-2.6-1.4
		c-0.5-0.5-8.7-4.4-9.2-4.4c-0.3,0-2.1,0.8-4,1.8c-1.9,1-4.7,2.5-6.4,3.3s-3.1,1.6-3.2,1.7c-0.2,0.2-2.5,1.5-7,3.8
		c-0.9,0.5-1.7,1-1.7,1.1c-0.1,0.2-0.5,0.3-0.9,0.3c-0.4,0-0.8,0.2-0.8,0.4c0,0.2-0.4,0.4-0.8,0.4c-0.4,0-0.8,0.1-0.8,0.3
		s-0.6,0.6-1.4,0.9c-0.8,0.3-1.4,0.7-1.4,0.9s-0.4,0.3-0.8,0.3c-0.4,0-0.8,0.2-0.8,0.4s-0.3,0.4-0.8,0.4c-0.4,0-0.9,0.2-1,0.5
		s-0.2-0.2-0.2-1c0-0.8,0.1-1.6,0.4-1.7c0.2-0.1,0.4-1.1,0.4-2.1s0.2-2.1,0.4-2.3s0.5-1.3,0.6-2.4c0.1-1.1,0.4-3.1,0.7-4.4
		s0.5-3.3,0.7-4.4c0.1-1.1,0.4-2.2,0.6-2.4c0.2-0.2,0.4-1.2,0.4-2.3s0.2-2,0.4-2.1c0.2-0.1,0.4-1.1,0.4-2.2c0-1.1,0.2-2.1,0.4-2.2
		c0.2-0.1,0.4-1.1,0.4-2.2c0-1.1,0.2-2.1,0.4-2.2c0.6-0.4,0.5-1.6-0.3-2.5c-0.4-0.5-1-1.2-1.3-1.7C50.5,88.4,50,88,49.7,88
		C49,88,48,87,48,86.2c0-0.6,3-0.6,30.6-0.6c16.8,0,30.6,0.1,30.6,0.2s-1.1,1.3-2.4,2.6c-2.3,2.3-3.5,5.6-2,5.6c0.2,0,0.4,1,0.4,2.2
		c0,1.2,0.2,2.2,0.4,2.2s0.4,1,0.4,2.2c0,1.2,0.2,2.3,0.4,2.4s0.4,1.1,0.4,2.2c0,1.1,0.2,2.1,0.4,2.2c0.2,0.1,0.4,1.1,0.4,2.2
		c0,1.1,0.2,2.1,0.4,2.2c0.2,0.1,0.4,1.2,0.4,2.4s0.2,2.2,0.4,2.2c0.6,0,0.6,0.2-1.2-10.3c-0.9-5.2-1.8-10.6-2-12.1l-0.4-2.6
		l6.3-6.2c21.2-20.7,20.6-20,18.5-20c-0.2,0-2.9-0.4-6-0.8c-3.1-0.5-10.9-1.6-17.3-2.5L95,60.2l-8.3-16.6L78.5,27L70.3,43.5
		 M207.6,44.5c-0.2,0.6-0.4,1.5-0.4,2c0,0.5-0.2,1.9-0.4,3.1c-0.2,1.2-0.6,3.4-0.8,5c-1.7,11.7-0.1,9.6-11.5,15.2
		c-5.2,2.5-9.3,4.7-9.1,4.9c0.1,0.1,4.4,2.3,9.5,4.9c10.3,5.1,9.7,4.6,10.3,9.2c0.3,1.9,0.6,4.3,0.8,5.4c0.2,1.1,0.6,3.9,0.9,6.1
		c0.8,6.3,0.3,6.5,8.8-2.3l7.4-7.7l9.4,1.6c10.2,1.8,10.7,1.8,10.7,1.2c0-0.2-1-0.4-2.2-0.4c-1.2,0-2.3-0.2-2.4-0.4
		c-0.1-0.2-1.2-0.4-2.4-0.4c-1.2,0-2.2-0.2-2.2-0.4c0-0.2-1.1-0.4-2.4-0.4c-1.3,0-2.4-0.2-2.4-0.4c0-0.2-1-0.4-2.2-0.4
		s-2.2-0.2-2.2-0.4c0-2.1-4.9,2-13.5,11.3c-3.3,3.6-3.5,3.2-4.3-7.1c-0.1-1.3-0.4-2.6-0.6-2.8c-0.2-0.2-0.4-1.6-0.4-3.1v-2.7h16.8
		c15.8,0,16.8,0,16.8,0.7c0,0.4,0.4,1,0.8,1.3c0.4,0.3,0.8,0.9,0.8,1.3c0,0.4,0.2,0.7,0.4,0.7s0.4,0.4,0.4,0.8
		c0,0.4,0.2,0.8,0.4,0.8s0.4,0.3,0.4,0.6c0,0.3,0.2,0.6,0.4,0.6s0.4,0.4,0.4,0.9c0,0.6,0.1,0.7,0.4,0.5c0.3-0.3-0.4-2-2.1-5.2
		c-1.4-2.6-3.6-6.8-4.9-9.4l-2.4-4.6l0.8-1.6c0.4-0.9,2.6-5,4.8-9.2c2.2-4.2,4.1-7.8,4.1-8c0.2-0.4-2.9-0.1-6.8,0.5
		c-1.2,0.2-3.2,0.5-4.4,0.7c-1.2,0.2-4,0.7-6.2,1.1l-4,0.7l-7.5-7.8l-7.5-7.8L207.6,44.5 M264.7,139.1c0.7,0.9,1.4,1.7,1.5,1.7
		c0.3,0-1.4-2.2-2.1-2.8C263.7,137.7,264,138.2,264.7,139.1 M252.2,141c-1.1,0.8-2.3,1.7-2.6,2c-0.3,0.4,0.6-0.2,2.1-1.2
		c1.5-1,2.7-1.9,2.7-2C254.4,139.5,254.3,139.5,252.2,141 M246.6,145c-1.1,0.8-2.3,1.7-2.6,2c-0.3,0.4,0.6-0.2,2.1-1.2
		c1.5-1,2.7-1.9,2.7-2C248.8,143.5,248.7,143.5,246.6,145 M268.4,143.8c0,0.2,0.5,0.9,1,1.6l1,1.2l-0.9-1.4
		C268.4,143.4,268.4,143.4,268.4,143.8 M239.2,150.4l-1.4,1.2l1.5-1.1c1.3-1,1.8-1.4,1.4-1.4C240.6,149.2,239.9,149.8,239.2,150.4
		 M272.4,149.4c0,0.2,0.5,0.9,1,1.6l1,1.2l-0.9-1.4C272.4,149,272.4,149,272.4,149.4 M233.5,154.6c-0.3,0.7,0.1,1.8,0.6,1.8
		c0.3,0,0.2-0.2,0-0.5c-0.3-0.3-0.3-0.8-0.2-1.2c0.1-0.4,0.2-0.7,0.1-0.7S233.6,154.3,233.5,154.6 M173.6,159.4
		c-4.8,3.8-4.5,3.7-10.5,1.8c-6-2-6-2-5,0.6c0.4,1.1,0.7,1.6,0.6,1c-0.1-0.6-0.3-1.3-0.4-1.7c-0.3-0.8,1.5-1.1,2-0.3
		c0.1,0.2,0.7,0.4,1.2,0.4c0.5,0,1.1,0.2,1.2,0.4c0.1,0.2,0.7,0.4,1.2,0.4s1.1,0.2,1.2,0.4s0.7,0.4,1.2,0.4s1.1,0.2,1.2,0.4
		c0.6,0.9,3.6-0.7,6.5-3.5c0.3-0.3,1-0.8,1.7-1.2c0.7-0.4,1.2-0.8,1.2-1c0-0.2,0.3-0.3,0.6-0.3c0.5,0,0.6,0.9,0.6,5.6v5.6l2.7,1.9
		c6.3,4.4,6.7,4.8,5.6,5.1c-0.3,0.1-1.3,0.4-2.3,0.6c-1,0.3-2.1,0.6-2.5,0.8c-0.4,0.2-1,0.4-1.5,0.4c-0.4,0-0.9,0.2-1.1,0.5
		c-0.3,0.5-0.4,0.5,4.9-1.1c4.5-1.4,4.5-1.5,0.6-4.2c-1.7-1.2-3.8-2.6-4.6-3.3l-1.5-1.2v-5.8C178.4,155.3,178.7,155.5,173.6,159.4
		 M278,157.6c0.5,0.7,0.9,1.2,1.1,1.2c0.1,0-0.2-0.5-0.7-1.2c-0.5-0.7-0.9-1.2-1.1-1.2C277.2,156.4,277.5,156.9,278,157.6
		 M237.8,161.8c1,1.4,1.9,2.6,2,2.6c0.3,0-3-4.7-3.4-5C236.2,159.3,236.8,160.3,237.8,161.8 M283.2,165c0.8,1,1.5,2,1.8,2.1
		c0.2,0.1-0.2-0.6-1-1.7c-0.8-1-1.5-2-1.8-2.1C282,163.2,282.5,163.9,283.2,165 M158.8,164.1c0,0.1,0.4,1.5,1,3.1
		c1.3,3.8,1.5,3.2-2.4,8.4c-1.9,2.5-3.3,4.6-3.2,4.7c0.2,0.2,0.1,0.3,1.8-2.1c0.7-1.1,1.4-2.1,1.6-2.2c0.1-0.1,0.7-0.8,1.2-1.6
		c0.5-0.8,1.3-1.7,1.7-2.2c0.8-0.8,1-3.2,0.3-3.6c-0.2-0.1-0.4-0.7-0.4-1.2c0-0.5-0.2-1.1-0.4-1.2s-0.4-0.7-0.4-1.2s-0.2-1-0.4-1
		S158.8,164.1,158.8,164.1 M240.8,166c0.5,0.7,0.9,1.2,1.1,1.2s-0.2-0.5-0.7-1.2s-0.9-1.2-1.1-1.2S240.3,165.3,240.8,166
		 M243.6,169.9c1,1.4,1.9,2.6,2.2,2.8c0.5,0.3-2.4-3.8-3.3-4.7C242.1,167.7,242.7,168.5,243.6,169.9 M287.2,170.6
		c0.8,1,1.5,2,1.8,2.1c0.2,0.1-0.2-0.6-1-1.7c-0.8-1-1.5-2-1.8-2.1C286,168.8,286.5,169.5,287.2,170.6 M248,176.2
		c0.8,1,1.5,2,1.8,2.1c0.2,0.1-0.2-0.6-1-1.7c-0.8-1-1.5-2-1.8-2.1C246.8,174.4,247.3,175.1,248,176.2 M291.2,175.8
		c0,0.4,2.4,3.8,2.6,3.8c0.1,0-0.4-0.9-1.1-1.9C291.2,175.4,291.2,175.4,291.2,175.8 M176.2,179c-0.4,0.5-0.6,1.3-0.6,1.8
		c0,0.4-0.2,0.9-0.4,1s-0.4,0.7-0.4,1.3c0,0.8,0.3,0.3,0.9-1.5c0.6-1.8,1.2-2.8,1.9-3.1c0.9-0.5,0.9-0.5,0.1-0.5
		C177.3,178,176.6,178.4,176.2,179 M164.4,180.3c1.3,0.1,1.7,0.5,3.6,3.2c5.2,7.4,5,7.2,6,3.8c0.8-2.7,0.9-3.1,0.3-2.7
		c-0.2,0.1-0.4,0.7-0.4,1.2s-0.2,1.1-0.4,1.2s-0.4,0.7-0.4,1.2c0,1.6-0.8,0.8-3.4-3.1c-3.3-4.9-3.5-5.2-5.3-5.1l-1.5,0.1
		L164.4,180.3 M252.4,182.3c0.2,0.4,0.7,1,1.1,1.3c0.4,0.4,0.3,0.1-0.3-0.7C252.2,181.5,251.8,181.2,252.4,182.3 M296.8,184
		c0.5,0.7,0.9,1.2,1.1,1.2c0.1,0-0.2-0.5-0.7-1.2s-0.9-1.2-1.1-1.2C296,182.8,296.3,183.3,296.8,184 M258,190.2c0.7,1,1.4,1.9,1.6,2
		c0.2,0.1-0.2-0.7-1-1.8C256.8,187.9,256.3,187.7,258,190.2 M262.5,196.6c0.5,0.8,1,1.4,1.2,1.4c0.2,0-0.2-0.6-0.7-1.4
		C261.6,194.8,261.3,194.8,262.5,196.6 M266.8,202.6c0.8,1,1.5,2,1.8,2.1c0.2,0.1-0.2-0.6-1-1.7c-0.8-1-1.5-2-1.8-2.1
		C265.6,200.8,266.1,201.5,266.8,202.6 M310.9,203.8c0.9,1.4,1.8,2.5,1.8,2.4c0.2-0.2-3.1-5-3.4-5
		C309.3,201.2,310,202.4,310.9,203.8 M271.4,208.9c0.6,0.8,1.2,1.5,1.3,1.5c0.3,0-1.5-2.3-2-2.7
		C270.5,207.6,270.8,208.1,271.4,208.9 M309.4,210.1c-2.4,1.8-2.7,2.3-0.5,0.8c1-0.7,2-1.4,2.1-1.7
		C311.4,208.6,311.2,208.7,309.4,210.1 M277.2,217.2c1.2,1.8,1.2,1.8,1.2,1.4c0-0.2-0.5-0.9-1-1.6l-1-1.2L277.2,217.2 M318.6,218.1
		l-0.8,0.9l1.1-0.7c1.3-0.8,1.5-0.7,3.2,1.7c0.7,1,1.5,2.1,1.7,2.3c0.2,0.3,1.2,1.6,2,2.9c0.9,1.3,1.7,2.4,1.9,2.4
		c0.2,0-0.3-0.9-1.2-2.1C320,216.4,320,216.4,318.6,218.1 M295.4,220.1c-2.4,1.8-2.7,2.3-0.5,0.8c1-0.7,2-1.4,2.1-1.7
		C297.4,218.6,297.2,218.7,295.4,220.1 M314.1,221.2c-3.8,2.6-4.5,3.2-3.8,3.2c0.3,0,0.6-0.2,0.7-0.4c0.1-0.2,1.6-1.3,3.2-2.4
		c2.4-1.6,3.9-2.9,3.3-2.8C317.5,218.8,315.9,219.9,314.1,221.2 M288.6,225l-1.2,1l1.3-0.9c0.7-0.5,1.3-0.9,1.3-1
		C290,223.9,289.8,224,288.6,225 M300.8,230.6c-9.9,7.1-9.3,6.3-7.2,9.3c0.9,1.3,2.5,3.6,3.6,5.2c1.1,1.6,2.2,3,2.4,3.2
		c0.5,0.3-3-4.8-5.7-8.4c-2-2.7-2.2-2.3,3.9-6.6c3-2.1,5.6-4,5.9-4.2c0.3-0.2,1.6-1.2,3.1-2.2c3.1-2.1,3-2,2.8-2.2
		C309.5,224.6,305.5,227.2,300.8,230.6 M329.6,230.4c2.1,3.1,2.4,2.6-4.1,7.2c-3.1,2.2-6.1,4.4-6.7,4.8c-0.5,0.4-2,1.5-3.3,2.3
		c-1.3,0.8-2.3,1.6-2.3,1.8c0,0.2,1.4-0.7,3.1-1.9c3.7-2.6,9.3-6.6,12.4-8.8c3.6-2.6,3.6-2.3,1.5-5.2
		C327.9,227.3,327.4,227.2,329.6,230.4 M106.5,238.3c12.3,0.1,32.3,0.1,44.6,0c12.3-0.1,2.2-0.1-22.3-0.1S94.2,238.2,106.5,238.3
		 M232.5,238.3c8.3,0.1,22,0.1,30.4,0c8.4-0.1,1.6-0.1-15.1-0.1S224.2,238.2,232.5,238.3 M185.4,281.8c0,24,0,33.8,0.1,21.9
		s0.1-31.5,0-43.6C185.4,248.1,185.4,257.8,185.4,281.8 M205.4,266c0,15.3,0,21.5,0.1,13.9c0.1-7.6,0.1-20.2,0-27.8
		C205.4,244.5,205.4,250.7,205.4,266 M84.2,305.2c0,36.6,0,51.6,0.1,33.3c0.1-18.3,0.1-48.3,0-66.6
		C84.2,253.6,84.2,268.6,84.2,305.2 M339.6,243.8c0,0.2,0.5,0.9,1,1.6l1,1.2l-0.9-1.4C339.6,243.4,339.6,243.4,339.6,243.8
		 M310.5,248.4c-3.1,2.2-3.5,2.9-0.5,0.8c2.2-1.5,3.3-2.4,2.8-2.4C312.7,246.8,311.6,247.5,310.5,248.4 M301.6,251.1
		c1.9,2.9,1.8,2.9,3.9,1.3c2.2-1.6,2.2-1.9-0.1-0.4l-1.8,1.2l-1.1-1.4C300.3,248.9,300,248.7,301.6,251.1 M344.4,250.8
		c0.5,0.7,0.9,1.2,1.1,1.2c0.1,0-0.2-0.5-0.7-1.2s-0.9-1.2-1.1-1.2C343.6,249.6,343.9,250.1,344.4,250.8 M326.8,251.2
		c-1.4,1.2-1.4,1.2-0.1,0.4c0.7-0.5,1.4-1,1.5-1.2C328.6,249.8,328.3,250,326.8,251.2 M290.4,255.6c0.5,0.7,0.9,1.2,1.1,1.2
		c0.1,0-0.2-0.5-0.7-1.2s-0.9-1.2-1.1-1.2C289.6,254.4,289.9,254.9,290.4,255.6 M319.8,256.2l-1.2,1l1.3-0.9c0.7-0.5,1.3-0.9,1.3-1
		C321.2,255.1,321,255.2,319.8,256.2 M294.4,261.2c0.5,0.7,0.9,1.2,1.1,1.2c0.1,0-0.2-0.5-0.7-1.2c-0.5-0.7-0.9-1.2-1.1-1.2
		C293.6,260,293.9,260.5,294.4,261.2 M312.8,261.2l-1.4,1.2l1.5-1.1c1.3-1,1.8-1.4,1.4-1.4C314.2,260,313.5,260.6,312.8,261.2
		 M353.6,263.4c0,0.2,0.5,0.9,1,1.6l1,1.2l-0.9-1.4C353.6,263,353.6,263,353.6,263.4 M299.2,268c0.5,0.7,0.9,1.2,1.1,1.2
		c0.1,0-0.2-0.5-0.7-1.2s-0.9-1.2-1.1-1.2C298.4,266.8,298.7,267.3,299.2,268 M306.6,305.6c0,15.1,0.1,21.2,0.1,13.7
		c0.1-7.5,0.1-19.9,0-27.4C306.6,284.4,306.6,290.5,306.6,305.6 M321.6,279.6c0.5,0.7,0.9,1.2,1.1,1.2c0.1,0-0.2-0.5-0.7-1.2
		s-0.9-1.2-1.1-1.2C320.8,278.4,321.1,278.9,321.6,279.6 M373,328.2l-1.2,1l1.3-0.9c0.7-0.5,1.3-0.9,1.3-1
		C374.4,327.1,374.2,327.2,373,328.2 M195.6,388l-9.8,0.2l9.7,0.1c6.1,0.1,9.8-0.1,9.9-0.3c0.1-0.2,0.2-0.4,0.1-0.3
		C205.5,387.7,201,387.9,195.6,388 M118.3,388.3c10.2,0.1,26.8,0.1,36.8,0c10-0.1,1.7-0.1-18.5-0.1S108.1,388.2,118.3,388.3
		 M235.9,388.3c10.2,0.1,26.8,0.1,37,0c10.2-0.1,1.9-0.1-18.5-0.1S225.7,388.2,235.9,388.3"/>
</g>
</svg>
