<?xml version="1.0" encoding="utf-8"?>
<!-- Generator: Adobe Illustrator 25.4.1, SVG Export Plug-In . SVG Version: 6.00 Build 0)  -->
<svg version="1.1" id="svg" xmlns="http://www.w3.org/2000/svg" xmlns:xlink="http://www.w3.org/1999/xlink" x="0px" y="0px"
	 viewBox="0 0 249 263" style="enable-background:new 0 0 249 263;" xml:space="preserve">
<style type="text/css">
	.st0{fill-rule:evenodd;clip-rule:evenodd;fill:#FFFFFF;}
</style>
<g id="svgg">
	<path id="path0" class="st0" d="M105.7,17c-5.3,1.3-11.4,4.6-14.3,7.7c-1.3,1.3-0.9,1.6,2.8,2.2c19,3,43.3,21.6,52.8,40.3
		c2.3,4.5,2.9,5.1,2.6,2.2c-2.9-24.6-5.4-33.8-11.4-41.5C130.9,18.6,117.5,14.1,105.7,17 M186.2,17c-17.2,4.5-24.6,16.9-28,47.4
		c-0.9,7.8-0.7,8.1,2,2.9c9.6-18.8,33.3-37,52.4-40.3c1.4-0.3,3-0.5,3.6-0.7l1-0.2l-1.2-1.2C209.3,17.8,196.2,14.4,186.2,17
		 M85.3,32.6c-9.9,16.9-1.3,38.7,18.1,45.9c7.3,2.7,35.1,7.5,36.3,6.2c0.3-0.3,0.3-0.3-5.9-4.4C116.7,69,105,53.4,100.8,36.5
		c-0.9-3.7-3.4-4.9-11-5.4l-3.4-0.2L85.3,32.6 M215,31.2c-6.6,1.2-7.7,1.8-8.6,5.2C201.9,54,190,69.7,172.4,81
		c-6.5,4.2-6.5,4.2-0.5,3.6c24.9-2.7,36.2-6.1,44.2-13.4c10-9,12.7-26.2,6.1-38l-1.1-2l-2.5-0.1C217.1,31.1,215.5,31.1,215,31.2
		 M69.5,91.9l-1.1,1l-0.1,10.6l-0.1,10.6l1.2,1.2l1.2,1.2l18.7-0.1l18.7-0.1l2.8-3.4c6.9-8.5,16.8-17.4,22.8-20.5
		c2.9-1.5,1.8-1.5-30.9-1.5h-32L69.5,91.9 M172.4,91.3c-0.1,0.2,0.4,0.7,1.1,1.1c5.8,3,15.9,12,22.6,20.1l3.4,4.1H218
		c18.1,0,18.5,0,19.6-0.8l1.1-0.8v-11.1V92.6l-1.1-0.8C236.4,90.9,173,90.4,172.4,91.3 M142.3,93.5c-22.3,9-43.1,38.2-44,61.7
		c-0.3,6.9-0.1,7.6,1.6,8c0.7,0.1,3.1,0.7,5.3,1.2c15.4,3.7,21.1,4.9,21.4,4.8c0.2-0.1,0-1.3-0.5-2.7c-7.4-23.7-0.5-51.4,18-71.6
		C146.7,92.1,146.4,91.9,142.3,93.5 M150.8,94.7c-1.3,1.4-3.2,3.5-4.3,4.7l-1.9,2.2v46v46l8.7,0.1c4.8,0.1,8.8,0.1,9,0
		c0.2-0.1,0.3-20.8,0.3-46.2v-46l-1.9-2.2c-3.1-3.7-6.6-7.2-7.1-7.2C153.3,92.2,152.1,93.3,150.8,94.7 M161.4,92.6
		c0,0.2,1.1,1.7,2.5,3.3c14.4,16.7,21.5,36.6,19.9,56c-0.5,5.6-0.6,6.5-2.3,13c-0.6,2.3-1,4.2-0.9,4.3c0.2,0.2,27.6-6.2,27.9-6.5
		c0.5-0.5,0.1-11.7-0.5-14.9c-3.7-18.6-17.8-38.7-34.9-49.8C168.2,94.7,161.4,91.6,161.4,92.6 M138.1,111.3
		c-2.8,4.3-2.9,5.3-0.6,5.3c2.1,0,2.2-0.3,2.2-3.8C139.8,109.6,139.4,109.3,138.1,111.3 M167.4,112.7c0,3.6,0.2,3.8,2.2,3.8
		c2.2,0,2.3-0.5,0.3-3.9C168,109.4,167.4,109.4,167.4,112.7 M83.7,134.4c-0.3,15.4-0.3,38,0,39.2c0.2,0.8,0.5,0.8,9.3,1.1
		c17.3,0.5,22.3,2.4,32.9,12.5c5.2,5,9.2,7,12.8,6.5l1-0.1l0.1-19.8c0.1-10.9,0-27-0.1-35.9l-0.3-16.1h-3.1h-3.1l-0.8,2.1
		c-5.2,13-5.4,31.4-0.6,43.7c1.8,4.5,1.9,6.5,0.5,7.3c-1.1,0.6-0.1,0.8-15.8-2.9c-2.2-0.5-5.2-1.2-6.6-1.6
		c-3.1-0.7-8.9-2.1-12.2-2.9c-3.7-0.9-4.1-1.8-4.2-9.8c-0.1-10.9,4.5-26.7,10-34.4c0.4-0.6,0.8-1.2,0.8-1.4c0-0.1-4.6-0.2-10.1-0.2
		H83.9L83.7,134.4 M167.7,134c-0.1,6.8-0.3,23.4-0.3,36.9l0,24.6l2,2.1c3.5,3.7,4.9,9,3.4,13.5c-0.9,3.1-2.4,3.4,15.8-4
		c23.1-9.4,32.3-13,33.6-13.3l1.2-0.2v-35.9v-35.9h-10.2H203l1.7,3.1c0.9,1.7,1.8,3.3,2,3.5c2.9,4,6.7,18.3,7.1,26.4
		c0.4,10-0.1,11.8-4.1,12.8c-1.3,0.3-3.6,0.8-5,1.2c-1.4,0.3-4.9,1.2-7.8,1.8c-2.9,0.7-6.3,1.5-7.6,1.8c-1.3,0.3-4.7,1.1-7.5,1.8
		c-7.5,1.8-9.6,0.8-7.3-3.5c5.8-11.3,6.3-31.8,0.9-46.1l-1-2.6l-3.2-0.1l-3.2-0.1L167.7,134"/>
	<path id="path1" class="st0" d="M108.2,11.8c-29.6,3.9-42,40.8-20.8,62c5.3,5.3,10.4,8,19.7,10.7l5.2,1.5l-21.3,0.2
		c-24.8,0.2-24.1,0.1-26.5,4.6c-1.2,2.3-1.3,23.5-0.1,25.8c2,3.8,3.5,4.5,9.8,4.7l4.9,0.2l-0.1,26.7l-0.1,26.7h-6h-6l-0.3-1.9
		c-0.8-4.7-2.4-5.6-10.1-5.9l-6-0.2l-1-1.8c-2.1-3.6-2.1-3.6-20.5-3.6c-18.8,0-19,0-20.9,4.5c-0.8,1.8-0.9,76.9-0.2,79.6
		c1.4,4.9,2.4,5.2,21.8,5c18.2-0.1,17.9-0.1,19.9-3.6l0.9-1.7l5.8-0.2c6.7-0.2,8.1-0.8,9.6-4l0.9-1.8l5.8,0.2
		c8.1,0.3,19.9,3.4,31.5,8.3c2.4,1,13.5,3.3,19,3.8c16.1,1.7,30.8-0.5,44.9-6.9c0.7-0.3,7.3-3,14.7-6c19.2-7.8,40.8-16.8,47.2-19.6
		c10.1-4.5,10.4-19.1,0.4-23.8l-1.9-0.9v-36.4v-36.4l4.8-0.2c6.1-0.3,7.8-1.1,9.6-4.6c1-1.9,1-23.9,0-25.8
		c-2.3-4.7-2.5-4.7-27.3-4.7c-14.7,0-20.2-0.2-19.2-0.4c18.1-5.3,25.1-10.2,30.7-21.7c12.4-25.7-8.4-55.4-36.7-52.2
		C170.1,14,158.9,27.4,155,54.2c-1.1,7.2-1.4,8.4-1.7,6.4c-0.1-0.8-0.8-4.5-1.5-8.4c-1.3-7.7-2.6-12.6-4.5-17.4
		C141.2,19,125.1,9.6,108.2,11.8 M120.8,16.9c16.6,4.2,24.3,16.4,27.7,43.8c1.6,13.1,1.6,13-1.3,6.9c-9.2-18.8-33.9-37.7-53-40.7
		c-3.7-0.6-4-0.8-2.8-2.2C97.8,17.9,110.9,14.4,120.8,16.9 M201.3,16.9c5.6,1.3,11.4,4.5,14.7,7.9l1.2,1.2l-1,0.2
		c-0.5,0.1-2.1,0.4-3.6,0.7c-19.2,3.4-43,21.7-52.4,40.4c-1.2,2.3-2.2,4.3-2.2,4.4c-1.2,1.6,1.7-19.8,3.7-27.6
		C167,23.4,182.9,12.5,201.3,16.9 M96.2,32.2c3.8,1.1,3.8,1.1,4.6,4.3c4.6,18.4,18.9,36.2,38,47.1c2.5,1.4,2,1.6-3.3,1
		c-30.2-3.2-42.1-8-49.4-19.7c-6-9.6-6.3-22.8-0.8-32.2l1.1-1.8l3.4,0.2C91.7,31.2,94.5,31.7,96.2,32.2 M222.2,33.2
		c6.6,11.9,3.9,29-6.1,38c-8,7.3-19.6,10.8-44.4,13.4c-5.7,0.6-5.8,0.5-1.9-1.8c18.4-10.9,31.9-28,36.7-46.3
		c0.8-3.2,0.9-3.3,4.5-4.2c4.2-1.1,4.7-1.2,7.6-1.1l2.5,0.1L222.2,33.2 M116.6,41.5c16.1,10.5,23.8,20.1,31.4,39.2
		c1.2,3.1,1.1,3.1-3,1c-15.2-7.9-28.2-20.4-34.9-33.6c-2.3-4.5-4.9-11.7-4.5-12.4C105.9,35.2,111.5,38.2,116.6,41.5 M201.6,36.9
		c-4,16.7-19.4,34.2-39.5,44.9c-4.6,2.5-4.5,2.9-1.4-4.6c4.4-10.5,8.5-17.2,14.3-22.9C185.2,44.1,202.5,32.8,201.6,36.9 M134.8,91.6
		c-0.4,0.3-2.2,1.5-3.8,2.5c-6.1,3.9-14.3,11.4-19.3,17.6c-1.3,1.7-2.8,3.4-3.2,3.9l-0.8,0.9H89.2H70.5l-1.2-1.2l-1.2-1.2l0.1-10.6
		l0.1-10.6l1.1-1l1.1-1l32.5,0C132,91,135.5,91.1,134.8,91.6 M237.7,91.9l1.1,1l0.1,9.9c0.1,10.9-0.1,12.5-1.7,13.3
		c-0.7,0.3-6.3,0.5-19.4,0.5h-18.4l-2.5-3.1c-5.8-7.2-13.9-14.7-20.3-19c-1.9-1.2-3.8-2.5-4.2-2.8c-0.7-0.5,3.1-0.6,31.7-0.6l32.5,0
		L237.7,91.9 M146.2,92.4c0,0.1-0.9,1.3-2.1,2.5c-18.5,20.1-25.4,47.9-18,71.6c0.4,1.4,0.6,2.6,0.5,2.7c-0.3,0.2-6-1.1-21.4-4.8
		c-2.2-0.5-4.6-1.1-5.3-1.2c-1.7-0.4-1.9-1-1.6-8c0.8-21.2,16.8-45.9,37.8-58.6C139.9,94.3,146.2,91.7,146.2,92.4 M156.4,94.7
		c1.3,1.4,3.2,3.5,4.3,4.7l1.9,2.2v46c0,25.3-0.1,46.1-0.3,46.2c-0.2,0.1-4.2,0.1-9,0l-8.7-0.1v-46v-46l1.9-2.2
		c3.1-3.7,6.6-7.2,7.1-7.2C153.9,92.2,155.1,93.3,156.4,94.7 M165.6,93.8c18.7,7.7,38.2,32.5,42.4,53.9c0.6,3.2,1,14.4,0.5,14.9
		c-0.3,0.3-27.7,6.7-27.9,6.5c-0.1-0.1,0.3-2,0.9-4.3c1.6-6.5,1.8-7.4,2.3-13c1.6-19.3-5.4-39.3-19.8-55.9
		C160.1,91.5,160.1,91.5,165.6,93.8 M139.7,112.9l-0.1,3.5l-2.2,0.1c-2.5,0.1-2.5,0.3,0-4.2C139.6,108.5,139.9,108.6,139.7,112.9
		 M171,114.6c0.9,1.9,0.7,2.1-1.9,1.9l-1.5-0.1l-0.1-3C167.3,108.5,168,108.7,171,114.6 M104.2,122c0,0.1-0.4,0.8-0.8,1.4
		c-5.9,8.3-10.4,24.7-9.9,36.5c0.3,7.6-2.3,6.1,21.5,11.7c3.2,0.8,8.2,1.9,11.1,2.6c7.8,1.9,8.6,1.1,5.9-5.7
		c-5.2-12.9-5.1-31.3,0.3-44.6l0.8-2.1h3.1h3.1l0.3,12.1c0.1,6.6,0.3,22.9,0.3,36.1v24l-2.7-0.3c-4-0.4-6.3-1.7-11.6-6.7
		c-10.6-10.1-17.2-12.3-36.6-12.3c-4.9,0-5.1,0-5.3-0.9c-0.3-1.2-0.3-23.5,0-39.2l0.3-12.7h10.1C99.6,121.8,104.2,121.9,104.2,122
		 M175.1,124c5.5,13.8,5.3,34.9-0.5,46.3c-1,1.9-1,3.6,0.1,4.5c0.9,0.9,0.2,1,12.8-2c7.4-1.8,14.2-3.3,21.4-5c4.2-1,4.4-1.3,4.8-6.3
		c0.8-10-2.9-27.5-7-33.1c-0.2-0.2-1-1.8-2-3.5l-1.7-3.1h10.2h10.2v36c0,32-0.1,36-0.6,36c-0.9,0-11.4,4.1-45.4,18
		c-2.8,1.1-5.1,2-5.2,2c-0.1,0,0.1-1,0.5-2.3c1.6-4.8,0.4-9.9-3.4-13.9l-1.9-2l0-24.6c0-13.5,0.1-30.2,0.3-36.9l0.3-12.3l3.2,0.1
		l3.2,0.1L175.1,124 M44.9,166.6c0.9,0.9,0.7,77.4-0.2,78.4c-0.9,1-30.2,1.1-31.6,0.2c-1.1-0.8-1.4-77.1-0.3-78.3
		C13.7,166,44,165.7,44.9,166.6 M61.6,172.2c0.6,0.8,0.6,4.7,0.6,33.8c0,39.1,0.9,34.6-6.7,34.4l-5.1-0.1l-0.1-34
		c-0.1-18.7,0-34.2,0.1-34.5C50.8,170.8,60.8,171.2,61.6,172.2 M105.8,180.5c6.6,1.6,9.5,3.3,16.3,9.8c8.4,7.9,9.6,8.3,27.5,8.3
		c11.2,0,12.6,0.1,14,0.8c5.5,2.6,6.8,9.9,2.3,14.1c-2.5,2.4-1.9,2.3-28.4,2.3c-26.3,0-26.1,0-26.1,2.1c0,2.2-1.2,2.1,24.9,2.3
		c13.3,0.1,26.2,0.1,28.7,0l4.6-0.2l12.6-5.1c6.9-2.8,18.8-7.6,26.5-10.7c11.9-4.8,14.2-5.6,16-5.6c7,0,11.1,8.1,6.8,13.7
		c-1.5,2-2.1,2.3-18.1,8.9c-7.8,3.2-15.2,6.3-16.4,6.8c-46.6,19.3-47.2,19.5-63.6,19.5c-13.9,0-19.5-1.1-40.8-8.5
		c-8.1-2.8-12.1-3.6-19.8-3.9l-5.7-0.2l-0.2-27.4c-0.1-15.1-0.1-27.6,0-27.8C67.3,178.8,102.2,179.6,105.8,180.5"/>
	<path id="path3" class="st0" d="M12.9,166.9c-1.1,1.2-0.8,77.5,0.3,78.3c1.3,1,30.7,0.8,31.6-0.2c0.9-1,1-77.5,0.2-78.4
		C44,165.7,13.7,166,12.9,166.9"/>
	<path id="path4" class="st0" d="M107.9,11.4c-1.4,0.2-2.9,0.5-3.4,0.8c-0.9,0.4-0.9,0.4,0.1,0.2c6.1-1.1,11.6-1.1,16.8,0
		c2.8,0.6,3.7,0.5,1.3-0.2C118.7,11,112.8,10.7,107.9,11.4 M188.3,11.4c-1.4,0.2-2.9,0.5-3.4,0.8c-0.8,0.4-0.8,0.4,0.3,0.2
		c6.7-1.1,11.6-1.1,17.4,0c0.9,0.2,0.9,0.2,0.1-0.2C200.3,11.1,193.1,10.7,188.3,11.4 M100.4,13.3C73.7,22.9,67.7,59.2,90,76.9
		c3,2.4,9.5,6.1,10,5.6c0.1-0.1-0.7-0.6-1.9-1.1c-29.3-12.5-28-56,2-67.4C103.7,12.5,103.9,12.1,100.4,13.3 M207.1,13.9
		c11.9,4.6,21.1,15.8,23,28c0.2,1,0.4,1.8,0.5,1.7c0.4-0.4-0.8-5.7-2-8.6c-4-10.3-12.1-18.3-21.9-21.7
		C203.1,12.1,203.3,12.5,207.1,13.9 M124.6,13.1c0.1,0.1,1.3,0.6,2.7,1.2c15.3,6.2,21,16.5,25.9,46.2c0.1,0.7,0.3,1.2,0.4,1.1
		c0.3-0.3,2.2-12.8,2-13c-0.1-0.1-0.8,3.2-1.8,9.3l-0.3,2l-0.5-3.6c-3.4-23.6-9.9-34.9-24.1-41.8C126.2,13.2,124,12.5,124.6,13.1
		 M178.3,14.5c-9.4,4.5-17.9,14.1-19.5,21.8c-0.1,0.7,0.1,0.4,0.6-0.8c4.4-10.5,10.6-17,20.3-21.2c1.7-0.8,2.8-1.4,2.5-1.4
		C181.8,13,180.1,13.7,178.3,14.5 M105.7,35.6c-0.4,0.4-0.3,1,0.1,0.7c1-0.6,12.5,6.4,18.8,11.6c10.6,8.7,15.3,15.1,21.6,29.6
		c2.7,6.3,2.8,6-1.1,3.9c-18.7-10.2-32.1-24.6-37.6-40.1c-0.6-1.7-1.2-3-1.3-2.7c-0.2,0.7,2.6,7.5,4.8,11.5
		c6.8,12.3,19.6,24.4,34,31.8c4.1,2.1,4.2,2.1,3-1c-6.8-17-11.7-23.8-24.2-34C118.1,42.1,106.4,34.9,105.7,35.6 M197.4,37.4
		c-10.6,5.8-23.3,16.4-28.2,23.6c-3.5,5.1-11.1,20.8-10.5,21.4c0.1,0.1,0.9-1.7,1.9-3.9c7.9-18.9,18.6-30.7,36.5-40.3
		c4.5-2.4,4.5-2.4,2.7,2.7c-5.5,15.5-17.7,29-35.4,39.1c-4.9,2.8-6,3.8-1.6,1.4c18-9.7,31.9-24.7,37.5-40.6
		C202.4,34.9,202.2,34.8,197.4,37.4 M157,42.2c-0.5,1.8-0.8,3.4-0.7,3.7c0.1,0.2,0.5-1.1,1-3.1c0.5-1.9,0.8-3.6,0.7-3.7
		C158,39,157.5,40.4,157,42.2 M230.7,48.2c0,1.9,0.1,2.6,0.2,1.7c0.1-0.9,0.1-2.5,0-3.4C230.8,45.5,230.7,46.3,230.7,48.2 M230,54.4
		c-1.7,11.2-10.1,22-20.9,26.9c-1.2,0.5-2,1-1.9,1.2c1,1,12.2-6.8,15.3-10.7c4.5-5.6,9.5-17.6,8-19.1
		C230.4,52.6,230.2,53.4,230,54.4 M101.7,83.2c0.7,0.3,2.8,1.1,4.6,1.6l3.3,1l-19.2,0c-10.6,0-19.9,0.2-20.7,0.4
		c-3.3,0.8-6.3,4.2-6.2,6.9c0,0.9,0.1,0.8,0.3-0.2c0.7-2.7,2.4-4.9,4.6-5.9c0.9-0.4,6.1-0.6,22.5-0.7l21.3-0.2l-5.1-1.5
		c-2.8-0.8-5.5-1.6-5.9-1.7C100.8,82.6,101,82.8,101.7,83.2 M202.6,83.8c-1.9,0.6-3.1,1.1-2.8,1.2c0.7,0,5.4-1.4,6.4-2
		C207.2,82.3,206.2,82.6,202.6,83.8 M195.5,85.8c-0.4,0.1,8.6,0.3,19.9,0.3c24.9,0,25,0.1,27.3,4.7c1,1.9,1,23.9,0,25.8
		c-1.8,3.5-3.5,4.4-9.6,4.6l-4.8,0.2v36.4v36.4l1.9,0.9c8,3.8,9.9,14.8,3.6,21c-1.9,1.9-2.9,2.4-12.6,6.5c-3,1.3-5.4,2.4-5.4,2.5
		c0.3,0.3,14.9-6,16.6-7.1c8.3-5.7,7.4-17.7-1.7-23l-2-1.2l-0.1-36l-0.1-36l4.7-0.1c9.7-0.3,10.5-1.6,10.5-17.9
		c0-19.2,1.8-18-28.5-18.2C204.8,85.6,195.9,85.7,195.5,85.8 M238.8,104c0,5.5,0.1,7.8,0.1,5.1c0.1-2.7,0.1-7.2,0-10
		C238.8,96.3,238.8,98.5,238.8,104 M63.6,115.1c0.5,4.4,4.1,6.6,10.7,6.6h4.3v26.4v26.4l-5.7-0.1l-5.7-0.1l-0.2-1.5
		c-0.1-0.8-0.4-1.6-0.5-1.8c-0.3-0.3,0,2.2,0.4,3.4c0.1,0.4,1.5,0.5,6.1,0.4l5.9-0.1l0.1-26.7l0.1-26.7l-4.9-0.2
		c-6.8-0.2-9-1.6-10.4-6.5C63.5,113.7,63.4,113.7,63.6,115.1 M10.5,162.1c-1.2,0.8-2.1,1.7-2.7,2.9L7,166.8v39.1
		c0,43.5-0.2,40.5,2.7,43.1c2,1.9,2.9,2,19.3,1.9c18.4,0,18.9-0.1,20.9-4.1l0.8-1.5h5.3c7.1,0,8.3-0.5,10.9-5
		c1.3-2.2,15.7,0.2,28.4,4.7c6.6,2.4,10.9,3.7,8.8,2.7c-8.7-4.1-23.5-7.9-31.4-8.3l-5.8-0.2l-0.9,1.8c-1.5,3.2-2.9,3.7-9.6,4
		l-5.8,0.2l-0.9,1.7c-2,3.6-1.7,3.5-19.9,3.6c-19.4,0.1-20.4-0.1-21.8-5c-0.7-2.7-0.6-77.8,0.2-79.6c1.9-4.5,2.1-4.5,20.9-4.5
		c18.4,0,18.4,0,20.5,3.6l1,1.8l6,0.2c6.4,0.2,7.2,0.4,9,2.7c0.5,0.6,0.7,0.7,0.4,0.3c-1.3-2.8-3.4-3.5-10-3.7
		c-4.4-0.1-5.7-0.3-5.7-0.7c0-0.9-2.5-3.4-3.9-4c-1-0.4-4.8-0.5-17.6-0.5H12.4L10.5,162.1 M50.4,171.9c-0.1,0.3-0.1,15.8-0.1,34.5
		l0.1,34l5.1,0.1c7.6,0.2,6.7,4.7,6.7-34.4c0-29.1-0.1-33-0.6-33.8C60.8,171.2,50.8,170.8,50.4,171.9 M61.2,172.4c1,1,1,65.5,0,66.9
		c-0.6,0.8-0.9,0.9-5.6,0.9h-5V206v-34.2h5C59.6,171.8,60.7,171.9,61.2,172.4 M66.9,179.6c-0.1,0.2-0.1,12.7,0,27.8l0.2,27.5h3.1
		c8.6,0,14.4,1.2,25.8,5.2c7.6,2.7,10.6,3.6,9.4,2.8c-0.4-0.2-2-0.8-3.6-1.4c-1.6-0.5-5-1.7-7.6-2.7c-8.9-3.2-14.6-4.4-22.2-4.5
		l-4.4-0.1l-0.1-27.3l-0.1-27.3H82c25.6,0,29.5,1.1,40.1,11c8.4,7.9,8.3,7.9,26.4,8.2l14,0.2l1.8,1.1c5.4,3.1,5.2,11.1-0.3,13.9
		l-1.9,1l-24.8,0.1c-27.4,0.1-26.2,0-26.2,2.7c0,3-2,2.8,27.3,2.9c33,0.1,29.8,0.6,47.9-7.1c1-0.4,3.2-1.3,4.9-2
		c1.7-0.7,3.1-1.3,3-1.4c-0.1-0.1-5.6,2-12.3,4.7l-12.2,4.9l-4.6,0.2c-2.5,0.1-15.5,0.1-28.7,0c-26-0.2-24.9-0.1-24.9-2.3
		c0-2.1-0.2-2.1,26.1-2.1c26.6,0,25.9,0.1,28.4-2.3c4.4-4.2,3.2-11.6-2.3-14.1c-1.4-0.7-2.8-0.7-14-0.8c-17.9,0-19.1-0.4-27.5-8.3
		c-10.6-10-12.3-10.5-37.4-10.8C75,179.4,67,179.4,66.9,179.6 M221.5,198.9c-19.7,7.9-26.9,10.9-26.8,11.1c0.1,0.1,3.8-1.3,8.3-3.1
		c4.5-1.8,9.4-3.8,11-4.4c1.5-0.6,4-1.6,5.4-2.2c9.1-3.7,16.5,2.8,12.3,10.8c-1,2-1.8,2.4-9.3,5.6c-4,1.7-8,3.4-8.9,3.8
		c-0.9,0.4-1.8,0.8-1.9,0.8c-0.1,0-2.7,1.1-5.7,2.4c-3,1.3-8.9,3.8-13.1,5.4c-4.2,1.7-9.1,3.7-11,4.5c-8.8,3.6-10.4,4.3-13,5.3
		c-1.5,0.6-4.4,1.8-6.4,2.6c-2,0.8-5.4,2.1-7.6,2.9c-2.3,0.8-3.3,1.3-2.4,1.1c2.3-0.3,16.7-6,44.6-17.6c1.2-0.5,8.6-3.6,16.4-6.8
		c16-6.6,16.6-6.9,18.1-8.9C236.6,205.6,229.3,195.8,221.5,198.9 M211.9,226.6c-1.6,0.7-2.8,1.3-2.8,1.4c0.2,0.2,4.6-1.5,5.7-2.2
		C216.3,225,214.8,225.4,211.9,226.6 M204.8,229.6c-1.8,0.8-9.6,4-17.5,7.2c-7.9,3.2-14.2,5.9-14.2,6c0.1,0.1,9.8-3.6,17.9-7
		c2.1-0.9,6.6-2.8,10.1-4.2c3.4-1.4,6.6-2.8,7-3C209.5,227.8,207.9,228.2,204.8,229.6 M171.2,243.4c-0.4,0.2-1.8,0.7-2.9,1.2
		c-1.2,0.5-2,0.9-2,1c0.2,0.2,4.6-1.5,5.7-2.2C172.9,242.9,172.3,242.9,171.2,243.4 M107.6,244c2.1,0.8,6.9,1.9,7.5,1.7
		c0.3-0.1-1.2-0.6-3.3-1C106.3,243.3,105.8,243.3,107.6,244 M161,247.4c-2.3,0.9-5.8,2.1-7.8,2.6c-2,0.5-3.2,0.9-2.8,0.9
		c1.9,0,14.4-4,15.4-5C166.2,245.5,164.9,245.9,161,247.4 M120.8,246.8c4.5,0.9,20.4,0.9,24.6,0c2.6-0.6,2.7-0.6,0.8-0.4
		c-7.8,0.8-18.4,0.8-26.4,0C118.1,246.2,118.3,246.3,120.8,246.8 M106.2,248.7c0.3,0.3,6.5,1.8,8.4,2c1,0.1-0.3-0.3-2.8-0.9
		C107.4,248.6,105.9,248.4,106.2,248.7 M119.4,251.7c4.3,0.9,23.8,0.9,27.6-0.1c2.9-0.7,2.8-0.7-5.2,0.1c-5.4,0.6-12.5,0.5-19-0.2
		C116,250.8,115.5,250.8,119.4,251.7"/>
</g>
</svg>
