<?xml version="1.0" encoding="utf-8"?>
<!-- Generator: Adobe Illustrator 25.2.1, SVG Export Plug-In . SVG Version: 6.00 Build 0)  -->
<svg version="1.1" id="Capa_1" xmlns="http://www.w3.org/2000/svg" xmlns:xlink="http://www.w3.org/1999/xlink" x="0px" y="0px"
	 viewBox="0 0 512 512" style="enable-background:new 0 0 512 512;" xml:space="preserve">
<g>
	<path d="M327.2,387.1h79l-8.9,8.9c-1.3,1.3-2,3-2,4.9c0,1.8,0.7,3.6,2,4.9l2.2,2.2c1.3,1.3,3,2,4.9,2c1.9,0,3.6-0.7,4.9-2
		l24.5-24.5c1.3-1.3,2-3.1,2-4.9c0-1.9-0.7-3.6-2-4.9l-24.5-24.5c-2.6-2.6-7.3-2.6-9.8,0l-2.2,2.2c-1.3,1.3-2,3.1-2,4.9
		c0,1.8,0.7,3.6,2,4.9l8.8,8.8h-78.2c-3.7,0-6.7,3-6.7,6.7v3.4C321.3,385.3,324.5,387.1,327.2,387.1z"/>
	<path d="M482.3,294.8l-0.7-0.9V43.3c0-6.5-5.3-11.9-11.9-11.9h-80.3V11.9c0-6.5-5.3-11.9-11.9-11.9c-6.5,0-11.9,5.3-11.9,11.9v19.5
		h-67.4V11.9c0-6.5-5.3-11.9-11.9-11.9c-6.5,0-11.9,5.3-11.9,11.9v19.5h-67.4V11.9c0-6.5-5.3-11.9-11.9-11.9
		c-6.5,0-11.9,5.3-11.9,11.9v19.5h-67.4V11.9c0-6.5-5.3-11.9-11.9-11.9c-6.5,0-11.9,5.3-11.9,11.9v19.5H11.9C5.3,31.4,0,36.7,0,43.3
		v396.1c0,6.5,5.3,11.9,11.9,11.9h254.8l1,1.5C292.6,489.8,334,512,378.6,512c73.6,0,133.4-59.9,133.4-133.4
		C512,348.2,501.5,318.5,482.3,294.8z M378.6,268.9c60.5,0,109.7,49.2,109.7,109.7s-49.2,109.7-109.7,109.7s-109.7-49.2-109.7-109.7
		S318.1,268.9,378.6,268.9z M457.9,271.2l-5.2-3.5c-22-14.7-47.6-22.5-74.1-22.5c-45.3,0-87.1,22.8-111.9,60.9l-1.6,2.5l-2.7-1.4
		c-1.7-0.8-3.5-1.3-5.3-1.3h-30.4c-6.5,0-11.9,5.3-11.9,11.9c0,6.5,5.3,11.9,11.9,11.9h27.7l-1.6,4.4c-3.4,9.6-5.7,19.5-6.8,29.6
		l-0.3,3h-19c-6.5,0-11.9,5.3-11.9,11.9s5.3,11.9,11.9,11.9h19l0.3,3c1.1,10.1,3.4,20.1,6.8,29.6l1.6,4.4H23.7V146.3h434.1V271.2z
		 M104.1,85.5c6.5,0,11.9-5.3,11.9-11.9V55.1h67.4v18.5c0,6.5,5.3,11.9,11.9,11.9c6.5,0,11.9-5.3,11.9-11.9V55.1h67.4v18.5
		c0,6.5,5.3,11.9,11.9,11.9c6.5,0,11.9-5.3,11.9-11.9V55.1h67.4v18.5c0,6.5,5.3,11.9,11.9,11.9c6.5,0,11.9-5.3,11.9-11.9V55.1h68.4
		v67.4H23.7V55.1h68.4v18.5C92.2,80.2,97.5,85.5,104.1,85.5z"/>
	<path d="M104.1,208.1h30.4c6.5,0,11.9-5.3,11.9-11.9c0-6.5-5.3-11.9-11.9-11.9h-30.4c-6.5,0-11.9,5.3-11.9,11.9
		C92.2,202.8,97.5,208.1,104.1,208.1z"/>
	<path d="M104.1,268.9h30.4c6.5,0,11.9-5.3,11.9-11.9c0-6.5-5.3-11.9-11.9-11.9h-30.4c-6.5,0-11.9,5.3-11.9,11.9
		C92.2,263.6,97.5,268.9,104.1,268.9z"/>
	<path d="M104.1,329.7h30.4c6.5,0,11.9-5.3,11.9-11.9c0-6.5-5.3-11.9-11.9-11.9h-30.4c-6.5,0-11.9,5.3-11.9,11.9
		C92.2,324.3,97.5,329.7,104.1,329.7z"/>
	<path d="M226.6,208.1H257c6.5,0,11.9-5.3,11.9-11.9c0-6.5-5.3-11.9-11.9-11.9h-30.4c-6.5,0-11.9,5.3-11.9,11.9
		C214.8,202.8,220.1,208.1,226.6,208.1z"/>
	<path d="M226.6,268.9H257c6.5,0,11.9-5.3,11.9-11.9c0-6.5-5.3-11.9-11.9-11.9h-30.4c-6.5,0-11.9,5.3-11.9,11.9
		C214.8,263.6,220.1,268.9,226.6,268.9z"/>
	<path d="M104.1,390.4h30.4c6.5,0,11.9-5.3,11.9-11.9s-5.3-11.9-11.9-11.9h-30.4c-6.5,0-11.9,5.3-11.9,11.9S97.5,390.4,104.1,390.4z
		"/>
	<path d="M348.2,208.1h30.4c6.5,0,11.9-5.3,11.9-11.9c0-6.5-5.3-11.9-11.9-11.9h-30.4c-6.5,0-11.9,5.3-11.9,11.9
		C336.3,202.8,341.6,208.1,348.2,208.1z"/>
</g>
</svg>
