<?xml version="1.0" encoding="utf-8"?>
<!-- Generator: Adobe Illustrator 25.2.1, SVG Export Plug-In . SVG Version: 6.00 Build 0)  -->
<svg version="1.1" id="Capa_1" xmlns="http://www.w3.org/2000/svg" xmlns:xlink="http://www.w3.org/1999/xlink" x="0px" y="0px"
	 viewBox="0 0 512 512" style="enable-background:new 0 0 512 512;" xml:space="preserve">
<g>
	<g>
		<path d="M209.2,236.4c-0.1,0-0.2,0-0.3,0c-21,0-42,0-63,0l-20.6,0l-19.3,0c-21,0-42,0-63,0c-3.9,0-11.2,0-13.8-7.7
			c-2.8-8.4,3.8-12.7,6.9-14.8l0.4-0.2c26.5-17.6,53.8-35.8,80.6-53.8c3-2,5.9-3,8.7-3c2.9,0,5.8,1,8.8,3
			c26.8,18,54.2,36.2,80.6,53.8l0.4,0.2c3.2,2.1,9.8,6.5,6.9,14.8C220.1,236.2,213.1,236.4,209.2,236.4z M166.5,228.4
			c14.1,0,28.2,0,42.4,0c4.8,0,5.6-0.5,6.2-2.3c0.6-1.9,0.5-2.8-3.8-5.6l-0.4-0.2c-26.5-17.6-53.8-35.8-80.7-53.8
			c-1.7-1.1-3.1-1.7-4.3-1.7c-1.2,0-2.6,0.6-4.3,1.7c-26.8,18.1-54.2,36.2-80.7,53.8l-0.4,0.2c-4.3,2.8-4.4,3.8-3.8,5.6
			c0.6,1.8,1.5,2.3,6.2,2.3c21,0,42,0,63,0l20,0l20,0C152.8,228.4,159.6,228.4,166.5,228.4z"/>
	</g>
	<g>
		<path d="M85.4,355.3c-10,0-20,0-29.9,0c-12.6,0-21.2-7.7-21.3-19.2c-0.1-5.5,1.7-10.2,5.2-13.8c3.9-3.9,9.5-6,16.1-6
			c45.4,0,92.7,0,140.6,0c6.7,0,12.4,2.1,16.3,6c3.5,3.5,5.3,8.2,5.3,13.6c0,11.8-8.5,19.4-21.6,19.5c-16.6,0-33.3,0-49.9,0l-20.4,0
			l-20.2,0C98.8,355.3,92.1,355.3,85.4,355.3z M153.9,324.2c-33.4,0-66.4,0-98.4,0c-4.5,0-8.1,1.3-10.4,3.7c-2,2-3,4.8-2.9,8.1
			c0.1,7.1,5.1,11.3,13.3,11.3c16.7,0,33.4,0,50.1,0l20.2,0l20.4,0c16.6,0,33.2,0,49.9,0c8.7,0,13.7-4.2,13.7-11.5c0-3.3-1-6-3-7.9
			c-2.4-2.4-6.1-3.6-10.6-3.6C182,324.2,167.9,324.2,153.9,324.2z"/>
	</g>
	<g>
		<path d="M58.6,275.9c0,8.8,0,17.7,0,26.5c0,3.9,0.9,7.4,5.5,7.3c4.2-0.1,5.1-3.5,5.1-7.2c0-17.5,0-35,0-52.5
			c0-3.9-0.8-7.4-5.5-7.3c-4.3,0.1-5.1,3.5-5.1,7.1C58.6,258.6,58.6,267.3,58.6,275.9z"/>
	</g>
	<g>
		<path d="M193.2,276.1c0-8.7,0-17.3,0-26c0-3.9-0.8-7.4-5.5-7.3c-4.3,0.1-5.1,3.5-5.1,7.1c0,17.5,0,35,0,52.5
			c0,3.9,0.9,7.4,5.5,7.3c4.2-0.1,5.1-3.5,5.1-7.1C193.2,293.7,193.2,284.9,193.2,276.1z"/>
	</g>
	<g>
		<path d="M151.7,276.3c0-8.8,0-17.7,0-26.5c0-3.7-0.7-7-5.1-7c-4.3,0-5.3,3.1-5.3,6.9c0.1,17.7,0.1,35.3,0,53c0,3.8,0.9,7,5.1,7.1
			c4.2,0.1,5.3-3.1,5.2-6.9C151.6,294,151.7,285.2,151.7,276.3z"/>
	</g>
	<g>
		<path d="M110.4,276.3c0-9,0-18.1,0-27.1c0-3.6-1.3-6.4-5.2-6.4c-4,0-5.1,2.9-5.1,6.5c0,17.9,0,35.8,0,53.7c0,3.6,0.9,6.6,4.9,6.7
			c4.2,0.1,5.4-2.9,5.4-6.8C110.3,294.1,110.4,285.2,110.4,276.3z"/>
	</g>
	<g>
		<path d="M58.6,275.9c0-8.7,0-17.3,0-26c0-3.6,0.8-7,5.1-7.1c4.7-0.1,5.5,3.4,5.5,7.3c0,17.5,0,35,0,52.5c0,3.7-0.8,7-5.1,7.2
			c-4.6,0.1-5.5-3.4-5.5-7.3C58.6,293.6,58.6,284.8,58.6,275.9z"/>
	</g>
	<g>
		<path d="M193.2,276.1c0,8.8,0,17.7,0,26.5c0,3.7-0.9,7-5.1,7.1c-4.6,0.1-5.5-3.5-5.5-7.3c0-17.5,0-35,0-52.5c0-3.7,0.8-7,5.1-7.1
			c4.6-0.1,5.5,3.5,5.5,7.3C193.2,258.8,193.2,267.4,193.2,276.1z"/>
	</g>
	<g>
		<path d="M151.7,276.3c0,8.8-0.1,17.7,0,26.5c0,3.8-1,7-5.2,6.9c-4.2-0.1-5.1-3.3-5.1-7.1c0.1-17.7,0.1-35.3,0-53
			c0-3.8,1-6.9,5.3-6.9c4.3,0,5.1,3.4,5.1,7C151.6,258.7,151.7,267.5,151.7,276.3z"/>
	</g>
	<g>
		<path d="M110.4,276.3c0,8.9,0,17.7,0,26.6c0,3.8-1.2,6.9-5.4,6.8c-4-0.1-4.9-3.1-4.9-6.7c0.1-17.9,0-35.8,0-53.7
			c0-3.6,1.1-6.5,5.1-6.5c3.9,0,5.2,2.8,5.2,6.4C110.4,258.2,110.4,267.3,110.4,276.3z"/>
	</g>
	<g>
		<path d="M469.3,236.4c-0.1,0-0.2,0-0.3,0c-21,0-42,0-63,0l-20.6,0l-19.3,0c-21,0-42,0-63,0c-3.9,0-11.2,0-13.8-7.7
			c-2.8-8.4,3.8-12.7,6.9-14.8l0.4-0.2c26.5-17.6,53.8-35.8,80.6-53.8c3-2,5.9-3,8.7-3c2.9,0,5.8,1,8.8,3
			c26.8,18,54.2,36.2,80.6,53.8l0.4,0.2c3.2,2.1,9.8,6.5,6.9,14.8C480.2,236.2,473.2,236.4,469.3,236.4z M426.6,228.4
			c14.1,0,28.2,0,42.4,0c0,0,0.1,0,0.1,0c4.7,0,5.5-0.5,6.1-2.3c0.6-1.9,0.5-2.8-3.8-5.6l-0.4-0.2c-26.5-17.6-53.8-35.8-80.7-53.8
			c-1.7-1.1-3.1-1.7-4.3-1.7c-1.2,0-2.6,0.6-4.3,1.7c-26.8,18.1-54.2,36.2-80.7,53.8l-0.4,0.2c-4.3,2.8-4.4,3.8-3.8,5.6
			c0.6,1.8,1.5,2.3,6.2,2.3c21,0,42,0,63,0l20,0l20,0C412.9,228.4,419.7,228.4,426.6,228.4z"/>
	</g>
	<g>
		<path d="M345.5,355.3c-10,0-20,0-29.9,0c-12.6,0-21.2-7.7-21.3-19.2c-0.1-5.5,1.7-10.2,5.2-13.8c3.9-3.9,9.5-6,16.1-6
			c45.4,0,92.7,0,140.6,0c6.7,0,12.4,2.1,16.3,6c3.5,3.5,5.3,8.2,5.3,13.6c0,11.8-8.5,19.4-21.6,19.5c-16.6,0-33.3,0-49.9,0l-20.4,0
			l-20.2,0C358.9,355.3,352.2,355.3,345.5,355.3z M413.9,324.2c-33.4,0-66.4,0-98.4,0c-4.5,0-8.1,1.3-10.4,3.7c-2,2-3,4.8-2.9,8.1
			c0.1,7.1,5.1,11.3,13.3,11.3c16.7,0,33.4,0,50.1,0l20.2,0l20.4,0c16.6,0,33.2,0,49.9,0c8.7,0,13.7-4.2,13.7-11.5c0-3.3-1-6-3-7.9
			c-2.4-2.4-6.1-3.6-10.6-3.6C442.1,324.2,428,324.2,413.9,324.2z"/>
	</g>
	<g>
		<path d="M318.7,275.9c0,8.8,0,17.7,0,26.5c0,3.9,0.9,7.4,5.5,7.3c4.2-0.1,5.1-3.5,5.1-7.2c0-17.5,0-35,0-52.5
			c0-3.9-0.8-7.4-5.5-7.3c-4.3,0.1-5.1,3.5-5.1,7.1C318.7,258.6,318.7,267.3,318.7,275.9z"/>
	</g>
	<g>
		<path d="M453.3,276.1c0-8.7,0-17.3,0-26c0-3.9-0.8-7.4-5.5-7.3c-4.3,0.1-5.1,3.5-5.1,7.1c0,17.5,0,35,0,52.5
			c0,3.9,0.9,7.4,5.5,7.3c4.2-0.1,5.1-3.5,5.1-7.1C453.3,293.7,453.3,284.9,453.3,276.1z"/>
	</g>
	<g>
		<path d="M411.8,276.3c0-8.8,0-17.7,0-26.5c0-3.7-0.7-7-5.1-7c-4.3,0-5.3,3.1-5.3,6.9c0.1,17.7,0.1,35.3,0,53c0,3.8,0.9,7,5.1,7.1
			c4.2,0.1,5.3-3.1,5.2-6.9C411.7,294,411.8,285.2,411.8,276.3z"/>
	</g>
	<g>
		<path d="M370.5,276.3c0-9,0-18.1,0-27.1c0-3.6-1.3-6.4-5.2-6.4c-4,0-5.1,2.9-5.1,6.5c0,17.9,0,35.8,0,53.7c0,3.6,0.9,6.6,4.9,6.7
			c4.2,0.1,5.4-2.9,5.4-6.8C370.4,294.1,370.5,285.2,370.5,276.3z"/>
	</g>
	<g>
		<path d="M318.7,275.9c0-8.7,0-17.3,0-26c0-3.6,0.8-7,5.1-7.1c4.7-0.1,5.5,3.4,5.5,7.3c0,17.5,0,35,0,52.5c0,3.7-0.8,7-5.1,7.2
			c-4.6,0.1-5.5-3.4-5.5-7.3C318.7,293.6,318.7,284.8,318.7,275.9z"/>
	</g>
	<g>
		<path d="M453.3,276.1c0,8.8,0,17.7,0,26.5c0,3.7-0.9,7-5.1,7.1c-4.6,0.1-5.5-3.5-5.5-7.3c0-17.5,0-35,0-52.5c0-3.7,0.8-7,5.1-7.1
			c4.6-0.1,5.5,3.5,5.5,7.3C453.3,258.8,453.3,267.4,453.3,276.1z"/>
	</g>
	<g>
		<path d="M411.8,276.3c0,8.8-0.1,17.7,0,26.5c0,3.8-1,7-5.2,6.9c-4.2-0.1-5.1-3.3-5.1-7.1c0.1-17.7,0.1-35.3,0-53
			c0-3.8,1-6.9,5.3-6.9c4.3,0,5.1,3.4,5.1,7C411.7,258.7,411.8,267.5,411.8,276.3z"/>
	</g>
	<g>
		<path d="M370.5,276.3c0,8.9,0,17.7,0,26.6c0,3.8-1.2,6.9-5.4,6.8c-4-0.1-4.9-3.1-4.9-6.7c0.1-17.9,0-35.8,0-53.7
			c0-3.6,1.1-6.5,5.1-6.5c3.9,0,5.2,2.8,5.2,6.4C370.5,258.2,370.5,267.3,370.5,276.3z"/>
	</g>
	<g>
		<path d="M270.1,278.7c-2.1,0-3.2,0-4.3,0c-13.8,0-27.7,0-41.5,0c-3,0-5-1.9-5-4.4c0.1-2.4,1.9-4.1,4.8-4.3c0.4,0,0.8,0,1.2,0
			c10.8,0,21.6,0,32.5,0c3.7,0,7.5,0,11.8,0c-0.9-1.1-1.4-1.8-2-2.4c-3.8-3.8-7.7-7.6-11.5-11.5c-2.2-2.3-2.4-4.7-0.6-6.6
			c1.8-1.9,4.4-1.9,6.6,0.4c6.9,6.9,13.9,13.8,20.7,20.8c2.8,2.9,2.8,4.7,0,7.5c-6.8,6.9-13.6,13.7-20.5,20.5
			c-2.4,2.3-5,2.5-6.8,0.6c-1.9-2-1.7-4.3,0.8-6.8C260.7,288,265,283.7,270.1,278.7z"/>
	</g>
</g>
</svg>
