<?xml version="1.0" encoding="utf-8"?>
<!-- Generator: Adobe Illustrator 25.4.1, SVG Export Plug-In . SVG Version: 6.00 Build 0)  -->
<svg version="1.1" id="svg" xmlns="http://www.w3.org/2000/svg" xmlns:xlink="http://www.w3.org/1999/xlink" x="0px" y="0px"
	 viewBox="0 0 267.5 216.4" style="enable-background:new 0 0 267.5 216.4;" xml:space="preserve">
<style type="text/css">
	.st0{fill-rule:evenodd;clip-rule:evenodd;fill:#FFFFFF;}
</style>
<g id="svgg">
	<path id="path1" class="st0" d="M91.2,129.1c-2.9,0.3-11.9,2.4-13.6,3.1c-0.7,0.3-2.8,0.9-5.7,1.8c-1,0.3-2.4,0.7-3.1,1
		c-2.3,0.8-3.1,0.6-3.1-0.7c0-1.5-1.3-3.5-2.6-4.1c-1.9-0.8-22.2-0.7-23.3,0.2c-2,1.4-1.9,0.2-1.9,29.6c0,29.5-0.1,28.4,1.9,29.7
		c1.3,0.8,22.5,0.8,23.8,0c1.3-0.8,2-2.4,2.2-4.8l0.2-2.1l2.3,0c6.2,0.1,17.7,2.9,22.3,5.5c2.5,1.4,13.1,6.7,15,7.6
		c1,0.4,2.5,1.1,3.5,1.5c0.9,0.4,1.9,0.8,2.1,0.8c0.2,0,0.6,0.1,0.7,0.3c0.3,0.3,6,2.1,7.8,2.5c7.4,1.6,16.2,2.1,20.2,1.2
		c5.6-1.3,10.6-2.8,12.8-3.8c0.6-0.2,1.2-0.4,1.3-0.4c0.3,0,1.9-0.7,3.1-1.3c0.3-0.2,0.7-0.3,0.9-0.3c0.2,0,1.4-0.5,2.8-1.2
		c1.4-0.6,3.2-1.5,4-1.8c2.5-1.1,13-6.3,15.7-7.8c4.6-2.5,7.1-3.9,7.4-4.1c0.2-0.1,1.4-0.8,2.7-1.5c1.3-0.7,2.6-1.4,2.9-1.6
		c0.3-0.2,1.6-0.9,2.8-1.6s3.2-1.8,4.3-2.5c1.1-0.7,2.1-1.2,2.2-1.2c0.1,0,0.8-0.4,1.5-0.9c2.2-1.4,2.3-1.5,3.8-2.3
		c0.8-0.4,1.9-1.1,2.4-1.5c0.6-0.4,1.1-0.8,1.2-0.8c1,0,10.7-7.5,13.5-10.5c9.4-9.8,1.3-19.6-12.9-15.7c-3.2,0.9-5.7,1.7-7.8,2.6
		c-1.1,0.5-3.8,1.6-5,2.1c-2.3,1-14.2,7-19.3,9.6c-2.8,1.5-6.7,3.5-8.5,4.4c-3.7,1.9-4.6,2.9-3.9,4.6c0.7,1.6,2.9,2.5,3.9,1.6
		c0.2-0.2,2.1-1.2,4.4-2.4c2.2-1.2,5.9-3.1,8.3-4.3c6.6-3.4,14.4-7.4,16.4-8.2c1-0.4,2.4-1.1,3.2-1.4c0.8-0.3,1.9-0.8,2.4-1.1
		c0.5-0.2,2.2-0.8,3.7-1.3c1.5-0.5,3.2-1,3.7-1.2c5.5-1.9,11.3,0.5,9.6,3.9c-1.1,2.2-10.2,10.4-11.7,10.4c-0.2,0-0.4,0.1-0.4,0.2
		c-0.1,0.3-4.9,3.5-7,4.6c-0.7,0.4-2.4,1.4-3.7,2.2c-1.3,0.8-3,1.8-3.8,2.2c-0.8,0.4-1.9,1-2.4,1.4c-0.6,0.3-1.2,0.7-1.5,0.8
		c-0.3,0.1-1,0.5-1.6,0.9c-1.2,0.7-3.1,1.8-7,3.9c-1.2,0.7-2.4,1.3-2.6,1.5c-2.4,1.8-24.4,12.4-28.6,13.8c-0.8,0.3-1.9,0.7-2.4,0.9
		c-0.5,0.2-2.4,0.9-4,1.4c-16.9,5.3-26.1,3.5-52.4-10.2c-7.5-3.9-14.4-5.8-25.3-6.9c-1.6-0.2-3-0.4-3.2-0.5
		c-0.2-0.1-0.3-6.8-0.3-17.8v-17.6l0.9-0.3c0.5-0.2,1.9-0.6,3.2-1c2.1-0.6,8-2.4,9.4-2.9c2.1-0.8,4.6-1.4,10.7-2.6
		c5.6-1.1,13.7-0.2,18.8,2.2c2.2,1,8.3,4.6,8.5,5c0.1,0.1,0.3,0.3,0.4,0.3c0.2,0,1,0.5,1.8,1c3.7,2.5,11.9,7.1,12.7,7.1
		c0.3,0,3.6,1.5,7.4,3.3c24,11.6,31.3,28.9,8.7,20.8c-0.6-0.2-2.7-0.9-4.5-1.5c-1.9-0.6-3.5-1.1-3.7-1.2c-0.9-0.5-17.5-6.1-21.1-7
		c-6.1-1.7-15.5-3.1-17.6-2.6c-3.8,0.8-1.6,5.3,2.5,5.4c1.7,0,8,1,11,1.8c1.2,0.3,2.6,0.7,3.2,0.8c1.8,0.4,4.3,1.2,5.2,1.5
		c0.4,0.2,1.6,0.6,2.6,0.9c1,0.3,2,0.6,2.3,0.7c2.5,0.9,8.1,2.9,10,3.5c1.3,0.4,2.7,0.9,3.1,1.1c9.2,3.6,17.7,4.9,21.1,3.1
		c5.3-2.7,6.3-8.7,2.5-14.7c-4.2-6.6-18.3-16.2-30.1-20.7c-3.2-1.2-5.8-2.7-17.9-10.3c-4.4-2.7-8.6-4.6-12.7-5.6
		C102.5,129.2,93.6,128.9,91.2,129.1 M158.9,129.3c-3.7,0.9-5.4,2.2-15.6,11.8c-1.8,1.6-2,3.2-0.6,4.3c1.7,1.4,3.4,0.6,7.8-3.6
		c7-6.7,8.3-7.4,12.3-7.5c2.9-0.1,3.4-0.4,3.8-2.2C167.1,129.5,163.4,128.2,158.9,129.3 M178.9,129.9c-4.5,0.6-9,3.1-17.6,9.6
		c-2.4,1.8-4.7,3.6-5.2,3.9c-5.4,3.9-6,4.7-4.7,6.6c1.1,1.6,3.7,1.6,5.1,0c0.1-0.1,1.4-1.1,2.9-2.3c14.4-11,17.3-12.6,23-12.6
		c3.3,0,4-0.5,4-2.6c0-1.5-1-2.6-2.5-2.6c-0.6,0-1.5-0.1-2.1-0.1C181,129.7,179.8,129.7,178.9,129.9 M195.9,133.7
		c-6.5,1-15.5,5.3-27.8,13.2c-2.4,1.6-2.7,1.7-3.3,2c-0.3,0.1-0.6,0.3-0.6,0.5c0,0.1-0.3,0.3-0.6,0.4c-1.7,0.6-4.2,2.7-4.4,3.8
		c-0.6,2.9,2.4,4.2,5.1,2.2c0.5-0.4,1.2-0.9,1.5-1c0.5-0.3,3.2-2,8.2-5.2c3.9-2.4,3.8-2.4,4.4-2.7c0.3-0.1,1-0.6,1.7-1
		c1.7-1.1,7.6-4.1,9-4.6c0.6-0.2,1.7-0.6,2.4-0.9c5-1.9,8.7-1.8,11.9,0.2c1.5,0.9,1.9,0.9,3.2-0.2c2.2-1.9,0.4-5.1-3.4-6
		c-3.1-0.7-3.7-0.8-5-0.8C197.3,133.5,196.3,133.6,195.9,133.7 M60.1,160v24.8l-8.2,0.1c-6.4,0.1-8.3,0-8.5-0.3
		c-0.3-0.5-0.4-48.2-0.1-48.9c0.2-0.5,1.1-0.5,8.5-0.4l8.3,0.1V160"/>
	<path id="path2" class="st0" d="M132,10c-0.9,0.9-0.9,1-0.8,2.7c0.2,4.9,5,4.7,5-0.2C136.2,9.6,133.7,8.1,132,10 M89.5,25.7
		c-2.2,0.9-1.7,3.1,1.4,6.2c2.6,2.7,3.4,3,5,2c2-1.4,1.8-2.3-1.4-5.7C91.7,25.3,91.2,25,89.5,25.7 M131.3,25.6
		c-2.4,0.6-3.9,2.2-5.8,6c-0.7,1.3-1.4,2.7-1.5,3c-0.8,1.5-4.8,9.7-6,12.2c-1.7,3.5-2,3.9-5,4.2c-1.3,0.1-4.4,0.6-6.9,1
		s-5.6,0.9-6.8,1.1c-3.1,0.5-6.9,1.2-8.1,1.4c-2.8,0.7-5,4.5-4.6,7.9c0.3,2.5,0.8,3.2,6.4,8.6c2.7,2.6,6.5,6.4,8.4,8.3l3.5,3.5l0,2
		c0,2.1-0.2,3.1-1.1,8.2c-0.3,1.6-0.7,3.8-0.8,4.9c-0.2,1.1-0.6,3.8-1,6.1c-1.6,9,3.9,13.7,11.4,9.8c1.5-0.8,4.6-2.4,6.9-3.6
		c2.3-1.2,5.2-2.7,6.3-3.3c7.1-3.8,6.1-3.9,16,1.5c10.8,5.9,14.3,7.3,16.6,6.5c5.1-1.9,6.3-4.7,5.1-11.8c-0.8-4.3-1.3-7.7-1.9-11.3
		c-0.3-1.8-0.7-4-0.8-5c-0.6-3.6-1.2-2.8,8.6-12.4c9.8-9.7,10.2-10.2,9.8-13.5c-0.5-4.1-4.3-7.1-8.9-7.1c-0.6,0-1.8-0.2-2.6-0.3
		c-0.8-0.2-2.5-0.5-3.7-0.6c-13.3-1.7-15.4-2.3-15.4-4.4c0-0.4-0.1-0.8-0.3-0.8c-0.1-0.1-1.8-3.2-3.6-6.9c-1.8-3.7-3.8-7.7-4.3-8.7
		c-0.9-1.9-2.7-4.4-3.3-4.6c-0.1-0.1-0.5-0.4-0.9-0.7C136.4,25.7,132.8,25.2,131.3,25.6 M173.7,26.4c-4.8,4.2-5.7,8-1.8,8
		c1.9,0,6.2-4.5,6.2-6.5C178.1,25.3,175.8,24.5,173.7,26.4 M134.4,30.9c0.3,0.2,1.5,2.2,2.6,4.5c5.5,11.1,8.6,17.2,9.1,17.9
		c1,1.2,3.4,2.5,5.3,2.7c0.7,0.1,3.7,0.5,6.6,1c2.9,0.4,6.5,1,7.9,1.2c6.7,0.9,7.4,1.1,8.4,2.1c1.2,1.2,0.8,1.7-8.3,10.7
		c-11.6,11.5-11.1,9.8-8.2,25.6c2.1,11.3,2.1,12,0.6,12.9l-1,0.6l-2.7-1.3c-1.5-0.7-4.1-2.1-5.8-3c-16.9-9-15.1-8.8-26.1-2.9
		c-2.6,1.4-7.7,4.1-10.9,5.8c-4.3,2.2-5.9,0.9-4.8-3.9c0.4-1.6,0.7-3.8,0.8-4.9c0.1-1.1,0.5-3.7,1-5.8c2.6-13.1,3.5-11.3-12.2-26.7
		c-7-6.9-7-7.3,1-8.6c10.2-1.6,14-2.2,16.3-2.4c4.8-0.5,5.8-1.4,9-7.8c1.3-2.5,2.4-4.8,2.6-5.1c0.3-0.6,3.7-7.5,4.5-9.4
		C131.4,31,132.8,30,134.4,30.9 M187.2,67.9c-1.8,1.3-1.6,3.7,0.4,4.6c3.7,1.5,7.3-1.6,4.8-4.2C191.6,67.3,188.5,67.1,187.2,67.9
		 M73.6,68.5c-1.5,1.6-0.7,3.5,1.7,4.2c3.6,1,6.4-1.5,4.4-4C78.7,67.4,74.6,67.3,73.6,68.5 M88.6,110.9c-1.5,0.8-5.3,5.3-5.3,6.2
		c0,1.2,1.4,2.5,2.6,2.5c1.1,0,5.2-3.5,6.1-5.2C93.1,112.2,90.7,109.7,88.6,110.9 M175.1,111.5c-1.8,1.4,0.6,5.8,4,7.6
		c2.5,1.3,5-0.8,3.8-3C180.6,112.2,176.9,110,175.1,111.5 M132.1,122.4c-0.8,0.7-1.4,3.1-1,4.2c1.1,2.9,4.6,2.7,5-0.4
		C136.7,122.8,134.3,120.6,132.1,122.4"/>
	<path id="path3" class="st0" d="M91.3,128.6c-1.9,0.1-3.7,0.4-4,0.5c-0.3,0.1-1.3,0.3-2.2,0.5c-1.9,0.3-4.1,0.9-5.7,1.5
		c-1.4,0.5-6.5,2-11.2,3.4c-1.6,0.5-2.1,0.2-2.1-1c0-1.7-1.3-3.3-3.4-4.1c-1.4-0.5-20.3-0.6-21.8,0c-4,1.4-3.9,0.9-3.9,30.7
		c0,29.6-0.1,28.8,3.1,30.5c1.6,0.8,22,0.8,23.3,0c2-1.3,2.7-2.4,2.7-4.6c0-2.5,0.2-2.7,2.1-2.5c0.9,0.1,2.7,0.4,4.2,0.5
		c1.4,0.2,3.2,0.4,3.9,0.6c0.7,0.2,1.8,0.3,2.5,0.3c0.7,0,1.3,0.1,1.4,0.3c0.1,0.2,0.7,0.4,1.4,0.5c1.6,0.3,4.4,1.2,4.8,1.5
		c0.2,0.2,0.6,0.3,1,0.3s0.9,0.2,1.1,0.5c0.2,0.3,0.6,0.5,0.8,0.5c0.4,0,2.4,0.9,2.7,1.3c0.1,0.1,2.8,1.5,6,3c3.2,1.6,6,3,6.3,3.2
		c0.3,0.2,0.7,0.4,1,0.5c0.3,0.1,0.9,0.4,1.5,0.6c0.5,0.2,1.8,0.8,2.8,1.2c1,0.4,2.1,0.9,2.6,1c0.4,0.1,1.1,0.3,1.5,0.5
		c1.6,0.6,3.9,1.3,4.5,1.3c0.4,0,0.8,0.1,1,0.3c0.2,0.2,1.3,0.5,2.6,0.7c1.2,0.2,3.1,0.5,4.2,0.7c2.6,0.4,11.6,0.4,13.7,0
		c0.9-0.2,2.5-0.5,3.4-0.7c0.9-0.2,1.8-0.5,2-0.6c0.2-0.2,0.8-0.3,1.3-0.3c0.5,0,1.2-0.2,1.6-0.4c0.4-0.2,1.1-0.5,1.7-0.6
		c1.3-0.3,2.8-0.9,6.2-2.2c0.4-0.1,1.3-0.5,2.1-0.8c0.8-0.3,1.9-0.7,2.4-1c0.5-0.2,1.8-0.8,2.9-1.3c4.4-1.9,16.8-8.1,17.3-8.6
		c0.1-0.1,1.3-0.7,2.6-1.4c1.3-0.7,2.9-1.5,3.4-1.8c0.5-0.3,1.6-0.9,2.3-1.3c0.7-0.4,2.5-1.3,3.9-2.1c1.4-0.8,2.9-1.6,3.3-1.8
		c0.4-0.2,0.7-0.5,0.7-0.6c0-0.1,0.2-0.3,0.5-0.3c0.3,0,1.8-0.8,3.3-1.7c1.6-0.9,3.1-1.8,3.3-1.9c0.3-0.1,0.9-0.5,1.5-0.9
		c0.5-0.4,1.3-0.8,1.6-0.9c0.4-0.2,1.4-0.8,2.4-1.5c1-0.6,1.8-1.2,1.9-1.2c0.1,0,1.4-0.9,3.1-2c1.6-1.1,3.2-2.2,3.5-2.3
		c0.6-0.4,3-2.2,3.3-2.4c0.1-0.1,0.8-0.7,1.7-1.4c1.7-1.4,5.1-4.8,5.1-5.1c0-0.1,0.2-0.4,0.4-0.7c4.6-4.6,1.7-12.9-5.1-14.6
		c-2.6-0.7-10.4-0.2-11.3,0.8c-0.2,0.2-0.7,0.3-1.1,0.3c-0.5,0-1.2,0.2-1.8,0.5c-0.5,0.3-1.1,0.5-1.3,0.5c-0.4,0-3.5,1.3-6.8,2.7
		c-3.5,1.6-6.2,2.8-7,3.2c-0.4,0.2-3.6,1.9-7.1,3.6c-3.5,1.8-7.1,3.7-8.1,4.2s-3.6,1.9-5.8,3c-4.4,2.2-5.2,3-5.2,4.8
		c0,1.8,1.2,3,2.9,3c1.5,0.1,2-0.2,8.5-3.6c1.6-0.8,4.7-2.5,7-3.6c2.2-1.1,4.1-2.2,4.2-2.2c0.2-0.2,9.6-4.9,9.8-4.9
		c0.1,0,1.6-0.7,3.3-1.5c4.2-1.9,5.6-2.5,7.7-3c0.5-0.1,1.3-0.4,1.8-0.6c4-1.6,9.6-1.3,10.6,0.7c0.8,1.6-3.7,7.2-7.7,9.4
		c-0.3,0.2-0.7,0.5-0.9,0.7c-0.2,0.2-1.4,1-2.6,1.8c-1.2,0.8-2.3,1.5-2.4,1.6c-0.1,0.1-0.4,0.3-0.6,0.4c-0.3,0.1-0.9,0.5-1.3,0.8
		c-1.9,1.2-8.2,5.1-8.7,5.3c-0.3,0.1-1.3,0.7-2.3,1.4c-1,0.6-2.2,1.3-2.6,1.5c-0.4,0.2-1,0.5-1.4,0.7c-1.6,1-4.6,2.7-8.1,4.6
		c-1.1,0.6-3.1,1.7-4.5,2.4s-3,1.6-3.5,1.8c-0.5,0.2-1,0.6-1.1,0.8s-0.4,0.3-0.7,0.3s-0.8,0.2-1,0.4c-0.3,0.2-1.6,0.9-2.9,1.5
		c-1.3,0.6-3,1.4-3.6,1.8c-0.7,0.4-1.4,0.7-1.7,0.7c-0.2,0-0.6,0.2-0.9,0.5s-0.6,0.5-0.8,0.5s-1.7,0.6-3.3,1.3
		c-3.6,1.7-4.4,2-6.2,2.7c-0.8,0.3-1.9,0.8-2.5,1c-0.6,0.2-1.2,0.4-1.4,0.4s-0.6,0.1-0.9,0.3c-1,0.5-5.1,1.8-9,2.8
		c-4,1-14.2,0.9-17.4-0.1c-1.3-0.4-3.6-1-4.9-1.2c-0.5-0.1-1.1-0.3-1.3-0.4c-0.2-0.1-0.8-0.3-1.4-0.5c-1-0.2-2.4-0.8-3.7-1.5
		c-0.3-0.2-0.7-0.3-0.9-0.3c-0.6,0-6.4-2.8-13.8-6.6c-5.3-2.8-6.6-3.4-7-3.4c-0.2,0-0.7-0.2-1-0.5c-0.3-0.3-0.9-0.5-1.2-0.5
		c-0.3,0-0.8-0.1-1.2-0.3s-1.4-0.5-2.3-0.8c-4.7-1.3-6.1-1.6-11-2.2c-1.7-0.2-4-0.6-5.2-0.8l-2.1-0.4l-0.1-16.5
		c-0.1-17.8-0.1-17.8,1-18.1c0.4-0.1,1-0.3,1.4-0.5c0.6-0.2,1.9-0.6,4.9-1.4c0.7-0.2,1.4-0.5,1.6-0.6c0.2-0.2,0.6-0.3,0.9-0.3
		c0.3,0,1.7-0.4,2.9-0.8c12.6-4.2,22.8-4.3,30.8-0.1c1.3,0.7,7.5,4.4,9.2,5.5c0.5,0.3,1.1,0.7,1.3,0.8c0.3,0.1,0.6,0.3,0.6,0.4
		c0.1,0.1,0.9,0.6,1.8,1.2c0.9,0.5,1.9,1.1,2.3,1.3c1.4,0.8,7.9,4,9.6,4.6c2,0.8,9.1,4.3,9.4,4.5c0.1,0.1,0.7,0.5,1.3,0.8
		c1.8,1,6.3,3.9,6.9,4.5c0.2,0.2,1,0.8,1.8,1.4c7.2,5.5,9.6,11.6,5,12.4c-1.7,0.3-7-0.6-9.5-1.6c-0.6-0.2-1.3-0.4-1.7-0.4
		c-0.3,0-1-0.2-1.5-0.5c-0.5-0.3-1.2-0.5-1.5-0.5c-0.3,0-0.6-0.1-0.7-0.3c-0.1-0.2-0.6-0.4-1.1-0.4c-0.9-0.2-2.4-0.7-4.1-1.4
		c-0.5-0.2-1.8-0.7-2.8-1c-1-0.3-2.1-0.7-2.4-0.8c-0.4-0.1-2-0.7-3.6-1.3c-1.6-0.6-3.3-1.2-3.9-1.4c-0.5-0.2-1.3-0.4-1.8-0.5
		c-0.4-0.1-1.3-0.4-1.8-0.6c-0.6-0.3-1.4-0.5-1.8-0.5s-0.9-0.1-1-0.3c-0.1-0.2-0.6-0.3-1.1-0.3c-0.5,0-1.5-0.2-2.3-0.5
		c-2.9-0.9-7-1.6-12.6-2c-2.3-0.2-2.5-0.2-3.5,0.8c-2.2,2-0.8,5.6,2.1,5.6c0.8,0,2.1,0.1,2.8,0.3s2.4,0.5,3.8,0.6
		c1.3,0.2,3.4,0.5,4.7,0.8c1.2,0.3,2.9,0.7,3.6,0.8c0.8,0.2,1.7,0.4,2,0.6c0.3,0.2,0.9,0.3,1.3,0.3s1.1,0.2,1.7,0.4
		c1.6,0.7,3.2,1.2,4.1,1.4c0.4,0.1,1.1,0.3,1.5,0.5c0.9,0.4,5,1.9,5.8,2.1c0.4,0.1,1.1,0.4,1.7,0.6c0.6,0.3,1.2,0.5,1.5,0.5
		c0.3,0,0.9,0.2,1.4,0.5c0.5,0.3,1.2,0.5,1.4,0.5c0.3,0,0.6,0.1,0.8,0.3c0.2,0.1,1.2,0.5,2.3,0.8c1.1,0.3,2.5,0.8,3.1,1
		c2.8,1,4.4,1.5,5.2,1.5c0.5,0,1,0.2,1.2,0.4c0.7,0.7,9,0.5,10.5-0.2c4.2-2,6.6-8.4,4.6-12.4c-0.3-0.5-0.6-1.2-0.7-1.5
		c-0.9-2.2-4.1-6-7.4-8.6c-1.3-1-2.4-2-2.5-2.1c-0.3-0.4-4.6-3.2-4.8-3.2c-0.2,0-0.3-0.1-0.4-0.3c-0.3-0.7-13.6-7.8-14.6-7.8
		c-0.3,0-4.3-1.8-5.6-2.5c-0.5-0.3-1.2-0.6-1.5-0.8c-0.7-0.4-6.6-4-9.7-6c-1.5-1-3.2-2-3.7-2.3c-0.5-0.3-1.7-0.9-2.6-1.5
		c-0.9-0.5-1.8-1-2.1-1.1s-0.9-0.4-1.5-0.6c-2.4-1-3-1.3-4-1.5c-0.6-0.1-1.7-0.4-2.4-0.6C101.9,128.5,95.2,128.3,91.3,128.6
		 M159.3,128.6c-2.9,0.5-6.4,2.6-10,6.1c-1.2,1.2-3.1,2.9-4.1,3.8c-4.1,3.6-4.9,5.1-3.4,6.8c2.1,2.6,3.7,2,9.7-3.6
		c1.2-1.1,2.6-2.4,3.1-2.9c3.2-3,4.2-3.5,7.3-3.6c3.9-0.1,5.5-1.1,5.5-3.4C167.4,129,164.3,127.8,159.3,128.6 M104.3,129.7
		c4.1,1,8.3,2.9,12.7,5.6c12.1,7.6,14.7,9.1,17.9,10.3c11.8,4.4,25.9,14.1,30.1,20.7c3.8,6,2.8,12-2.5,14.7
		c-3.4,1.7-11.9,0.5-21.1-3.1c-0.4-0.1-1.7-0.6-3.1-1.1c-2-0.6-7.5-2.6-10-3.5c-0.3-0.1-1.3-0.4-2.3-0.7c-1-0.3-2.1-0.7-2.6-0.9
		c-0.9-0.3-3.4-1.1-5.2-1.5c-0.6-0.2-2.1-0.5-3.2-0.8c-3-0.8-9.3-1.8-11-1.8c-4.2,0-6.3-4.5-2.5-5.4c2.1-0.5,11.5,0.9,17.6,2.6
		c3.5,1,20.1,6.5,21.1,7c0.2,0.1,1.8,0.6,3.7,1.2c1.9,0.6,3.9,1.2,4.5,1.5c7.9,2.8,12.4,2.7,13.3-0.2c1.6-5.4-9.7-15-27-22.9
		c-1.2-0.6-2.3-1-2.4-1c-0.8,0-9-4.6-12.7-7.1c-0.8-0.6-1.7-1-1.8-1c-0.2,0-0.4-0.1-0.4-0.3c-0.2-0.4-6.2-4-8.5-5
		c-5.1-2.4-13.2-3.3-18.8-2.2c-6.1,1.2-8.6,1.8-10.7,2.6c-1.4,0.5-7.2,2.3-9.4,2.9c-1.2,0.3-2.7,0.8-3.2,1l-0.9,0.3v17.6
		c0,11.1,0.1,17.7,0.3,17.8c0.2,0.1,1.6,0.3,3.2,0.5c11,1.2,17.8,3,25.3,6.9c23.9,12.4,34.8,15,47.6,11.6c2.8-0.8,7.8-2.4,8.9-2.8
		c0.5-0.2,1.6-0.7,2.4-0.9c4.2-1.4,26.3-12,28.6-13.8c0.2-0.1,1.3-0.8,2.6-1.5c3.9-2.1,5.8-3.2,7-3.9c0.6-0.4,1.4-0.8,1.6-0.9
		c0.3-0.1,0.9-0.5,1.5-0.8c0.6-0.3,1.6-1,2.4-1.4c0.8-0.4,2.5-1.4,3.8-2.2c1.3-0.8,3-1.8,3.7-2.2c2.1-1.2,6.8-4.4,7-4.6
		c0.1-0.1,0.3-0.2,0.4-0.2c1.4,0,10.6-8.2,11.7-10.4c1.7-3.4-4.1-5.8-9.6-3.9c-0.5,0.2-2.2,0.7-3.7,1.2c-1.5,0.5-3.2,1.1-3.7,1.3
		c-0.5,0.2-1.6,0.7-2.4,1.1c-0.8,0.3-2.3,1-3.2,1.4c-1.9,0.8-9.7,4.8-16.4,8.2c-2.3,1.2-6,3.1-8.3,4.3c-2.2,1.2-4.2,2.2-4.4,2.4
		c-1,0.9-3.3,0-3.9-1.6c-0.7-1.7,0.2-2.7,3.9-4.6c1.8-0.9,5.6-2.9,8.5-4.4c5-2.7,17-8.6,19.3-9.6c1.2-0.5,3.9-1.7,5-2.1
		c2.1-0.9,4.6-1.7,7.8-2.6c14.2-3.9,22.3,5.9,12.9,15.7c-2.8,2.9-12.6,10.5-13.5,10.5c-0.1,0-0.6,0.3-1.2,0.8
		c-0.6,0.4-1.7,1.1-2.4,1.5c-1.5,0.8-1.6,0.9-3.8,2.3c-0.8,0.5-1.4,0.9-1.5,0.9c-0.1,0-1.1,0.6-2.2,1.2c-1.1,0.7-3,1.8-4.3,2.5
		s-2.5,1.4-2.8,1.6c-0.3,0.2-1.6,0.9-2.9,1.6c-1.3,0.7-2.5,1.4-2.7,1.5c-0.3,0.2-2.8,1.6-7.4,4.1c-2.7,1.5-13.2,6.7-15.7,7.8
		c-0.8,0.4-2.6,1.2-4,1.8c-1.4,0.6-2.7,1.2-2.8,1.2c-0.2,0-0.6,0.1-0.9,0.3c-1.1,0.6-2.8,1.3-3.1,1.3c-0.2,0-0.8,0.2-1.3,0.4
		c-2.2,1-7.3,2.5-12.8,3.8c-4,0.9-12.8,0.4-20.2-1.2c-1.8-0.4-7.4-2.2-7.8-2.5c-0.2-0.2-0.5-0.3-0.7-0.3c-0.2,0-1.2-0.3-2.1-0.8
		c-0.9-0.4-2.5-1.1-3.5-1.5c-1.9-0.8-12.6-6.2-15-7.6c-2.8-1.6-8-3.3-13-4.2c-5.5-1-7-1.3-9.3-1.3l-2.3,0l-0.2,2.1
		c-0.2,2.4-0.9,3.9-2.2,4.8c-1.3,0.8-22.5,0.9-23.8,0c-2-1.3-1.9-0.2-1.9-29.7c0-29.4-0.1-28.2,1.9-29.6c1.1-0.8,21.4-1,23.3-0.2
		c1.4,0.6,2.6,2.6,2.6,4.1c0,1.3,0.7,1.5,3.1,0.7c0.7-0.2,2.1-0.7,3.1-1c2.9-0.8,5-1.5,5.7-1.8c1.7-0.7,10.6-2.7,13.6-3.1
		C93.6,128.9,102.5,129.2,104.3,129.7 M166,130c1.9,2.2,0.4,4.2-3.2,4.3c-4.1,0.1-5.3,0.9-12.3,7.5c-4.4,4.1-6.1,4.9-7.8,3.6
		c-1.4-1.1-1.2-2.7,0.6-4.3c12.1-11.4,13.5-12.2,19.4-12.1C165,129.1,165.3,129.2,166,130 M178.9,129.3c-0.4,0.2-1.1,0.3-1.7,0.3
		c-0.6,0-1.4,0.2-1.9,0.5c-0.5,0.3-1.9,0.9-3,1.5c-1.2,0.6-2.5,1.3-3.1,1.6c-0.5,0.3-1.2,0.7-1.5,0.9c-0.5,0.2-8.8,6.3-9.6,7
		c-0.6,0.5-0.9,0.8-3.8,2.9c-4.3,3.2-5.2,5.2-3.2,7c1.9,1.7,5.2,0.5,9.7-3.6c1.9-1.8,10.9-8.1,13-9.2c1.4-0.7,2.6-1.4,2.7-1.5
		c0.4-0.5,4.4-1,6.1-0.9c5.1,0.5,6.5-5.2,1.6-6.5C182.4,128.9,179.9,128.8,178.9,129.3 M183.8,129.9c1.5,0,2.5,1.1,2.5,2.6
		c0,2.1-0.7,2.6-4,2.6c-5.7,0-8.6,1.6-23,12.6c-1.5,1.1-2.8,2.2-2.9,2.3c-1.4,1.6-4,1.7-5.1,0c-1-1.5-0.9-1.7,0.5-3.2
		c1.1-1.1,1.7-1.6,4.3-3.5c0.5-0.4,2.9-2.1,5.2-3.9c10-7.5,15.5-10.2,20.3-9.7C182.3,129.8,183.2,129.9,183.8,129.9 M193.5,133.4
		c-0.4,0.1-0.8,0.3-1,0.4c-0.2,0.2-0.6,0.3-1,0.3c-0.7,0-2,0.5-4.2,1.5c-0.6,0.3-1.3,0.5-1.5,0.5c-0.3,0-0.5,0.1-0.5,0.3
		c0,0.2-0.2,0.3-0.4,0.3c-1,0-10.6,5.5-19.2,11c-0.4,0.3-2,1.3-3.5,2.2c-3.7,2.3-4.5,3.8-3.3,5.9c1,1.7,4.1,2.1,5.3,0.7
		c0.2-0.3,1.3-0.9,1.9-1.2c0.3-0.1,1.6-1,2.9-1.9c1.3-0.9,3-1.9,3.6-2.3c0.7-0.4,1.2-0.7,1.2-0.9c0-0.1,0.3-0.3,0.6-0.4
		c0.3-0.1,1-0.5,1.5-0.8c0.5-0.4,1.3-0.8,1.6-1c0.4-0.2,0.9-0.5,1.1-0.6c1.3-0.9,4.9-2.8,6.1-3.5c2.5-1.2,5.3-2.4,6-2.7
		c0.4-0.1,1.2-0.4,1.8-0.6c2.8-1,8.2-1.1,9.4-0.2c3.5,2.6,7.7,0,5.7-3.6c-0.4-0.8-2.8-2.7-3.3-2.7c-0.2,0-0.8-0.2-1.3-0.5
		C202.2,133.2,195.1,133,193.5,133.4 M200.9,133.8c0.7,0.2,1.7,0.4,2.3,0.5c3.8,0.9,5.6,4.2,3.4,6c-1.3,1.1-1.7,1.1-3.2,0.2
		c-3.2-2-6.9-2-11.9-0.2c-0.7,0.3-1.8,0.7-2.4,0.9c-1.4,0.5-7.2,3.5-9,4.6c-0.7,0.4-1.5,0.9-1.7,1c-0.5,0.2-0.5,0.2-4.4,2.7
		c-5,3.2-7.7,4.8-8.2,5.2c-0.3,0.2-1,0.6-1.5,1c-2.8,2-5.8,0.7-5.1-2.2c0.2-1.1,2.8-3.2,4.4-3.8c0.3-0.1,0.6-0.3,0.6-0.4
		c0-0.1,0.3-0.3,0.6-0.5c0.6-0.2,0.9-0.4,3.3-2C184.1,136.6,194.6,132.4,200.9,133.8 M43.3,135.6c-0.3,0.8-0.2,48.5,0.1,48.9
		c0.2,0.3,2.1,0.4,8.5,0.3l8.2-0.1V160v-24.8l-8.3-0.1C44.5,135.1,43.5,135.1,43.3,135.6 M59.3,135.9c0.2,0.2,0.3,7.8,0.3,24.4
		l-0.1,24.1l-6.5,0.1c-3.6,0.1-7.1,0-7.8-0.1l-1.4-0.2V160v-24.2l0.9-0.1C47,135.4,59,135.6,59.3,135.9"/>
	<path id="path4" class="st0" d="M131.8,8.7c-2,1.3-2.4,5.5-0.7,7.3c1.4,1.4,3.6,1.4,5.1-0.2C139.5,12.6,135.5,6.3,131.8,8.7
		 M135.3,10c1.7,1.5,1,5.7-1.1,6.2c-2,0.5-3.4-1.7-3.1-4.9C131.3,9.5,133.8,8.7,135.3,10 M88.3,25.6c-2,2-1.6,3.6,1.8,6.9
		c3.2,3.2,4.9,3.6,7.1,1.7c1.9-1.6,1.3-3.3-2.5-7.1C91.4,23.8,90.3,23.5,88.3,25.6 M130.2,25c-2,0.7-3.8,2.7-5.1,5.4
		c-0.6,1.2-1.2,2.6-1.4,2.9c-2,4-5.7,11.3-6.2,12.5c-0.3,0.8-1,2-1.4,2.6c-0.8,1.3-0.8,1.3-10.6,2.7c-0.5,0.1-2.3,0.3-3.9,0.6
		c-6.1,1-7.8,1.2-9.2,1.4c-3.4,0.4-6.8,4.4-6.8,8c0,2.8,1.1,4.9,4.1,7.8c1.5,1.4,5.4,5.3,8.7,8.5l6,5.9v1.8c0,1-0.1,2.1-0.3,2.5
		c-0.3,0.7-1.3,6.1-2,11.1c-0.2,1.2-0.5,3.2-0.8,4.3c-1.8,7.8,1.3,12.7,8,12.7c2.1,0,2.8-0.1,3.8-0.8c0.7-0.4,3.8-2.1,6.9-3.7
		s7.3-3.7,9.2-4.7c1.9-1,3.9-1.8,4.3-1.8c0.6,0,9.6,4.4,10.6,5.2c0.5,0.4,4.1,2.3,4.4,2.3c0.1,0,1.6,0.8,3.3,1.8
		c8.1,4.7,16.4-0.9,13.9-9.4c-0.3-1.1-1-4.8-1.3-7.8c-0.1-1.1-0.4-2.7-0.6-3.6c-0.7-3.1-1.4-7.4-1.4-8.7c0-1.2,0.3-1.5,8.2-9.4
		c10-9.9,9.8-9.7,10.1-12.1c0.7-6.1-2-9.2-9.1-10.3c-1.7-0.3-4.5-0.7-6.2-1c-4.9-0.8-7.1-1.1-9.2-1.3c-1.1-0.1-2.7-0.4-3.6-0.7
		l-1.6-0.6l-4.1-8.2c-2.3-4.5-4.4-8.9-4.7-9.6c-0.3-0.8-0.7-1.4-0.8-1.4c-0.1,0-0.3-0.3-0.4-0.8C139.9,25.7,134.2,23.5,130.2,25
		 M171.6,27.2c-4,4-4.4,6.2-1.5,7.6c3.2,1.5,9.3-3.6,8.8-7.5C178.5,23.4,175.5,23.3,171.6,27.2 M94.5,28.2c3.2,3.4,3.4,4.3,1.4,5.7
		c-1.6,1.1-2.4,0.7-5-2c-3.1-3.1-3.6-5.4-1.4-6.2C91.2,25,91.7,25.3,94.5,28.2 M137,26.3c0.3,0.3,0.7,0.7,0.9,0.7
		c0.5,0.2,2.3,2.8,3.3,4.6c0.5,1.1,2.5,5,4.3,8.7c1.8,3.7,3.4,6.8,3.6,6.9c0.1,0.1,0.3,0.4,0.3,0.8c0,2.1,2.1,2.7,15.4,4.4
		c1.3,0.2,2.9,0.4,3.7,0.6c0.8,0.2,2,0.3,2.6,0.3c4.7,0,8.4,3,8.9,7.1c0.4,3.3,0,3.8-9.8,13.5c-9.7,9.6-9.2,8.8-8.6,12.4
		c0.2,1,0.5,3.3,0.8,5c0.6,3.6,1.2,7,1.9,11.3c1.2,7.1,0,9.9-5.1,11.8c-2.3,0.8-5.8-0.5-16.6-6.5c-9.9-5.4-8.9-5.4-16-1.5
		c-1.2,0.6-4,2.1-6.3,3.3c-2.3,1.2-5.4,2.8-6.9,3.6c-7.5,3.9-13-0.8-11.4-9.8c0.4-2.3,0.9-5,1-6.1c0.2-1.1,0.5-3.3,0.8-4.9
		c0.9-5.1,1.1-6.1,1.1-8.2l0-2l-3.5-3.5c-1.9-1.9-5.7-5.6-8.4-8.3c-5.6-5.5-6.1-6.2-6.4-8.6c-0.4-3.4,1.8-7.2,4.6-7.9
		c1.1-0.3,4.9-0.9,8.1-1.4c1.2-0.2,4.3-0.7,6.8-1.1s5.6-0.8,6.9-1c2.9-0.3,3.3-0.6,5-4.2c1.2-2.5,5.2-10.7,6-12.2
		c0.2-0.3,0.9-1.7,1.5-3c2.5-5.1,4.2-6.2,8.7-6C135.9,25.6,136.6,25.8,137,26.3 M177.6,26c1.9,1.6-2.7,8.4-5.7,8.4
		c-2.8,0-3.2-2.4-1-5.1C174.1,25.5,175.9,24.6,177.6,26 M132.5,30.8c-0.7,0.3-1.6,1.4-2.3,3c-0.9,1.9-4.2,8.8-4.5,9.4
		c-0.1,0.3-1.3,2.6-2.6,5.1c-3.3,6.5-4.3,7.3-9,7.8c-2.3,0.2-6.1,0.8-16.3,2.4c-7.9,1.3-8,1.7-1,8.6c15.7,15.3,14.8,13.5,12.2,26.7
		c-0.4,2.1-0.9,4.8-1,5.8c-0.1,1.1-0.5,3.3-0.8,4.9c-1.1,4.8,0.6,6.1,4.8,3.9c3.2-1.7,8.3-4.4,10.9-5.8c11-5.9,9.2-6.1,26.1,2.9
		c1.7,0.9,4.3,2.2,5.8,3l2.7,1.3l1-0.6c1.5-0.9,1.5-1.5-0.6-12.9c-2.9-15.8-3.4-14.1,8.2-25.6c9.1-9,9.5-9.5,8.3-10.7
		c-1-1-1.6-1.1-8.4-2.1c-1.4-0.2-5-0.7-7.9-1.2c-2.9-0.4-5.9-0.9-6.6-1c-1.9-0.3-4.3-1.5-5.3-2.7c-0.6-0.7-3.6-6.7-9.1-17.9
		C134.7,30.7,134.1,30.1,132.5,30.8 M134.3,32.1c0.2,0.1,0.5,0.6,0.6,1c0.1,0.4,0.6,1.3,0.9,1.9c0.7,1.1,3.5,6.8,6.1,12.3
		c3.1,6.6,5.2,9.1,7.7,9.1c0.5,0,1.7,0.2,2.8,0.5c1,0.2,3.2,0.6,4.8,0.8c14,1.8,16.3,2.3,16.3,3.7c0,0.6-6.5,7.4-11.7,12
		c-6.5,5.9-7.5,8.3-6.3,14.6c0.3,1.6,0.7,3.9,0.8,5.2c0.1,1.2,0.4,2.8,0.6,3.6c2.6,9.6,1.9,13.2-2.1,11c-1.7-0.9-5.7-3-12.5-6.6
		c-2.5-1.3-4.7-2.5-5-2.6c-3.7-2-5.6-1.5-15.5,3.8c-1.2,0.6-3.5,1.9-5.2,2.7c-1.7,0.9-3.5,1.9-4,2.2c-3.5,2.1-5.9,1.2-4.7-1.6
		c0.2-0.4,0.5-1.9,0.6-3.3c0.3-2.9,1.4-9.2,2.2-12.7c0.9-4,0.7-8.1-0.4-9.8c-0.8-1.2-11-11.6-12.5-12.7c-4.5-3.3-6.3-7-3.4-7
		c0.5,0,1.8-0.2,2.8-0.5c2.5-0.6,8-1.5,9.8-1.5c0.8,0,2.3-0.2,3.4-0.4c1-0.2,3.1-0.6,4.5-0.8c5.6-0.9,5.6-0.9,10.7-11.5
		c3.4-7.1,3.8-7.9,4-7.9c0.1,0,0.5-0.8,0.8-1.8C131.3,32.7,133,31.3,134.3,32.1 M74.4,66.7c-2.6,0.9-3.4,4-1.5,5.9
		c1.5,1.5,6.1,1.4,7.5-0.1c2-2.2,0.6-5.8-2.2-5.8c-0.7,0-1.7-0.1-2.2-0.1C75.4,66.6,74.7,66.6,74.4,66.7 M186.5,67.2
		c-1.6,1.2-1.8,4.3-0.3,5.5c3.6,3,10.4-0.7,7.8-4.3c-1-1.4-1.4-1.6-4.3-1.6C188.1,66.8,186.8,67,186.5,67.2 M192.5,68.3
		c1.8,1.9,0.7,4.1-2.1,4.5c-3,0.4-4.9-1.1-4.2-3.2C186.9,67.3,190.8,66.5,192.5,68.3 M79.7,68.6c1.9,2.5-0.8,5-4.4,4
		c-2.4-0.6-3.2-2.6-1.7-4.2C74.6,67.3,78.7,67.4,79.7,68.6 M174.8,110.2c-2.5,1.7-2.1,4,1.2,7.4l2.6,2.6h1.8c3.7,0,4.8-2.8,2.3-5.8
		C179,109.9,177,108.8,174.8,110.2 M86.6,111.4c-3.6,3.6-4,4.2-4,5.9c0,2.3,0.7,2.9,3.1,2.9h1.8l2.8-2.7c2.8-2.7,3.9-5.5,2.4-6
		c-0.2-0.1-0.4-0.3-0.4-0.5C92.3,109.2,88.5,109.5,86.6,111.4 M90.6,110.9c2.3,1,2.3,2.8,0.1,5c-4,4-5,4.4-6.6,2.9
		c-1.4-1.3-1.2-2.3,1.5-5.1C88.7,110.4,89.1,110.2,90.6,110.9 M178.6,111.5c2.1,1.6,4.6,4.7,4.6,5.8c0,0.8-1.5,2.2-2.5,2.2
		c-2,0-6.6-4.4-6.6-6.4C174.2,111.1,176.7,110.1,178.6,111.5 M131.3,121.6c-1.1,1-1.5,4.6-0.6,6.3c1,2,5,2.2,6,0.2
		C139,123.8,134.7,118.7,131.3,121.6 M135,122.1c1.5,0.8,1.6,5,0.2,6c-2.3,1.5-4.6-0.6-4-3.7C131.6,122.2,133.3,121.2,135,122.1"/>
</g>
</svg>
