<?xml version="1.0" encoding="utf-8"?>
<!-- Generator: Adobe Illustrator 25.4.1, SVG Export Plug-In . SVG Version: 6.00 Build 0)  -->
<svg version="1.1" id="svg" xmlns="http://www.w3.org/2000/svg" xmlns:xlink="http://www.w3.org/1999/xlink" x="0px" y="0px"
	 viewBox="0 0 188 214.5" style="enable-background:new 0 0 188 214.5;" xml:space="preserve">
<style type="text/css">
	.st0{fill-rule:evenodd;clip-rule:evenodd;fill:#FFFFFF;}
</style>
<g id="svgg">
	<path id="path0" class="st0" d="M37.1,9.3c-1.6,1.6-1.4,2.4,1.2,5c2.5,2.5,3.8,2.9,5.2,1.5C46.2,12.9,39.9,6.5,37.1,9.3 M55.5,8.6
		C54.2,9.1,51,12.9,51,14c0,1,1.8,2.5,3,2.5c1.1,0,4.3-2.6,5.1-4.2C60.2,10.2,57.8,7.8,55.5,8.6 M40.1,23.9
		c-4.4,2.7-5.2,7.6-1.3,7.6c1.4,0,5.1-3.3,5.4-4.8C44.7,24.3,42.2,22.6,40.1,23.9 M52.5,23.8c-2.2,1.2-1.9,3.2,1,5.9
		c4.4,4.1,8.1,0.5,3.9-3.8C54.9,23.2,54.1,22.9,52.5,23.8 M151.9,23.8c-2.2,1.2-2.1,2.8,0.6,5.4c2.4,2.3,3.3,2.7,4.7,2
		c2.2-1.2,2.2-2.7-0.3-5.2C154.2,23.2,153.5,22.9,151.9,23.8 M169.6,23.9c-4,2.5-5.2,6-2.4,7.5c2.5,1.4,7.8-4.6,6.1-6.8
		C172.2,23.3,171,23,169.6,23.9 M154.7,38.8c-4.7,2.9-5.6,7.8-1.5,7.8c1.2,0,4.2-2.6,5.1-4.3C159.5,40,156.8,37.4,154.7,38.8
		 M166.9,38.8c-2.8,1.7,0.4,7.8,4.2,7.8c3.9,0,2.3-6.2-2.1-8C167.8,38.1,168.1,38.1,166.9,38.8 M15.3,61.3c-1.4,1.2-1.3,2.9,0.3,4.3
		c3.3,3,6.9-0.7,3.7-3.8C17.8,60.3,16.6,60.1,15.3,61.3 M26.6,61.7c-1.4,1.5-1.6,3.1-0.4,4.2c2.6,2.5,6.9-2,4.4-4.7
		C29.4,60.1,28,60.2,26.6,61.7 M15.6,72.7c-2.1,2.1-1.3,4.9,1.5,4.9c1.3,0,3.5-2.1,3.5-3.4C20.5,71.5,17.7,70.6,15.6,72.7
		 M26.1,72.4c-2.1,2.7,1.6,6.8,4.3,4.7c1.5-1.2,1.4-2.7-0.3-4.6C28.8,71.2,27,71.2,26.1,72.4 M19.9,88.7C13.4,89.5,7.4,95.2,5.8,102
		C4.9,105.8,5.1,186,6,189.1c2.1,7,7.7,11.8,14.7,12.8c4.6,0.6,146.8,0.3,148.9-0.4c5.9-1.9,10.4-6.2,12.4-11.8
		c0.7-2,1.1-82.9,0.4-87c-0.8-5.1-4.9-10.5-9.4-12.6c-3.7-1.7-2.8-1.7-21-1.8c-9.3-0.1-17.3,0-17.7,0.1c-1.9,0.5-2.7,2.9-1.4,4.4
		l0.6,0.8l17.3,0.2c18.3,0.2,18.1,0.2,20.7,1.8c4.5,2.8,5.9,6.3,5.8,14.2L177,115l-82.8,0.1c-66,0.1-82.9,0-83.1-0.3
		c-0.5-0.8-0.3-10.6,0.2-12.2c1.3-3.7,3.2-6,6.5-7.7l1.9-1l17.6-0.2c9.7-0.1,17.8-0.3,18-0.4c1.7-1.1,1.5-3.7-0.3-4.6
		C54.1,88.3,23.6,88.2,19.9,88.7 M177,128.5v7.6H94H11l-0.1-7.3c0-4,0-7.5,0.1-7.7c0.1-0.3,16.1-0.4,83.1-0.3l82.9,0.1V128.5
		 M177.1,164.1c0.1,26,0.1,25.7-4.1,29.5c-1.2,1.1-1.9,1.5-4.4,2.5c-1.3,0.5-148,0.5-149.3,0c-2.4-1-2.9-1.3-4.2-2.4
		c-1.7-1.5-2.7-3.1-3.6-5.6c-0.7-2-1.1-45.5-0.4-46.1c0.1-0.1,37.5-0.2,83.1-0.1l82.9,0.1L177.1,164.1 M57.9,156
		c-33.6,0.2-30.8-0.1-32.4,3.1c-1.6,3.1-1.1,12.9,0.7,15.1c1.7,2,0,1.9,34.6,1.9c33.4,0,32.1,0.1,33.9-1.6c2.1-2,2.8-12.7,1-15.8
		C94,155.6,96.5,155.8,57.9,156 M114.8,156c-2.2,0.6-2.4,4.1-0.3,4.9c1.2,0.5,46.5,0.2,47.2-0.3c1.7-1.1,1.7-3.5,0.1-4.4
		C161.1,155.9,116.4,155.6,114.8,156 M90.7,161.6c0.3,0.3,0.3,1.8,0.3,4.6l-0.1,4.2l-30.2,0.1l-30.2,0.1l0-3.3c0-3.7,0-5.5,0.2-5.8
		C31.1,160.9,90.3,161.1,90.7,161.6 M114.7,170.9c-1.8,0.7-2.3,3.3-0.8,4.5c0.8,0.6,1.2,0.7,10.2,0.7h9.4l0.8-0.8
		c1.4-1.4,0.9-3.7-1-4.4C132.2,170.4,115.8,170.5,114.7,170.9"/>
	<path id="path2" class="st0" d="M92.1,21.3c-2.8,0.7-3.8,1.9-7.1,8.5c-5.2,10.6-7.4,14.7-7.9,15.1c-0.7,0.5-2.7,0.9-9.3,1.7
		c-3,0.4-5.9,0.8-6.5,1s-1.8,0.4-2.9,0.5c-3.8,0.4-7.6,1.7-7.6,2.6c0,0.2-0.2,0.6-0.5,0.8c-1.6,1.3-2.1,5.3-0.9,7.5
		c0.7,1.4,3.6,4.3,11.6,12l5.7,5.5v1.6c0,0.9-0.1,2.1-0.3,2.8c-0.2,0.6-0.5,2.6-0.8,4.4c-0.3,1.8-0.7,4-0.8,5
		c-0.4,1.9-1.2,7.2-1.5,9.7c-0.8,6.5,5.9,9.4,12.8,5.7c1.7-0.9,4.4-2.3,6-3.1c1.6-0.8,4.8-2.5,7.1-3.7c5.4-2.8,3.9-3,13.3,2
		c0.9,0.5,3.7,1.9,6.3,3.3c2.6,1.3,4.8,2.5,4.9,2.6c0.4,0.5,3.7,1,4.9,0.8c4.3-0.7,6.7-4.8,5.9-9.8c-2.1-12.1-3.3-19-3.3-20.1
		c0-1,0.6-1.7,8.2-9.2c4.5-4.5,8.5-8.6,8.9-9.3c0.8-1.4,1-4.8,0.3-6.1c-1.9-3.5-4-4.5-11.8-5.3c-1.1-0.1-3.3-0.4-4.9-0.7
		c-1.6-0.3-4.7-0.8-6.9-1.1c-4.6-0.7-4.8-0.8-6.2-4c-0.7-1.7-1.3-2.9-2.5-5.2c-0.4-0.7-1.4-2.8-2.3-4.7c-4.5-9.1-4.8-9.6-7.4-10.5
		C95.1,21,93.8,20.9,92.1,21.3 M95.5,26.9c0.4,0.4,1.9,3.2,3.3,6.2c8.8,18.3,6.9,16.6,21.5,18.8c16.3,2.4,16.2,2.2,9,9.2
		c-15.8,15.5-14.6,13.1-12.4,24.4c2.5,12.9,2.7,14.9,2.1,15.9c-0.8,1.2-3.4,1-5.1-0.4c-0.5-0.4-4.9-2.7-13.7-7.2
		c-6.6-3.3-7.1-3.3-15.9,1.5c-1.1,0.6-3.5,1.9-5.5,2.9c-2,1-4.4,2.3-5.4,2.9c-5,2.7-5.9,0.9-3.9-8.1c0.3-1.2,0.6-2.9,0.7-3.9
		c0.1-1,0.4-2.8,0.6-4c0.8-5.2,1-7.2,0.8-9.2l-0.2-2l-4.3-4.3c-2.4-2.3-6.2-6.1-8.6-8.4c-4.6-4.5-5.2-5.4-4.4-6.6
		c0.6-0.9,0.2-0.8,6.1-1.7c2.7-0.4,6.2-0.9,7.8-1.2c1.6-0.3,4.4-0.7,6.3-0.9c4.9-0.7,6.6-1.7,8.4-5.2c0.5-1.1,1.7-3.5,2.7-5.3
		c7.3-14.8,7-14.2,8.4-14.2C94.5,26.2,95.1,26.5,95.5,26.9"/>
	<path id="path3" class="st0" d="M37.7,8.1c-4.1,1.6,0.3,10,4.7,8.9c3-0.8,3.3-3.7,0.5-6.5C40.5,8.1,39.3,7.5,37.7,8.1 M55,8.3
		c-4.4,2.7-5.7,7.3-2.3,8.5c3.2,1,8.1-4,6.8-7C58.8,8,56.7,7.3,55,8.3 M42.3,10.7c2.7,2.9,2.4,5.8-0.7,5.8c-1.5,0-5.6-3.9-5.6-5.3
		C36.1,7.9,39.5,7.7,42.3,10.7 M58.4,9.2c1.7,1.4,1.4,2.6-1.5,5.4c-2.3,2.2-3.5,2.4-5,0.8c-1.5-1.6-1.2-2.3,1.5-5
		C55.7,8.1,56.7,7.9,58.4,9.2 M40.3,23.3c0,0.2-0.2,0.3-0.4,0.3c-1.1,0-4.1,3.9-4.1,5.3c0,2.5,2.1,3.9,4.4,2.8
		c3.8-1.7,5.7-6,3.5-7.9C42.7,23,40.3,22.6,40.3,23.3 M51.6,23.9c-1.8,1.7-1.4,3.3,1.4,6c2.7,2.6,4.3,2.9,6.1,1
		C62.1,27.7,54.8,20.9,51.6,23.9 M150.9,23.9c-1.6,1.6-1.3,3.2,1,5.6c3.1,3.1,5.3,3.6,6.7,1.3C160.8,26.9,153.8,20.8,150.9,23.9
		 M169.4,23.3c-4.2,2.5-5.6,7.2-2.4,8.5c3.7,1.5,9.2-6,6-8.2C172,22.9,170.3,22.8,169.4,23.3 M42.7,23.7c2.3,1,2.1,3.1-0.6,5.8
		c-4.2,4.2-8.3,1.2-4.5-3.2C39.9,23.6,41.1,23,42.7,23.7 M54.9,23.6c1.7,0.9,4.4,4.1,4.4,5.2c0,4-6,2.6-8.1-1.8
		C50.3,25,52.8,22.6,54.9,23.6 M154.3,23.7c1.3,0.7,4.5,4.3,4.5,5.1c0,1.7-1.8,3.2-3.4,2.8c-1.2-0.3-5-4.2-5-5.2
		C150.3,24.2,152.5,22.7,154.3,23.7 M172.1,23.7c2.2,1.2,2.1,3-0.4,5.6c-2.6,2.6-3.9,3-5.6,1.3C163.9,28.4,169.4,22.2,172.1,23.7
		 M154.5,38.2c-4.7,2.9-5.9,7.7-2.3,8.8c2.8,0.8,7.2-3.7,6.7-6.7C158.6,38.5,156,37.2,154.5,38.2 M166.2,38.7
		c-2.9,2.3,1.8,9.5,5.5,8.4c2.9-0.9,3.1-3.8,0.3-6.6C169.2,37.6,168.1,37.2,166.2,38.7 M157.8,39.5c1.4,1.5,1.1,2.7-1.8,5.4
		c-4.1,3.9-7.8,0.4-4-3.7C155,38,156.1,37.7,157.8,39.5 M169,38.6c4.4,1.8,5.9,8,2.1,8c-3.8,0-7-6.1-4.2-7.8
		C168.1,38.1,167.8,38.1,169,38.6 M15,60.9c-1.4,1-1.3,3.4,0.1,5c2.2,2.4,5.8,1.3,5.8-1.9C20.9,60.9,17.4,59.1,15,60.9 M26.8,60.8
		c-3,2.3-2.5,6.2,0.9,6.2c3.9,0,5.8-4.2,2.9-6.4C29.8,60,27.6,60.1,26.8,60.8 M19.3,61.8c3.1,3.1-0.4,6.8-3.7,3.8
		c-1.5-1.4-1.6-3.1-0.3-4.3C16.6,60.1,17.8,60.3,19.3,61.8 M30.5,61.3c2.5,2.6-1.8,7.1-4.4,4.7c-1.2-1.1-1-2.8,0.4-4.2
		C28,60.2,29.4,60.1,30.5,61.3 M17,71.1c-0.4,0.1-1.2,0.6-1.9,1.3c-2.9,2.9-0.2,7.1,3.4,5.3C22.5,75.7,21.3,70.3,17,71.1 M27.3,71.1
		c-2.5,0.3-3.2,3.7-1.3,5.7c1.9,1.9,4.2,1.8,5.5-0.3C33.1,74.1,30.4,70.7,27.3,71.1 M19.9,72.4c1,1.4,0.9,2.5-0.6,4
		c-2.1,2.1-4.9,1.3-4.9-1.3C14.4,72.3,18.4,70.3,19.9,72.4 M30,72.4c1.8,1.9,1.9,3.4,0.3,4.6c-2.7,2.1-6.4-2-4.3-4.7
		C27,71.2,28.8,71.2,30,72.4 M19.8,88.1c-1,0.2-1.9,0.5-2.1,0.6c-0.1,0.1-0.6,0.2-1,0.2s-0.8,0.1-0.9,0.3c-0.1,0.2-0.4,0.3-0.7,0.3
		c-2.6,0-7.9,6.2-9.6,11.3c-0.7,1.9-0.8,86-0.1,88c0.2,0.6,0.5,1.5,0.7,2c0.3,0.8,0.4,1.1,1.6,3.3c1.5,2.8,5.1,5.7,9.1,7.3l2.3,0.9
		h74.6c63.9,0,74.8-0.1,76.2-0.5c6.1-1.8,11.1-6.8,12.7-12.9c0.7-2.6,0.7-85.6,0-87.8c-1.8-5.9-5.9-10.3-11.7-12.4
		c-2-0.7-5.3-0.9-20.4-1L134,87.7l-1.1,0.9c-1,0.8-1.1,1.1-1.1,2.5c0.1,3.5-0.3,3.4,19.3,3.4h16.7l1.7,0.8c1,0.4,1.9,1,2.2,1.3
		c0.2,0.3,0.6,0.5,0.7,0.5c0.4,0,2.5,2.3,2.5,2.8c0,0.2,0.2,0.4,0.3,0.4c0.2,0,0.3,0.2,0.3,0.5s0.1,0.7,0.3,1.1
		c0.7,1.3,1,4.4,0.9,8.3l-0.1,4.2H94H11.3l0-5c0-5.4,0.1-6.1,1.3-8.6c1.1-2.4,4.7-5.7,6.1-5.7c0.3,0,0.6-0.1,0.7-0.3
		c0.1-0.2,6.3-0.3,17.5-0.3c14.7,0,17.5-0.1,18.2-0.5c2.6-1.4,2.6-4.5,0-5.8C53.8,87.6,23,87.5,19.8,88.1 M55.1,88.8
		c1.8,0.9,1.9,3.5,0.3,4.6c-0.2,0.1-8.3,0.3-18,0.4L19.7,94l-1.9,1c-3.3,1.6-5.2,3.9-6.5,7.7c-0.5,1.5-0.7,11.4-0.2,12.2
		c0.2,0.3,17,0.4,83.1,0.3L177,115l0.1-5.2c0.1-7.9-1.3-11.4-5.8-14.2c-2.5-1.6-2.4-1.6-20.7-1.8l-17.3-0.2l-0.6-0.8
		c-1.3-1.6-0.5-3.9,1.4-4.4c0.4-0.1,8.4-0.1,17.7-0.1c18.2,0.1,17.3,0.1,21,1.8c4.5,2.1,8.5,7.5,9.4,12.6c0.7,4,0.3,85-0.4,87
		c-2,5.6-6.5,10-12.4,11.8c-2.1,0.7-144.3,1-148.9,0.4c-7-1-12.6-5.9-14.7-12.8C5.1,186,4.9,105.8,5.8,102
		c1.6-6.8,7.6-12.5,14.1-13.3C23.6,88.2,54.1,88.3,55.1,88.8 M11,121.1c-0.1,0.2-0.1,3.7-0.1,7.7l0.1,7.3h83h83v-7.6v-7.6l-82.9-0.1
		C27.1,120.7,11.1,120.8,11,121.1 M176.8,128.4c0,6.2-0.1,7.1-0.5,7.3c-1.1,0.4-164.4,0.2-164.8-0.2c-0.3-0.3-0.4-2.4-0.4-7.3v-6.9
		H94h82.8V128.4 M11,141.9c-0.6,0.6-0.2,44.1,0.4,46.1c0.9,2.5,1.9,4.1,3.6,5.6c1.3,1.1,1.9,1.4,4.2,2.4c1.3,0.5,148,0.5,149.3,0
		c2.5-1,3.2-1.4,4.4-2.5c4.2-3.8,4.2-3.5,4.1-29.5l-0.1-22.2l-82.9-0.1C48.6,141.8,11.2,141.8,11,141.9 M176.3,142.3
		c0.7,0.3,0.8,41.8,0,44.6c-0.9,3.5-4.3,8-6.1,8c-0.2,0-0.5,0.1-0.6,0.2c-1.1,1.1-1.7,1.1-75.5,1.1c-63.7,0-73-0.1-74.4-0.5
		c-1.6-0.5-5.4-2.7-5.4-3.2c0-0.1-0.4-0.8-0.9-1.5c-2.2-2.8-2.1-2.1-2.2-26.5l-0.1-22.1l0.9-0.1C13.5,142.1,175.8,142,176.3,142.3
		 M28.2,155.8c-3.2,1.2-3.8,2.6-3.8,10.1c0,6.9,0.3,8.1,2.5,9.6c2,1.3,1.8,1.3,35.3,1.2l30.6-0.1l1.5-1.1c2.4-1.7,2.6-2.4,2.6-9.5
		c0-7-0.2-7.6-2.4-9.4l-1.2-1l-31.9-0.1C35,155.4,29.2,155.4,28.2,155.8 M114.2,155.6c-2.1,0.9-2.1,4.6,0.1,5.8
		c1.2,0.6,46.4,0.5,47.6-0.1c1.8-0.9,2.1-3.9,0.6-5.2C161.8,155.4,115.8,155,114.2,155.6 M93.9,156.7c3.5,2.1,4.1,14.8,0.8,17.8
		c-1.8,1.6-0.5,1.6-33.9,1.6c-34.6,0-32.9,0.1-34.6-1.9c-1.8-2.1-2.3-12-0.7-15.1c1.6-3.1-1.2-2.9,32.4-3.1
		C91.7,155.8,92.5,155.8,93.9,156.7 M161.9,156.3c1.7,0.9,1.6,3.2-0.1,4.4c-0.7,0.5-46,0.7-47.2,0.3c-2.1-0.8-1.9-4.3,0.3-4.9
		C116.4,155.6,161.1,155.9,161.9,156.3 M30.8,161.4c-0.2,0.3-0.3,2.1-0.2,5.8l0,3.3l30.2-0.1l30.2-0.1l0.1-4.2
		c0.1-2.8,0-4.3-0.3-4.6C90.3,161.1,31.1,160.9,30.8,161.4 M90.4,165.9l-0.1,4.1H60.7H31.1l-0.1-4.1l-0.1-4.1h29.8h29.8L90.4,165.9
		 M114.2,170.5c-1.9,0.8-2.2,3.5-0.6,5.2l0.8,0.8l9.3,0.1c9.3,0.1,9.3,0.1,10.4-0.7c1.9-1.2,1.7-4.5-0.2-5.4
		C133,170.1,115.2,170.1,114.2,170.5 M133.4,170.9c1.9,0.7,2.4,3,1,4.4l-0.8,0.8h-9.4c-9,0-9.4,0-10.2-0.7c-1.5-1.2-1-3.7,0.8-4.5
		C115.8,170.5,132.2,170.4,133.4,170.9"/>
	<path id="path4" class="st0" d="M91.4,20.6c-2.9,0.9-3.5,1.8-9.3,13.4l-5.2,10.5l-2.1,0.4c-1.2,0.2-3.6,0.6-5.4,0.8
		c-17.1,2.3-17,2.3-18.8,4.2c-2.3,2.3-3,5.5-2.1,8.7c0.4,1.3,7.6,8.8,14.8,15.4c3.1,2.9,3.2,3,2.4,6.7c-0.3,1.6-0.8,4.3-1,5.9
		c-0.5,3.6-1.6,9.7-2,12.3c-1.4,7.6,5.7,11.5,13.6,7.5C83,103,92,98.4,92.9,97.9c1-0.6,1-0.6,2.6,0.2c0.9,0.5,3.2,1.7,5.3,2.8
		c15.4,8.1,16,8.3,19.3,7.1c4.6-1.7,6.2-5.8,4.8-12.1c-0.3-1.2-0.9-4.3-1.3-7c-0.5-2.7-1.1-6-1.3-7.4c-0.9-4.7-2.5-2.5,12.7-17.3
		c5.8-5.6,6.6-9.8,2.8-13.8c-2.1-2.2-3.3-2.6-10-3.4c-4.3-0.5-12.3-1.7-14.8-2.2c-1.8-0.4-1.9-0.4-2.8-2.2c-0.5-1-1.1-2.1-1.2-2.4
		c-0.2-0.3-1.1-2.2-2-4.1C99.4,20.4,97.8,18.7,91.4,20.6 M96.6,21.5c2.6,0.9,2.9,1.4,7.4,10.5c0.9,1.9,2,4,2.3,4.7
		c1.2,2.3,1.8,3.5,2.5,5.2c1.4,3.2,1.6,3.3,6.2,4c2.2,0.3,5.3,0.8,6.9,1.1c1.6,0.3,3.8,0.6,4.9,0.7c7.8,0.8,9.9,1.8,11.8,5.3
		c0.7,1.3,0.5,4.7-0.3,6.1c-0.4,0.7-4.4,4.9-8.9,9.3c-7.6,7.5-8.2,8.2-8.2,9.2c0,1.1,1.1,8,3.3,20.1c0.9,5-1.5,9.1-5.9,9.8
		c-1.2,0.2-4.4-0.3-4.9-0.8c-0.1-0.1-2.3-1.3-4.9-2.6c-2.6-1.3-5.4-2.8-6.3-3.3c-9.4-5.1-8-4.8-13.3-2c-2.3,1.2-5.5,2.8-7.1,3.7
		c-1.6,0.8-4.3,2.2-6,3.1c-7,3.7-13.6,0.8-12.8-5.7c0.3-2.5,1.1-7.9,1.5-9.7c0.2-1,0.6-3.2,0.8-5c0.3-1.8,0.6-3.8,0.8-4.4
		c0.2-0.6,0.3-1.9,0.3-2.8v-1.6L61.1,71c-8-7.7-10.9-10.7-11.6-12c-1.1-2.2-0.7-6.2,0.9-7.5c0.3-0.2,0.5-0.6,0.5-0.8
		c0-0.9,3.8-2.2,7.6-2.6c1.1-0.1,2.4-0.3,2.9-0.5s3.4-0.6,6.5-1c6.5-0.8,8.6-1.2,9.3-1.7c0.5-0.4,2.7-4.5,7.9-15.1
		c1.5-3.1,3.1-5.9,3.5-6.3C90.9,21.2,93.8,20.5,96.6,21.5 M92.4,27.1c-0.4,0.5-1.7,2.9-2.9,5.4c-1.2,2.5-3,6-3.9,7.9
		c-0.9,1.9-2.1,4.3-2.7,5.3c-1.7,3.5-3.4,4.5-8.4,5.2c-1.9,0.3-4.7,0.7-6.3,0.9c-1.6,0.3-5.1,0.8-7.8,1.2c-5.9,0.9-5.5,0.8-6.1,1.7
		c-0.8,1.3-0.2,2.2,4.4,6.6c2.3,2.3,6.2,6,8.6,8.4l4.3,4.3l0.2,2c0.2,1.9,0,3.9-0.8,9.2c-0.2,1.2-0.5,3.1-0.6,4
		c-0.1,1-0.5,2.7-0.7,3.9c-2,8.9-1.1,10.7,3.9,8.1c1-0.6,3.5-1.8,5.4-2.9c2-1,4.4-2.3,5.5-2.9c8.8-4.8,9.3-4.9,15.9-1.5
		c8.8,4.4,13.2,6.8,13.7,7.2c1.7,1.4,4.3,1.6,5.1,0.4c0.6-0.9,0.3-3-2.1-15.9c-2.2-11.3-3.4-8.9,12.4-24.4c7.1-7,7.3-6.9-9-9.2
		c-14.7-2.1-12.8-0.5-21.5-18.8C95.3,25.9,94.1,24.7,92.4,27.1 M95.2,28.1c0.3,0.5,2,3.7,3.7,7.2c1.7,3.5,3.3,6.7,3.6,7.1
		s0.9,1.8,1.5,3.1c2,4.4,3.5,5.4,9.3,6.2c1.9,0.3,3.7,0.5,3.9,0.6c0.3,0.1,1.7,0.3,3.2,0.5c1.5,0.2,4.5,0.6,6.6,0.9
		c7.8,1.3,7.9,0.9-2.5,11.2c-10.2,10.1-10.1,9.8-9.3,14.9c0.7,4.5,1,6.2,1.3,7.7c2.1,11,2.3,13.3,1.2,13.8
		c-0.7,0.3-9.7-3.9-12.5-5.9c-0.5-0.4-1.1-0.6-1.4-0.6c-0.3,0-0.5-0.1-0.6-0.3c-0.1-0.1-1.7-1-3.5-1.9c-4.2-2.1-7.3-2.3-9.9-0.9
		c-1.5,0.9-6.8,3.7-10.5,5.6c-1.3,0.7-3.5,1.8-4.9,2.6c-5,2.8-5.7,2.1-4.7-3.8c0.5-3,0.9-5.4,1.5-8.7c0.2-1.2,0.5-3,0.7-4
		c1.4-8.4,1.3-8.8-6.9-16.8c-3.6-3.5-6.6-6.5-6.8-6.6c-1.3-1.2-3.1-3.5-3.1-4c0-1.5,0.2-1.6,8.9-2.7c6.1-0.8,8.9-1.2,12.6-1.8
		c3.2-0.5,7.6-4.2,7.6-6.4c0-0.3,7.9-16.1,8.5-17c0.3-0.5,0.9-0.9,1.2-0.9S94.9,27.6,95.2,28.1"/>
</g>
</svg>
